<svg width="21" height="21" viewBox="0 0 21 21" fill="none" xmlns="http://www.w3.org/2000/svg">
<path d="M15.375 6.83337C15.375 5.47414 14.835 4.17058 13.8739 3.20945C12.9128 2.24833 11.6092 1.70837 10.25 1.70837C8.89077 1.70837 7.5872 2.24833 6.62608 3.20945C5.66495 4.17058 5.125 5.47414 5.125 6.83337C5.125 12.8125 2.5625 14.5209 2.5625 14.5209H17.9375C17.9375 14.5209 15.375 12.8125 15.375 6.83337Z" stroke="white" stroke-width="2" stroke-linecap="round" stroke-linejoin="round"/>
<path d="M11.7277 17.9375C11.5775 18.1964 11.362 18.4113 11.1026 18.5606C10.8433 18.71 10.5493 18.7886 10.25 18.7886C9.9507 18.7886 9.65667 18.71 9.39733 18.5606C9.138 18.4113 8.92245 18.1964 8.77228 17.9375" stroke="white" stroke-width="2" stroke-linecap="round" stroke-linejoin="round"/>
</svg>
