<svg width="705" height="1024" viewBox="0 0 705 1024" fill="none" xmlns="http://www.w3.org/2000/svg">
<path opacity="0.5" d="M109.18 925.948C137.421 925.948 160.316 948.828 160.316 977.051C160.316 1005.27 137.421 1028.15 109.18 1028.15C80.9386 1028.15 58.0444 1005.27 58.0444 977.051C58.0444 948.828 80.9386 925.948 109.18 925.948Z" fill="#EAEAEA"/>
<path d="M124.381 973.184L125.303 972.263L124.381 971.341C124.306 971.266 124.306 971.147 124.381 971.074C124.456 970.999 124.576 970.999 124.649 971.074L125.571 971.995L126.493 971.074C126.568 970.999 126.688 970.999 126.761 971.074C126.835 971.148 126.835 971.268 126.761 971.341L125.838 972.263L126.761 973.184C126.835 973.259 126.835 973.379 126.761 973.452C126.686 973.527 126.566 973.527 126.493 973.452L125.571 972.53L124.649 973.452C124.574 973.527 124.454 973.527 124.381 973.452C124.306 973.379 124.306 973.257 124.381 973.184Z" fill="black"/>
<path d="M116.808 973.184L117.73 972.263L116.808 971.341C116.733 971.266 116.733 971.147 116.808 971.074C116.883 970.999 117.002 970.999 117.075 971.074L117.998 971.995L118.92 971.074C118.995 970.999 119.114 970.999 119.187 971.074C119.262 971.148 119.262 971.268 119.187 971.341L118.265 972.263L119.187 973.184C119.262 973.259 119.262 973.379 119.187 973.452C119.113 973.527 118.993 973.527 118.92 973.452L117.998 972.53L117.075 973.452C117.001 973.527 116.881 973.527 116.808 973.452C116.733 973.379 116.733 973.257 116.808 973.184Z" fill="black"/>
<path d="M109.236 973.184L110.158 972.263L109.236 971.341C109.161 971.266 109.161 971.147 109.236 971.074C109.31 970.999 109.43 970.999 109.503 971.074L110.425 971.995L111.348 971.074C111.422 970.999 111.542 970.999 111.615 971.074C111.69 971.148 111.69 971.268 111.615 971.341L110.693 972.263L111.615 973.184C111.69 973.259 111.69 973.379 111.615 973.452C111.54 973.527 111.421 973.527 111.348 973.452L110.425 972.53L109.503 973.452C109.428 973.527 109.309 973.527 109.236 973.452C109.161 973.379 109.161 973.257 109.236 973.184Z" fill="black"/>
<path d="M101.663 973.184L102.585 972.263L101.663 971.341C101.588 971.266 101.588 971.147 101.663 971.074C101.738 970.999 101.858 970.999 101.931 971.074L102.853 971.995L103.775 971.074C103.85 970.999 103.97 970.999 104.043 971.074C104.117 971.148 104.117 971.268 104.043 971.341L103.12 972.263L104.043 973.184C104.117 973.259 104.117 973.379 104.043 973.452C103.968 973.527 103.848 973.527 103.775 973.452L102.853 972.53L101.931 973.452C101.856 973.527 101.736 973.527 101.663 973.452C101.588 973.379 101.588 973.257 101.663 973.184Z" fill="black"/>
<path d="M94.0903 973.184L95.0126 972.263L94.0903 971.341C94.0155 971.266 94.0155 971.147 94.0903 971.074C94.1651 970.999 94.2849 970.999 94.3578 971.074L95.2801 971.995L96.2023 971.074C96.2771 970.999 96.3969 970.999 96.4698 971.074C96.5447 971.148 96.5447 971.268 96.4698 971.341L95.5476 972.263L96.4698 973.184C96.5447 973.259 96.5447 973.379 96.4698 973.452C96.395 973.527 96.2753 973.527 96.2023 973.452L95.2801 972.53L94.3578 973.452C94.283 973.527 94.1633 973.527 94.0903 973.452C94.0155 973.379 94.0155 973.257 94.0903 973.184Z" fill="black"/>
<path d="M86.5178 973.184L87.44 972.263L86.5178 971.341C86.443 971.266 86.443 971.147 86.5178 971.074C86.5926 970.999 86.7123 970.999 86.7853 971.074L87.7076 971.995L88.6298 971.074C88.7046 970.999 88.8244 970.999 88.8973 971.074C88.9722 971.148 88.9722 971.268 88.8973 971.341L87.9751 972.263L88.8973 973.184C88.9722 973.259 88.9722 973.379 88.8973 973.452C88.8225 973.527 88.7028 973.527 88.6298 973.452L87.7076 972.53L86.7853 973.452C86.7105 973.527 86.5907 973.527 86.5178 973.452C86.443 973.379 86.443 973.257 86.5178 973.184Z" fill="black"/>
<path opacity="0.5" d="M202.875 492.724C211.175 501.02 211.175 514.469 202.875 522.764C194.574 531.059 181.116 531.059 172.816 522.764C164.515 514.469 164.515 501.02 172.816 492.724C181.116 484.429 194.574 484.429 202.875 492.724Z" fill="#EAEAEA"/>
<path d="M98.4529 465.257L98.4529 542.171H97.7588L97.7588 465.257H98.4529Z" fill="black"/>
<path d="M103.948 460.264L103.948 527.058H103.254L103.254 460.264H103.948Z" fill="black"/>
<path d="M149.995 711.151C149.995 710.527 149.489 710.02 148.864 710.02C148.239 710.02 147.732 710.527 147.732 711.151C147.732 711.776 148.239 712.282 148.864 712.282C149.489 712.282 149.995 711.776 149.995 711.151Z" fill="#FD4C38"/>
<path d="M149.995 716.324C149.995 715.7 149.489 715.193 148.864 715.193C148.239 715.193 147.732 715.7 147.732 716.324C147.732 716.948 148.239 717.455 148.864 717.455C149.489 717.455 149.995 716.948 149.995 716.324Z" fill="#FD4C38"/>
<path d="M149.995 721.494C149.995 720.87 149.489 720.363 148.864 720.363C148.239 720.363 147.732 720.87 147.732 721.494C147.732 722.118 148.239 722.625 148.864 722.625C149.489 722.625 149.995 722.118 149.995 721.494Z" fill="#FD4C38"/>
<path d="M149.995 726.667C149.995 726.042 149.489 725.536 148.864 725.536C148.239 725.536 147.732 726.042 147.732 726.667C147.732 727.291 148.239 727.798 148.864 727.798C149.489 727.798 149.995 727.291 149.995 726.667Z" fill="#FD4C38"/>
<path d="M149.995 731.842C149.995 731.217 149.489 730.711 148.864 730.711C148.239 730.711 147.732 731.217 147.732 731.842C147.732 732.466 148.239 732.973 148.864 732.973C149.489 732.973 149.995 732.466 149.995 731.842Z" fill="#FD4C38"/>
<path d="M149.995 737.014C149.995 736.39 149.489 735.883 148.864 735.883C148.239 735.883 147.732 736.39 147.732 737.014C147.732 737.639 148.239 738.146 148.864 738.146C149.489 738.144 149.995 737.639 149.995 737.014Z" fill="#FD4C38"/>
<path d="M149.995 742.184C149.995 741.56 149.489 741.053 148.864 741.053C148.239 741.053 147.732 741.56 147.732 742.184C147.732 742.809 148.239 743.315 148.864 743.315C149.489 743.315 149.995 742.809 149.995 742.184Z" fill="#FD4C38"/>
<path d="M149.995 747.357C149.995 746.733 149.489 746.226 148.864 746.226C148.239 746.226 147.732 746.733 147.732 747.357C147.732 747.982 148.239 748.488 148.864 748.488C149.489 748.488 149.995 747.982 149.995 747.357Z" fill="#FD4C38"/>
<path d="M149.995 752.529C149.995 751.905 149.489 751.398 148.864 751.398C148.239 751.398 147.732 751.905 147.732 752.529C147.732 753.154 148.239 753.66 148.864 753.66C149.489 753.66 149.995 753.154 149.995 752.529Z" fill="#FD4C38"/>
<path d="M149.995 757.701C149.995 757.077 149.489 756.57 148.864 756.57C148.239 756.57 147.732 757.077 147.732 757.701C147.732 758.325 148.239 758.832 148.864 758.832C149.489 758.832 149.995 758.325 149.995 757.701Z" fill="#FD4C38"/>
<path d="M149.995 762.875C149.995 762.25 149.489 761.744 148.864 761.744C148.239 761.744 147.732 762.25 147.732 762.875C147.732 763.499 148.239 764.006 148.864 764.006C149.489 764.006 149.995 763.499 149.995 762.875Z" fill="#FD4C38"/>
<path d="M149.995 768.047C149.995 767.422 149.489 766.916 148.864 766.916C148.239 766.916 147.732 767.422 147.732 768.047C147.732 768.671 148.239 769.178 148.864 769.178C149.489 769.178 149.995 768.671 149.995 768.047Z" fill="#FD4C38"/>
<path d="M149.995 773.219C149.995 772.594 149.489 772.088 148.864 772.088C148.239 772.088 147.732 772.594 147.732 773.219C147.732 773.843 148.239 774.35 148.864 774.35C149.489 774.35 149.995 773.845 149.995 773.219Z" fill="#FD4C38"/>
<path d="M155.797 705.976C155.797 705.352 155.29 704.845 154.665 704.845C154.041 704.845 153.534 705.352 153.534 705.976C153.534 706.601 154.041 707.107 154.665 707.107C155.29 707.107 155.797 706.601 155.797 705.976Z" fill="#FD4C38"/>
<path d="M155.797 711.148C155.797 710.524 155.29 710.017 154.665 710.017C154.041 710.017 153.534 710.524 153.534 711.148C153.534 711.773 154.041 712.279 154.665 712.279C155.29 712.279 155.797 711.773 155.797 711.148Z" fill="#FD4C38"/>
<path d="M155.797 716.321C155.797 715.697 155.29 715.19 154.665 715.19C154.041 715.19 153.534 715.697 153.534 716.321C153.534 716.946 154.041 717.452 154.665 717.452C155.29 717.452 155.797 716.946 155.797 716.321Z" fill="#FD4C38"/>
<path d="M155.797 721.493C155.797 720.869 155.29 720.362 154.665 720.362C154.041 720.362 153.534 720.869 153.534 721.493C153.534 722.117 154.041 722.624 154.665 722.624C155.29 722.624 155.797 722.117 155.797 721.493Z" fill="#FD4C38"/>
<path d="M155.797 726.666C155.797 726.041 155.29 725.535 154.665 725.535C154.041 725.535 153.534 726.041 153.534 726.666C153.534 727.29 154.041 727.797 154.665 727.797C155.29 727.797 155.797 727.29 155.797 726.666Z" fill="#FD4C38"/>
<path d="M155.797 731.839C155.797 731.214 155.29 730.708 154.665 730.708C154.041 730.708 153.534 731.214 153.534 731.839C153.534 732.463 154.041 732.97 154.665 732.97C155.29 732.97 155.797 732.463 155.797 731.839Z" fill="#FD4C38"/>
<path d="M155.797 737.011C155.797 736.386 155.29 735.879 154.665 735.879C154.041 735.879 153.534 736.386 153.534 737.011C153.534 737.635 154.041 738.142 154.665 738.142C155.29 738.142 155.797 737.637 155.797 737.011Z" fill="#FD4C38"/>
<path d="M155.797 742.182C155.797 741.558 155.29 741.051 154.665 741.051C154.041 741.051 153.534 741.558 153.534 742.182C153.534 742.807 154.041 743.313 154.665 743.313C155.29 743.313 155.797 742.807 155.797 742.182Z" fill="#FD4C38"/>
<path d="M155.797 747.355C155.797 746.731 155.29 746.224 154.665 746.224C154.041 746.224 153.534 746.731 153.534 747.355C153.534 747.98 154.041 748.486 154.665 748.486C155.29 748.486 155.797 747.98 155.797 747.355Z" fill="#FD4C38"/>
<path d="M155.797 752.529C155.797 751.905 155.29 751.398 154.665 751.398C154.041 751.398 153.534 751.905 153.534 752.529C153.534 753.154 154.041 753.66 154.665 753.66C155.29 753.66 155.797 753.154 155.797 752.529Z" fill="#FD4C38"/>
<path d="M155.797 757.701C155.797 757.077 155.29 756.57 154.665 756.57C154.041 756.57 153.534 757.077 153.534 757.701C153.534 758.325 154.041 758.832 154.665 758.832C155.29 758.832 155.797 758.325 155.797 757.701Z" fill="#FD4C38"/>
<path d="M155.797 762.873C155.797 762.248 155.29 761.742 154.665 761.742C154.041 761.742 153.534 762.248 153.534 762.873C153.534 763.497 154.041 764.004 154.665 764.004C155.29 764.004 155.797 763.497 155.797 762.873Z" fill="#FD4C38"/>
<path d="M155.797 768.046C155.797 767.421 155.29 766.915 154.665 766.915C154.041 766.915 153.534 767.421 153.534 768.046C153.534 768.67 154.041 769.177 154.665 769.177C155.29 769.177 155.797 768.67 155.797 768.046Z" fill="#FD4C38"/>
<path d="M201.363 678.292L202.841 676.815L201.363 675.338C201.244 675.22 201.244 675.028 201.363 674.908C201.483 674.79 201.674 674.79 201.794 674.908L203.271 676.385L204.749 674.908C204.869 674.79 205.062 674.79 205.179 674.908C205.299 675.026 205.299 675.218 205.179 675.338L203.702 676.815L205.179 678.292C205.299 678.411 205.299 678.604 205.179 678.722C205.062 678.841 204.869 678.841 204.749 678.722L203.269 677.245L201.792 678.722C201.672 678.841 201.481 678.841 201.361 678.722C201.245 678.604 201.245 678.411 201.363 678.292Z" fill="black"/>
<path d="M189.215 678.292L190.693 676.815L189.215 675.338C189.097 675.22 189.097 675.028 189.215 674.908C189.335 674.79 189.525 674.79 189.645 674.908L191.123 676.385L192.601 674.908C192.719 674.79 192.911 674.79 193.031 674.908C193.149 675.026 193.149 675.218 193.031 675.338L191.553 676.815L193.033 678.292C193.153 678.411 193.153 678.604 193.033 678.722C192.913 678.841 192.722 678.841 192.603 678.722L191.125 677.245L189.647 678.722C189.527 678.841 189.336 678.841 189.217 678.722C189.095 678.604 189.095 678.411 189.215 678.292Z" fill="black"/>
<path d="M177.065 678.292L178.543 676.815L177.065 675.338C176.947 675.22 176.947 675.028 177.065 674.908C177.185 674.79 177.377 674.79 177.495 674.908L178.973 676.385L180.451 674.908C180.569 674.79 180.763 674.79 180.881 674.908C181.001 675.026 181.001 675.218 180.881 675.338L179.403 676.815L180.881 678.292C181.001 678.411 181.001 678.604 180.881 678.722C180.763 678.841 180.571 678.841 180.451 678.722L178.973 677.245L177.495 678.722C177.377 678.841 177.185 678.841 177.065 678.722C176.947 678.604 176.947 678.411 177.065 678.292Z" fill="black"/>
<path d="M164.916 678.292L166.394 676.815L164.916 675.338C164.798 675.22 164.798 675.028 164.916 674.908C165.035 674.79 165.228 674.79 165.346 674.908L166.824 676.385L168.302 674.908C168.421 674.79 168.612 674.79 168.732 674.908C168.852 675.026 168.852 675.218 168.732 675.338L167.254 676.815L168.732 678.292C168.852 678.411 168.852 678.604 168.732 678.722C168.614 678.841 168.421 678.841 168.302 678.722L166.822 677.245L165.344 678.722C165.226 678.841 165.034 678.841 164.914 678.722C164.796 678.604 164.796 678.411 164.916 678.292Z" fill="black"/>
<path d="M152.766 678.292L154.244 676.815L152.766 675.338C152.647 675.22 152.647 675.028 152.766 674.908C152.884 674.79 153.077 674.79 153.197 674.908L154.674 676.385L156.152 674.908C156.272 674.79 156.463 674.79 156.583 674.908C156.702 675.026 156.702 675.218 156.583 675.338L155.105 676.815L156.584 678.292C156.702 678.411 156.702 678.604 156.584 678.722C156.465 678.841 156.272 678.841 156.154 678.722L154.676 677.245L153.198 678.722C153.079 678.841 152.886 678.841 152.768 678.722C152.648 678.604 152.648 678.411 152.766 678.292Z" fill="black"/>
<path d="M140.618 678.292L142.096 676.815L140.618 675.338C140.498 675.22 140.498 675.028 140.618 674.908C140.736 674.79 140.928 674.79 141.048 674.908L142.526 676.385L144.004 674.908C144.124 674.79 144.316 674.79 144.434 674.908C144.552 675.026 144.552 675.218 144.434 675.338L142.956 676.815L144.434 678.292C144.554 678.411 144.554 678.604 144.434 678.722C144.316 678.841 144.124 678.841 144.004 678.722L142.526 677.245L141.048 678.722C140.93 678.841 140.736 678.841 140.618 678.722C140.498 678.604 140.498 678.411 140.618 678.292Z" fill="black"/>
<path opacity="0.5" d="M332.486 813.865C351.61 813.865 367.112 829.358 367.112 848.47C367.112 867.581 351.61 883.074 332.486 883.074C313.362 883.074 297.859 867.581 297.859 848.47C297.859 829.358 313.362 813.865 332.486 813.865Z" fill="#EAEAEA"/>
<path d="M642.028 1087.58C602.8 1087.58 571 1055.44 571 1015.79C571 976.141 602.8 944 642.028 944C681.253 944 713.056 976.141 713.056 1015.79C713.056 1055.44 681.253 1087.58 642.028 1087.58ZM642.028 968.117C615.977 968.117 594.86 989.461 594.86 1015.79C594.86 1042.12 615.977 1063.46 642.028 1063.46C668.075 1063.46 689.192 1042.12 689.192 1015.79C689.192 989.461 668.075 968.117 642.028 968.117Z" fill="#590209"/>
<path d="M413.352 899.053L414.83 900.53L416.308 899.053C416.426 898.934 416.619 898.934 416.738 899.053C416.858 899.173 416.858 899.364 416.738 899.483L415.26 900.96L416.738 902.437C416.858 902.557 416.858 902.75 416.738 902.867C416.62 902.987 416.428 902.987 416.308 902.867L414.83 901.39L413.352 902.867C413.233 902.987 413.04 902.987 412.922 902.867C412.802 902.748 412.802 902.557 412.922 902.437L414.4 900.959L412.922 899.482C412.802 899.362 412.802 899.171 412.922 899.052C413.04 898.936 413.233 898.936 413.352 899.053Z" fill="black"/>
<path d="M413.353 886.914L414.83 888.391L416.308 886.914C416.426 886.796 416.619 886.796 416.739 886.914C416.858 887.034 416.858 887.224 416.739 887.344L415.261 888.821L416.739 890.298C416.858 890.416 416.858 890.608 416.739 890.728C416.621 890.846 416.428 890.846 416.308 890.728L414.83 889.251L413.353 890.73C413.233 890.849 413.04 890.849 412.922 890.73C412.803 890.61 412.803 890.419 412.922 890.3L414.4 888.821L412.922 887.344C412.803 887.224 412.803 887.034 412.922 886.914C413.04 886.794 413.233 886.794 413.353 886.914Z" fill="black"/>
<path d="M413.353 874.77L414.83 876.247L416.308 874.77C416.426 874.653 416.619 874.653 416.739 874.77C416.858 874.89 416.858 875.083 416.739 875.2L415.261 876.677L416.739 878.154C416.858 878.272 416.858 878.464 416.739 878.584C416.621 878.704 416.428 878.704 416.308 878.584L414.83 877.107L413.353 878.584C413.233 878.704 413.04 878.704 412.922 878.584C412.803 878.466 412.803 878.274 412.922 878.154L414.4 876.677L412.922 875.2C412.803 875.083 412.803 874.89 412.922 874.77C413.04 874.653 413.233 874.653 413.353 874.77Z" fill="black"/>
<path d="M413.353 862.63L414.83 864.107L416.308 862.63C416.426 862.512 416.619 862.512 416.739 862.63C416.858 862.749 416.858 862.942 416.739 863.06L415.261 864.537L416.739 866.013C416.858 866.133 416.858 866.324 416.739 866.443C416.621 866.561 416.428 866.561 416.308 866.443L414.83 864.967L413.353 866.443C413.233 866.563 413.04 866.563 412.922 866.443C412.803 866.326 412.803 866.133 412.922 866.013L414.4 864.535L412.922 863.058C412.803 862.94 412.803 862.747 412.922 862.628C413.04 862.51 413.233 862.51 413.353 862.63Z" fill="black"/>
<path d="M413.353 850.489L414.83 851.965L416.308 850.489C416.426 850.369 416.619 850.369 416.739 850.489C416.858 850.606 416.858 850.799 416.739 850.919L415.261 852.395L416.739 853.872C416.858 853.992 416.858 854.183 416.739 854.302C416.621 854.422 416.428 854.422 416.308 854.302L414.83 852.825L413.353 854.304C413.233 854.422 413.04 854.422 412.922 854.304C412.803 854.185 412.803 853.992 412.922 853.874L414.4 852.397L412.922 850.92C412.803 850.801 412.803 850.608 412.922 850.49C413.04 850.371 413.233 850.371 413.353 850.489Z" fill="black"/>
<path d="M413.353 838.346L414.83 839.823L416.308 838.346C416.426 838.227 416.619 838.227 416.739 838.346C416.858 838.464 416.858 838.657 416.739 838.776L415.261 840.253L416.739 841.73C416.858 841.85 416.858 842.042 416.739 842.16C416.621 842.28 416.428 842.28 416.308 842.16L414.83 840.683L413.353 842.16C413.233 842.28 413.04 842.28 412.922 842.16C412.803 842.042 412.803 841.85 412.922 841.73L414.4 840.253L412.922 838.776C412.803 838.657 412.803 838.464 412.922 838.346C413.04 838.227 413.233 838.227 413.353 838.346Z" fill="black"/>
<path d="M355.804 902.422L342.945 889.571L343.28 889.237L356.138 902.087L355.804 902.422Z" fill="black"/>
<path d="M364.392 904.185L341.191 881L341.526 880.666L364.726 903.851L364.392 904.185Z" fill="black"/>
<path d="M350.498 883.435L341.913 874.855L342.248 874.521L350.833 883.1L350.498 883.435Z" fill="black"/>
<path d="M370.524 903.448L361.939 894.868L362.273 894.534L370.858 903.113L370.524 903.448Z" fill="black"/>
<path d="M350.723 876.855L343.78 869.916L344.115 869.582L351.058 876.52L350.723 876.855Z" fill="black"/>
<path d="M375.485 901.584L368.542 894.646L368.876 894.311L375.819 901.25L375.485 901.584Z" fill="black"/>
<path d="M352.933 872.211L346.492 865.774L346.827 865.44L353.268 871.876L352.933 872.211Z" fill="black"/>
<path d="M379.611 898.888L373.172 892.453L373.507 892.119L379.946 898.554L379.611 898.888Z" fill="black"/>
<path d="M356.367 868.791L349.922 862.351L350.257 862.016L356.701 868.457L356.367 868.791Z" fill="black"/>
<path d="M383.025 895.465L376.581 889.025L376.916 888.691L383.359 895.13L383.025 895.465Z" fill="black"/>
<path d="M361.022 866.641L354.06 859.684L354.394 859.349L361.356 866.306L361.022 866.641Z" fill="black"/>
<path d="M385.725 891.311L378.764 884.355L379.099 884.021L386.059 890.977L385.725 891.311Z" fill="black"/>
<path d="M359.386 857.48L359.052 857.815L367.763 866.52H367.862V866.286H368.1L367.98 866.166L368.029 866.116L359.386 857.48Z" fill="black"/>
<path d="M379.115 877.293V877.529L378.879 877.53V877.628L387.589 886.334L387.924 885.999L379.353 877.431V877.293H379.115Z" fill="black"/>
<path d="M388.268 880.195L365.195 857.137L365.529 856.802L388.603 879.861L388.268 880.195Z" fill="black"/>
<path d="M386.44 871.5L373.879 858.947L374.213 858.613L386.774 871.166L386.44 871.5Z" fill="black"/>
<path opacity="0.5" d="M262.961 60.2914C305.747 103.05 305.747 172.376 262.961 215.134C220.175 257.893 150.805 257.893 108.019 215.134C65.2332 172.376 65.2332 103.05 108.019 60.2915C150.805 17.5328 220.175 17.5328 262.961 60.2914Z" fill="#EAEAEA"/>
<path d="M300.413 349.38C308.334 357.296 308.334 370.13 300.413 378.046C292.492 385.961 279.65 385.961 271.729 378.046C263.808 370.13 263.808 357.296 271.729 349.38C279.65 341.464 292.492 341.464 300.413 349.38Z" fill="black"/>
<path d="M0 399.569L29.7355 384.775L59.8171 399.742L89.8987 384.775L119.973 399.742L150.055 384.775L180.136 399.742L207.406 386.173V390.352L180.136 403.921L150.055 388.955L119.973 403.921L89.8987 388.955L59.8171 403.921L29.7355 388.955L0 403.748V399.569Z" fill="black"/>
<path d="M0 416.574L29.7355 401.78L59.8171 416.74L89.8987 401.78L119.973 416.74L150.055 401.78L180.136 416.74L207.406 403.178V407.358L180.136 420.919L150.055 405.96L119.973 420.919L89.8987 405.96L59.8171 420.919L29.7355 405.96L0 420.753V416.574Z" fill="black"/>
<path d="M0 433.573L29.7355 418.787L59.8171 433.746L89.8987 418.787L119.973 433.746L150.055 418.787L180.136 433.746L207.406 420.185V424.357L180.136 437.926L150.055 422.967L119.973 437.926L89.8987 422.967L59.8171 437.926L29.7355 422.967L0 437.753V433.573Z" fill="black"/>
<path d="M0 450.582L29.7355 435.789L59.8171 450.755L89.8987 435.789L119.973 450.755L150.055 435.789L180.136 450.755L207.406 437.187V441.366L180.136 454.935L150.055 439.968L119.973 454.935L89.8987 439.968L59.8171 454.935L29.7355 439.968L0 454.762V450.582Z" fill="black"/>
<path d="M405.719 9.92303L411.415 4.23055L405.719 -1.46201C405.258 -1.91598 405.258 -2.6582 405.719 -3.11937C406.181 -3.57334 406.916 -3.57334 407.378 -3.11937L413.074 2.57319L418.77 -3.11937C419.231 -3.57334 419.974 -3.57334 420.428 -3.11937C420.89 -2.66541 420.89 -1.92318 420.428 -1.46201L414.732 4.23055L420.428 9.92303C420.89 10.3842 420.89 11.1264 420.428 11.5804C419.967 12.0416 419.231 12.0416 418.77 11.5804L413.067 5.88783L407.37 11.5804C406.909 12.0344 406.173 12.0344 405.712 11.5804C405.265 11.1264 405.265 10.3842 405.719 9.92303Z" fill="black"/>
<path d="M358.895 9.92303L364.592 4.23055L358.895 -1.46201C358.441 -1.91598 358.441 -2.6582 358.895 -3.11937C359.35 -3.57334 360.092 -3.57334 360.554 -3.11937L366.25 2.57319L371.946 -3.11937C372.4 -3.57334 373.143 -3.57334 373.605 -3.11937C374.059 -2.66541 374.059 -1.92318 373.605 -1.46201L367.908 4.23055L373.612 9.92303C374.073 10.3842 374.073 11.1264 373.612 11.5804C373.15 12.0416 372.415 12.0416 371.953 11.5804L366.25 5.88783L360.554 11.5804C360.092 12.0344 359.357 12.0344 358.895 11.5804C358.434 11.1264 358.434 10.3842 358.895 9.92303Z" fill="black"/>
<path d="M312.065 9.92303L317.761 4.23055L312.065 -1.46201C311.61 -1.91598 311.61 -2.6582 312.065 -3.11937C312.526 -3.57334 313.269 -3.57334 313.723 -3.11937L319.419 2.57319L325.115 -3.11937C325.57 -3.57334 326.312 -3.57334 326.774 -3.11937C327.235 -2.66541 327.235 -1.92318 326.774 -1.46201L321.078 4.23055L326.774 9.92303C327.235 10.3842 327.235 11.1264 326.774 11.5804C326.319 12.0416 325.577 12.0416 325.115 11.5804L319.419 5.88783L313.723 11.5804C313.269 12.0344 312.526 12.0344 312.065 11.5804C311.61 11.1264 311.61 10.3842 312.065 9.92303Z" fill="black"/>
<path d="M265.24 9.92303L270.936 4.23055L265.24 -1.46201C264.786 -1.91598 264.786 -2.6582 265.24 -3.11937C265.701 -3.57334 266.444 -3.57334 266.898 -3.11937L272.594 2.57319L278.291 -3.11937C278.752 -3.57334 279.488 -3.57334 279.949 -3.11937C280.41 -2.66541 280.41 -1.92318 279.949 -1.46201L274.253 4.23055L279.949 9.92303C280.41 10.3842 280.41 11.1264 279.949 11.5804C279.495 12.0416 278.752 12.0416 278.291 11.5804L272.587 5.88783L266.891 11.5804C266.437 12.0344 265.694 12.0344 265.233 11.5804C264.778 11.1264 264.778 10.3842 265.24 9.92303Z" fill="black"/>
<path d="M218.409 9.92303L224.106 4.23055L218.409 -1.46201C217.948 -1.91598 217.948 -2.6582 218.409 -3.11937C218.864 -3.57334 219.606 -3.57334 220.068 -3.11937L225.764 2.57319L231.46 -3.11937C231.922 -3.57334 232.657 -3.57334 233.118 -3.11937C233.58 -2.66541 233.58 -1.92318 233.118 -1.46201L227.422 4.23055L233.126 9.92303C233.58 10.3842 233.58 11.1264 233.126 11.5804C232.664 12.0416 231.922 12.0416 231.467 11.5804L225.764 5.88783L220.068 11.5804C219.606 12.0344 218.864 12.0344 218.409 11.5804C217.955 11.1264 217.955 10.3842 218.409 9.92303Z" fill="black"/>
<path d="M171.585 9.92303L177.281 4.23055L171.585 -1.46201C171.123 -1.91598 171.123 -2.6582 171.585 -3.11937C172.039 -3.57334 172.782 -3.57334 173.243 -3.11937L178.939 2.57319L184.635 -3.11937C185.09 -3.57334 185.84 -3.57334 186.294 -3.11937C186.755 -2.66541 186.755 -1.92318 186.294 -1.46201L180.598 4.23055L186.294 9.92303C186.755 10.3842 186.755 11.1264 186.294 11.5804C185.84 12.0416 185.097 12.0416 184.635 11.5804L178.939 5.88783L173.243 11.5804C172.789 12.0344 172.039 12.0344 171.585 11.5804C171.123 11.1264 171.123 10.3842 171.585 9.92303Z" fill="black"/>
<path d="M308.591 265.587C310.298 268.539 309.286 272.315 306.332 274.02C303.378 275.726 299.6 274.715 297.894 271.763C296.187 268.811 297.199 265.035 300.153 263.33C303.107 261.624 306.885 262.635 308.591 265.587Z" fill="#590209"/>
<path d="M333.494 268.387V355.537H334.437V268.387H333.494Z" fill="black"/>
<path d="M326.687 268.388V355.538H327.63V268.388H326.687Z" fill="black"/>
<path d="M510.561 455.269C508.624 455.269 507.051 453.014 507.051 450.235C507.051 447.456 508.624 445.201 510.561 445.201C512.499 445.201 514.071 447.456 514.071 450.235C514.071 453.014 512.499 455.269 510.561 455.269Z" fill="#FD4C38"/>
<path d="M526.612 455.269C524.675 455.269 523.103 453.014 523.103 450.235C523.103 447.456 524.675 445.201 526.612 445.201C528.55 445.201 530.122 447.456 530.122 450.235C530.122 453.014 528.55 455.269 526.612 455.269Z" fill="#FD4C38"/>
<path d="M542.664 455.269C540.727 455.269 539.154 453.014 539.154 450.235C539.154 447.456 540.727 445.201 542.664 445.201C544.602 445.201 546.174 447.456 546.174 450.235C546.174 453.014 544.602 455.269 542.664 455.269Z" fill="#FD4C38"/>
<path d="M558.71 455.269C556.772 455.269 555.2 453.014 555.2 450.235C555.2 447.456 556.772 445.201 558.71 445.201C560.647 445.201 562.219 447.456 562.219 450.235C562.219 453.014 560.647 455.269 558.71 455.269Z" fill="#FD4C38"/>
<path d="M574.761 455.269C572.823 455.269 571.251 453.014 571.251 450.235C571.251 447.456 572.823 445.201 574.761 445.201C576.699 445.201 578.271 447.456 578.271 450.235C578.271 453.014 576.699 455.269 574.761 455.269Z" fill="#FD4C38"/>
<path d="M590.813 455.269C588.876 455.269 587.304 453.014 587.304 450.235C587.304 447.456 588.876 445.201 590.813 445.201C592.751 445.201 594.323 447.456 594.323 450.235C594.323 453.014 592.751 455.269 590.813 455.269Z" fill="#FD4C38"/>
<path d="M606.859 455.269C604.921 455.269 603.349 453.014 603.349 450.235C603.349 447.456 604.921 445.201 606.859 445.201C608.797 445.201 610.369 447.456 610.369 450.235C610.369 453.014 608.802 455.269 606.859 455.269Z" fill="#FD4C38"/>
<path d="M622.909 455.269C620.972 455.269 619.4 453.014 619.4 450.235C619.4 447.456 620.972 445.201 622.909 445.201C624.847 445.201 626.419 447.456 626.419 450.235C626.419 453.014 624.847 455.269 622.909 455.269Z" fill="#FD4C38"/>
<path d="M638.961 455.269C637.024 455.269 635.452 453.014 635.452 450.235C635.452 447.456 637.024 445.201 638.961 445.201C640.899 445.201 642.471 447.456 642.471 450.235C642.471 453.014 640.899 455.269 638.961 455.269Z" fill="#FD4C38"/>
<path d="M655.012 455.269C653.075 455.269 651.503 453.014 651.503 450.235C651.503 447.456 653.075 445.201 655.012 445.201C656.95 445.201 658.522 447.456 658.522 450.235C658.522 453.014 656.95 455.269 655.012 455.269Z" fill="#FD4C38"/>
<path d="M671.059 455.269C669.121 455.269 667.549 453.014 667.549 450.235C667.549 447.456 669.121 445.201 671.059 445.201C672.996 445.201 674.568 447.456 674.568 450.235C674.568 453.014 672.996 455.269 671.059 455.269Z" fill="#FD4C38"/>
<path d="M687.11 455.269C685.172 455.269 683.6 453.014 683.6 450.235C683.6 447.456 685.172 445.201 687.11 445.201C689.047 445.201 690.619 447.456 690.619 450.235C690.619 453.014 689.047 455.269 687.11 455.269Z" fill="#FD4C38"/>
<path d="M703.162 455.269C701.225 455.269 699.653 453.014 699.653 450.235C699.653 447.456 701.225 445.201 703.162 445.201C705.1 445.201 706.672 447.456 706.672 450.235C706.672 453.014 705.1 455.269 703.162 455.269Z" fill="#FD4C38"/>
<path d="M494.509 481.071C492.571 481.071 490.999 478.816 490.999 476.038C490.999 473.259 492.571 471.004 494.509 471.004C496.446 471.004 498.019 473.259 498.019 476.038C498.019 478.816 496.452 481.071 494.509 481.071Z" fill="#FD4C38"/>
<path d="M510.561 481.071C508.623 481.071 507.051 478.816 507.051 476.038C507.051 473.259 508.623 471.004 510.561 471.004C512.498 471.004 514.07 473.259 514.07 476.038C514.07 478.816 512.498 481.071 510.561 481.071Z" fill="#FD4C38"/>
<path d="M526.613 481.071C524.675 481.071 523.103 478.816 523.103 476.038C523.103 473.259 524.675 471.004 526.613 471.004C528.55 471.004 530.122 473.259 530.122 476.038C530.122 478.816 528.55 481.071 526.613 481.071Z" fill="#FD4C38"/>
<path d="M542.664 481.071C540.727 481.071 539.155 478.816 539.155 476.038C539.155 473.259 540.727 471.004 542.664 471.004C544.602 471.004 546.174 473.259 546.174 476.038C546.174 478.816 544.602 481.071 542.664 481.071Z" fill="#FD4C38"/>
<path d="M558.71 481.071C556.772 481.071 555.2 478.816 555.2 476.038C555.2 473.259 556.772 471.004 558.71 471.004C560.648 471.004 562.22 473.259 562.22 476.038C562.22 478.816 560.648 481.071 558.71 481.071Z" fill="#FD4C38"/>
<path d="M574.761 481.071C572.824 481.071 571.252 478.816 571.252 476.038C571.252 473.259 572.824 471.004 574.761 471.004C576.699 471.004 578.271 473.259 578.271 476.038C578.271 478.816 576.699 481.071 574.761 481.071Z" fill="#FD4C38"/>
<path d="M590.813 481.071C588.875 481.071 587.303 478.816 587.303 476.038C587.303 473.259 588.875 471.004 590.813 471.004C592.75 471.004 594.323 473.259 594.323 476.038C594.323 478.816 592.75 481.071 590.813 481.071Z" fill="#FD4C38"/>
<path d="M606.858 481.071C604.921 481.071 603.349 478.816 603.349 476.038C603.349 473.259 604.921 471.004 606.858 471.004C608.796 471.004 610.368 473.259 610.368 476.038C610.368 478.816 608.802 481.071 606.858 481.071Z" fill="#FD4C38"/>
<path d="M622.91 481.071C620.973 481.071 619.401 478.816 619.401 476.038C619.401 473.259 620.973 471.004 622.91 471.004C624.848 471.004 626.42 473.259 626.42 476.038C626.42 478.816 624.848 481.071 622.91 481.071Z" fill="#FD4C38"/>
<path d="M638.962 481.071C637.024 481.071 635.452 478.816 635.452 476.038C635.452 473.259 637.024 471.004 638.962 471.004C640.899 471.004 642.471 473.259 642.471 476.038C642.471 478.816 640.899 481.071 638.962 481.071Z" fill="#FD4C38"/>
<path d="M655.014 481.071C653.076 481.071 651.504 478.816 651.504 476.038C651.504 473.259 653.076 471.004 655.014 471.004C656.952 471.004 658.524 473.259 658.524 476.038C658.524 478.816 656.952 481.071 655.014 481.071Z" fill="#FD4C38"/>
<path d="M671.06 481.071C669.122 481.071 667.55 478.816 667.55 476.038C667.55 473.259 669.122 471.004 671.06 471.004C672.997 471.004 674.569 473.259 674.569 476.038C674.569 478.816 672.997 481.071 671.06 481.071Z" fill="#FD4C38"/>
<path d="M687.111 481.071C685.173 481.071 683.601 478.816 683.601 476.038C683.601 473.259 685.173 471.004 687.111 471.004C689.048 471.004 690.62 473.259 690.62 476.038C690.62 478.816 689.048 481.071 687.111 481.071Z" fill="#FD4C38"/>
<path d="M667.702 94.3257C701.17 94.3257 728.403 67.1102 728.403 33.6628C728.403 0.2155 701.17 -26.9999 667.702 -26.9999C634.225 -26.9999 607 0.2155 607 33.6628C606.992 67.1102 634.225 94.3257 667.702 94.3257ZM667.702 -8.34602C690.88 -8.34602 709.737 10.4993 709.737 33.6628C709.737 56.8264 690.88 75.6718 667.702 75.6718C644.523 75.6718 625.666 56.8264 625.666 33.6628C625.666 10.491 644.515 -8.34602 667.702 -8.34602Z" fill="#590209"/>
<path d="M243.056 -146.987L234.614 -130.03C229.169 -119.106 229.169 -106.251 234.614 -95.3264L234.622 -95.3181C240.067 -84.3936 240.067 -71.5472 234.622 -60.6144V-60.6061C229.177 -49.6733 229.177 -36.8269 234.622 -25.9024V-25.8941C240.067 -14.9613 240.067 -2.11478 234.622 8.80968C229.177 19.7425 229.177 32.5889 234.622 43.5134V43.5217C240.067 54.4545 240.067 67.3009 234.622 78.2253L227.595 92.3364H232.424L239.451 78.2253C244.896 67.2926 244.896 54.4461 239.451 43.5217V43.5134C234.006 32.5806 234.006 19.7342 239.451 8.80968C244.896 -2.1231 244.896 -14.9696 239.451 -25.8941V-25.9024C234.006 -36.8352 234.006 -49.6816 239.451 -60.6061V-60.6144C244.896 -71.5389 244.896 -84.3853 239.451 -95.3181L239.442 -95.3264C233.998 -106.259 233.998 -119.106 239.442 -130.03L247.885 -146.987H243.056Z" fill="black"/>
<path d="M262.703 -146.987L254.261 -130.03C248.816 -119.106 248.816 -106.251 254.261 -95.3264L254.27 -95.3181C259.715 -84.3936 259.715 -71.5472 254.27 -60.6144V-60.6061C248.825 -49.6733 248.825 -36.8269 254.27 -25.9024V-25.8941C259.715 -14.9613 259.715 -2.11478 254.27 8.80968C248.825 19.7425 248.825 32.5889 254.27 43.5134V43.5217C259.715 54.4545 259.715 67.3009 254.27 78.2253L247.243 92.3364H252.072L259.098 78.2253C264.543 67.2926 264.543 54.4461 259.098 43.5217V43.5134C253.654 32.5806 253.654 19.7342 259.098 8.80968C264.543 -2.1231 264.543 -14.9696 259.098 -25.8941V-25.9024C253.654 -36.8352 253.654 -49.6816 259.098 -60.6061V-60.6144C264.543 -71.5389 264.543 -84.3853 259.098 -95.3181L259.09 -95.3264C253.645 -106.259 253.645 -119.106 259.09 -130.03L267.532 -146.987H262.703Z" fill="black"/>
<path d="M282.353 -146.987L273.911 -130.03C268.466 -119.106 268.466 -106.251 273.911 -95.3264L273.919 -95.3181C279.364 -84.3936 279.364 -71.5472 273.919 -60.6144V-60.6061C268.474 -49.6733 268.474 -36.8269 273.919 -25.9024V-25.8941C279.364 -14.9613 279.364 -2.11478 273.919 8.80968C268.474 19.7425 268.474 32.5889 273.919 43.5134V43.5217C279.364 54.4545 279.364 67.3009 273.919 78.2253L266.892 92.3364H271.721L278.748 78.2253C284.193 67.2926 284.193 54.4461 278.748 43.5217V43.5134C273.303 32.5806 273.303 19.7342 278.748 8.80968C284.193 -2.1231 284.193 -14.9696 278.748 -25.8941V-25.9024C273.303 -36.8352 273.303 -49.6816 278.748 -60.6061V-60.6144C284.193 -71.5389 284.193 -84.3853 278.748 -95.3181L278.739 -95.3264C273.294 -106.259 273.294 -119.106 278.739 -130.03L287.181 -146.987H282.353Z" fill="black"/>
<path d="M301.992 -146.992L293.55 -130.035C288.105 -119.102 288.105 -106.256 293.55 -95.3313L293.558 -95.323C299.003 -84.3985 299.003 -71.5521 293.558 -60.6193V-60.611C288.113 -49.6782 288.113 -36.8318 293.558 -25.9073C299.003 -14.9746 299.003 -2.12805 293.558 8.79642C288.113 19.7292 288.113 32.5756 293.558 43.5001V43.5084C299.003 54.4412 299.003 67.2876 293.558 78.2121L286.531 92.3232H291.36L298.387 78.2121C303.832 67.2793 303.832 54.4329 298.387 43.5084V43.5001C292.942 32.5673 292.942 19.7209 298.387 8.79642C303.832 -2.13637 303.832 -14.9829 298.387 -25.9073V-25.9157C292.942 -36.8485 292.942 -49.6949 298.387 -60.6193V-60.6277C303.832 -71.5521 303.832 -84.3985 298.387 -95.3313L298.379 -95.3396C292.934 -106.272 292.934 -119.119 298.379 -130.043L306.821 -147H301.992V-146.992Z" fill="black"/>
</svg>
