<svg width="676" height="1024" viewBox="0 0 676 1024" fill="none" xmlns="http://www.w3.org/2000/svg">
<path opacity="0.5" d="M67.2392 260.786C96.0133 260.786 119.339 237.474 119.339 208.719C119.339 179.963 96.0133 156.652 67.2392 156.652C38.4652 156.652 15.1392 179.963 15.1392 208.719C15.1392 237.474 38.4652 260.786 67.2392 260.786Z" fill="#EAEAEA"/>
<path d="M56.4739 196.357L56.4739 117.993H55.7668L55.7668 196.357H56.4739Z" fill="black"/>
<path d="M62.416 200.566L62.416 122.202H61.7089L61.7089 200.566H62.416Z" fill="black"/>
<path d="M82.7269 212.659L83.6665 213.598L82.7269 214.537C82.6506 214.613 82.6506 214.735 82.7269 214.81C82.8031 214.886 82.9251 214.886 82.9994 214.81L83.9391 213.871L84.8787 214.81C84.955 214.886 85.077 214.886 85.1513 214.81C85.2275 214.733 85.2275 214.612 85.1513 214.537L84.2116 213.598L85.1513 212.659C85.2275 212.583 85.2275 212.461 85.1513 212.387C85.075 212.311 84.9531 212.311 84.8787 212.387L83.9391 213.326L82.9994 212.387C82.9232 212.311 82.8012 212.311 82.7269 212.387C82.6506 212.461 82.6506 212.585 82.7269 212.659Z" fill="black"/>
<path d="M75.012 212.659L75.9517 213.598L75.012 214.537C74.9358 214.613 74.9358 214.735 75.012 214.81C75.0883 214.886 75.2102 214.886 75.2846 214.81L76.2242 213.871L77.1639 214.81C77.2401 214.886 77.3621 214.886 77.4364 214.81C77.5127 214.733 77.5127 214.612 77.4364 214.537L76.4968 213.598L77.4364 212.659C77.5127 212.583 77.5127 212.461 77.4364 212.387C77.3602 212.311 77.2382 212.311 77.1639 212.387L76.2242 213.326L75.2846 212.387C75.2083 212.311 75.0863 212.311 75.012 212.387C74.9358 212.461 74.9358 212.585 75.012 212.659Z" fill="black"/>
<path d="M67.2964 212.659L68.2361 213.598L67.2964 214.537C67.2202 214.613 67.2202 214.735 67.2964 214.81C67.3727 214.886 67.4947 214.886 67.569 214.81L68.5086 213.871L69.4483 214.81C69.5245 214.886 69.6465 214.886 69.7209 214.81C69.7971 214.733 69.7971 214.612 69.7209 214.537L68.7812 213.598L69.7209 212.659C69.7971 212.583 69.7971 212.461 69.7209 212.387C69.6446 212.311 69.5226 212.311 69.4483 212.387L68.5086 213.326L67.569 212.387C67.4928 212.311 67.3708 212.311 67.2964 212.387C67.2202 212.461 67.2202 212.585 67.2964 212.659Z" fill="black"/>
<path d="M59.5811 212.659L60.5208 213.598L59.5811 214.537C59.5049 214.613 59.5049 214.735 59.5811 214.81C59.6573 214.886 59.7793 214.886 59.8537 214.81L60.7933 213.871L61.733 214.81C61.8092 214.886 61.9312 214.886 62.0055 214.81C62.0818 214.733 62.0818 214.612 62.0055 214.537L61.0659 213.598L62.0055 212.659C62.0818 212.583 62.0818 212.461 62.0055 212.387C61.9293 212.311 61.8073 212.311 61.733 212.387L60.7933 213.326L59.8537 212.387C59.7774 212.311 59.6554 212.311 59.5811 212.387C59.5049 212.461 59.5049 212.585 59.5811 212.659Z" fill="black"/>
<path d="M51.8655 212.659L52.8052 213.598L51.8655 214.537C51.7893 214.613 51.7893 214.735 51.8655 214.81C51.9418 214.886 52.0638 214.886 52.1381 214.81L53.0777 213.871L54.0174 214.81C54.0936 214.886 54.2156 214.886 54.2899 214.81C54.3662 214.733 54.3662 214.612 54.2899 214.537L53.3503 213.598L54.2899 212.659C54.3662 212.583 54.3662 212.461 54.2899 212.387C54.2137 212.311 54.0917 212.311 54.0174 212.387L53.0777 213.326L52.1381 212.387C52.0618 212.311 51.9399 212.311 51.8655 212.387C51.7893 212.461 51.7893 212.585 51.8655 212.659Z" fill="black"/>
<path d="M44.1502 212.659L45.0898 213.598L44.1502 214.537C44.074 214.613 44.074 214.735 44.1502 214.81C44.2264 214.886 44.3484 214.886 44.4228 214.81L45.3624 213.871L46.3021 214.81C46.3783 214.886 46.5003 214.886 46.5746 214.81C46.6509 214.733 46.6509 214.612 46.5746 214.537L45.635 213.598L46.5746 212.659C46.6509 212.583 46.6509 212.461 46.5746 212.387C46.4984 212.311 46.3764 212.311 46.3021 212.387L45.3624 213.326L44.4228 212.387C44.3465 212.311 44.2245 212.311 44.1502 212.387C44.074 212.461 44.074 212.585 44.1502 212.659Z" fill="black"/>
<path opacity="0.5" d="M162.701 702.182C171.158 693.73 171.158 680.027 162.701 671.576C154.244 663.124 140.533 663.124 132.076 671.576C123.618 680.027 123.618 693.73 132.076 702.182C140.533 710.634 154.244 710.634 162.701 702.182Z" fill="#EAEAEA"/>
<path d="M56.3096 730.165L56.3096 651.801H55.6024L55.6024 730.165H56.3096Z" fill="black"/>
<path d="M61.9084 735.254L61.9084 667.2H61.2013L61.2013 735.254H61.9084Z" fill="black"/>
<path d="M108.825 479.637C108.825 480.273 108.309 480.789 107.672 480.789C107.036 480.789 106.519 480.273 106.519 479.637C106.519 479.001 107.036 478.484 107.672 478.484C108.309 478.484 108.825 479.001 108.825 479.637Z" fill="#FD4C38"/>
<path d="M108.825 474.367C108.825 475.003 108.309 475.52 107.672 475.52C107.036 475.52 106.519 475.003 106.519 474.367C106.519 473.731 107.036 473.215 107.672 473.215C108.309 473.215 108.825 473.731 108.825 474.367Z" fill="#FD4C38"/>
<path d="M108.825 469.099C108.825 469.735 108.309 470.251 107.672 470.251C107.036 470.251 106.519 469.735 106.519 469.099C106.519 468.462 107.036 467.946 107.672 467.946C108.309 467.946 108.825 468.462 108.825 469.099Z" fill="#FD4C38"/>
<path d="M108.825 463.829C108.825 464.465 108.309 464.982 107.672 464.982C107.036 464.982 106.519 464.465 106.519 463.829C106.519 463.193 107.036 462.677 107.672 462.677C108.309 462.677 108.825 463.193 108.825 463.829Z" fill="#FD4C38"/>
<path d="M108.825 458.557C108.825 459.193 108.309 459.709 107.672 459.709C107.036 459.709 106.519 459.193 106.519 458.557C106.519 457.92 107.036 457.404 107.672 457.404C108.309 457.404 108.825 457.92 108.825 458.557Z" fill="#FD4C38"/>
<path d="M108.825 453.286C108.825 453.922 108.309 454.439 107.672 454.439C107.036 454.439 106.519 453.922 106.519 453.286C106.519 452.65 107.036 452.134 107.672 452.134C108.309 452.136 108.825 452.65 108.825 453.286Z" fill="#FD4C38"/>
<path d="M108.825 448.019C108.825 448.655 108.309 449.171 107.672 449.171C107.036 449.171 106.519 448.655 106.519 448.019C106.519 447.382 107.036 446.866 107.672 446.866C108.309 446.866 108.825 447.382 108.825 448.019Z" fill="#FD4C38"/>
<path d="M108.825 442.749C108.825 443.385 108.309 443.901 107.672 443.901C107.036 443.901 106.519 443.385 106.519 442.749C106.519 442.113 107.036 441.597 107.672 441.597C108.309 441.597 108.825 442.113 108.825 442.749Z" fill="#FD4C38"/>
<path d="M108.825 437.478C108.825 438.114 108.309 438.63 107.672 438.63C107.036 438.63 106.519 438.114 106.519 437.478C106.519 436.841 107.036 436.325 107.672 436.325C108.309 436.325 108.825 436.841 108.825 437.478Z" fill="#FD4C38"/>
<path d="M108.825 432.209C108.825 432.845 108.309 433.361 107.672 433.361C107.036 433.361 106.519 432.845 106.519 432.209C106.519 431.573 107.036 431.057 107.672 431.057C108.309 431.057 108.825 431.573 108.825 432.209Z" fill="#FD4C38"/>
<path d="M108.825 426.939C108.825 427.575 108.309 428.091 107.672 428.091C107.036 428.091 106.519 427.575 106.519 426.939C106.519 426.302 107.036 425.786 107.672 425.786C108.309 425.786 108.825 426.302 108.825 426.939Z" fill="#FD4C38"/>
<path d="M108.825 421.668C108.825 422.304 108.309 422.82 107.672 422.82C107.036 422.82 106.519 422.304 106.519 421.668C106.519 421.032 107.036 420.516 107.672 420.516C108.309 420.516 108.825 421.032 108.825 421.668Z" fill="#FD4C38"/>
<path d="M108.825 416.399C108.825 417.035 108.309 417.551 107.672 417.551C107.035 417.551 106.519 417.035 106.519 416.399C106.519 415.763 107.035 415.247 107.672 415.247C108.309 415.247 108.825 415.761 108.825 416.399Z" fill="#FD4C38"/>
<path d="M114.736 484.908C114.736 485.544 114.219 486.061 113.583 486.061C112.946 486.061 112.429 485.544 112.429 484.908C112.429 484.272 112.946 483.756 113.583 483.756C114.219 483.756 114.736 484.272 114.736 484.908Z" fill="#FD4C38"/>
<path d="M114.736 479.639C114.736 480.275 114.219 480.791 113.583 480.791C112.946 480.791 112.429 480.275 112.429 479.639C112.429 479.003 112.946 478.486 113.583 478.486C114.219 478.486 114.736 479.003 114.736 479.639Z" fill="#FD4C38"/>
<path d="M114.736 474.367C114.736 475.003 114.219 475.52 113.583 475.52C112.946 475.52 112.429 475.003 112.429 474.367C112.429 473.731 112.946 473.215 113.583 473.215C114.219 473.215 114.736 473.731 114.736 474.367Z" fill="#FD4C38"/>
<path d="M114.736 469.099C114.736 469.735 114.219 470.251 113.583 470.251C112.946 470.251 112.429 469.735 112.429 469.099C112.429 468.462 112.946 467.946 113.583 467.946C114.219 467.946 114.736 468.462 114.736 469.099Z" fill="#FD4C38"/>
<path d="M114.736 463.828C114.736 464.464 114.219 464.981 113.583 464.981C112.946 464.981 112.429 464.464 112.429 463.828C112.429 463.192 112.946 462.676 113.583 462.676C114.219 462.676 114.736 463.192 114.736 463.828Z" fill="#FD4C38"/>
<path d="M114.736 458.559C114.736 459.195 114.219 459.711 113.583 459.711C112.946 459.711 112.429 459.195 112.429 458.559C112.429 457.922 112.946 457.406 113.583 457.406C114.219 457.406 114.736 457.922 114.736 458.559Z" fill="#FD4C38"/>
<path d="M114.736 453.289C114.736 453.925 114.219 454.441 113.583 454.441C112.946 454.441 112.429 453.925 112.429 453.289C112.429 452.653 112.946 452.137 113.583 452.137C114.219 452.137 114.736 452.651 114.736 453.289Z" fill="#FD4C38"/>
<path d="M114.736 448.019C114.736 448.655 114.219 449.171 113.583 449.171C112.946 449.171 112.429 448.655 112.429 448.019C112.429 447.382 112.946 446.866 113.583 446.866C114.219 446.866 114.736 447.382 114.736 448.019Z" fill="#FD4C38"/>
<path d="M114.736 442.748C114.736 443.384 114.219 443.9 113.583 443.9C112.946 443.9 112.429 443.384 112.429 442.748C112.429 442.112 112.946 441.596 113.583 441.596C114.219 441.596 114.736 442.112 114.736 442.748Z" fill="#FD4C38"/>
<path d="M114.736 437.478C114.736 438.114 114.219 438.63 113.583 438.63C112.946 438.63 112.429 438.114 112.429 437.478C112.429 436.841 112.946 436.325 113.583 436.325C114.219 436.325 114.736 436.841 114.736 437.478Z" fill="#FD4C38"/>
<path d="M114.736 432.209C114.736 432.845 114.219 433.361 113.583 433.361C112.946 433.361 112.429 432.845 112.429 432.209C112.429 431.573 112.946 431.057 113.583 431.057C114.219 431.057 114.736 431.573 114.736 432.209Z" fill="#FD4C38"/>
<path d="M114.736 426.938C114.736 427.574 114.219 428.09 113.583 428.09C112.946 428.09 112.429 427.574 112.429 426.938C112.429 426.301 112.946 425.785 113.583 425.785C114.219 425.785 114.736 426.301 114.736 426.938Z" fill="#FD4C38"/>
<path d="M114.736 421.668C114.736 422.304 114.219 422.82 113.583 422.82C112.946 422.82 112.429 422.304 112.429 421.668C112.429 421.032 112.946 420.516 113.583 420.516C114.219 420.516 114.736 421.032 114.736 421.668Z" fill="#FD4C38"/>
<path d="M161.162 513.114L162.667 514.618L161.162 516.123C161.04 516.243 161.04 516.439 161.162 516.561C161.284 516.681 161.478 516.681 161.6 516.561L163.106 515.056L164.611 516.561C164.733 516.681 164.93 516.681 165.05 516.561C165.172 516.441 165.172 516.245 165.05 516.123L163.544 514.618L165.05 513.114C165.172 512.992 165.172 512.795 165.05 512.675C164.93 512.554 164.733 512.554 164.611 512.675L163.104 514.18L161.598 512.675C161.476 512.554 161.282 512.554 161.16 512.675C161.041 512.795 161.041 512.992 161.162 513.114Z" fill="black"/>
<path d="M148.784 513.114L150.29 514.618L148.784 516.123C148.664 516.243 148.664 516.439 148.784 516.561C148.906 516.681 149.1 516.681 149.222 516.561L150.728 515.056L152.234 516.561C152.354 516.681 152.55 516.681 152.672 516.561C152.792 516.441 152.792 516.245 152.672 516.123L151.166 514.618L152.674 513.114C152.796 512.992 152.796 512.795 152.674 512.675C152.552 512.554 152.358 512.554 152.236 512.675L150.73 514.18L149.224 512.675C149.102 512.554 148.908 512.554 148.786 512.675C148.662 512.795 148.662 512.992 148.784 513.114Z" fill="black"/>
<path d="M136.405 513.114L137.91 514.618L136.405 516.123C136.284 516.243 136.284 516.439 136.405 516.561C136.526 516.681 136.723 516.681 136.843 516.561L138.349 515.056L139.854 516.561C139.974 516.681 140.173 516.681 140.293 516.561C140.415 516.441 140.415 516.245 140.293 516.123L138.787 514.618L140.293 513.114C140.415 512.992 140.415 512.795 140.293 512.675C140.173 512.554 139.976 512.554 139.854 512.675L138.349 514.18L136.843 512.675C136.723 512.554 136.526 512.554 136.405 512.675C136.284 512.795 136.284 512.992 136.405 513.114Z" fill="black"/>
<path d="M124.027 513.114L125.533 514.618L124.027 516.123C123.907 516.243 123.907 516.439 124.027 516.561C124.149 516.681 124.346 516.681 124.466 516.561L125.971 515.056L127.477 516.561C127.599 516.681 127.794 516.681 127.915 516.561C128.037 516.441 128.037 516.245 127.915 516.123L126.41 514.618L127.915 513.114C128.037 512.992 128.037 512.795 127.915 512.675C127.795 512.554 127.599 512.554 127.477 512.675L125.969 514.18L124.464 512.675C124.344 512.554 124.147 512.554 124.025 512.675C123.905 512.795 123.905 512.992 124.027 513.114Z" fill="black"/>
<path d="M111.647 513.114L113.153 514.618L111.647 516.123C111.525 516.243 111.525 516.439 111.647 516.561C111.767 516.681 111.964 516.681 112.086 516.561L113.592 515.056L115.097 516.561C115.219 516.681 115.414 516.681 115.536 516.561C115.658 516.441 115.658 516.245 115.536 516.123L114.03 514.618L115.538 513.114C115.658 512.992 115.658 512.795 115.538 512.675C115.416 512.554 115.219 512.554 115.099 512.675L113.593 514.18L112.088 512.675C111.966 512.554 111.769 512.554 111.649 512.675C111.527 512.795 111.527 512.992 111.647 513.114Z" fill="black"/>
<path d="M99.2704 513.114L100.776 514.618L99.2704 516.123C99.1485 516.243 99.1485 516.439 99.2704 516.561C99.3905 516.681 99.5868 516.681 99.7088 516.561L101.215 515.056L102.72 516.561C102.842 516.681 103.039 516.681 103.159 516.561C103.279 516.441 103.279 516.245 103.159 516.123L101.653 514.618L103.159 513.114C103.281 512.992 103.281 512.795 103.159 512.675C103.039 512.554 102.842 512.554 102.72 512.675L101.215 514.18L99.7088 512.675C99.5888 512.554 99.3905 512.554 99.2704 512.675C99.1485 512.795 99.1485 512.992 99.2704 513.114Z" fill="black"/>
<path opacity="0.5" d="M294.757 374.984C314.241 374.984 330.036 359.199 330.036 339.727C330.036 320.254 314.241 304.469 294.757 304.469C275.272 304.469 259.477 320.254 259.477 339.727C259.477 359.199 275.272 374.984 294.757 374.984Z" fill="#EAEAEA"/>
<path opacity="0.5" d="M496.811 102.43C541.076 102.43 576.96 66.5464 576.96 22.2813C576.96 -21.9838 541.076 -57.8677 496.811 -57.8677C452.546 -57.8677 416.662 -21.9838 416.662 22.2813C416.662 66.5464 452.546 102.43 496.811 102.43Z" fill="#EAEAEA"/>
<path d="M363.748 95.4286C363.748 103.592 357.477 110.212 349.74 110.212C342.003 110.212 335.735 103.592 335.735 95.4286C335.735 87.2617 342.003 80.6421 349.74 80.6421C357.477 80.6421 363.748 87.2617 363.748 95.4286Z" fill="black"/>
<path d="M315.869 -91.7827C354.53 -91.7827 385.985 -60.348 385.985 -21.7113C385.985 16.9255 354.53 48.3602 315.869 48.3602C277.207 48.3602 245.752 16.9255 245.752 -21.7113C245.752 -60.348 277.207 -91.7827 315.869 -91.7827ZM315.869 47.4545C354.033 47.4545 385.082 16.4257 385.082 -21.7146C385.082 -59.8549 354.033 -90.8837 315.869 -90.8837C277.704 -90.8837 246.655 -59.8549 246.655 -21.7146C246.655 16.4257 277.707 47.4545 315.869 47.4545Z" fill="#FD4C38"/>
<path d="M315.868 -83.3394C349.87 -83.3394 377.532 -55.6952 377.532 -21.7145C377.532 12.2663 349.87 39.9104 315.868 39.9104C281.866 39.9104 254.204 12.2663 254.204 -21.7145C254.207 -55.6918 281.869 -83.3394 315.868 -83.3394ZM315.868 39.0114C349.374 39.0114 376.629 11.7698 376.629 -21.7111C376.629 -55.1954 349.37 -82.4336 315.868 -82.4336C282.366 -82.4336 255.107 -55.192 255.107 -21.7111C255.107 11.7698 282.366 39.0114 315.868 39.0114Z" fill="#FD4C38"/>
<path d="M315.869 -74.8921C345.209 -74.8921 369.081 -51.0351 369.081 -21.7137C369.081 7.60764 345.209 31.4646 315.869 31.4646C286.528 31.4646 262.656 7.60764 262.656 -21.7137C262.656 -51.0351 286.528 -74.8921 315.869 -74.8921ZM315.869 30.5656C344.712 30.5656 368.178 7.11454 368.178 -21.7104C368.178 -50.5353 344.712 -73.9864 315.869 -73.9864C287.025 -73.9864 263.559 -50.5353 263.559 -21.7104C263.559 7.11454 287.025 30.5656 315.869 30.5656Z" fill="#FD4C38"/>
<path d="M315.869 -66.4468C340.55 -66.4468 360.629 -46.3804 360.629 -21.715C360.629 2.95041 340.55 23.0168 315.869 23.0168C291.187 23.0168 271.108 2.95041 271.108 -21.715C271.108 -46.3804 291.187 -66.4468 315.869 -66.4468ZM315.869 22.1178C340.053 22.1178 359.729 2.45395 359.729 -21.715C359.729 -45.8839 340.053 -65.5478 315.869 -65.5478C291.684 -65.5478 272.008 -45.8839 272.008 -21.715C272.011 2.45395 291.684 22.1178 315.869 22.1178Z" fill="#FD4C38"/>
<path d="M315.869 -57.999C335.891 -57.999 352.177 -41.7198 352.177 -21.7138C352.177 -1.70438 335.887 14.5715 315.869 14.5715C295.85 14.5715 279.56 -1.70774 279.56 -21.7138C279.56 -41.7198 295.85 -57.999 315.869 -57.999ZM315.869 13.6725C335.394 13.6725 351.277 -2.20084 351.277 -21.7138C351.277 -41.2267 335.394 -57.1 315.869 -57.1C296.343 -57.1 280.46 -41.2267 280.46 -21.7138C280.463 -2.20084 296.346 13.6725 315.869 13.6725Z" fill="#FD4C38"/>
<path d="M315.869 -49.5537C331.228 -49.5537 343.728 -37.065 343.728 -21.7116C343.728 -6.36161 331.232 6.13042 315.869 6.13042C300.509 6.13042 288.009 -6.35826 288.009 -21.7116C288.012 -37.065 300.509 -49.5537 315.869 -49.5537ZM315.869 5.22471C330.732 5.22471 342.825 -6.86143 342.825 -21.715C342.825 -36.5686 330.732 -48.6547 315.869 -48.6547C301.006 -48.6547 288.912 -36.5686 288.912 -21.715C288.912 -6.85807 301.006 5.22471 315.869 5.22471Z" fill="#FD4C38"/>
<path d="M216.12 62.3784L218.772 65.0284L216.12 67.6784C215.906 67.8897 215.906 68.2352 216.12 68.4499C216.335 68.6646 216.678 68.6646 216.893 68.4499L219.544 65.7999L222.196 68.4499C222.411 68.6646 222.757 68.6646 222.968 68.4499C223.183 68.2386 223.183 67.8931 222.968 67.6784L220.316 65.0284L222.968 62.3784C223.183 62.1637 223.183 61.8181 222.968 61.6068C222.753 61.3921 222.411 61.3921 222.196 61.6068L219.541 64.2569L216.889 61.6068C216.674 61.3955 216.332 61.3955 216.117 61.6068C215.906 61.8181 215.906 62.1637 216.12 62.3784Z" fill="black"/>
<path d="M194.319 62.3784L196.971 65.0284L194.319 67.6784C194.108 67.8897 194.108 68.2352 194.319 68.4499C194.534 68.6646 194.876 68.6646 195.091 68.4499L197.743 65.7999L200.395 68.4499C200.606 68.6646 200.952 68.6646 201.167 68.4499C201.378 68.2386 201.378 67.8931 201.167 67.6784L198.512 65.0284L201.167 62.3784C201.382 62.1637 201.382 61.8181 201.167 61.6068C200.952 61.3921 200.61 61.3921 200.395 61.6068L197.743 64.2569L195.091 61.6068C194.876 61.3955 194.534 61.3955 194.319 61.6068C194.108 61.8181 194.108 62.1637 194.319 62.3784Z" fill="black"/>
<path d="M172.521 62.3784L175.177 65.0284L172.521 67.6784C172.31 67.8897 172.31 68.2352 172.521 68.4499C172.736 68.6646 173.082 68.6646 173.294 68.4499L175.945 65.7999L178.597 68.4499C178.808 68.6646 179.154 68.6646 179.369 68.4499C179.584 68.2386 179.584 67.8931 179.369 67.6784L176.717 65.0284L179.369 62.3784C179.584 62.1637 179.584 61.8181 179.369 61.6068C179.157 61.3921 178.812 61.3921 178.597 61.6068L175.945 64.2569L173.294 61.6068C173.082 61.3955 172.733 61.3955 172.521 61.6068C172.307 61.8181 172.307 62.1637 172.521 62.3784Z" fill="black"/>
<path d="M150.721 62.3784L153.372 65.0284L150.721 67.6784C150.509 67.8897 150.509 68.2352 150.721 68.4499C150.935 68.6646 151.281 68.6646 151.493 68.4499L154.144 65.7999L156.796 68.4499C157.011 68.6646 157.357 68.6646 157.568 68.4499C157.783 68.2386 157.783 67.8931 157.568 67.6784L154.916 65.0284L157.568 62.3784C157.783 62.1637 157.783 61.8181 157.568 61.6068C157.357 61.3921 157.011 61.3921 156.796 61.6068L154.141 64.2569L151.489 61.6068C151.278 61.3955 150.932 61.3955 150.717 61.6068C150.509 61.8181 150.509 62.1637 150.721 62.3784Z" fill="black"/>
<path d="M128.923 62.3784L131.574 65.0284L128.923 67.6784C128.708 67.8897 128.708 68.2352 128.923 68.4499C129.134 68.6646 129.48 68.6646 129.695 68.4499L132.346 65.7999L134.998 68.4499C135.209 68.6646 135.555 68.6646 135.77 68.4499C135.985 68.2386 135.985 67.8931 135.77 67.6784L133.118 65.0284L135.773 62.3784C135.985 62.1637 135.985 61.8181 135.773 61.6068C135.559 61.3921 135.213 61.3921 135.001 61.6068L132.346 64.2569L129.695 61.6068C129.48 61.3955 129.134 61.3955 128.923 61.6068C128.708 61.8181 128.708 62.1637 128.923 62.3784Z" fill="black"/>
<path d="M107.122 62.3784L109.774 65.0284L107.122 67.6784C106.907 67.8897 106.907 68.2352 107.122 68.4499C107.333 68.6646 107.679 68.6646 107.894 68.4499L110.546 65.7999L113.197 68.4499C113.412 68.6646 113.758 68.6646 113.969 68.4499C114.184 68.2386 114.184 67.8931 113.969 67.6784L111.318 65.0284L113.969 62.3784C114.184 62.1637 114.184 61.8181 113.969 61.6068C113.758 61.3921 113.412 61.3921 113.197 61.6068L110.542 64.2569L107.89 61.6068C107.676 61.3955 107.33 61.3955 107.118 61.6068C106.91 61.8181 106.91 62.1637 107.122 62.3784Z" fill="black"/>
<path d="M377.149 288.187L378.654 286.682L380.16 288.187C380.28 288.309 380.477 288.309 380.599 288.187C380.721 288.065 380.721 287.871 380.599 287.749L379.093 286.244L380.599 284.739C380.721 284.618 380.721 284.421 380.599 284.301C380.478 284.179 380.282 284.179 380.16 284.301L378.654 285.806L377.149 284.301C377.027 284.179 376.83 284.179 376.71 284.301C376.588 284.423 376.588 284.618 376.71 284.739L378.216 286.246L376.71 287.751C376.588 287.873 376.588 288.067 376.71 288.189C376.83 288.307 377.027 288.307 377.149 288.187Z" fill="black"/>
<path d="M377.149 300.556L378.655 299.051L380.16 300.556C380.281 300.676 380.477 300.676 380.599 300.556C380.721 300.434 380.721 300.24 380.599 300.118L379.093 298.613L380.599 297.109C380.721 296.989 380.721 296.792 380.599 296.67C380.479 296.55 380.282 296.55 380.16 296.67L378.655 298.175L377.149 296.669C377.027 296.547 376.831 296.547 376.711 296.669C376.589 296.79 376.589 296.985 376.711 297.107L378.216 298.613L376.711 300.118C376.589 300.24 376.589 300.434 376.711 300.556C376.831 300.678 377.027 300.678 377.149 300.556Z" fill="black"/>
<path d="M377.149 312.929L378.655 311.424L380.16 312.929C380.281 313.049 380.477 313.049 380.599 312.929C380.721 312.807 380.721 312.611 380.599 312.491L379.093 310.986L380.599 309.481C380.721 309.361 380.721 309.165 380.599 309.043C380.479 308.921 380.282 308.921 380.16 309.043L378.655 310.548L377.149 309.043C377.027 308.921 376.831 308.921 376.711 309.043C376.589 309.163 376.589 309.359 376.711 309.481L378.216 310.986L376.711 312.491C376.589 312.611 376.589 312.807 376.711 312.929C376.831 313.049 377.027 313.049 377.149 312.929Z" fill="black"/>
<path d="M377.149 325.298L378.655 323.794L380.16 325.298C380.281 325.418 380.477 325.418 380.599 325.298C380.721 325.177 380.721 324.98 380.599 324.86L379.093 323.356L380.599 321.851C380.721 321.729 380.721 321.535 380.599 321.413C380.479 321.293 380.282 321.293 380.16 321.413L378.655 322.917L377.149 321.413C377.027 321.291 376.831 321.291 376.711 321.413C376.589 321.533 376.589 321.729 376.711 321.851L378.216 323.358L376.711 324.862C376.589 324.982 376.589 325.178 376.711 325.3C376.831 325.42 377.027 325.42 377.149 325.298Z" fill="black"/>
<path d="M377.149 337.669L378.655 336.164L380.16 337.669C380.281 337.79 380.477 337.79 380.599 337.669C380.721 337.549 380.721 337.352 380.599 337.23L379.093 335.726L380.599 334.221C380.721 334.099 380.721 333.905 380.599 333.783C380.479 333.661 380.282 333.661 380.16 333.783L378.655 335.288L377.149 333.781C377.027 333.661 376.831 333.661 376.711 333.781C376.589 333.903 376.589 334.099 376.711 334.219L378.216 335.724L376.711 337.229C376.589 337.35 376.589 337.547 376.711 337.667C376.831 337.789 377.027 337.789 377.149 337.669Z" fill="black"/>
<path d="M377.149 350.039L378.655 348.534L380.16 350.039C380.281 350.161 380.477 350.161 380.599 350.039C380.721 349.919 380.721 349.722 380.599 349.601L379.093 348.096L380.599 346.591C380.721 346.469 380.721 346.273 380.599 346.153C380.479 346.031 380.282 346.031 380.16 346.153L378.655 347.658L377.149 346.153C377.027 346.031 376.831 346.031 376.711 346.153C376.589 346.273 376.589 346.469 376.711 346.591L378.216 348.096L376.711 349.601C376.589 349.722 376.589 349.919 376.711 350.039C376.831 350.161 377.027 350.161 377.149 350.039Z" fill="black"/>
<path d="M318.515 284.755L305.414 297.848L305.755 298.189L318.856 285.096L318.515 284.755Z" fill="black"/>
<path d="M327.265 282.958L303.627 306.581L303.968 306.922L327.606 283.299L327.265 282.958Z" fill="black"/>
<path d="M313.109 304.102L304.362 312.843L304.703 313.184L313.45 304.443L313.109 304.102Z" fill="black"/>
<path d="M333.513 283.71L324.766 292.451L325.107 292.792L333.854 284.051L333.513 283.71Z" fill="black"/>
<path d="M313.34 310.804L306.265 317.874L306.606 318.215L313.681 311.145L313.34 310.804Z" fill="black"/>
<path d="M338.567 285.61L331.492 292.68L331.833 293.021L338.908 285.951L338.567 285.61Z" fill="black"/>
<path d="M315.59 315.536L309.028 322.094L309.369 322.435L315.931 315.877L315.59 315.536Z" fill="black"/>
<path d="M342.772 288.355L336.211 294.912L336.552 295.252L343.113 288.696L342.772 288.355Z" fill="black"/>
<path d="M319.088 319.019L312.522 325.581L312.863 325.922L319.429 319.36L319.088 319.019Z" fill="black"/>
<path d="M346.25 291.844L339.685 298.404L340.026 298.745L346.591 292.184L346.25 291.844Z" fill="black"/>
<path d="M323.831 321.213L316.738 328.301L317.079 328.642L324.172 321.553L323.831 321.213Z" fill="black"/>
<path d="M349 296.075L341.909 303.163L342.25 303.503L349.341 296.416L349 296.075Z" fill="black"/>
<path d="M322.166 330.544L321.824 330.203L330.701 321.334H330.802V321.573H331.044L330.922 321.694L330.971 321.746L322.166 330.544Z" fill="black"/>
<path d="M342.266 310.357V310.117L342.026 310.115V310.016L350.9 301.146L351.241 301.486L342.508 310.216V310.357H342.266Z" fill="black"/>
<path d="M351.592 307.402L328.083 330.896L328.424 331.236L351.933 307.743L351.592 307.402Z" fill="black"/>
<path d="M349.729 316.259L336.931 329.049L337.272 329.39L350.07 316.6L349.729 316.259Z" fill="black"/>
<path opacity="0.5" d="M223.921 1142.77C267.514 1099.2 267.514 1028.57 223.921 985.006C180.328 941.441 109.65 941.441 66.0568 985.006C22.4638 1028.57 22.4638 1099.2 66.0567 1142.77C109.65 1186.33 180.328 1186.33 223.921 1142.77Z" fill="#EAEAEA"/>
<path d="M262.079 848.228C270.149 840.163 270.149 827.087 262.079 819.022C254.009 810.957 240.924 810.957 232.854 819.022C224.784 827.087 224.784 840.163 232.854 848.228C240.924 856.293 254.009 856.293 262.079 848.228Z" fill="black"/>
<path d="M-44 797.097L-25.5054 812.17L-6.79561 796.921L11.9142 812.17L30.6195 796.921L49.3293 812.17L68.0391 796.921L85 810.746V806.487L68.0391 792.663L49.3293 807.912L30.6195 792.663L11.9142 807.912L-6.79561 792.663L-25.5054 807.912L-44 792.839V797.097Z" fill="black"/>
<path d="M-44 779.771L-25.5054 794.843L-6.79561 779.602L11.9142 794.843L30.6195 779.602L49.3293 794.843L68.0391 779.602L85 793.419V789.161L68.0391 775.344L49.3293 790.585L30.6195 775.344L11.9142 790.585L-6.79561 775.344L-25.5054 790.585L-44 775.513V779.771Z" fill="black"/>
<path d="M-44 762.447L-25.5054 777.512L-6.79561 762.271L11.9142 777.512L30.6195 762.271L49.3293 777.512L68.0391 762.271L85 776.088V771.837L68.0391 758.013L49.3293 773.254L30.6195 758.013L11.9142 773.254L-6.79561 758.013L-25.5054 773.254L-44 758.189V762.447Z" fill="black"/>
<path d="M-44 745.124L-25.5054 760.196L-6.79561 744.948L11.9142 760.196L30.6195 744.948L49.3293 760.196L68.0391 744.948L85 758.772V754.514L68.0391 740.689L49.3293 755.938L30.6195 740.689L11.9142 755.938L-6.79561 740.689L-25.5054 755.938L-44 740.866V745.124Z" fill="black"/>
<path d="M270.411 933.602C272.15 930.594 271.12 926.747 268.11 925.01C265.1 923.272 261.251 924.302 259.512 927.31C257.774 930.318 258.804 934.164 261.814 935.902C264.824 937.639 268.673 936.61 270.411 933.602Z" fill="#590209"/>
<path d="M295.784 930.749V841.955H296.745V930.749H295.784Z" fill="black"/>
<path d="M288.848 930.748V841.954H289.809V930.748H288.848Z" fill="black"/>
<path d="M389.238 740.344C386.405 740.344 384.106 742.641 384.106 745.472C384.106 748.304 386.405 750.601 389.238 750.601C392.071 750.601 394.37 748.304 394.37 745.472C394.37 742.641 392.071 740.344 389.238 740.344Z" fill="#FD4C38"/>
<path d="M412.709 740.344C409.876 740.344 407.577 742.641 407.577 745.472C407.577 748.304 409.876 750.601 412.709 750.601C415.542 750.601 417.841 748.304 417.841 745.472C417.841 742.641 415.542 740.344 412.709 740.344Z" fill="#FD4C38"/>
<path d="M436.181 740.344C433.347 740.344 431.049 742.641 431.049 745.472C431.049 748.304 433.347 750.601 436.181 750.601C439.014 750.601 441.312 748.304 441.312 745.472C441.312 742.641 439.014 740.344 436.181 740.344Z" fill="#FD4C38"/>
<path d="M459.643 740.344C456.81 740.344 454.511 742.641 454.511 745.472C454.511 748.304 456.81 750.601 459.643 750.601C462.476 750.601 464.775 748.304 464.775 745.472C464.775 742.641 462.476 740.344 459.643 740.344Z" fill="#FD4C38"/>
<path d="M483.115 740.344C480.281 740.344 477.983 742.641 477.983 745.472C477.983 748.304 480.281 750.601 483.115 750.601C485.948 750.601 488.246 748.304 488.246 745.472C488.246 742.641 485.948 740.344 483.115 740.344Z" fill="#FD4C38"/>
<path d="M506.587 740.344C503.753 740.344 501.455 742.641 501.455 745.472C501.455 748.304 503.753 750.601 506.587 750.601C509.42 750.601 511.719 748.304 511.719 745.472C511.719 742.641 509.42 740.344 506.587 740.344Z" fill="#FD4C38"/>
<path d="M530.049 740.344C527.216 740.344 524.917 742.641 524.917 745.472C524.917 748.304 527.216 750.601 530.049 750.601C532.882 750.601 535.181 748.304 535.181 745.472C535.181 742.641 532.891 740.344 530.049 740.344Z" fill="#FD4C38"/>
<path d="M553.519 740.344C550.686 740.344 548.387 742.641 548.387 745.472C548.387 748.304 550.686 750.601 553.519 750.601C556.352 750.601 558.651 748.304 558.651 745.472C558.651 742.641 556.352 740.344 553.519 740.344Z" fill="#FD4C38"/>
<path d="M576.991 740.344C574.158 740.344 571.859 742.641 571.859 745.472C571.859 748.304 574.158 750.601 576.991 750.601C579.824 750.601 582.123 748.304 582.123 745.472C582.123 742.641 579.824 740.344 576.991 740.344Z" fill="#FD4C38"/>
<path d="M600.462 740.344C597.628 740.344 595.33 742.641 595.33 745.472C595.33 748.304 597.628 750.601 600.462 750.601C603.295 750.601 605.594 748.304 605.594 745.472C605.594 742.641 603.295 740.344 600.462 740.344Z" fill="#FD4C38"/>
<path d="M623.925 740.344C621.091 740.344 618.793 742.641 618.793 745.472C618.793 748.304 621.091 750.601 623.925 750.601C626.758 750.601 629.057 748.304 629.057 745.472C629.057 742.641 626.758 740.344 623.925 740.344Z" fill="#FD4C38"/>
<path d="M647.396 740.344C644.563 740.344 642.264 742.641 642.264 745.472C642.264 748.304 644.563 750.601 647.396 750.601C650.23 750.601 652.528 748.304 652.528 745.472C652.528 742.641 650.23 740.344 647.396 740.344Z" fill="#FD4C38"/>
<path d="M670.868 740.344C668.035 740.344 665.736 742.641 665.736 745.472C665.736 748.304 668.035 750.601 670.868 750.601C673.701 750.601 676 748.304 676 745.472C676 742.641 673.701 740.344 670.868 740.344Z" fill="#FD4C38"/>
<path d="M365.768 714.055C362.935 714.055 360.636 716.352 360.636 719.183C360.636 722.015 362.935 724.312 365.768 724.312C368.601 724.312 370.9 722.015 370.9 719.183C370.9 716.352 368.61 714.055 365.768 714.055Z" fill="#FD4C38"/>
<path d="M389.239 714.055C386.406 714.055 384.107 716.352 384.107 719.183C384.107 722.015 386.406 724.312 389.239 724.312C392.072 724.312 394.371 722.015 394.371 719.183C394.371 716.352 392.072 714.055 389.239 714.055Z" fill="#FD4C38"/>
<path d="M412.71 714.055C409.877 714.055 407.578 716.352 407.578 719.183C407.578 722.015 409.877 724.312 412.71 724.312C415.543 724.312 417.842 722.015 417.842 719.183C417.842 716.352 415.543 714.055 412.71 714.055Z" fill="#FD4C38"/>
<path d="M436.182 714.055C433.349 714.055 431.05 716.352 431.05 719.183C431.05 722.015 433.349 724.312 436.182 724.312C439.015 724.312 441.314 722.015 441.314 719.183C441.314 716.352 439.015 714.055 436.182 714.055Z" fill="#FD4C38"/>
<path d="M459.644 714.055C456.811 714.055 454.512 716.352 454.512 719.183C454.512 722.015 456.811 724.312 459.644 724.312C462.478 724.312 464.776 722.015 464.776 719.183C464.776 716.352 462.478 714.055 459.644 714.055Z" fill="#FD4C38"/>
<path d="M483.116 714.055C480.283 714.055 477.984 716.352 477.984 719.183C477.984 722.015 480.283 724.312 483.116 724.312C485.949 724.312 488.248 722.015 488.248 719.183C488.248 716.352 485.949 714.055 483.116 714.055Z" fill="#FD4C38"/>
<path d="M506.587 714.055C503.754 714.055 501.455 716.352 501.455 719.183C501.455 722.015 503.754 724.312 506.587 724.312C509.42 724.312 511.719 722.015 511.719 719.183C511.719 716.352 509.42 714.055 506.587 714.055Z" fill="#FD4C38"/>
<path d="M530.049 714.055C527.216 714.055 524.917 716.352 524.917 719.183C524.917 722.015 527.216 724.312 530.049 724.312C532.883 724.312 535.181 722.015 535.181 719.183C535.181 716.352 532.891 714.055 530.049 714.055Z" fill="#FD4C38"/>
<path d="M553.521 714.055C550.688 714.055 548.389 716.352 548.389 719.183C548.389 722.015 550.688 724.312 553.521 724.312C556.354 724.312 558.653 722.015 558.653 719.183C558.653 716.352 556.354 714.055 553.521 714.055Z" fill="#FD4C38"/>
<path d="M576.992 714.055C574.159 714.055 571.86 716.352 571.86 719.183C571.86 722.015 574.159 724.312 576.992 724.312C579.825 724.312 582.124 722.015 582.124 719.183C582.124 716.352 579.825 714.055 576.992 714.055Z" fill="#FD4C38"/>
<path d="M600.464 714.055C597.631 714.055 595.332 716.352 595.332 719.183C595.332 722.015 597.631 724.312 600.464 724.312C603.297 724.312 605.596 722.015 605.596 719.183C605.596 716.352 603.297 714.055 600.464 714.055Z" fill="#FD4C38"/>
<path d="M623.927 714.055C621.094 714.055 618.795 716.352 618.795 719.183C618.795 722.015 621.094 724.312 623.927 724.312C626.76 724.312 629.059 722.015 629.059 719.183C629.059 716.352 626.76 714.055 623.927 714.055Z" fill="#FD4C38"/>
<path d="M647.398 714.055C644.564 714.055 642.266 716.352 642.266 719.183C642.266 722.015 644.564 724.312 647.398 724.312C650.231 724.312 652.53 722.015 652.53 719.183C652.53 716.352 650.231 714.055 647.398 714.055Z" fill="#FD4C38"/>
</svg>
