<svg width="697" height="1024" viewBox="0 0 697 1024" fill="none" xmlns="http://www.w3.org/2000/svg">
<path opacity="0.5" d="M88.2388 266.608C117.013 266.608 140.339 243.297 140.339 214.541C140.339 185.785 117.013 162.474 88.2388 162.474C59.4647 162.474 36.1387 185.785 36.1387 214.541C36.1387 243.297 59.4647 266.608 88.2388 266.608Z" fill="#EAEAEA"/>
<path d="M77.4736 202.18L77.4736 123.815H76.7665L76.7665 202.18H77.4736Z" fill="black"/>
<path d="M83.416 206.388L83.416 128.024H82.7089L82.7089 206.388H83.416Z" fill="black"/>
<path d="M103.727 218.481L104.667 219.42L103.727 220.359C103.651 220.436 103.651 220.558 103.727 220.632C103.803 220.708 103.925 220.708 104 220.632L104.939 219.693L105.879 220.632C105.955 220.708 106.077 220.708 106.152 220.632C106.228 220.556 106.228 220.434 106.152 220.359L105.212 219.42L106.152 218.481C106.228 218.405 106.228 218.283 106.152 218.209C106.075 218.133 105.953 218.133 105.879 218.209L104.939 219.148L104 218.209C103.923 218.133 103.801 218.133 103.727 218.209C103.651 218.283 103.651 218.407 103.727 218.481Z" fill="black"/>
<path d="M96.0123 218.481L96.9519 219.42L96.0123 220.359C95.936 220.436 95.936 220.558 96.0123 220.632C96.0885 220.708 96.2105 220.708 96.2848 220.632L97.2245 219.693L98.1641 220.632C98.2404 220.708 98.3624 220.708 98.4367 220.632C98.5129 220.556 98.5129 220.434 98.4367 220.359L97.497 219.42L98.4367 218.481C98.5129 218.405 98.5129 218.283 98.4367 218.209C98.3604 218.133 98.2385 218.133 98.1641 218.209L97.2245 219.148L96.2848 218.209C96.2086 218.133 96.0866 218.133 96.0123 218.209C95.936 218.283 95.936 218.407 96.0123 218.481Z" fill="black"/>
<path d="M88.2964 218.481L89.2361 219.42L88.2964 220.359C88.2202 220.436 88.2202 220.558 88.2964 220.632C88.3727 220.708 88.4947 220.708 88.569 220.632L89.5086 219.693L90.4483 220.632C90.5245 220.708 90.6465 220.708 90.7209 220.632C90.7971 220.556 90.7971 220.434 90.7209 220.359L89.7812 219.42L90.7209 218.481C90.7971 218.405 90.7971 218.283 90.7209 218.209C90.6446 218.133 90.5226 218.133 90.4483 218.209L89.5086 219.148L88.569 218.209C88.4928 218.133 88.3708 218.133 88.2964 218.209C88.2202 218.283 88.2202 218.407 88.2964 218.481Z" fill="black"/>
<path d="M80.5806 218.481L81.5203 219.42L80.5806 220.359C80.5044 220.436 80.5044 220.558 80.5806 220.632C80.6569 220.708 80.7788 220.708 80.8532 220.632L81.7928 219.693L82.7325 220.632C82.8087 220.708 82.9307 220.708 83.005 220.632C83.0813 220.556 83.0813 220.434 83.005 220.359L82.0654 219.42L83.005 218.481C83.0813 218.405 83.0813 218.283 83.005 218.209C82.9288 218.133 82.8068 218.133 82.7325 218.209L81.7928 219.148L80.8532 218.209C80.7769 218.133 80.655 218.133 80.5806 218.209C80.5044 218.283 80.5044 218.407 80.5806 218.481Z" fill="black"/>
<path d="M72.8658 218.481L73.8054 219.42L72.8658 220.359C72.7895 220.436 72.7895 220.558 72.8658 220.632C72.942 220.708 73.064 220.708 73.1383 220.632L74.078 219.693L75.0176 220.632C75.0939 220.708 75.2158 220.708 75.2902 220.632C75.3664 220.556 75.3664 220.434 75.2902 220.359L74.3505 219.42L75.2902 218.481C75.3664 218.405 75.3664 218.283 75.2902 218.209C75.2139 218.133 75.092 218.133 75.0176 218.209L74.078 219.148L73.1383 218.209C73.0621 218.133 72.9401 218.133 72.8658 218.209C72.7895 218.283 72.7895 218.407 72.8658 218.481Z" fill="black"/>
<path d="M65.15 218.481L66.0896 219.42L65.15 220.359C65.0737 220.436 65.0737 220.558 65.15 220.632C65.2262 220.708 65.3482 220.708 65.4225 220.632L66.3622 219.693L67.3018 220.632C67.3781 220.708 67.5 220.708 67.5744 220.632C67.6506 220.556 67.6506 220.434 67.5744 220.359L66.6347 219.42L67.5744 218.481C67.6506 218.405 67.6506 218.283 67.5744 218.209C67.4981 218.133 67.3762 218.133 67.3018 218.209L66.3622 219.148L65.4225 218.209C65.3463 218.133 65.2243 218.133 65.15 218.209C65.0737 218.283 65.0737 218.407 65.15 218.481Z" fill="black"/>
<path opacity="0.5" d="M183.701 708.004C192.158 699.553 192.158 685.85 183.701 677.398C175.244 668.946 161.533 668.946 153.076 677.398C144.618 685.85 144.618 699.553 153.076 708.004C161.533 716.456 175.244 716.456 183.701 708.004Z" fill="#EAEAEA"/>
<path d="M77.3096 735.987L77.3096 657.623H76.6024L76.6024 735.987H77.3096Z" fill="black"/>
<path d="M82.9082 741.076L82.9082 673.022H82.2011L82.2011 741.076H82.9082Z" fill="black"/>
<path d="M129.825 485.459C129.825 486.095 129.308 486.611 128.672 486.611C128.035 486.611 127.519 486.095 127.519 485.459C127.519 484.823 128.035 484.307 128.672 484.307C129.308 484.307 129.825 484.823 129.825 485.459Z" fill="#FD4C38"/>
<path d="M129.825 480.189C129.825 480.826 129.308 481.342 128.672 481.342C128.035 481.342 127.519 480.826 127.519 480.189C127.519 479.553 128.035 479.037 128.672 479.037C129.308 479.037 129.825 479.553 129.825 480.189Z" fill="#FD4C38"/>
<path d="M129.825 474.921C129.825 475.557 129.308 476.073 128.672 476.073C128.035 476.073 127.519 475.557 127.519 474.921C127.519 474.285 128.035 473.769 128.672 473.769C129.308 473.769 129.825 474.285 129.825 474.921Z" fill="#FD4C38"/>
<path d="M129.825 469.651C129.825 470.288 129.308 470.804 128.672 470.804C128.035 470.804 127.519 470.288 127.519 469.651C127.519 469.015 128.035 468.499 128.672 468.499C129.308 468.499 129.825 469.015 129.825 469.651Z" fill="#FD4C38"/>
<path d="M129.825 464.379C129.825 465.015 129.308 465.531 128.672 465.531C128.035 465.531 127.519 465.015 127.519 464.379C127.519 463.743 128.035 463.227 128.672 463.227C129.308 463.227 129.825 463.743 129.825 464.379Z" fill="#FD4C38"/>
<path d="M129.825 459.108C129.825 459.745 129.308 460.261 128.672 460.261C128.035 460.261 127.519 459.745 127.519 459.108C127.519 458.472 128.035 457.956 128.672 457.956C129.308 457.958 129.825 458.472 129.825 459.108Z" fill="#FD4C38"/>
<path d="M129.825 453.841C129.825 454.477 129.308 454.993 128.672 454.993C128.035 454.993 127.519 454.477 127.519 453.841C127.519 453.205 128.035 452.688 128.672 452.688C129.308 452.688 129.825 453.205 129.825 453.841Z" fill="#FD4C38"/>
<path d="M129.825 448.571C129.825 449.207 129.308 449.723 128.672 449.723C128.035 449.723 127.519 449.207 127.519 448.571C127.519 447.935 128.035 447.418 128.672 447.418C129.308 447.418 129.825 447.935 129.825 448.571Z" fill="#FD4C38"/>
<path d="M129.825 443.3C129.825 443.937 129.308 444.453 128.672 444.453C128.035 444.453 127.519 443.937 127.519 443.3C127.519 442.664 128.035 442.148 128.672 442.148C129.308 442.148 129.825 442.664 129.825 443.3Z" fill="#FD4C38"/>
<path d="M129.825 438.031C129.825 438.667 129.308 439.184 128.672 439.184C128.035 439.184 127.519 438.667 127.519 438.031C127.519 437.395 128.035 436.879 128.672 436.879C129.308 436.879 129.825 437.395 129.825 438.031Z" fill="#FD4C38"/>
<path d="M129.825 432.761C129.825 433.397 129.308 433.913 128.672 433.913C128.035 433.913 127.519 433.397 127.519 432.761C127.519 432.125 128.035 431.608 128.672 431.608C129.308 431.608 129.825 432.125 129.825 432.761Z" fill="#FD4C38"/>
<path d="M129.825 427.49C129.825 428.126 129.308 428.642 128.672 428.642C128.035 428.642 127.519 428.126 127.519 427.49C127.519 426.854 128.035 426.337 128.672 426.337C129.308 426.337 129.825 426.854 129.825 427.49Z" fill="#FD4C38"/>
<path d="M129.825 422.221C129.825 422.857 129.308 423.374 128.672 423.374C128.035 423.374 127.519 422.857 127.519 422.221C127.519 421.585 128.035 421.069 128.672 421.069C129.308 421.069 129.825 421.583 129.825 422.221Z" fill="#FD4C38"/>
<path d="M135.736 490.73C135.736 491.366 135.219 491.882 134.583 491.882C133.946 491.882 133.43 491.366 133.43 490.73C133.43 490.093 133.946 489.577 134.583 489.577C135.219 489.577 135.736 490.093 135.736 490.73Z" fill="#FD4C38"/>
<path d="M135.736 485.46C135.736 486.096 135.219 486.612 134.583 486.612C133.946 486.612 133.43 486.096 133.43 485.46C133.43 484.824 133.946 484.308 134.583 484.308C135.219 484.308 135.736 484.824 135.736 485.46Z" fill="#FD4C38"/>
<path d="M135.736 480.189C135.736 480.826 135.219 481.342 134.583 481.342C133.946 481.342 133.43 480.826 133.43 480.189C133.43 479.553 133.946 479.037 134.583 479.037C135.219 479.037 135.736 479.553 135.736 480.189Z" fill="#FD4C38"/>
<path d="M135.736 474.921C135.736 475.557 135.219 476.073 134.583 476.073C133.946 476.073 133.43 475.557 133.43 474.921C133.43 474.285 133.946 473.769 134.583 473.769C135.219 473.769 135.736 474.285 135.736 474.921Z" fill="#FD4C38"/>
<path d="M135.736 469.649C135.736 470.286 135.219 470.802 134.583 470.802C133.946 470.802 133.43 470.286 133.43 469.649C133.43 469.013 133.946 468.497 134.583 468.497C135.219 468.497 135.736 469.013 135.736 469.649Z" fill="#FD4C38"/>
<path d="M135.736 464.38C135.736 465.016 135.219 465.532 134.583 465.532C133.946 465.532 133.43 465.016 133.43 464.38C133.43 463.744 133.946 463.228 134.583 463.228C135.219 463.228 135.736 463.744 135.736 464.38Z" fill="#FD4C38"/>
<path d="M135.736 459.11C135.736 459.747 135.219 460.263 134.583 460.263C133.946 460.263 133.43 459.747 133.43 459.11C133.43 458.474 133.946 457.958 134.583 457.958C135.219 457.958 135.736 458.472 135.736 459.11Z" fill="#FD4C38"/>
<path d="M135.736 453.841C135.736 454.477 135.219 454.993 134.583 454.993C133.946 454.993 133.43 454.477 133.43 453.841C133.43 453.205 133.946 452.688 134.583 452.688C135.219 452.688 135.736 453.205 135.736 453.841Z" fill="#FD4C38"/>
<path d="M135.736 448.57C135.736 449.206 135.219 449.722 134.583 449.722C133.946 449.722 133.43 449.206 133.43 448.57C133.43 447.934 133.946 447.417 134.583 447.417C135.219 447.417 135.736 447.934 135.736 448.57Z" fill="#FD4C38"/>
<path d="M135.736 443.299C135.736 443.935 135.219 444.451 134.583 444.451C133.946 444.451 133.43 443.935 133.43 443.299C133.43 442.663 133.946 442.146 134.583 442.146C135.219 442.146 135.736 442.663 135.736 443.299Z" fill="#FD4C38"/>
<path d="M135.736 438.03C135.736 438.667 135.219 439.183 134.583 439.183C133.946 439.183 133.43 438.667 133.43 438.03C133.43 437.394 133.946 436.878 134.583 436.878C135.219 436.878 135.736 437.394 135.736 438.03Z" fill="#FD4C38"/>
<path d="M135.736 432.76C135.736 433.396 135.219 433.912 134.583 433.912C133.946 433.912 133.43 433.396 133.43 432.76C133.43 432.124 133.946 431.607 134.583 431.607C135.219 431.607 135.736 432.124 135.736 432.76Z" fill="#FD4C38"/>
<path d="M135.736 427.49C135.736 428.126 135.219 428.642 134.583 428.642C133.946 428.642 133.43 428.126 133.43 427.49C133.43 426.854 133.946 426.337 134.583 426.337C135.219 426.337 135.736 426.854 135.736 427.49Z" fill="#FD4C38"/>
<path d="M182.161 518.936L183.667 520.441L182.161 521.945C182.039 522.065 182.039 522.262 182.161 522.383C182.283 522.503 182.477 522.503 182.599 522.383L184.105 520.879L185.611 522.383C185.733 522.503 185.929 522.503 186.049 522.383C186.171 522.263 186.171 522.067 186.049 521.945L184.543 520.441L186.049 518.936C186.171 518.814 186.171 518.618 186.049 518.498C185.929 518.376 185.733 518.376 185.611 518.498L184.103 520.002L182.597 518.498C182.475 518.376 182.281 518.376 182.159 518.498C182.041 518.618 182.041 518.814 182.161 518.936Z" fill="black"/>
<path d="M169.784 518.936L171.289 520.441L169.784 521.945C169.664 522.065 169.664 522.262 169.784 522.383C169.906 522.503 170.1 522.503 170.222 522.383L171.728 520.879L173.233 522.383C173.354 522.503 173.55 522.503 173.672 522.383C173.792 522.263 173.792 522.067 173.672 521.945L172.166 520.441L173.674 518.936C173.796 518.814 173.796 518.618 173.674 518.498C173.552 518.376 173.357 518.376 173.235 518.498L171.73 520.002L170.224 518.498C170.102 518.376 169.908 518.376 169.786 518.498C169.662 518.618 169.662 518.814 169.784 518.936Z" fill="black"/>
<path d="M157.405 518.936L158.91 520.441L157.405 521.945C157.284 522.065 157.284 522.262 157.405 522.383C157.526 522.503 157.723 522.503 157.843 522.383L159.349 520.879L160.854 522.383C160.974 522.503 161.173 522.503 161.293 522.383C161.415 522.263 161.415 522.067 161.293 521.945L159.787 520.441L161.293 518.936C161.415 518.814 161.415 518.618 161.293 518.498C161.173 518.376 160.976 518.376 160.854 518.498L159.349 520.002L157.843 518.498C157.723 518.376 157.526 518.376 157.405 518.498C157.284 518.618 157.284 518.814 157.405 518.936Z" fill="black"/>
<path d="M145.027 518.936L146.533 520.441L145.027 521.945C144.907 522.065 144.907 522.262 145.027 522.383C145.149 522.503 145.346 522.503 145.466 522.383L146.971 520.879L148.477 522.383C148.599 522.503 148.794 522.503 148.915 522.383C149.037 522.263 149.037 522.067 148.915 521.945L147.41 520.441L148.915 518.936C149.037 518.814 149.037 518.618 148.915 518.498C148.795 518.376 148.599 518.376 148.477 518.498L146.969 520.002L145.464 518.498C145.344 518.376 145.147 518.376 145.025 518.498C144.905 518.618 144.905 518.814 145.027 518.936Z" fill="black"/>
<path d="M132.647 518.936L134.153 520.441L132.647 521.945C132.525 522.065 132.525 522.262 132.647 522.383C132.767 522.503 132.964 522.503 133.086 522.383L134.591 520.879L136.097 522.383C136.219 522.503 136.413 522.503 136.535 522.383C136.657 522.263 136.657 522.067 136.535 521.945L135.03 520.441L136.537 518.936C136.657 518.814 136.657 518.618 136.537 518.498C136.415 518.376 136.219 518.376 136.099 518.498L134.593 520.002L133.087 518.498C132.965 518.376 132.769 518.376 132.649 518.498C132.527 518.618 132.527 518.814 132.647 518.936Z" fill="black"/>
<path d="M120.27 518.936L121.776 520.441L120.27 521.945C120.148 522.065 120.148 522.262 120.27 522.383C120.39 522.503 120.587 522.503 120.709 522.383L122.214 520.879L123.72 522.383C123.842 522.503 124.038 522.503 124.158 522.383C124.278 522.263 124.278 522.067 124.158 521.945L122.653 520.441L124.158 518.936C124.28 518.814 124.28 518.618 124.158 518.498C124.038 518.376 123.842 518.376 123.72 518.498L122.214 520.002L120.709 518.498C120.589 518.376 120.39 518.376 120.27 518.498C120.148 518.618 120.148 518.814 120.27 518.936Z" fill="black"/>
<path opacity="0.5" d="M315.756 380.806C335.241 380.806 351.036 365.021 351.036 345.549C351.036 326.077 335.241 310.292 315.756 310.292C296.272 310.292 280.477 326.077 280.477 345.549C280.477 365.021 296.272 380.806 315.756 380.806Z" fill="#EAEAEA"/>
<path opacity="0.5" d="M517.811 108.253C562.076 108.253 597.96 72.3687 597.96 28.1036C597.96 -16.1615 562.076 -52.0454 517.811 -52.0454C473.546 -52.0454 437.662 -16.1615 437.662 28.1036C437.662 72.3687 473.546 108.253 517.811 108.253Z" fill="#EAEAEA"/>
<path d="M384.749 101.251C384.749 109.414 378.477 116.034 370.74 116.034C363.003 116.034 356.735 109.414 356.735 101.251C356.735 93.084 363.003 86.4644 370.74 86.4644C378.477 86.4644 384.749 93.084 384.749 101.251Z" fill="black"/>
<path d="M336.869 -85.9604C375.53 -85.9604 406.985 -54.5257 406.985 -15.889C406.985 22.7477 375.53 54.1824 336.869 54.1824C298.208 54.1824 266.753 22.7477 266.753 -15.889C266.753 -54.5257 298.208 -85.9604 336.869 -85.9604ZM336.869 53.2767C375.034 53.2767 406.082 22.2479 406.082 -15.8924C406.082 -54.0326 375.034 -85.0615 336.869 -85.0615C298.704 -85.0615 267.656 -54.0326 267.656 -15.8924C267.656 22.2479 298.708 53.2767 336.869 53.2767Z" fill="#FD4C38"/>
<path d="M336.868 -77.5171C370.871 -77.5171 398.532 -49.8729 398.532 -15.8922C398.532 18.0886 370.871 45.7327 336.868 45.7327C302.866 45.7327 275.204 18.0886 275.204 -15.8922C275.207 -49.8696 302.869 -77.5171 336.868 -77.5171ZM336.868 44.8337C370.374 44.8337 397.63 17.5921 397.63 -15.8888C397.63 -49.3731 370.371 -76.6114 336.868 -76.6114C303.366 -76.6114 276.107 -49.3698 276.107 -15.8888C276.107 17.5921 303.366 44.8337 336.868 44.8337Z" fill="#FD4C38"/>
<path d="M336.869 -69.0698C366.21 -69.0698 390.082 -45.2129 390.082 -15.8915C390.082 13.4299 366.21 37.2869 336.869 37.2869C307.529 37.2869 283.657 13.4299 283.657 -15.8915C283.657 -45.2129 307.529 -69.0698 336.869 -69.0698ZM336.869 36.3879C365.713 36.3879 389.179 12.9368 389.179 -15.8881C389.179 -44.713 365.713 -68.1641 336.869 -68.1641C308.026 -68.1641 284.56 -44.713 284.56 -15.8881C284.56 12.9368 308.026 36.3879 336.869 36.3879Z" fill="#FD4C38"/>
<path d="M336.869 -60.6245C361.55 -60.6245 381.629 -40.5581 381.629 -15.8927C381.629 8.77267 361.55 28.8391 336.869 28.8391C312.188 28.8391 292.108 8.77267 292.108 -15.8927C292.108 -40.5581 312.188 -60.6245 336.869 -60.6245ZM336.869 27.9401C361.053 27.9401 380.729 8.27621 380.729 -15.8927C380.729 -40.0616 361.053 -59.7255 336.869 -59.7255C312.684 -59.7255 293.008 -40.0616 293.008 -15.8927C293.011 8.27621 312.684 27.9401 336.869 27.9401Z" fill="#FD4C38"/>
<path d="M336.869 -52.1768C356.891 -52.1768 373.177 -35.8975 373.177 -15.8915C373.177 4.11789 356.888 20.3937 336.869 20.3937C316.85 20.3937 300.561 4.11453 300.561 -15.8915C300.561 -35.8975 316.85 -52.1768 336.869 -52.1768ZM336.869 19.4948C356.394 19.4948 372.278 3.62142 372.278 -15.8915C372.278 -35.4044 356.394 -51.2778 336.869 -51.2778C317.344 -51.2778 301.46 -35.4044 301.46 -15.8915C301.464 3.62142 317.347 19.4948 336.869 19.4948Z" fill="#FD4C38"/>
<path d="M336.869 -43.7314C352.228 -43.7314 364.728 -31.2428 364.728 -15.8894C364.728 -0.539345 352.232 11.9527 336.869 11.9527C321.509 11.9527 309.009 -0.535992 309.009 -15.8894C309.012 -31.2428 321.509 -43.7314 336.869 -43.7314ZM336.869 11.047C351.732 11.047 363.825 -1.03917 363.825 -15.8927C363.825 -30.7463 351.732 -42.8325 336.869 -42.8325C322.006 -42.8325 309.912 -30.7463 309.912 -15.8927C309.912 -1.03581 322.006 11.047 336.869 11.047Z" fill="#FD4C38"/>
<path d="M336.869 -35.2842C347.57 -35.2842 356.277 -26.5827 356.277 -15.8887C356.277 -5.19462 347.57 3.50687 336.869 3.50687C326.168 3.50687 317.461 -5.19462 317.461 -15.8887C317.464 -26.586 326.168 -35.2842 336.869 -35.2842ZM336.869 2.60116C347.073 2.60116 355.374 -5.69444 355.374 -15.892C355.374 -26.0896 347.073 -34.3852 336.869 -34.3852C326.665 -34.3852 318.364 -26.0896 318.364 -15.892C318.364 -5.69444 326.665 2.60116 336.869 2.60116Z" fill="#FD4C38"/>
<path d="M237.12 68.2006L239.772 70.8506L237.12 73.5007C236.906 73.712 236.906 74.0575 237.12 74.2722C237.335 74.4869 237.678 74.4869 237.893 74.2722L240.544 71.6222L243.196 74.2722C243.411 74.4869 243.757 74.4869 243.968 74.2722C244.183 74.0609 244.183 73.7154 243.968 73.5007L241.316 70.8506L243.968 68.2006C244.183 67.9859 244.183 67.6404 243.968 67.4291C243.753 67.2144 243.411 67.2144 243.196 67.4291L240.541 70.0791L237.889 67.4291C237.674 67.2177 237.332 67.2177 237.117 67.4291C236.906 67.6404 236.906 67.9859 237.12 68.2006Z" fill="black"/>
<path d="M215.32 68.2006L217.971 70.8506L215.32 73.5007C215.108 73.712 215.108 74.0575 215.32 74.2722C215.535 74.4869 215.877 74.4869 216.092 74.2722L218.743 71.6222L221.395 74.2722C221.607 74.4869 221.952 74.4869 222.167 74.2722C222.379 74.0609 222.379 73.7154 222.167 73.5007L219.512 70.8506L222.167 68.2006C222.382 67.9859 222.382 67.6404 222.167 67.4291C221.952 67.2144 221.61 67.2144 221.395 67.4291L218.743 70.0791L216.092 67.4291C215.877 67.2177 215.535 67.2177 215.32 67.4291C215.108 67.6404 215.108 67.9859 215.32 68.2006Z" fill="black"/>
<path d="M193.521 68.2006L196.177 70.8506L193.521 73.5007C193.31 73.712 193.31 74.0575 193.521 74.2722C193.736 74.4869 194.082 74.4869 194.294 74.2722L196.945 71.6222L199.597 74.2722C199.808 74.4869 200.154 74.4869 200.369 74.2722C200.584 74.0609 200.584 73.7154 200.369 73.5007L197.717 70.8506L200.369 68.2006C200.584 67.9859 200.584 67.6404 200.369 67.4291C200.157 67.2144 199.812 67.2144 199.597 67.4291L196.945 70.0791L194.294 67.4291C194.082 67.2177 193.733 67.2177 193.521 67.4291C193.307 67.6404 193.307 67.9859 193.521 68.2006Z" fill="black"/>
<path d="M171.721 68.2006L174.372 70.8506L171.721 73.5007C171.509 73.712 171.509 74.0575 171.721 74.2722C171.935 74.4869 172.281 74.4869 172.493 74.2722L175.144 71.6222L177.796 74.2722C178.011 74.4869 178.357 74.4869 178.568 74.2722C178.783 74.0609 178.783 73.7154 178.568 73.5007L175.916 70.8506L178.568 68.2006C178.783 67.9859 178.783 67.6404 178.568 67.4291C178.357 67.2144 178.011 67.2144 177.796 67.4291L175.141 70.0791L172.489 67.4291C172.278 67.2177 171.932 67.2177 171.717 67.4291C171.509 67.6404 171.509 67.9859 171.721 68.2006Z" fill="black"/>
<path d="M149.923 68.2006L152.575 70.8506L149.923 73.5007C149.708 73.712 149.708 74.0575 149.923 74.2722C150.134 74.4869 150.48 74.4869 150.695 74.2722L153.347 71.6222L155.998 74.2722C156.21 74.4869 156.555 74.4869 156.77 74.2722C156.985 74.0609 156.985 73.7154 156.77 73.5007L154.119 70.8506L156.774 68.2006C156.985 67.9859 156.985 67.6404 156.774 67.4291C156.559 67.2144 156.213 67.2144 156.002 67.4291L153.347 70.0791L150.695 67.4291C150.48 67.2177 150.134 67.2177 149.923 67.4291C149.708 67.6404 149.708 67.9859 149.923 68.2006Z" fill="black"/>
<path d="M128.122 68.2006L130.774 70.8506L128.122 73.5007C127.907 73.712 127.907 74.0575 128.122 74.2722C128.334 74.4869 128.679 74.4869 128.894 74.2722L131.546 71.6222L134.198 74.2722C134.412 74.4869 134.758 74.4869 134.97 74.2722C135.184 74.0609 135.184 73.7154 134.97 73.5007L132.318 70.8506L134.97 68.2006C135.184 67.9859 135.184 67.6404 134.97 67.4291C134.758 67.2144 134.412 67.2144 134.198 67.4291L131.542 70.0791L128.891 67.4291C128.676 67.2177 128.33 67.2177 128.119 67.4291C127.911 67.6404 127.911 67.9859 128.122 68.2006Z" fill="black"/>
<path d="M398.149 294.009L399.655 292.505L401.16 294.009C401.281 294.131 401.477 294.131 401.599 294.009C401.721 293.887 401.721 293.693 401.599 293.571L400.093 292.067L401.599 290.562C401.721 290.44 401.721 290.244 401.599 290.124C401.479 290.002 401.282 290.002 401.16 290.124L399.655 291.628L398.149 290.124C398.027 290.002 397.831 290.002 397.711 290.124C397.589 290.246 397.589 290.44 397.711 290.562L399.216 292.068L397.711 293.573C397.589 293.695 397.589 293.889 397.711 294.011C397.831 294.129 398.027 294.129 398.149 294.009Z" fill="black"/>
<path d="M398.149 306.378L399.655 304.874L401.16 306.378C401.281 306.498 401.477 306.498 401.599 306.378C401.721 306.257 401.721 306.062 401.599 305.94L400.093 304.436L401.599 302.931C401.721 302.811 401.721 302.615 401.599 302.493C401.479 302.373 401.282 302.373 401.16 302.493L399.655 303.997L398.149 302.491C398.027 302.369 397.831 302.369 397.711 302.491C397.589 302.613 397.589 302.807 397.711 302.929L399.216 304.436L397.711 305.94C397.589 306.062 397.589 306.257 397.711 306.378C397.831 306.5 398.027 306.5 398.149 306.378Z" fill="black"/>
<path d="M398.149 318.751L399.655 317.246L401.16 318.751C401.281 318.871 401.477 318.871 401.599 318.751C401.721 318.629 401.721 318.433 401.599 318.313L400.093 316.808L401.599 315.303C401.721 315.183 401.721 314.987 401.599 314.865C401.479 314.743 401.282 314.743 401.16 314.865L399.655 316.37L398.149 314.865C398.027 314.743 397.831 314.743 397.711 314.865C397.589 314.985 397.589 315.182 397.711 315.303L399.216 316.808L397.711 318.313C397.589 318.433 397.589 318.629 397.711 318.751C397.831 318.871 398.027 318.871 398.149 318.751Z" fill="black"/>
<path d="M398.149 331.121L399.655 329.616L401.16 331.121C401.281 331.241 401.477 331.241 401.599 331.121C401.721 330.999 401.721 330.803 401.599 330.683L400.093 329.178L401.599 327.673C401.721 327.551 401.721 327.357 401.599 327.235C401.479 327.115 401.282 327.115 401.16 327.235L399.655 328.74L398.149 327.235C398.027 327.113 397.831 327.113 397.711 327.235C397.589 327.355 397.589 327.551 397.711 327.673L399.216 329.18L397.711 330.685C397.589 330.805 397.589 331.001 397.711 331.123C397.831 331.243 398.027 331.243 398.149 331.121Z" fill="black"/>
<path d="M398.149 343.491L399.655 341.986L401.16 343.491C401.281 343.613 401.477 343.613 401.599 343.491C401.721 343.371 401.721 343.175 401.599 343.053L400.093 341.548L401.599 340.043C401.721 339.921 401.721 339.727 401.599 339.605C401.479 339.483 401.282 339.483 401.16 339.605L399.655 341.11L398.149 339.603C398.027 339.483 397.831 339.483 397.711 339.603C397.589 339.725 397.589 339.921 397.711 340.041L399.216 341.546L397.711 343.051C397.589 343.173 397.589 343.369 397.711 343.489C397.831 343.611 398.027 343.611 398.149 343.491Z" fill="black"/>
<path d="M398.149 355.861L399.655 354.356L401.16 355.861C401.281 355.983 401.477 355.983 401.599 355.861C401.721 355.741 401.721 355.545 401.599 355.423L400.093 353.918L401.599 352.413C401.721 352.291 401.721 352.095 401.599 351.975C401.479 351.853 401.282 351.853 401.16 351.975L399.655 353.48L398.149 351.975C398.027 351.853 397.831 351.853 397.711 351.975C397.589 352.095 397.589 352.291 397.711 352.413L399.216 353.918L397.711 355.423C397.589 355.545 397.589 355.741 397.711 355.861C397.831 355.983 398.027 355.983 398.149 355.861Z" fill="black"/>
<path d="M339.514 290.578L326.413 303.67L326.754 304.011L339.855 290.918L339.514 290.578Z" fill="black"/>
<path d="M348.265 288.781L324.627 312.403L324.968 312.744L348.606 289.121L348.265 288.781Z" fill="black"/>
<path d="M334.109 309.924L325.362 318.666L325.703 319.006L334.45 310.265L334.109 309.924Z" fill="black"/>
<path d="M354.513 289.532L345.767 298.273L346.108 298.614L354.854 289.873L354.513 289.532Z" fill="black"/>
<path d="M334.339 316.627L327.265 323.696L327.606 324.037L334.68 316.967L334.339 316.627Z" fill="black"/>
<path d="M359.566 291.433L352.492 298.502L352.833 298.843L359.907 291.774L359.566 291.433Z" fill="black"/>
<path d="M336.589 321.359L330.027 327.917L330.368 328.257L336.93 321.699L336.589 321.359Z" fill="black"/>
<path d="M363.772 294.177L357.211 300.734L357.552 301.075L364.113 294.518L363.772 294.177Z" fill="black"/>
<path d="M340.088 324.841L333.521 331.403L333.862 331.744L340.429 325.182L340.088 324.841Z" fill="black"/>
<path d="M367.249 297.666L360.685 304.227L361.026 304.567L367.59 298.007L367.249 297.666Z" fill="black"/>
<path d="M344.83 327.035L337.737 334.124L338.078 334.464L345.171 327.376L344.83 327.035Z" fill="black"/>
<path d="M370 301.898L362.908 308.985L363.249 309.326L370.341 302.238L370 301.898Z" fill="black"/>
<path d="M343.165 336.366L342.824 336.025L351.7 327.157H351.801V327.395H352.043L351.921 327.517L351.971 327.568L343.165 336.366Z" fill="black"/>
<path d="M363.266 316.179V315.939L363.025 315.937V315.838L371.9 306.968L372.241 307.309L363.508 316.038V316.179H363.266Z" fill="black"/>
<path d="M372.591 313.224L349.083 336.718L349.424 337.059L372.932 313.565L372.591 313.224Z" fill="black"/>
<path d="M370.729 322.081L357.931 334.871L358.272 335.212L371.07 322.422L370.729 322.081Z" fill="black"/>
<path opacity="0.5" d="M244.921 1148.59C288.514 1105.03 288.514 1034.39 244.921 990.828C201.328 947.263 130.65 947.263 87.057 990.828C43.4641 1034.39 43.464 1105.03 87.057 1148.59C130.65 1192.16 201.328 1192.16 244.921 1148.59Z" fill="#EAEAEA"/>
<path d="M283.078 854.05C291.149 845.985 291.149 832.909 283.078 824.844C275.008 816.779 261.924 816.779 253.854 824.844C245.783 832.909 245.783 845.985 253.854 854.05C261.924 862.115 275.008 862.115 283.078 854.05Z" fill="black"/>
<path d="M-23 802.92L-4.50545 817.992L14.2044 802.743L32.9142 817.992L51.6195 802.743L70.3293 817.992L89.0391 802.743L106 816.568V812.31L89.0391 798.485L70.3293 813.734L51.6195 798.485L32.9142 813.734L14.2044 798.485L-4.50545 813.734L-23 798.662V802.92Z" fill="black"/>
<path d="M-23 785.593L-4.50545 800.666L14.2044 785.424L32.9142 800.666L51.6195 785.424L70.3293 800.666L89.0391 785.424L106 799.241V794.983L89.0391 781.166L70.3293 796.407L51.6195 781.166L32.9142 796.407L14.2044 781.166L-4.50545 796.407L-23 781.335V785.593Z" fill="black"/>
<path d="M-23 768.269L-4.50545 783.334L14.2044 768.093L32.9142 783.334L51.6195 768.093L70.3293 783.334L89.0391 768.093L106 781.91V777.659L89.0391 763.835L70.3293 779.076L51.6195 763.835L32.9142 779.076L14.2044 763.835L-4.50545 779.076L-23 764.011V768.269Z" fill="black"/>
<path d="M-23 750.946L-4.50545 766.019L14.2044 750.77L32.9142 766.019L51.6195 750.77L70.3293 766.019L89.0391 750.77L106 764.594V760.336L89.0391 746.512L70.3293 761.76L51.6195 746.512L32.9142 761.76L14.2044 746.512L-4.50545 761.76L-23 746.688V750.946Z" fill="black"/>
<path d="M291.411 939.424C293.15 936.416 292.12 932.569 289.11 930.832C286.1 929.094 282.251 930.124 280.512 933.132C278.774 936.14 279.804 939.987 282.814 941.724C285.824 943.462 289.673 942.432 291.411 939.424Z" fill="#590209"/>
<path d="M316.783 936.571V847.777H317.744V936.571H316.783Z" fill="black"/>
<path d="M309.848 936.57V847.776H310.808V936.57H309.848Z" fill="black"/>
<path d="M410.238 746.166C407.405 746.166 405.106 748.463 405.106 751.295C405.106 754.126 407.405 756.423 410.238 756.423C413.071 756.423 415.37 754.126 415.37 751.295C415.37 748.463 413.071 746.166 410.238 746.166Z" fill="#FD4C38"/>
<path d="M433.709 746.166C430.876 746.166 428.577 748.463 428.577 751.295C428.577 754.126 430.876 756.423 433.709 756.423C436.542 756.423 438.841 754.126 438.841 751.295C438.841 748.463 436.542 746.166 433.709 746.166Z" fill="#FD4C38"/>
<path d="M457.181 746.166C454.347 746.166 452.049 748.463 452.049 751.295C452.049 754.126 454.347 756.423 457.181 756.423C460.014 756.423 462.312 754.126 462.312 751.295C462.312 748.463 460.014 746.166 457.181 746.166Z" fill="#FD4C38"/>
<path d="M480.643 746.166C477.81 746.166 475.511 748.463 475.511 751.295C475.511 754.126 477.81 756.423 480.643 756.423C483.477 756.423 485.775 754.126 485.775 751.295C485.775 748.463 483.477 746.166 480.643 746.166Z" fill="#FD4C38"/>
<path d="M504.114 746.166C501.281 746.166 498.982 748.463 498.982 751.295C498.982 754.126 501.281 756.423 504.114 756.423C506.947 756.423 509.246 754.126 509.246 751.295C509.246 748.463 506.947 746.166 504.114 746.166Z" fill="#FD4C38"/>
<path d="M527.587 746.166C524.754 746.166 522.455 748.463 522.455 751.295C522.455 754.126 524.754 756.423 527.587 756.423C530.42 756.423 532.719 754.126 532.719 751.295C532.719 748.463 530.42 746.166 527.587 746.166Z" fill="#FD4C38"/>
<path d="M551.049 746.166C548.215 746.166 545.917 748.463 545.917 751.295C545.917 754.126 548.215 756.423 551.049 756.423C553.882 756.423 556.181 754.126 556.181 751.295C556.181 748.463 553.89 746.166 551.049 746.166Z" fill="#FD4C38"/>
<path d="M574.519 746.166C571.686 746.166 569.387 748.463 569.387 751.295C569.387 754.126 571.686 756.423 574.519 756.423C577.353 756.423 579.651 754.126 579.651 751.295C579.651 748.463 577.353 746.166 574.519 746.166Z" fill="#FD4C38"/>
<path d="M597.991 746.166C595.158 746.166 592.859 748.463 592.859 751.295C592.859 754.126 595.158 756.423 597.991 756.423C600.824 756.423 603.123 754.126 603.123 751.295C603.123 748.463 600.824 746.166 597.991 746.166Z" fill="#FD4C38"/>
<path d="M621.462 746.166C618.629 746.166 616.33 748.463 616.33 751.295C616.33 754.126 618.629 756.423 621.462 756.423C624.295 756.423 626.594 754.126 626.594 751.295C626.594 748.463 624.295 746.166 621.462 746.166Z" fill="#FD4C38"/>
<path d="M644.925 746.166C642.091 746.166 639.793 748.463 639.793 751.295C639.793 754.126 642.091 756.423 644.925 756.423C647.758 756.423 650.057 754.126 650.057 751.295C650.057 748.463 647.758 746.166 644.925 746.166Z" fill="#FD4C38"/>
<path d="M668.396 746.166C665.563 746.166 663.264 748.463 663.264 751.295C663.264 754.126 665.563 756.423 668.396 756.423C671.23 756.423 673.528 754.126 673.528 751.295C673.528 748.463 671.23 746.166 668.396 746.166Z" fill="#FD4C38"/>
<path d="M691.868 746.166C689.035 746.166 686.736 748.463 686.736 751.295C686.736 754.126 689.035 756.423 691.868 756.423C694.701 756.423 697 754.126 697 751.295C697 748.463 694.701 746.166 691.868 746.166Z" fill="#FD4C38"/>
<path d="M386.767 719.877C383.934 719.877 381.635 722.174 381.635 725.006C381.635 727.837 383.934 730.134 386.767 730.134C389.601 730.134 391.899 727.837 391.899 725.006C391.899 722.174 389.609 719.877 386.767 719.877Z" fill="#FD4C38"/>
<path d="M410.239 719.877C407.406 719.877 405.107 722.174 405.107 725.006C405.107 727.837 407.406 730.134 410.239 730.134C413.072 730.134 415.371 727.837 415.371 725.006C415.371 722.174 413.072 719.877 410.239 719.877Z" fill="#FD4C38"/>
<path d="M433.71 719.877C430.877 719.877 428.578 722.174 428.578 725.006C428.578 727.837 430.877 730.134 433.71 730.134C436.543 730.134 438.842 727.837 438.842 725.006C438.842 722.174 436.543 719.877 433.71 719.877Z" fill="#FD4C38"/>
<path d="M457.181 719.877C454.348 719.877 452.049 722.174 452.049 725.006C452.049 727.837 454.348 730.134 457.181 730.134C460.015 730.134 462.313 727.837 462.313 725.006C462.313 722.174 460.015 719.877 457.181 719.877Z" fill="#FD4C38"/>
<path d="M480.644 719.877C477.811 719.877 475.512 722.174 475.512 725.006C475.512 727.837 477.811 730.134 480.644 730.134C483.478 730.134 485.776 727.837 485.776 725.006C485.776 722.174 483.478 719.877 480.644 719.877Z" fill="#FD4C38"/>
<path d="M504.115 719.877C501.282 719.877 498.983 722.174 498.983 725.006C498.983 727.837 501.282 730.134 504.115 730.134C506.948 730.134 509.247 727.837 509.247 725.006C509.247 722.174 506.948 719.877 504.115 719.877Z" fill="#FD4C38"/>
<path d="M527.587 719.877C524.754 719.877 522.455 722.174 522.455 725.006C522.455 727.837 524.754 730.134 527.587 730.134C530.42 730.134 532.719 727.837 532.719 725.006C532.719 722.174 530.42 719.877 527.587 719.877Z" fill="#FD4C38"/>
<path d="M551.049 719.877C548.215 719.877 545.917 722.174 545.917 725.006C545.917 727.837 548.215 730.134 551.049 730.134C553.882 730.134 556.181 727.837 556.181 725.006C556.181 722.174 553.89 719.877 551.049 719.877Z" fill="#FD4C38"/>
<path d="M574.52 719.877C571.687 719.877 569.388 722.174 569.388 725.006C569.388 727.837 571.687 730.134 574.52 730.134C577.354 730.134 579.652 727.837 579.652 725.006C579.652 722.174 577.354 719.877 574.52 719.877Z" fill="#FD4C38"/>
<path d="M597.991 719.877C595.158 719.877 592.859 722.174 592.859 725.006C592.859 727.837 595.158 730.134 597.991 730.134C600.824 730.134 603.123 727.837 603.123 725.006C603.123 722.174 600.824 719.877 597.991 719.877Z" fill="#FD4C38"/>
<path d="M621.464 719.877C618.631 719.877 616.332 722.174 616.332 725.006C616.332 727.837 618.631 730.134 621.464 730.134C624.297 730.134 626.596 727.837 626.596 725.006C626.596 722.174 624.297 719.877 621.464 719.877Z" fill="#FD4C38"/>
<path d="M644.927 719.877C642.093 719.877 639.795 722.174 639.795 725.006C639.795 727.837 642.093 730.134 644.927 730.134C647.76 730.134 650.059 727.837 650.059 725.006C650.059 722.174 647.76 719.877 644.927 719.877Z" fill="#FD4C38"/>
<path d="M668.397 719.877C665.564 719.877 663.265 722.174 663.265 725.006C663.265 727.837 665.564 730.134 668.397 730.134C671.231 730.134 673.529 727.837 673.529 725.006C673.529 722.174 671.231 719.877 668.397 719.877Z" fill="#FD4C38"/>
</svg>
