<svg width="692" height="1632" viewBox="0 0 692 1632" fill="none" xmlns="http://www.w3.org/2000/svg">
<path opacity="0.5" d="M-32.602 433.814C1.64523 433.814 29.4081 406.069 29.4081 371.844C29.4081 337.618 1.64523 309.873 -32.602 309.873C-66.8492 309.873 -94.612 337.618 -94.612 371.844C-94.612 406.069 -66.8492 433.814 -32.602 433.814Z" fill="#EAEAEA"/>
<path opacity="0.5" d="M81.0177 959.167C91.0833 949.108 91.0833 932.799 81.0177 922.739C70.952 912.68 54.6324 912.68 44.5668 922.739C34.5011 932.799 34.5011 949.108 44.5668 959.167C54.6324 969.226 70.952 969.226 81.0177 959.167Z" fill="#EAEAEA"/>
<path d="M16.8942 694.293C16.8942 695.051 16.2794 695.665 15.5217 695.665C14.764 695.665 14.1493 695.051 14.1493 694.293C14.1493 693.536 14.764 692.922 15.5217 692.922C16.2794 692.922 16.8942 693.536 16.8942 694.293Z" fill="#FD4C38"/>
<path d="M16.8942 688.021C16.8942 688.778 16.2794 689.393 15.5217 689.393C14.764 689.393 14.1493 688.778 14.1493 688.021C14.1493 687.264 14.764 686.649 15.5217 686.649C16.2794 686.649 16.8942 687.264 16.8942 688.021Z" fill="#FD4C38"/>
<path d="M16.8942 681.75C16.8942 682.507 16.2794 683.121 15.5217 683.121C14.764 683.121 14.1493 682.507 14.1493 681.75C14.1493 680.992 14.764 680.378 15.5217 680.378C16.2794 680.378 16.8942 680.992 16.8942 681.75Z" fill="#FD4C38"/>
<path d="M16.8942 675.478C16.8942 676.235 16.2794 676.85 15.5217 676.85C14.764 676.85 14.1493 676.235 14.1493 675.478C14.1493 674.721 14.764 674.106 15.5217 674.106C16.2794 674.106 16.8942 674.721 16.8942 675.478Z" fill="#FD4C38"/>
<path d="M16.8942 669.204C16.8942 669.961 16.2794 670.575 15.5217 670.575C14.764 670.575 14.1493 669.961 14.1493 669.204C14.1493 668.446 14.764 667.832 15.5217 667.832C16.2794 667.832 16.8942 668.446 16.8942 669.204Z" fill="#FD4C38"/>
<path d="M16.8942 662.93C16.8942 663.687 16.2794 664.302 15.5217 664.302C14.764 664.302 14.1493 663.687 14.1493 662.93C14.1493 662.173 14.764 661.559 15.5217 661.559C16.2794 661.561 16.8942 662.173 16.8942 662.93Z" fill="#FD4C38"/>
<path d="M16.8942 656.661C16.8942 657.418 16.2794 658.032 15.5217 658.032C14.764 658.032 14.1493 657.418 14.1493 656.661C14.1493 655.903 14.764 655.289 15.5217 655.289C16.2794 655.289 16.8942 655.903 16.8942 656.661Z" fill="#FD4C38"/>
<path d="M16.8942 650.388C16.8942 651.145 16.2794 651.76 15.5217 651.76C14.764 651.76 14.1493 651.145 14.1493 650.388C14.1493 649.631 14.764 649.017 15.5217 649.017C16.2794 649.017 16.8942 649.631 16.8942 650.388Z" fill="#FD4C38"/>
<path d="M16.8942 644.116C16.8942 644.873 16.2794 645.487 15.5217 645.487C14.764 645.487 14.1493 644.873 14.1493 644.116C14.1493 643.359 14.764 642.744 15.5217 642.744C16.2794 642.744 16.8942 643.359 16.8942 644.116Z" fill="#FD4C38"/>
<path d="M16.8942 637.844C16.8942 638.601 16.2794 639.216 15.5217 639.216C14.764 639.216 14.1493 638.601 14.1493 637.844C14.1493 637.087 14.764 636.473 15.5217 636.473C16.2794 636.473 16.8942 637.087 16.8942 637.844Z" fill="#FD4C38"/>
<path d="M16.8942 631.571C16.8942 632.328 16.2794 632.942 15.5217 632.942C14.764 632.942 14.1493 632.328 14.1493 631.571C14.1493 630.814 14.764 630.199 15.5217 630.199C16.2794 630.199 16.8942 630.814 16.8942 631.571Z" fill="#FD4C38"/>
<path d="M16.8942 625.297C16.8942 626.055 16.2794 626.669 15.5217 626.669C14.764 626.669 14.1493 626.055 14.1493 625.297C14.1493 624.54 14.764 623.926 15.5217 623.926C16.2794 623.926 16.8942 624.54 16.8942 625.297Z" fill="#FD4C38"/>
<path d="M16.8939 619.027C16.8939 619.784 16.2791 620.398 15.5214 620.398C14.7637 620.398 14.149 619.784 14.149 619.027C14.149 618.27 14.7637 617.655 15.5214 617.655C16.2791 617.655 16.8939 618.267 16.8939 619.027Z" fill="#FD4C38"/>
<path d="M23.929 700.567C23.929 701.324 23.3143 701.938 22.5566 701.938C21.7989 701.938 21.1841 701.324 21.1841 700.567C21.1841 699.81 21.7989 699.195 22.5566 699.195C23.3143 699.195 23.929 699.81 23.929 700.567Z" fill="#FD4C38"/>
<path d="M23.929 694.294C23.929 695.052 23.3143 695.666 22.5566 695.666C21.7989 695.666 21.1841 695.052 21.1841 694.294C21.1841 693.537 21.7989 692.923 22.5566 692.923C23.3143 692.923 23.929 693.537 23.929 694.294Z" fill="#FD4C38"/>
<path d="M23.929 688.02C23.929 688.777 23.3143 689.392 22.5566 689.392C21.7989 689.392 21.1841 688.777 21.1841 688.02C21.1841 687.263 21.7989 686.648 22.5566 686.648C23.3143 686.648 23.929 687.263 23.929 688.02Z" fill="#FD4C38"/>
<path d="M23.929 681.75C23.929 682.507 23.3143 683.121 22.5566 683.121C21.7989 683.121 21.1841 682.507 21.1841 681.75C21.1841 680.992 21.7989 680.378 22.5566 680.378C23.3143 680.378 23.929 680.992 23.929 681.75Z" fill="#FD4C38"/>
<path d="M23.929 675.477C23.929 676.234 23.3143 676.849 22.5566 676.849C21.7989 676.849 21.1841 676.234 21.1841 675.477C21.1841 674.72 21.7989 674.105 22.5566 674.105C23.3143 674.105 23.929 674.72 23.929 675.477Z" fill="#FD4C38"/>
<path d="M23.929 669.205C23.929 669.962 23.3143 670.576 22.5566 670.576C21.7989 670.576 21.1841 669.962 21.1841 669.205C21.1841 668.447 21.7989 667.833 22.5566 667.833C23.3143 667.833 23.929 668.447 23.929 669.205Z" fill="#FD4C38"/>
<path d="M23.929 662.933C23.929 663.69 23.3143 664.305 22.5566 664.305C21.7989 664.305 21.1841 663.69 21.1841 662.933C21.1841 662.176 21.7989 661.562 22.5566 661.562C23.3143 661.562 23.929 662.174 23.929 662.933Z" fill="#FD4C38"/>
<path d="M23.929 656.66C23.929 657.417 23.3143 658.031 22.5566 658.031C21.7989 658.031 21.1841 657.417 21.1841 656.66C21.1841 655.902 21.7989 655.288 22.5566 655.288C23.3143 655.288 23.929 655.902 23.929 656.66Z" fill="#FD4C38"/>
<path d="M23.929 650.387C23.929 651.144 23.3143 651.759 22.5566 651.759C21.7989 651.759 21.1841 651.144 21.1841 650.387C21.1841 649.63 21.7989 649.016 22.5566 649.016C23.3143 649.016 23.929 649.63 23.929 650.387Z" fill="#FD4C38"/>
<path d="M23.929 644.114C23.929 644.871 23.3143 645.485 22.5566 645.485C21.7989 645.485 21.1841 644.871 21.1841 644.114C21.1841 643.357 21.7989 642.742 22.5566 642.742C23.3143 642.742 23.929 643.357 23.929 644.114Z" fill="#FD4C38"/>
<path d="M23.929 637.843C23.929 638.6 23.3143 639.215 22.5566 639.215C21.7989 639.215 21.1841 638.6 21.1841 637.843C21.1841 637.086 21.7989 636.472 22.5566 636.472C23.3143 636.472 23.929 637.086 23.929 637.843Z" fill="#FD4C38"/>
<path d="M23.929 631.569C23.929 632.326 23.3143 632.94 22.5566 632.94C21.7989 632.94 21.1841 632.326 21.1841 631.569C21.1841 630.812 21.7989 630.197 22.5566 630.197C23.3143 630.197 23.929 630.812 23.929 631.569Z" fill="#FD4C38"/>
<path d="M23.9289 625.297C23.9289 626.055 23.3141 626.669 22.5565 626.669C21.7988 626.669 21.184 626.055 21.184 625.297C21.184 624.54 21.7988 623.926 22.5565 623.926C23.3141 623.926 23.9289 624.54 23.9289 625.297Z" fill="#FD4C38"/>
<path d="M79.1852 734.136L80.9773 735.927L79.1852 737.718C79.04 737.861 79.04 738.094 79.1852 738.24C79.3304 738.382 79.5618 738.382 79.707 738.24L81.4991 736.449L83.2912 738.24C83.4364 738.382 83.6701 738.382 83.813 738.24C83.9582 738.097 83.9582 737.863 83.813 737.718L82.0208 735.927L83.813 734.136C83.9582 733.991 83.9582 733.758 83.813 733.615C83.6701 733.47 83.4364 733.47 83.2912 733.615L81.4968 735.406L79.7047 733.615C79.5595 733.47 79.3281 733.47 79.1829 733.615C79.0423 733.758 79.0423 733.991 79.1852 734.136Z" fill="black"/>
<path d="M64.4532 734.136L66.2453 735.927L64.4532 737.718C64.3103 737.861 64.3103 738.094 64.4532 738.24C64.5984 738.382 64.8298 738.382 64.975 738.24L66.7671 736.449L68.5592 738.24C68.7021 738.382 68.9358 738.382 69.081 738.24C69.2239 738.097 69.2239 737.863 69.081 737.718L67.2889 735.927L69.0832 734.136C69.2284 733.991 69.2284 733.758 69.0832 733.615C68.9381 733.47 68.7067 733.47 68.5615 733.615L66.7694 735.406L64.9772 733.615C64.832 733.47 64.6007 733.47 64.4555 733.615C64.308 733.758 64.308 733.991 64.4532 734.136Z" fill="black"/>
<path d="M49.7194 734.136L51.5115 735.927L49.7194 737.718C49.5765 737.861 49.5765 738.094 49.7194 738.24C49.8646 738.382 50.0982 738.382 50.2411 738.24L52.0333 736.449L53.8254 738.24C53.9683 738.382 54.2042 738.382 54.3472 738.24C54.4923 738.097 54.4923 737.863 54.3472 737.718L52.555 735.927L54.3472 734.136C54.4923 733.991 54.4923 733.758 54.3472 733.615C54.2042 733.47 53.9706 733.47 53.8254 733.615L52.0333 735.406L50.2411 733.615C50.0982 733.47 49.8646 733.47 49.7194 733.615C49.5765 733.758 49.5765 733.991 49.7194 734.136Z" fill="black"/>
<path d="M34.9877 734.136L36.7798 735.927L34.9877 737.718C34.8447 737.861 34.8447 738.094 34.9877 738.24C35.1328 738.382 35.3665 738.382 35.5094 738.24L37.3015 736.449L39.0937 738.24C39.2389 738.382 39.4703 738.382 39.6154 738.24C39.7606 738.097 39.7606 737.863 39.6154 737.718L37.8233 735.927L39.6154 734.136C39.7606 733.991 39.7606 733.758 39.6154 733.615C39.4725 733.47 39.2389 733.47 39.0937 733.615L37.2993 735.406L35.5071 733.615C35.3642 733.47 35.1306 733.47 34.9854 733.615C34.8425 733.758 34.8425 733.991 34.9877 734.136Z" fill="black"/>
<path d="M20.2531 734.136L22.0452 735.927L20.2531 737.718C20.1079 737.861 20.1079 738.094 20.2531 738.24C20.396 738.382 20.6296 738.382 20.7748 738.24L22.567 736.449L24.3591 738.24C24.5043 738.382 24.7357 738.382 24.8808 738.24C25.026 738.097 25.026 737.863 24.8808 737.718L23.0887 735.927L24.8831 734.136C25.026 733.991 25.026 733.758 24.8831 733.615C24.7379 733.47 24.5043 733.47 24.3614 733.615L22.5692 735.406L20.7771 733.615C20.6319 733.47 20.3982 733.47 20.2553 733.615C20.1101 733.758 20.1101 733.991 20.2531 734.136Z" fill="black"/>
<path d="M5.52185 734.136L7.31399 735.927L5.52185 737.718C5.37667 737.861 5.37667 738.094 5.52185 738.24C5.66477 738.382 5.89844 738.382 6.04362 738.24L7.83573 736.449L9.62787 738.24C9.77306 738.382 10.0067 738.382 10.1496 738.24C10.2926 738.097 10.2926 737.863 10.1496 737.718L8.3575 735.927L10.1496 734.136C10.2948 733.991 10.2948 733.758 10.1496 733.615C10.0067 733.47 9.77306 733.47 9.62787 733.615L7.83573 735.406L6.04362 733.615C5.90071 733.47 5.66477 733.47 5.52185 733.615C5.37667 733.758 5.37667 733.991 5.52185 734.136Z" fill="black"/>
<path opacity="0.5" d="M238.191 569.733C261.382 569.733 280.182 550.945 280.182 527.769C280.182 504.593 261.382 485.806 238.191 485.806C215.001 485.806 196.201 504.593 196.201 527.769C196.201 550.945 215.001 569.733 238.191 569.733Z" fill="#EAEAEA"/>
<path opacity="0.5" d="M478.679 245.337C531.364 245.337 574.073 202.628 574.073 149.943C574.073 97.2582 531.364 54.5488 478.679 54.5488C425.994 54.5488 383.285 97.2582 383.285 149.943C383.285 202.628 425.994 245.337 478.679 245.337Z" fill="#EAEAEA"/>
<path d="M320.306 237.004C320.306 246.72 312.842 254.599 303.633 254.599C294.425 254.599 286.964 246.72 286.964 237.004C286.964 227.284 294.425 219.405 303.633 219.405C312.842 219.405 320.306 227.284 320.306 237.004Z" fill="black"/>
<path d="M263.319 14.1816C309.334 14.1816 346.772 51.5955 346.772 97.5814C346.772 143.567 309.334 180.981 263.319 180.981C217.304 180.981 179.866 143.567 179.866 97.5814C179.866 51.5955 217.304 14.1816 263.319 14.1816ZM263.319 179.903C308.743 179.903 345.697 142.972 345.697 97.5774C345.697 52.1824 308.743 15.2516 263.319 15.2516C217.895 15.2516 180.941 52.1824 180.941 97.5774C180.941 142.972 217.899 179.903 263.319 179.903Z" fill="#FD4C38"/>
<path d="M263.318 24.2314C303.788 24.2314 336.712 57.1338 336.712 97.578C336.712 138.022 303.788 170.925 263.318 170.925C222.848 170.925 189.925 138.022 189.925 97.578C189.929 57.1378 222.852 24.2314 263.318 24.2314ZM263.318 169.855C303.197 169.855 335.637 137.431 335.637 97.582C335.637 57.7287 303.193 25.3094 263.318 25.3094C223.444 25.3094 191 57.7327 191 97.582C191 137.431 223.444 169.855 263.318 169.855Z" fill="#FD4C38"/>
<path d="M263.319 34.2861C298.24 34.2861 326.653 62.6809 326.653 97.5795C326.653 132.478 298.24 160.873 263.319 160.873C228.398 160.873 199.985 132.478 199.985 97.5795C199.985 62.6809 228.398 34.2861 263.319 34.2861ZM263.319 159.803C297.649 159.803 325.578 131.891 325.578 97.5835C325.578 63.2758 297.649 35.3641 263.319 35.3641C228.989 35.3641 201.06 63.2758 201.06 97.5835C201.06 131.891 228.989 159.803 263.319 159.803Z" fill="#FD4C38"/>
<path d="M263.319 44.3379C292.695 44.3379 316.593 68.2211 316.593 97.5781C316.593 126.935 292.695 150.818 263.319 150.818C233.943 150.818 210.045 126.935 210.045 97.5781C210.045 68.2211 233.943 44.3379 263.319 44.3379ZM263.319 149.748C292.104 149.748 315.523 126.344 315.523 97.5781C315.523 68.812 292.104 45.4079 263.319 45.4079C234.535 45.4079 211.116 68.812 211.116 97.5781C211.12 126.344 234.535 149.748 263.319 149.748Z" fill="#FD4C38"/>
<path d="M263.319 54.3906C287.15 54.3906 306.534 73.7663 306.534 97.5777C306.534 121.393 287.146 140.765 263.319 140.765C239.492 140.765 220.104 121.389 220.104 97.5777C220.104 73.7663 239.492 54.3906 263.319 54.3906ZM263.319 139.695C286.558 139.695 305.463 120.802 305.463 97.5777C305.463 74.3532 286.558 55.4606 263.319 55.4606C240.08 55.4606 221.175 74.3532 221.175 97.5777C221.179 120.802 240.084 139.695 263.319 139.695Z" fill="#FD4C38"/>
<path d="M263.319 64.4443C281.601 64.4443 296.478 79.3085 296.478 97.5822C296.478 115.852 281.605 130.72 263.319 130.72C245.038 130.72 230.16 115.856 230.16 97.5822C230.164 79.3085 245.038 64.4443 263.319 64.4443ZM263.319 129.642C281.009 129.642 295.403 115.257 295.403 97.5782C295.403 79.8994 281.009 65.5143 263.319 65.5143C245.629 65.5143 231.235 79.8994 231.235 97.5782C231.235 115.261 245.629 129.642 263.319 129.642Z" fill="#FD4C38"/>
<path d="M263.319 74.4971C276.055 74.4971 286.418 84.8537 286.418 97.5818C286.418 110.31 276.055 120.667 263.319 120.667C250.583 120.667 240.22 110.31 240.22 97.5818C240.224 84.8497 250.583 74.4971 263.319 74.4971ZM263.319 119.589C275.464 119.589 285.344 109.715 285.344 97.5778C285.344 85.4406 275.464 75.5671 263.319 75.5671C251.174 75.5671 241.294 85.4406 241.294 97.5778C241.294 109.715 251.174 119.589 263.319 119.589Z" fill="#FD4C38"/>
<path d="M263.319 84.5469C270.51 84.5469 276.359 90.3919 276.359 97.5785C276.359 104.765 270.51 110.61 263.319 110.61C256.128 110.61 250.279 104.765 250.279 97.5785C250.279 90.3959 256.132 84.5469 263.319 84.5469ZM263.319 109.54C269.919 109.54 275.284 104.174 275.284 97.5825C275.284 90.9868 269.915 85.6249 263.319 85.6249C256.723 85.6249 251.354 90.9908 251.354 97.5825C251.354 104.174 256.723 109.54 263.319 109.54Z" fill="#FD4C38"/>
<path d="M532.611 13.2158C533.945 13.2158 535.028 14.2978 535.028 15.6313C535.028 16.9648 533.945 18.0468 532.611 18.0468C531.276 18.0468 530.194 16.9648 530.194 15.6313C530.194 14.2938 531.272 13.2158 532.611 13.2158Z" fill="#FD4C38"/>
<path d="M521.556 13.2158C522.89 13.2158 523.973 14.2978 523.973 15.6313C523.973 16.9648 522.89 18.0468 521.556 18.0468C520.221 18.0468 519.139 16.9648 519.139 15.6313C519.139 14.2938 520.221 13.2158 521.556 13.2158Z" fill="#FD4C38"/>
<path d="M510.502 13.2158C511.836 13.2158 512.919 14.2978 512.919 15.6313C512.919 16.9648 511.836 18.0468 510.502 18.0468C509.168 18.0468 508.085 16.9648 508.085 15.6313C508.085 14.2938 509.168 13.2158 510.502 13.2158Z" fill="#FD4C38"/>
<path d="M499.448 13.2158C500.782 13.2158 501.865 14.2978 501.865 15.6313C501.865 16.9648 500.782 18.0468 499.448 18.0468C498.113 18.0468 497.031 16.9648 497.031 15.6313C497.031 14.2938 498.113 13.2158 499.448 13.2158Z" fill="#FD4C38"/>
<path d="M488.397 13.2158C489.731 13.2158 490.814 14.2978 490.814 15.6313C490.814 16.9648 489.731 18.0468 488.397 18.0468C487.063 18.0468 485.98 16.9648 485.98 15.6313C485.98 14.2938 487.063 13.2158 488.397 13.2158Z" fill="#FD4C38"/>
<path d="M477.343 13.2158C478.677 13.2158 479.76 14.2978 479.76 15.6313C479.76 16.9648 478.677 18.0468 477.343 18.0468C476.008 18.0468 474.926 16.9648 474.926 15.6313C474.926 14.2938 476.008 13.2158 477.343 13.2158Z" fill="#FD4C38"/>
<path d="M466.288 13.2158C467.623 13.2158 468.705 14.2978 468.705 15.6313C468.705 16.9648 467.623 18.0468 466.288 18.0468C464.954 18.0468 463.871 16.9648 463.871 15.6313C463.871 14.2938 464.954 13.2158 466.288 13.2158Z" fill="#FD4C38"/>
<path d="M455.238 13.2158C456.572 13.2158 457.655 14.2978 457.655 15.6313C457.655 16.9648 456.572 18.0468 455.238 18.0468C453.903 18.0468 452.821 16.9648 452.821 15.6313C452.821 14.2938 453.899 13.2158 455.238 13.2158Z" fill="#FD4C38"/>
<path d="M444.184 13.2158C445.518 13.2158 446.601 14.2978 446.601 15.6313C446.601 16.9648 445.518 18.0468 444.184 18.0468C442.85 18.0468 441.767 16.9648 441.767 15.6313C441.767 14.2938 442.85 13.2158 444.184 13.2158Z" fill="#FD4C38"/>
<path d="M433.129 13.2158C434.464 13.2158 435.546 14.2978 435.546 15.6313C435.546 16.9648 434.464 18.0468 433.129 18.0468C431.795 18.0468 430.713 16.9648 430.713 15.6313C430.713 14.2938 431.795 13.2158 433.129 13.2158Z" fill="#FD4C38"/>
<path d="M422.075 13.2158C423.41 13.2158 424.492 14.2978 424.492 15.6313C424.492 16.9648 423.41 18.0468 422.075 18.0468C420.741 18.0468 419.658 16.9648 419.658 15.6313C419.658 14.2938 420.741 13.2158 422.075 13.2158Z" fill="#FD4C38"/>
<path d="M411.025 13.2158C412.359 13.2158 413.442 14.2978 413.442 15.6313C413.442 16.9648 412.359 18.0468 411.025 18.0468C409.69 18.0468 408.608 16.9648 408.608 15.6313C408.608 14.2938 409.69 13.2158 411.025 13.2158Z" fill="#FD4C38"/>
<path d="M399.97 13.2158C401.305 13.2158 402.387 14.2978 402.387 15.6313C402.387 16.9648 401.305 18.0468 399.97 18.0468C398.636 18.0468 397.553 16.9648 397.553 15.6313C397.553 14.2938 398.636 13.2158 399.97 13.2158Z" fill="#FD4C38"/>
<path d="M543.66 0.832031C544.995 0.832031 546.077 1.914 546.077 3.2475C546.077 4.581 544.995 5.66297 543.66 5.66297C542.326 5.66297 541.243 4.581 541.243 3.2475C541.243 1.914 542.326 0.832031 543.66 0.832031Z" fill="#FD4C38"/>
<path d="M532.611 0.832031C533.945 0.832031 535.028 1.914 535.028 3.2475C535.028 4.581 533.945 5.66297 532.611 5.66297C531.277 5.66297 530.194 4.581 530.194 3.2475C530.194 1.914 531.273 0.832031 532.611 0.832031Z" fill="#FD4C38"/>
<path d="M521.557 0.832031C522.891 0.832031 523.974 1.914 523.974 3.2475C523.974 4.581 522.891 5.66297 521.557 5.66297C520.222 5.66297 519.14 4.581 519.14 3.2475C519.14 1.914 520.222 0.832031 521.557 0.832031Z" fill="#FD4C38"/>
<path d="M510.502 0.832031C511.837 0.832031 512.919 1.914 512.919 3.2475C512.919 4.581 511.837 5.66297 510.502 5.66297C509.168 5.66297 508.085 4.581 508.085 3.2475C508.085 1.914 509.168 0.832031 510.502 0.832031Z" fill="#FD4C38"/>
<path d="M499.447 0.832031C500.781 0.832031 501.864 1.914 501.864 3.2475C501.864 4.581 500.781 5.66297 499.447 5.66297C498.113 5.66297 497.03 4.581 497.03 3.2475C497.03 1.914 498.113 0.832031 499.447 0.832031Z" fill="#FD4C38"/>
<path d="M488.397 0.832031C489.732 0.832031 490.814 1.914 490.814 3.2475C490.814 4.581 489.732 5.66297 488.397 5.66297C487.063 5.66297 485.98 4.581 485.98 3.2475C485.98 1.914 487.063 0.832031 488.397 0.832031Z" fill="#FD4C38"/>
<path d="M477.343 0.832031C478.677 0.832031 479.76 1.914 479.76 3.2475C479.76 4.581 478.677 5.66297 477.343 5.66297C476.008 5.66297 474.926 4.581 474.926 3.2475C474.926 1.914 476.008 0.832031 477.343 0.832031Z" fill="#FD4C38"/>
<path d="M466.288 0.832031C467.623 0.832031 468.705 1.914 468.705 3.2475C468.705 4.581 467.623 5.66297 466.288 5.66297C464.954 5.66297 463.871 4.581 463.871 3.2475C463.871 1.914 464.954 0.832031 466.288 0.832031Z" fill="#FD4C38"/>
<path d="M455.238 0.832031C456.572 0.832031 457.655 1.914 457.655 3.2475C457.655 4.581 456.572 5.66297 455.238 5.66297C453.903 5.66297 452.821 4.581 452.821 3.2475C452.821 1.914 453.899 0.832031 455.238 0.832031Z" fill="#FD4C38"/>
<path d="M444.184 0.832031C445.518 0.832031 446.601 1.914 446.601 3.2475C446.601 4.581 445.518 5.66297 444.184 5.66297C442.85 5.66297 441.767 4.581 441.767 3.2475C441.767 1.914 442.85 0.832031 444.184 0.832031Z" fill="#FD4C38"/>
<path d="M433.13 0.832031C434.464 0.832031 435.547 1.914 435.547 3.2475C435.547 4.581 434.464 5.66297 433.13 5.66297C431.795 5.66297 430.713 4.581 430.713 3.2475C430.713 1.914 431.795 0.832031 433.13 0.832031Z" fill="#FD4C38"/>
<path d="M422.075 0.832031C423.41 0.832031 424.492 1.914 424.492 3.2475C424.492 4.581 423.41 5.66297 422.075 5.66297C420.741 5.66297 419.658 4.581 419.658 3.2475C419.658 1.914 420.741 0.832031 422.075 0.832031Z" fill="#FD4C38"/>
<path d="M411.025 0.832031C412.359 0.832031 413.442 1.914 413.442 3.2475C413.442 4.581 412.359 5.66297 411.025 5.66297C409.69 5.66297 408.608 4.581 408.608 3.2475C408.608 1.914 409.69 0.832031 411.025 0.832031Z" fill="#FD4C38"/>
<path d="M144.598 197.666L147.754 200.82L144.598 203.974C144.342 204.225 144.342 204.637 144.598 204.892C144.854 205.148 145.261 205.148 145.517 204.892L148.673 201.738L151.829 204.892C152.085 205.148 152.496 205.148 152.748 204.892C153.004 204.641 153.004 204.229 152.748 203.974L149.592 200.82L152.748 197.666C153.004 197.41 153.004 196.999 152.748 196.747C152.492 196.492 152.085 196.492 151.829 196.747L148.669 199.901L145.513 196.747C145.257 196.496 144.85 196.496 144.594 196.747C144.342 196.999 144.342 197.41 144.598 197.666Z" fill="black"/>
<path d="M118.65 197.666L121.806 200.82L118.65 203.974C118.398 204.225 118.398 204.637 118.65 204.892C118.906 205.148 119.313 205.148 119.569 204.892L122.725 201.738L125.881 204.892C126.133 205.148 126.544 205.148 126.8 204.892C127.052 204.641 127.052 204.229 126.8 203.974L123.64 200.82L126.8 197.666C127.056 197.41 127.056 196.999 126.8 196.747C126.544 196.492 126.137 196.492 125.881 196.747L122.725 199.901L119.569 196.747C119.313 196.496 118.906 196.496 118.65 196.747C118.398 196.999 118.398 197.41 118.65 197.666Z" fill="black"/>
<path d="M92.7059 197.666L95.866 200.82L92.7059 203.974C92.4542 204.225 92.4542 204.637 92.7059 204.892C92.9616 205.148 93.3731 205.148 93.6248 204.892L96.7809 201.738L99.937 204.892C100.189 205.148 100.6 205.148 100.856 204.892C101.111 204.641 101.111 204.229 100.856 203.974L97.6998 200.82L100.856 197.666C101.111 197.41 101.111 196.999 100.856 196.747C100.604 196.492 100.193 196.492 99.937 196.747L96.7809 199.901L93.6248 196.747C93.3731 196.496 92.9576 196.496 92.7059 196.747C92.4502 196.999 92.4502 197.41 92.7059 197.666Z" fill="black"/>
<path d="M66.7582 197.666L69.9142 200.82L66.7582 203.974C66.5065 204.225 66.5065 204.637 66.7582 204.892C67.0139 205.148 67.4254 205.148 67.6771 204.892L70.8331 201.738L73.9892 204.892C74.2449 205.148 74.6564 205.148 74.9081 204.892C75.1638 204.641 75.1638 204.229 74.9081 203.974L71.752 200.82L74.9081 197.666C75.1638 197.41 75.1638 196.999 74.9081 196.747C74.6564 196.492 74.2449 196.492 73.9892 196.747L70.8291 199.901L67.6731 196.747C67.4214 196.496 67.0099 196.496 66.7542 196.747C66.5065 196.999 66.5065 197.41 66.7582 197.666Z" fill="black"/>
<path d="M40.8143 197.666L43.9703 200.82L40.8143 203.974C40.5586 204.225 40.5586 204.637 40.8143 204.892C41.0659 205.148 41.4774 205.148 41.733 204.892L44.8892 201.738L48.0453 204.892C48.297 205.148 48.7085 205.148 48.9642 204.892C49.2198 204.641 49.2198 204.229 48.9642 203.974L45.8081 200.82L48.9682 197.666C49.2198 197.41 49.2198 196.999 48.9682 196.747C48.7125 196.492 48.301 196.492 48.0493 196.747L44.8892 199.901L41.733 196.747C41.4774 196.496 41.0659 196.496 40.8143 196.747C40.5586 196.999 40.5586 197.41 40.8143 197.666Z" fill="black"/>
<path d="M14.8667 197.666L18.0228 200.82L14.8667 203.974C14.611 204.225 14.611 204.637 14.8667 204.892C15.1184 205.148 15.5299 205.148 15.7856 204.892L18.9417 201.738L22.0978 204.892C22.3535 205.148 22.765 205.148 23.0167 204.892C23.2724 204.641 23.2724 204.229 23.0167 203.974L19.8605 200.82L23.0167 197.666C23.2724 197.41 23.2724 196.999 23.0167 196.747C22.765 196.492 22.3535 196.492 22.0978 196.747L18.9377 199.901L15.7816 196.747C15.5259 196.496 15.1144 196.496 14.8627 196.747C14.615 196.999 14.615 197.41 14.8667 197.666Z" fill="black"/>
<path d="M336.255 466.426L338.047 464.635L339.84 466.426C339.982 466.571 340.216 466.571 340.361 466.426C340.506 466.281 340.506 466.05 340.361 465.905L338.569 464.114L340.361 462.323C340.506 462.178 340.506 461.944 340.361 461.801C340.218 461.656 339.985 461.656 339.84 461.801L338.047 463.592L336.255 461.801C336.11 461.656 335.876 461.656 335.734 461.801C335.588 461.946 335.588 462.178 335.734 462.323L337.526 464.116L335.734 465.907C335.588 466.052 335.588 466.283 335.734 466.428C335.876 466.569 336.11 466.569 336.255 466.426Z" fill="black"/>
<path d="M336.255 481.148L338.048 479.357L339.84 481.148C339.983 481.291 340.216 481.291 340.361 481.148C340.507 481.003 340.507 480.772 340.361 480.627L338.569 478.836L340.361 477.045C340.507 476.902 340.507 476.668 340.361 476.523C340.218 476.38 339.985 476.38 339.84 476.523L338.048 478.314L336.255 476.521C336.11 476.376 335.877 476.376 335.734 476.521C335.588 476.666 335.588 476.897 335.734 477.042L337.526 478.836L335.734 480.627C335.588 480.772 335.588 481.003 335.734 481.148C335.877 481.293 336.11 481.293 336.255 481.148Z" fill="black"/>
<path d="M336.255 495.874L338.048 494.083L339.84 495.874C339.983 496.017 340.216 496.017 340.361 495.874C340.507 495.729 340.507 495.496 340.361 495.353L338.569 493.562L340.361 491.771C340.507 491.628 340.507 491.395 340.361 491.249C340.218 491.104 339.985 491.104 339.84 491.249L338.048 493.04L336.255 491.249C336.11 491.104 335.877 491.104 335.734 491.249C335.588 491.392 335.588 491.626 335.734 491.771L337.526 493.562L335.734 495.353C335.588 495.496 335.588 495.729 335.734 495.874C335.877 496.017 336.11 496.017 336.255 495.874Z" fill="black"/>
<path d="M336.255 510.596L338.048 508.805L339.84 510.596C339.983 510.739 340.216 510.739 340.361 510.596C340.507 510.451 340.507 510.217 340.361 510.075L338.569 508.284L340.361 506.493C340.507 506.347 340.507 506.116 340.361 505.971C340.218 505.828 339.985 505.828 339.84 505.971L338.048 507.762L336.255 505.971C336.11 505.826 335.877 505.826 335.734 505.971C335.588 506.114 335.588 506.347 335.734 506.493L337.526 508.286L335.734 510.077C335.588 510.22 335.588 510.453 335.734 510.598C335.877 510.741 336.11 510.741 336.255 510.596Z" fill="black"/>
<path d="M336.255 525.319L338.048 523.528L339.84 525.319C339.983 525.464 340.216 525.464 340.361 525.319C340.507 525.176 340.507 524.943 340.361 524.798L338.569 523.007L340.361 521.216C340.507 521.071 340.507 520.839 340.361 520.694C340.218 520.549 339.985 520.549 339.84 520.694L338.048 522.485L336.255 520.692C336.11 520.549 335.877 520.549 335.734 520.692C335.588 520.837 335.588 521.071 335.734 521.213L337.526 523.004L335.734 524.795C335.588 524.941 335.588 525.174 335.734 525.317C335.877 525.462 336.11 525.462 336.255 525.319Z" fill="black"/>
<path d="M336.255 540.042L338.048 538.251L339.84 540.042C339.983 540.187 340.216 540.187 340.361 540.042C340.507 539.899 340.507 539.666 340.361 539.521L338.569 537.73L340.361 535.939C340.507 535.794 340.507 535.56 340.361 535.417C340.218 535.272 339.985 535.272 339.84 535.417L338.048 537.208L336.255 535.417C336.11 535.272 335.877 535.272 335.734 535.417C335.588 535.56 335.588 535.794 335.734 535.939L337.526 537.73L335.734 539.521C335.588 539.666 335.588 539.899 335.734 540.042C335.877 540.187 336.11 540.187 336.255 540.042Z" fill="black"/>
<path d="M266.469 462.342L250.876 477.925L251.282 478.33L266.875 462.747L266.469 462.342Z" fill="black"/>
<path d="M276.883 460.204L248.749 488.32L249.155 488.726L277.289 460.61L276.883 460.204Z" fill="black"/>
<path d="M260.035 485.37L249.624 495.773L250.03 496.179L260.441 485.775L260.035 485.37Z" fill="black"/>
<path d="M284.32 461.099L273.909 471.503L274.315 471.909L284.726 461.505L284.32 461.099Z" fill="black"/>
<path d="M260.309 493.345L251.889 501.76L252.295 502.165L260.715 493.751L260.309 493.345Z" fill="black"/>
<path d="M290.335 463.36L281.915 471.774L282.321 472.18L290.741 463.766L290.335 463.36Z" fill="black"/>
<path d="M262.988 498.979L255.177 506.784L255.583 507.19L263.393 499.385L262.988 498.979Z" fill="black"/>
<path d="M295.34 466.627L287.531 474.431L287.937 474.836L295.746 467.033L295.34 466.627Z" fill="black"/>
<path d="M267.151 503.122L259.336 510.932L259.742 511.337L267.557 503.527L267.151 503.122Z" fill="black"/>
<path d="M299.479 470.778L291.666 478.587L292.071 478.992L299.885 471.184L299.479 470.778Z" fill="black"/>
<path d="M272.796 505.734L264.354 514.171L264.76 514.576L273.202 506.14L272.796 505.734Z" fill="black"/>
<path d="M302.753 475.816L294.312 484.251L294.718 484.657L303.159 476.221L302.753 475.816Z" fill="black"/>
<path d="M270.814 516.84L270.408 516.434L280.972 505.879H281.093V506.162H281.381L281.235 506.307L281.294 506.369L270.814 516.84Z" fill="black"/>
<path d="M294.737 492.814V492.529L294.452 492.526V492.408L305.014 481.851L305.42 482.256L295.026 492.646V492.814H294.737Z" fill="black"/>
<path d="M305.837 489.298L277.857 517.26L278.263 517.665L306.243 489.703L305.837 489.298Z" fill="black"/>
<path d="M303.62 499.839L288.388 515.062L288.793 515.467L304.026 500.245L303.62 499.839Z" fill="black"/>
<path opacity="0.5" d="M153.882 1483.56C205.767 1431.71 205.767 1347.64 153.882 1295.79C101.997 1243.94 17.8754 1243.94 -34.0093 1295.79C-85.8941 1347.64 -85.8941 1431.71 -34.0093 1483.56C17.8754 1535.41 101.997 1535.41 153.882 1483.56Z" fill="#EAEAEA"/>
<path d="M-40.895 1249.29C-71.5807 1249.29 -96.4644 1274.17 -96.4644 1304.86C-96.4644 1335.55 -71.5807 1360.43 -40.895 1360.43C-10.2007 1360.43 14.6744 1335.55 14.6744 1304.86C14.6744 1274.17 -10.2007 1249.29 -40.895 1249.29ZM-40.895 1338.92C-59.699 1338.92 -74.9506 1323.67 -74.9506 1304.86C-74.9506 1286.05 -59.699 1270.8 -40.895 1270.8C-22.0824 1270.8 -6.83075 1286.05 -6.83075 1304.86C-6.83075 1323.67 -22.0824 1338.92 -40.895 1338.92Z" fill="#590209"/>
<path d="M199.298 1132.99C208.903 1123.39 208.903 1107.83 199.298 1098.23C189.693 1088.63 174.119 1088.63 164.514 1098.23C154.909 1107.83 154.909 1123.39 164.514 1132.99C174.119 1142.59 189.693 1142.59 199.298 1132.99Z" fill="black"/>
<path d="M-165 1072.14L-128.941 1090.08L-92.4623 1071.93L-55.9836 1090.08L-19.5136 1071.93L16.9651 1090.08L53.4437 1071.93L86.5125 1088.38V1083.32L53.4437 1066.86L16.9651 1085.01L-19.5136 1066.86L-55.9836 1085.01L-92.4623 1066.86L-128.941 1085.01L-165 1067.07V1072.14Z" fill="black"/>
<path d="M-165 1051.52L-128.941 1069.45L-92.4623 1051.31L-55.9836 1069.45L-19.5136 1051.31L16.9651 1069.45L53.4437 1051.31L86.5125 1067.76V1062.69L53.4437 1046.25L16.9651 1064.39L-19.5136 1046.25L-55.9836 1064.39L-92.4623 1046.25L-128.941 1064.39L-165 1046.45V1051.52Z" fill="black"/>
<path d="M-165 1030.9L-128.941 1048.83L-92.4623 1030.69L-55.9836 1048.83L-19.5136 1030.69L16.9651 1048.83L53.4437 1030.69L86.5125 1047.13V1042.07L53.4437 1025.62L16.9651 1043.76L-19.5136 1025.62L-55.9836 1043.76L-92.4623 1025.62L-128.941 1043.76L-165 1025.83V1030.9Z" fill="black"/>
<path d="M-165 1010.28L-128.941 1028.22L-92.4623 1010.07L-55.9836 1028.22L-19.5136 1010.07L16.9651 1028.22L53.4437 1010.07L86.5125 1026.52V1021.45L53.4437 1005L16.9651 1023.15L-19.5136 1005L-55.9836 1023.15L-92.4623 1005L-128.941 1023.15L-165 1005.21V1010.28Z" fill="black"/>
<path d="M326.999 1544.64L333.906 1551.54L326.999 1558.44C326.439 1558.99 326.439 1559.89 326.999 1560.45C327.558 1561 328.45 1561 329.01 1560.45L335.917 1553.55L342.825 1560.45C343.385 1561 344.285 1561 344.836 1560.45C345.396 1559.9 345.396 1559 344.836 1558.44L337.928 1551.54L344.836 1544.64C345.396 1544.08 345.396 1543.18 344.836 1542.63C344.276 1542.07 343.385 1542.07 342.825 1542.63L335.909 1549.53L329.001 1542.63C328.442 1542.08 327.55 1542.08 326.99 1542.63C326.448 1543.18 326.448 1544.08 326.999 1544.64Z" fill="black"/>
<path d="M270.217 1544.64L277.125 1551.54L270.217 1558.44C269.666 1558.99 269.666 1559.89 270.217 1560.45C270.768 1561 271.669 1561 272.228 1560.45L279.136 1553.55L286.043 1560.45C286.594 1561 287.495 1561 288.054 1560.45C288.605 1559.9 288.605 1559 288.054 1558.44L281.147 1551.54L288.063 1544.64C288.623 1544.08 288.623 1543.18 288.063 1542.63C287.504 1542.07 286.612 1542.07 286.052 1542.63L279.136 1549.53L272.228 1542.63C271.669 1542.08 270.777 1542.08 270.217 1542.63C269.658 1543.18 269.658 1544.08 270.217 1544.64Z" fill="black"/>
<path d="M213.427 1544.64L220.335 1551.54L213.427 1558.44C212.877 1558.99 212.877 1559.89 213.427 1560.45C213.987 1561 214.887 1561 215.438 1560.45L222.346 1553.55L229.253 1560.45C229.804 1561 230.705 1561 231.264 1560.45C231.824 1559.9 231.824 1559 231.264 1558.44L224.357 1551.54L231.264 1544.64C231.824 1544.08 231.824 1543.18 231.264 1542.63C230.714 1542.07 229.813 1542.07 229.253 1542.63L222.346 1549.53L215.438 1542.63C214.887 1542.08 213.987 1542.08 213.427 1542.63C212.877 1543.18 212.877 1544.08 213.427 1544.64Z" fill="black"/>
<path d="M156.645 1544.64L163.553 1551.54L156.645 1558.44C156.094 1558.99 156.094 1559.89 156.645 1560.45C157.205 1561 158.105 1561 158.656 1560.45L165.564 1553.55L172.471 1560.45C173.031 1561 173.923 1561 174.482 1560.45C175.042 1559.9 175.042 1559 174.482 1558.44L167.575 1551.54L174.482 1544.64C175.042 1544.08 175.042 1543.18 174.482 1542.63C173.932 1542.07 173.031 1542.07 172.471 1542.63L165.555 1549.53L158.648 1542.63C158.097 1542.08 157.196 1542.08 156.636 1542.63C156.086 1543.18 156.086 1544.08 156.645 1544.64Z" fill="black"/>
<path d="M99.8556 1544.64L106.763 1551.54L99.8556 1558.44C99.296 1558.99 99.296 1559.89 99.8556 1560.45C100.406 1561 101.307 1561 101.867 1560.45L108.774 1553.55L115.682 1560.45C116.241 1561 117.133 1561 117.693 1560.45C118.252 1559.9 118.252 1559 117.693 1558.44L110.785 1551.54L117.701 1544.64C118.252 1544.08 118.252 1543.18 117.701 1542.63C117.142 1542.07 116.241 1542.07 115.69 1542.63L108.774 1549.53L101.867 1542.63C101.307 1542.08 100.406 1542.08 99.8556 1542.63C99.3048 1543.18 99.3048 1544.08 99.8556 1544.64Z" fill="black"/>
<path d="M43.0735 1544.64L49.981 1551.54L43.0735 1558.44C42.5139 1558.99 42.5139 1559.89 43.0735 1560.45C43.6244 1561 44.525 1561 45.0846 1560.45L51.9921 1553.55L58.8996 1560.45C59.4504 1561 60.3598 1561 60.9107 1560.45C61.4703 1559.9 61.4703 1559 60.9107 1558.44L54.0031 1551.54L60.9107 1544.64C61.4703 1544.08 61.4703 1543.18 60.9107 1542.63C60.3598 1542.07 59.4592 1542.07 58.8996 1542.63L51.9921 1549.53L45.0846 1542.63C44.5337 1542.08 43.6244 1542.08 43.0735 1542.63C42.5139 1543.18 42.5139 1544.08 43.0735 1544.64Z" fill="black"/>
<path d="M209.215 1234.61C211.285 1231.03 210.058 1226.45 206.476 1224.38C202.894 1222.31 198.312 1223.54 196.243 1227.12C194.174 1230.7 195.4 1235.28 198.983 1237.34C202.565 1239.41 207.146 1238.19 209.215 1234.61Z" fill="#590209"/>
<path d="M239.414 1231.21L239.414 1125.53H240.558L240.558 1231.21H239.414Z" fill="black"/>
<path d="M231.159 1231.21L231.159 1125.53H232.303L232.303 1231.21H231.159Z" fill="black"/>
<path d="M350.645 1004.59C347.273 1004.59 344.537 1007.32 344.537 1010.69C344.537 1014.06 347.273 1016.8 350.645 1016.8C354.017 1016.8 356.753 1014.06 356.753 1010.69C356.753 1007.32 354.017 1004.59 350.645 1004.59Z" fill="#FD4C38"/>
<path d="M378.58 1004.59C375.208 1004.59 372.472 1007.32 372.472 1010.69C372.472 1014.06 375.208 1016.8 378.58 1016.8C381.952 1016.8 384.688 1014.06 384.688 1010.69C384.688 1007.32 381.952 1004.59 378.58 1004.59Z" fill="#FD4C38"/>
<path d="M406.516 1004.59C403.144 1004.59 400.408 1007.32 400.408 1010.69C400.408 1014.06 403.144 1016.8 406.516 1016.8C409.888 1016.8 412.624 1014.06 412.624 1010.69C412.624 1007.32 409.888 1004.59 406.516 1004.59Z" fill="#FD4C38"/>
<path d="M434.441 1004.59C431.069 1004.59 428.333 1007.32 428.333 1010.69C428.333 1014.06 431.069 1016.8 434.441 1016.8C437.813 1016.8 440.549 1014.06 440.549 1010.69C440.549 1007.32 437.813 1004.59 434.441 1004.59Z" fill="#FD4C38"/>
<path d="M462.377 1004.59C459.005 1004.59 456.269 1007.32 456.269 1010.69C456.269 1014.06 459.005 1016.8 462.377 1016.8C465.749 1016.8 468.485 1014.06 468.485 1010.69C468.485 1007.32 465.749 1004.59 462.377 1004.59Z" fill="#FD4C38"/>
<path d="M490.314 1004.59C486.942 1004.59 484.206 1007.32 484.206 1010.69C484.206 1014.06 486.942 1016.8 490.314 1016.8C493.686 1016.8 496.422 1014.06 496.422 1010.69C496.422 1007.32 493.686 1004.59 490.314 1004.59Z" fill="#FD4C38"/>
<path d="M518.239 1004.59C514.867 1004.59 512.131 1007.32 512.131 1010.69C512.131 1014.06 514.867 1016.8 518.239 1016.8C521.611 1016.8 524.347 1014.06 524.347 1010.69C524.347 1007.32 521.621 1004.59 518.239 1004.59Z" fill="#FD4C38"/>
<path d="M546.173 1004.59C542.801 1004.59 540.065 1007.32 540.065 1010.69C540.065 1014.06 542.801 1016.8 546.173 1016.8C549.546 1016.8 552.282 1014.06 552.282 1010.69C552.282 1007.32 549.546 1004.59 546.173 1004.59Z" fill="#FD4C38"/>
<path d="M574.11 1004.59C570.738 1004.59 568.002 1007.32 568.002 1010.69C568.002 1014.06 570.738 1016.8 574.11 1016.8C577.482 1016.8 580.218 1014.06 580.218 1010.69C580.218 1007.32 577.482 1004.59 574.11 1004.59Z" fill="#FD4C38"/>
<path d="M602.045 1004.59C598.673 1004.59 595.937 1007.32 595.937 1010.69C595.937 1014.06 598.673 1016.8 602.045 1016.8C605.417 1016.8 608.153 1014.06 608.153 1010.69C608.153 1007.32 605.417 1004.59 602.045 1004.59Z" fill="#FD4C38"/>
<path d="M629.971 1004.59C626.599 1004.59 623.863 1007.32 623.863 1010.69C623.863 1014.06 626.599 1016.8 629.971 1016.8C633.343 1016.8 636.079 1014.06 636.079 1010.69C636.079 1007.32 633.343 1004.59 629.971 1004.59Z" fill="#FD4C38"/>
<path d="M657.907 1004.59C654.535 1004.59 651.799 1007.32 651.799 1010.69C651.799 1014.06 654.535 1016.8 657.907 1016.8C661.279 1016.8 664.015 1014.06 664.015 1010.69C664.015 1007.32 661.279 1004.59 657.907 1004.59Z" fill="#FD4C38"/>
<path d="M685.843 1004.59C682.471 1004.59 679.735 1007.32 679.735 1010.69C679.735 1014.06 682.471 1016.8 685.843 1016.8C689.215 1016.8 691.951 1014.06 691.951 1010.69C691.951 1007.32 689.215 1004.59 685.843 1004.59Z" fill="#FD4C38"/>
<path d="M322.71 973.299C319.338 973.299 316.602 976.033 316.602 979.403C316.602 982.773 319.338 985.507 322.71 985.507C326.082 985.507 328.818 982.773 328.818 979.403C328.818 976.033 326.092 973.299 322.71 973.299Z" fill="#FD4C38"/>
<path d="M350.645 973.299C347.273 973.299 344.537 976.033 344.537 979.403C344.537 982.773 347.273 985.507 350.645 985.507C354.017 985.507 356.753 982.773 356.753 979.403C356.753 976.033 354.017 973.299 350.645 973.299Z" fill="#FD4C38"/>
<path d="M378.581 973.299C375.209 973.299 372.473 976.033 372.473 979.403C372.473 982.773 375.209 985.507 378.581 985.507C381.953 985.507 384.689 982.773 384.689 979.403C384.689 976.033 381.953 973.299 378.581 973.299Z" fill="#FD4C38"/>
<path d="M406.517 973.299C403.145 973.299 400.409 976.033 400.409 979.403C400.409 982.773 403.145 985.507 406.517 985.507C409.889 985.507 412.625 982.773 412.625 979.403C412.625 976.033 409.889 973.299 406.517 973.299Z" fill="#FD4C38"/>
<path d="M434.443 973.299C431.07 973.299 428.334 976.033 428.334 979.403C428.334 982.773 431.07 985.507 434.443 985.507C437.815 985.507 440.551 982.773 440.551 979.403C440.551 976.033 437.815 973.299 434.443 973.299Z" fill="#FD4C38"/>
<path d="M462.378 973.299C459.006 973.299 456.27 976.033 456.27 979.403C456.27 982.773 459.006 985.507 462.378 985.507C465.75 985.507 468.486 982.773 468.486 979.403C468.486 976.033 465.75 973.299 462.378 973.299Z" fill="#FD4C38"/>
<path d="M490.314 973.299C486.942 973.299 484.206 976.033 484.206 979.403C484.206 982.773 486.942 985.507 490.314 985.507C493.686 985.507 496.422 982.773 496.422 979.403C496.422 976.033 493.686 973.299 490.314 973.299Z" fill="#FD4C38"/>
<path d="M518.239 973.299C514.867 973.299 512.131 976.033 512.131 979.403C512.131 982.773 514.867 985.507 518.239 985.507C521.611 985.507 524.347 982.773 524.347 979.403C524.347 976.033 521.621 973.299 518.239 973.299Z" fill="#FD4C38"/>
<path d="M546.175 973.299C542.803 973.299 540.067 976.033 540.067 979.403C540.067 982.773 542.803 985.507 546.175 985.507C549.547 985.507 552.284 982.773 552.284 979.403C552.284 976.033 549.547 973.299 546.175 973.299Z" fill="#FD4C38"/>
<path d="M574.11 973.299C570.738 973.299 568.002 976.033 568.002 979.403C568.002 982.773 570.738 985.507 574.11 985.507C577.483 985.507 580.219 982.773 580.219 979.403C580.219 976.033 577.483 973.299 574.11 973.299Z" fill="#FD4C38"/>
<path d="M602.047 973.299C598.675 973.299 595.939 976.033 595.939 979.403C595.939 982.773 598.675 985.507 602.047 985.507C605.419 985.507 608.155 982.773 608.155 979.403C608.155 976.033 605.419 973.299 602.047 973.299Z" fill="#FD4C38"/>
<path d="M629.973 973.299C626.601 973.299 623.865 976.033 623.865 979.403C623.865 982.773 626.601 985.507 629.973 985.507C633.345 985.507 636.081 982.773 636.081 979.403C636.081 976.033 633.345 973.299 629.973 973.299Z" fill="#FD4C38"/>
<path d="M657.908 973.299C654.536 973.299 651.8 976.033 651.8 979.403C651.8 982.773 654.536 985.507 657.908 985.507C661.28 985.507 664.016 982.773 664.016 979.403C664.016 976.033 661.28 973.299 657.908 973.299Z" fill="#FD4C38"/>
<path d="M458.324 660.487C498.911 660.487 531.935 693.49 531.935 734.051C531.935 774.611 498.911 807.614 458.324 807.614C417.728 807.614 384.714 774.611 384.714 734.051C384.704 693.49 417.728 660.487 458.324 660.487ZM458.324 784.993C486.432 784.993 509.299 762.14 509.299 734.051C509.299 705.961 486.432 683.108 458.324 683.108C430.217 683.108 407.35 705.961 407.35 734.051C407.35 762.15 430.207 784.993 458.324 784.993Z" fill="#590209"/>
<path d="M129.743 1683.99L119.506 1663.42C112.903 1650.18 112.903 1634.59 119.506 1621.34L119.516 1621.33C126.119 1608.08 126.119 1592.5 119.516 1579.25V1579.24C112.913 1565.98 112.913 1550.4 119.516 1537.15V1537.14C126.119 1523.88 126.119 1508.31 119.516 1495.06C112.913 1481.8 112.913 1466.22 119.516 1452.97V1452.96C126.119 1439.71 126.119 1424.13 119.516 1410.88L110.995 1393.77H116.851L125.372 1410.88C131.975 1424.14 131.975 1439.72 125.372 1452.96V1452.97C118.769 1466.23 118.769 1481.81 125.372 1495.06C131.975 1508.32 131.975 1523.89 125.372 1537.14V1537.15C118.769 1550.41 118.769 1565.99 125.372 1579.24V1579.25C131.975 1592.49 131.975 1608.07 125.372 1621.33L125.362 1621.34C118.759 1634.6 118.759 1650.18 125.362 1663.42L135.599 1683.99H129.743Z" fill="black"/>
<path d="M153.57 1683.99L143.333 1663.42C136.73 1650.18 136.73 1634.59 143.333 1621.34L143.343 1621.33C149.946 1608.08 149.946 1592.5 143.343 1579.25V1579.24C136.74 1565.98 136.74 1550.4 143.343 1537.15V1537.14C149.946 1523.88 149.946 1508.31 143.343 1495.06C136.74 1481.8 136.74 1466.22 143.343 1452.97V1452.96C149.946 1439.71 149.946 1424.13 143.343 1410.88L134.822 1393.77H140.678L149.199 1410.88C155.802 1424.14 155.802 1439.72 149.199 1452.96V1452.97C142.596 1466.23 142.596 1481.81 149.199 1495.06C155.802 1508.32 155.802 1523.89 149.199 1537.14V1537.15C142.596 1550.41 142.596 1565.99 149.199 1579.24V1579.25C155.802 1592.49 155.802 1608.07 149.199 1621.33L149.189 1621.34C142.586 1634.6 142.586 1650.18 149.189 1663.42L159.426 1683.99H153.57Z" fill="black"/>
<path d="M177.397 1683.99L167.16 1663.42C160.557 1650.18 160.557 1634.59 167.16 1621.34L167.17 1621.33C173.773 1608.08 173.773 1592.5 167.17 1579.25V1579.24C160.567 1565.98 160.567 1550.4 167.17 1537.15V1537.14C173.773 1523.88 173.773 1508.31 167.17 1495.06C160.567 1481.8 160.567 1466.22 167.17 1452.97V1452.96C173.773 1439.71 173.773 1424.13 167.17 1410.88L158.649 1393.77H164.505L173.026 1410.88C179.629 1424.14 179.629 1439.72 173.026 1452.96V1452.97C166.423 1466.23 166.423 1481.81 173.026 1495.06C179.629 1508.32 179.629 1523.89 173.026 1537.14V1537.15C166.423 1550.41 166.423 1565.99 173.026 1579.24V1579.25C179.629 1592.49 179.629 1608.07 173.026 1621.33L173.016 1621.34C166.413 1634.6 166.413 1650.18 173.016 1663.42L183.253 1683.99H177.397Z" fill="black"/>
<path d="M201.215 1683.99L190.977 1663.42C184.375 1650.17 184.375 1634.59 190.977 1621.34L190.988 1621.33C197.59 1608.08 197.59 1592.51 190.988 1579.25V1579.24C184.385 1565.98 184.385 1550.4 190.988 1537.15C197.59 1523.9 197.59 1508.32 190.988 1495.07C184.385 1481.81 184.385 1466.23 190.988 1452.99V1452.98C197.59 1439.72 197.59 1424.14 190.988 1410.89L182.466 1393.78H188.322L196.843 1410.89C203.446 1424.15 203.446 1439.73 196.843 1452.98V1452.99C190.241 1466.24 190.241 1481.82 196.843 1495.07C203.446 1508.33 203.446 1523.91 196.843 1537.15V1537.16C190.241 1550.42 190.241 1566 196.843 1579.25V1579.26C203.446 1592.51 203.446 1608.08 196.843 1621.34L196.833 1621.35C190.23 1634.61 190.23 1650.19 196.833 1663.43L207.071 1684H201.215V1683.99Z" fill="black"/>
</svg>
