<svg width="703" height="1649" viewBox="0 0 703 1649" fill="none" xmlns="http://www.w3.org/2000/svg">
<path opacity="0.5" d="M130.126 1276.03C163.739 1276.03 190.988 1303.26 190.988 1336.86C190.988 1370.45 163.739 1397.68 130.126 1397.68C96.5128 1397.68 69.2639 1370.45 69.2639 1336.86C69.2639 1303.26 96.5128 1276.03 130.126 1276.03Z" fill="#EAEAEA"/>
<path d="M148.219 1332.25L149.316 1331.16L148.219 1330.06C148.129 1329.97 148.129 1329.83 148.219 1329.74C148.308 1329.65 148.45 1329.65 148.537 1329.74L149.635 1330.84L150.732 1329.74C150.821 1329.65 150.964 1329.65 151.051 1329.74C151.14 1329.83 151.14 1329.97 151.051 1330.06L149.953 1331.16L151.051 1332.25C151.14 1332.34 151.14 1332.49 151.051 1332.57C150.962 1332.66 150.819 1332.66 150.732 1332.57L149.635 1331.47L148.537 1332.57C148.448 1332.66 148.305 1332.66 148.219 1332.57C148.129 1332.49 148.129 1332.34 148.219 1332.25Z" fill="black"/>
<path d="M139.205 1332.25L140.303 1331.16L139.205 1330.06C139.116 1329.97 139.116 1329.83 139.205 1329.74C139.294 1329.65 139.436 1329.65 139.523 1329.74L140.621 1330.84L141.719 1329.74C141.808 1329.65 141.95 1329.65 142.037 1329.74C142.126 1329.83 142.126 1329.97 142.037 1330.06L140.939 1331.16L142.037 1332.25C142.126 1332.34 142.126 1332.49 142.037 1332.57C141.948 1332.66 141.805 1332.66 141.719 1332.57L140.621 1331.47L139.523 1332.57C139.434 1332.66 139.292 1332.66 139.205 1332.57C139.116 1332.49 139.116 1332.34 139.205 1332.25Z" fill="black"/>
<path d="M130.192 1332.25L131.29 1331.16L130.192 1330.06C130.103 1329.97 130.103 1329.83 130.192 1329.74C130.281 1329.65 130.424 1329.65 130.511 1329.74L131.608 1330.84L132.706 1329.74C132.795 1329.65 132.938 1329.65 133.024 1329.74C133.113 1329.83 133.113 1329.97 133.024 1330.06L131.927 1331.16L133.024 1332.25C133.113 1332.34 133.113 1332.49 133.024 1332.57C132.935 1332.66 132.793 1332.66 132.706 1332.57L131.608 1331.47L130.511 1332.57C130.422 1332.66 130.279 1332.66 130.192 1332.57C130.103 1332.49 130.103 1332.34 130.192 1332.25Z" fill="black"/>
<path d="M121.179 1332.25L122.277 1331.16L121.179 1330.06C121.09 1329.97 121.09 1329.83 121.179 1329.74C121.268 1329.65 121.411 1329.65 121.498 1329.74L122.595 1330.84L123.693 1329.74C123.782 1329.65 123.925 1329.65 124.011 1329.74C124.1 1329.83 124.1 1329.97 124.011 1330.06L122.914 1331.16L124.011 1332.25C124.1 1332.34 124.1 1332.49 124.011 1332.57C123.922 1332.66 123.78 1332.66 123.693 1332.57L122.595 1331.47L121.498 1332.57C121.409 1332.66 121.266 1332.66 121.179 1332.57C121.09 1332.49 121.09 1332.34 121.179 1332.25Z" fill="black"/>
<path d="M112.166 1332.25L113.264 1331.16L112.166 1330.06C112.077 1329.97 112.077 1329.83 112.166 1329.74C112.255 1329.65 112.398 1329.65 112.485 1329.74L113.582 1330.84L114.68 1329.74C114.769 1329.65 114.911 1329.65 114.998 1329.74C115.087 1329.83 115.087 1329.97 114.998 1330.06L113.901 1331.16L114.998 1332.25C115.087 1332.34 115.087 1332.49 114.998 1332.57C114.909 1332.66 114.767 1332.66 114.68 1332.57L113.582 1331.47L112.485 1332.57C112.395 1332.66 112.253 1332.66 112.166 1332.57C112.077 1332.49 112.077 1332.34 112.166 1332.25Z" fill="black"/>
<path d="M103.153 1332.25L104.251 1331.16L103.153 1330.06C103.064 1329.97 103.064 1329.83 103.153 1329.74C103.242 1329.65 103.385 1329.65 103.472 1329.74L104.569 1330.84L105.667 1329.74C105.756 1329.65 105.899 1329.65 105.985 1329.74C106.075 1329.83 106.075 1329.97 105.985 1330.06L104.888 1331.16L105.985 1332.25C106.075 1332.34 106.075 1332.49 105.985 1332.57C105.896 1332.66 105.754 1332.66 105.667 1332.57L104.569 1331.47L103.472 1332.57C103.383 1332.66 103.24 1332.66 103.153 1332.57C103.064 1332.49 103.064 1332.34 103.153 1332.25Z" fill="black"/>
<path opacity="0.5" d="M241.642 760.407C251.522 770.28 251.522 786.287 241.642 796.16C231.763 806.033 215.746 806.033 205.866 796.16C195.987 786.287 195.987 770.28 205.866 760.407C215.746 750.534 231.763 750.534 241.642 760.407Z" fill="#EAEAEA"/>
<path d="M117.359 727.715L117.359 819.258H116.532L116.532 727.715H117.359Z" fill="black"/>
<path d="M123.899 721.771L123.899 801.27H123.073L123.073 721.771H123.899Z" fill="black"/>
<path d="M178.705 1020.38C178.705 1019.64 178.102 1019.03 177.358 1019.03C176.615 1019.03 176.011 1019.64 176.011 1020.38C176.011 1021.12 176.615 1021.73 177.358 1021.73C178.102 1021.73 178.705 1021.12 178.705 1020.38Z" fill="#FD4C38"/>
<path d="M178.705 1026.54C178.705 1025.79 178.102 1025.19 177.358 1025.19C176.615 1025.19 176.011 1025.79 176.011 1026.54C176.011 1027.28 176.615 1027.88 177.358 1027.88C178.102 1027.88 178.705 1027.28 178.705 1026.54Z" fill="#FD4C38"/>
<path d="M178.705 1032.69C178.705 1031.95 178.102 1031.34 177.358 1031.34C176.615 1031.34 176.011 1031.95 176.011 1032.69C176.011 1033.43 176.615 1034.04 177.358 1034.04C178.102 1034.04 178.705 1033.43 178.705 1032.69Z" fill="#FD4C38"/>
<path d="M178.705 1038.85C178.705 1038.1 178.102 1037.5 177.358 1037.5C176.615 1037.5 176.011 1038.1 176.011 1038.85C176.011 1039.59 176.615 1040.19 177.358 1040.19C178.102 1040.19 178.705 1039.59 178.705 1038.85Z" fill="#FD4C38"/>
<path d="M178.705 1045.01C178.705 1044.26 178.102 1043.66 177.358 1043.66C176.615 1043.66 176.011 1044.26 176.011 1045.01C176.011 1045.75 176.615 1046.35 177.358 1046.35C178.102 1046.35 178.705 1045.75 178.705 1045.01Z" fill="#FD4C38"/>
<path d="M178.705 1051.16C178.705 1050.42 178.102 1049.82 177.358 1049.82C176.615 1049.82 176.011 1050.42 176.011 1051.16C176.011 1051.9 176.615 1052.51 177.358 1052.51C178.102 1052.51 178.705 1051.9 178.705 1051.16Z" fill="#FD4C38"/>
<path d="M178.705 1057.31C178.705 1056.57 178.102 1055.97 177.358 1055.97C176.615 1055.97 176.011 1056.57 176.011 1057.31C176.011 1058.06 176.615 1058.66 177.358 1058.66C178.102 1058.66 178.705 1058.06 178.705 1057.31Z" fill="#FD4C38"/>
<path d="M178.705 1063.47C178.705 1062.73 178.102 1062.13 177.358 1062.13C176.615 1062.13 176.011 1062.73 176.011 1063.47C176.011 1064.22 176.615 1064.82 177.358 1064.82C178.102 1064.82 178.705 1064.22 178.705 1063.47Z" fill="#FD4C38"/>
<path d="M178.705 1069.63C178.705 1068.88 178.102 1068.28 177.358 1068.28C176.615 1068.28 176.011 1068.88 176.011 1069.63C176.011 1070.37 176.615 1070.97 177.358 1070.97C178.102 1070.97 178.705 1070.37 178.705 1069.63Z" fill="#FD4C38"/>
<path d="M178.705 1075.78C178.705 1075.04 178.102 1074.44 177.358 1074.44C176.615 1074.44 176.011 1075.04 176.011 1075.78C176.011 1076.53 176.615 1077.13 177.358 1077.13C178.102 1077.13 178.705 1076.53 178.705 1075.78Z" fill="#FD4C38"/>
<path d="M178.705 1081.94C178.705 1081.2 178.102 1080.59 177.358 1080.59C176.615 1080.59 176.011 1081.2 176.011 1081.94C176.011 1082.68 176.615 1083.29 177.358 1083.29C178.102 1083.29 178.705 1082.68 178.705 1081.94Z" fill="#FD4C38"/>
<path d="M178.705 1088.1C178.705 1087.35 178.102 1086.75 177.358 1086.75C176.615 1086.75 176.011 1087.35 176.011 1088.1C176.011 1088.84 176.615 1089.44 177.358 1089.44C178.102 1089.44 178.705 1088.84 178.705 1088.1Z" fill="#FD4C38"/>
<path d="M178.705 1094.25C178.705 1093.51 178.102 1092.91 177.358 1092.91C176.614 1092.91 176.011 1093.51 176.011 1094.25C176.011 1095 176.614 1095.6 177.358 1095.6C178.102 1095.6 178.705 1095 178.705 1094.25Z" fill="#FD4C38"/>
<path d="M185.61 1014.22C185.61 1013.48 185.007 1012.87 184.263 1012.87C183.52 1012.87 182.916 1013.48 182.916 1014.22C182.916 1014.96 183.52 1015.57 184.263 1015.57C185.007 1015.57 185.61 1014.96 185.61 1014.22Z" fill="#FD4C38"/>
<path d="M185.61 1020.38C185.61 1019.63 185.007 1019.03 184.263 1019.03C183.52 1019.03 182.916 1019.63 182.916 1020.38C182.916 1021.12 183.52 1021.72 184.263 1021.72C185.007 1021.72 185.61 1021.12 185.61 1020.38Z" fill="#FD4C38"/>
<path d="M185.61 1026.53C185.61 1025.79 185.007 1025.19 184.263 1025.19C183.52 1025.19 182.916 1025.79 182.916 1026.53C182.916 1027.28 183.52 1027.88 184.263 1027.88C185.007 1027.88 185.61 1027.28 185.61 1026.53Z" fill="#FD4C38"/>
<path d="M185.61 1032.69C185.61 1031.95 185.007 1031.34 184.263 1031.34C183.52 1031.34 182.916 1031.95 182.916 1032.69C182.916 1033.43 183.52 1034.04 184.263 1034.04C185.007 1034.04 185.61 1033.43 185.61 1032.69Z" fill="#FD4C38"/>
<path d="M185.61 1038.85C185.61 1038.1 185.007 1037.5 184.263 1037.5C183.52 1037.5 182.916 1038.1 182.916 1038.85C182.916 1039.59 183.52 1040.19 184.263 1040.19C185.007 1040.19 185.61 1039.59 185.61 1038.85Z" fill="#FD4C38"/>
<path d="M185.61 1045C185.61 1044.26 185.007 1043.66 184.263 1043.66C183.52 1043.66 182.916 1044.26 182.916 1045C182.916 1045.75 183.52 1046.35 184.263 1046.35C185.007 1046.35 185.61 1045.75 185.61 1045Z" fill="#FD4C38"/>
<path d="M185.61 1051.16C185.61 1050.41 185.007 1049.81 184.263 1049.81C183.52 1049.81 182.916 1050.41 182.916 1051.16C182.916 1051.9 183.52 1052.5 184.263 1052.5C185.007 1052.5 185.61 1051.9 185.61 1051.16Z" fill="#FD4C38"/>
<path d="M185.61 1057.31C185.61 1056.57 185.007 1055.97 184.263 1055.97C183.52 1055.97 182.916 1056.57 182.916 1057.31C182.916 1058.06 183.52 1058.66 184.263 1058.66C185.007 1058.66 185.61 1058.06 185.61 1057.31Z" fill="#FD4C38"/>
<path d="M185.61 1063.47C185.61 1062.73 185.007 1062.12 184.263 1062.12C183.52 1062.12 182.916 1062.73 182.916 1063.47C182.916 1064.21 183.52 1064.82 184.263 1064.82C185.007 1064.82 185.61 1064.21 185.61 1063.47Z" fill="#FD4C38"/>
<path d="M185.61 1069.63C185.61 1068.89 185.007 1068.28 184.263 1068.28C183.52 1068.28 182.916 1068.89 182.916 1069.63C182.916 1070.37 183.52 1070.97 184.263 1070.97C185.007 1070.97 185.61 1070.37 185.61 1069.63Z" fill="#FD4C38"/>
<path d="M185.61 1075.78C185.61 1075.04 185.007 1074.44 184.263 1074.44C183.52 1074.44 182.916 1075.04 182.916 1075.78C182.916 1076.53 183.52 1077.13 184.263 1077.13C185.007 1077.13 185.61 1076.53 185.61 1075.78Z" fill="#FD4C38"/>
<path d="M185.61 1081.94C185.61 1081.2 185.007 1080.59 184.263 1080.59C183.52 1080.59 182.916 1081.2 182.916 1081.94C182.916 1082.68 183.52 1083.29 184.263 1083.29C185.007 1083.29 185.61 1082.68 185.61 1081.94Z" fill="#FD4C38"/>
<path d="M185.61 1088.1C185.61 1087.35 185.007 1086.75 184.263 1086.75C183.52 1086.75 182.916 1087.35 182.916 1088.1C182.916 1088.84 183.52 1089.44 184.263 1089.44C185.007 1089.44 185.61 1088.84 185.61 1088.1Z" fill="#FD4C38"/>
<path d="M239.843 981.271L241.602 979.513L239.843 977.755C239.701 977.615 239.701 977.386 239.843 977.244C239.986 977.103 240.213 977.103 240.356 977.244L242.115 979.001L243.873 977.244C244.016 977.103 244.245 977.103 244.386 977.244C244.528 977.384 244.528 977.613 244.386 977.755L242.627 979.513L244.386 981.271C244.528 981.413 244.528 981.643 244.386 981.783C244.245 981.925 244.016 981.925 243.873 981.783L242.112 980.025L240.353 981.783C240.211 981.925 239.984 981.925 239.841 981.783C239.703 981.643 239.703 981.413 239.843 981.271Z" fill="black"/>
<path d="M225.384 981.271L227.143 979.513L225.384 977.755C225.244 977.615 225.244 977.386 225.384 977.244C225.527 977.103 225.754 977.103 225.896 977.244L227.655 979.001L229.414 977.244C229.554 977.103 229.784 977.103 229.926 977.244C230.067 977.384 230.067 977.613 229.926 977.755L228.167 979.513L229.929 981.271C230.071 981.413 230.071 981.643 229.929 981.783C229.786 981.925 229.559 981.925 229.416 981.783L227.657 980.025L225.898 981.783C225.756 981.925 225.529 981.925 225.386 981.783C225.242 981.643 225.242 981.413 225.384 981.271Z" fill="black"/>
<path d="M210.923 981.271L212.682 979.513L210.923 977.755C210.783 977.615 210.783 977.386 210.923 977.244C211.066 977.103 211.295 977.103 211.435 977.244L213.194 979.001L214.953 977.244C215.094 977.103 215.325 977.103 215.465 977.244C215.608 977.384 215.608 977.613 215.465 977.755L213.706 979.513L215.465 981.271C215.608 981.413 215.608 981.643 215.465 981.783C215.325 981.925 215.096 981.925 214.953 981.783L213.194 980.025L211.435 981.783C211.295 981.925 211.066 981.925 210.923 981.783C210.783 981.643 210.783 981.413 210.923 981.271Z" fill="black"/>
<path d="M196.463 981.271L198.222 979.513L196.463 977.755C196.323 977.615 196.323 977.386 196.463 977.244C196.606 977.103 196.835 977.103 196.975 977.244L198.734 979.001L200.493 977.244C200.636 977.103 200.863 977.103 201.005 977.244C201.148 977.384 201.148 977.613 201.005 977.755L199.247 979.513L201.005 981.271C201.148 981.413 201.148 981.643 201.005 981.783C200.865 981.925 200.636 981.925 200.493 981.783L198.732 980.025L196.973 981.783C196.833 981.925 196.604 981.925 196.461 981.783C196.321 981.643 196.321 981.413 196.463 981.271Z" fill="black"/>
<path d="M182.003 981.271L183.762 979.513L182.003 977.755C181.86 977.615 181.86 977.386 182.003 977.244C182.143 977.103 182.373 977.103 182.515 977.244L184.274 979.001L186.033 977.244C186.176 977.103 186.403 977.103 186.545 977.244C186.688 977.384 186.688 977.613 186.545 977.755L184.786 979.513L186.547 981.271C186.688 981.413 186.688 981.643 186.547 981.783C186.405 981.925 186.176 981.925 186.035 981.783L184.276 980.025L182.517 981.783C182.375 981.925 182.145 981.925 182.005 981.783C181.863 981.643 181.863 981.413 182.003 981.271Z" fill="black"/>
<path d="M167.544 981.271L169.303 979.513L167.544 977.755C167.401 977.615 167.401 977.386 167.544 977.244C167.684 977.103 167.913 977.103 168.056 977.244L169.815 979.001L171.574 977.244C171.716 977.103 171.946 977.103 172.086 977.244C172.226 977.384 172.226 977.613 172.086 977.755L170.327 979.513L172.086 981.271C172.228 981.413 172.228 981.643 172.086 981.783C171.946 981.925 171.716 981.925 171.574 981.783L169.815 980.025L168.056 981.783C167.916 981.925 167.684 981.925 167.544 981.783C167.401 981.643 167.401 981.413 167.544 981.271Z" fill="black"/>
<path opacity="0.5" d="M395.907 1142.63C418.668 1142.63 437.12 1161.07 437.12 1183.82C437.12 1206.56 418.668 1225 395.907 1225C373.146 1225 354.694 1206.56 354.694 1183.82C354.694 1161.07 373.146 1142.63 395.907 1142.63Z" fill="#EAEAEA"/>
<path opacity="0.5" d="M631.942 1461.02C683.652 1461.02 725.57 1502.94 725.57 1554.65C725.57 1606.36 683.652 1648.28 631.942 1648.28C580.233 1648.28 538.314 1606.36 538.314 1554.65C538.314 1502.94 580.233 1461.02 631.942 1461.02Z" fill="#EAEAEA"/>
<path d="M782.377 1553.18C735.687 1553.18 697.839 1514.92 697.839 1467.73C697.839 1420.54 735.687 1382.29 782.377 1382.29C829.063 1382.29 866.915 1420.54 866.915 1467.73C866.915 1514.92 829.063 1553.18 782.377 1553.18ZM782.377 1410.99C751.371 1410.99 726.237 1436.4 726.237 1467.73C726.237 1499.07 751.371 1524.47 782.377 1524.47C813.379 1524.47 838.512 1499.07 838.512 1467.73C838.512 1436.4 813.379 1410.99 782.377 1410.99Z" fill="#590209"/>
<path d="M476.501 1469.2C476.501 1459.66 469.175 1451.93 460.137 1451.93C451.099 1451.93 443.777 1459.66 443.777 1469.2C443.777 1478.74 451.099 1486.47 460.137 1486.47C469.175 1486.47 476.501 1478.74 476.501 1469.2Z" fill="black"/>
<path d="M420.569 1687.9C465.733 1687.9 502.477 1651.17 502.477 1606.04C502.477 1560.91 465.733 1524.18 420.569 1524.18C375.406 1524.18 338.661 1560.91 338.661 1606.04C338.661 1651.17 375.406 1687.9 420.569 1687.9ZM420.569 1525.24C465.152 1525.24 501.422 1561.49 501.422 1606.04C501.422 1650.6 465.152 1686.85 420.569 1686.85C375.986 1686.85 339.716 1650.6 339.716 1606.04C339.716 1561.49 375.99 1525.24 420.569 1525.24Z" fill="#FD4C38"/>
<path d="M420.569 1678.03C460.289 1678.03 492.603 1645.74 492.603 1606.04C492.603 1566.35 460.289 1534.06 420.569 1534.06C380.848 1534.06 348.534 1566.35 348.534 1606.04C348.538 1645.74 380.852 1678.03 420.569 1678.03ZM420.569 1535.11C459.709 1535.11 491.548 1566.93 491.548 1606.04C491.548 1645.16 459.705 1676.98 420.569 1676.98C381.432 1676.98 349.589 1645.15 349.589 1606.04C349.589 1566.93 381.432 1535.11 420.569 1535.11Z" fill="#FD4C38"/>
<path d="M420.569 1668.17C454.844 1668.17 482.731 1640.3 482.731 1606.04C482.731 1571.79 454.844 1543.92 420.569 1543.92C386.295 1543.92 358.408 1571.79 358.408 1606.04C358.408 1640.3 386.295 1668.17 420.569 1668.17ZM420.569 1544.97C454.263 1544.97 481.676 1572.37 481.676 1606.04C481.676 1639.71 454.263 1667.11 420.569 1667.11C386.875 1667.11 359.463 1639.71 359.463 1606.04C359.463 1572.37 386.875 1544.97 420.569 1544.97Z" fill="#FD4C38"/>
<path d="M420.569 1658.3C449.401 1658.3 472.857 1634.86 472.857 1606.04C472.857 1577.23 449.401 1553.79 420.569 1553.79C391.737 1553.79 368.281 1577.23 368.281 1606.04C368.281 1634.86 391.737 1658.3 420.569 1658.3ZM420.569 1554.84C448.821 1554.84 471.806 1577.81 471.806 1606.04C471.806 1634.28 448.821 1657.25 420.569 1657.25C392.318 1657.25 369.332 1634.28 369.332 1606.04C369.336 1577.81 392.318 1554.84 420.569 1554.84Z" fill="#FD4C38"/>
<path d="M420.569 1648.43C443.958 1648.43 462.983 1629.41 462.983 1606.04C462.983 1582.67 443.954 1563.66 420.569 1563.66C397.183 1563.66 378.154 1582.67 378.154 1606.04C378.154 1629.41 397.183 1648.43 420.569 1648.43ZM420.569 1564.71C443.378 1564.71 461.932 1583.25 461.932 1606.04C461.932 1628.84 443.378 1647.38 420.569 1647.38C397.76 1647.38 379.205 1628.84 379.205 1606.04C379.209 1583.25 397.764 1564.71 420.569 1564.71Z" fill="#FD4C38"/>
<path d="M420.569 1638.57C438.512 1638.57 453.114 1623.98 453.114 1606.04C453.114 1588.11 438.516 1573.52 420.569 1573.52C402.626 1573.52 388.024 1588.11 388.024 1606.04C388.028 1623.98 402.626 1638.57 420.569 1638.57ZM420.569 1574.58C437.932 1574.58 452.059 1588.69 452.059 1606.05C452.059 1623.4 437.932 1637.52 420.569 1637.52C403.206 1637.52 389.078 1623.4 389.078 1606.05C389.078 1588.69 403.206 1574.58 420.569 1574.58Z" fill="#FD4C38"/>
<path d="M420.569 1628.7C433.07 1628.7 443.241 1618.53 443.241 1606.04C443.241 1593.55 433.07 1583.38 420.569 1583.38C408.069 1583.38 397.897 1593.55 397.897 1606.04C397.901 1618.54 408.069 1628.7 420.569 1628.7ZM420.569 1584.44C432.489 1584.44 442.186 1594.13 442.186 1606.04C442.186 1617.96 432.489 1627.65 420.569 1627.65C408.649 1627.65 398.952 1617.96 398.952 1606.04C398.952 1594.13 408.649 1584.44 420.569 1584.44Z" fill="#FD4C38"/>
<path d="M420.569 1618.83C427.627 1618.83 433.367 1613.1 433.367 1606.04C433.367 1598.99 427.627 1593.25 420.569 1593.25C413.511 1593.25 407.77 1598.99 407.77 1606.04C407.77 1613.09 413.515 1618.83 420.569 1618.83ZM420.569 1594.3C427.046 1594.3 432.312 1599.57 432.312 1606.04C432.312 1612.51 427.042 1617.78 420.569 1617.78C414.095 1617.78 408.825 1612.51 408.825 1606.04C408.825 1599.57 414.095 1594.3 420.569 1594.3Z" fill="#FD4C38"/>
<path d="M304.045 1507.81L307.143 1504.71L304.045 1501.62C303.794 1501.37 303.794 1500.97 304.045 1500.72C304.296 1500.47 304.696 1500.47 304.947 1500.72L308.045 1503.81L311.143 1500.72C311.394 1500.47 311.797 1500.47 312.044 1500.72C312.295 1500.96 312.295 1501.37 312.044 1501.62L308.947 1504.71L312.044 1507.81C312.295 1508.06 312.295 1508.46 312.044 1508.71C311.794 1508.96 311.394 1508.96 311.143 1508.71L308.041 1505.61L304.943 1508.71C304.692 1508.96 304.292 1508.96 304.042 1508.71C303.794 1508.46 303.794 1508.06 304.045 1507.81Z" fill="black"/>
<path d="M278.578 1507.81L281.676 1504.71L278.578 1501.62C278.331 1501.37 278.331 1500.97 278.578 1500.72C278.829 1500.47 279.229 1500.47 279.48 1500.72L282.578 1503.81L285.676 1500.72C285.923 1500.47 286.327 1500.47 286.578 1500.72C286.825 1500.96 286.825 1501.37 286.578 1501.62L283.476 1504.71L286.578 1507.81C286.829 1508.06 286.829 1508.46 286.578 1508.71C286.327 1508.96 285.927 1508.96 285.676 1508.71L282.578 1505.61L279.48 1508.71C279.229 1508.96 278.829 1508.96 278.578 1508.71C278.331 1508.46 278.331 1508.06 278.578 1507.81Z" fill="black"/>
<path d="M253.114 1507.81L256.216 1504.71L253.114 1501.62C252.867 1501.37 252.867 1500.97 253.114 1500.72C253.365 1500.47 253.769 1500.47 254.016 1500.72L257.114 1503.81L260.211 1500.72C260.458 1500.47 260.862 1500.47 261.113 1500.72C261.364 1500.96 261.364 1501.37 261.113 1501.62L258.016 1504.71L261.113 1507.81C261.364 1508.06 261.364 1508.46 261.113 1508.71C260.866 1508.96 260.462 1508.96 260.211 1508.71L257.114 1505.61L254.016 1508.71C253.769 1508.96 253.361 1508.96 253.114 1508.71C252.863 1508.46 252.863 1508.06 253.114 1507.81Z" fill="black"/>
<path d="M227.647 1507.81L230.745 1504.71L227.647 1501.62C227.4 1501.37 227.4 1500.97 227.647 1500.72C227.898 1500.47 228.302 1500.47 228.549 1500.72L231.646 1503.81L234.744 1500.72C234.995 1500.47 235.399 1500.47 235.646 1500.72C235.897 1500.96 235.897 1501.37 235.646 1501.62L232.548 1504.71L235.646 1507.81C235.897 1508.06 235.897 1508.46 235.646 1508.71C235.399 1508.96 234.995 1508.96 234.744 1508.71L231.643 1505.61L228.545 1508.71C228.298 1508.96 227.894 1508.96 227.643 1508.71C227.4 1508.46 227.4 1508.06 227.647 1507.81Z" fill="black"/>
<path d="M202.183 1507.81L205.281 1504.71L202.183 1501.62C201.932 1501.37 201.932 1500.97 202.183 1500.72C202.43 1500.47 202.834 1500.47 203.085 1500.72L206.183 1503.81L209.28 1500.72C209.528 1500.47 209.931 1500.47 210.182 1500.72C210.433 1500.96 210.433 1501.37 210.182 1501.62L207.085 1504.71L210.186 1507.81C210.433 1508.06 210.433 1508.46 210.186 1508.71C209.935 1508.96 209.531 1508.96 209.284 1508.71L206.183 1505.61L203.085 1508.71C202.834 1508.96 202.43 1508.96 202.183 1508.71C201.932 1508.46 201.932 1508.06 202.183 1507.81Z" fill="black"/>
<path d="M176.716 1507.81L179.813 1504.71L176.716 1501.62C176.465 1501.37 176.465 1500.97 176.716 1500.72C176.963 1500.47 177.367 1500.47 177.618 1500.72L180.715 1503.81L183.813 1500.72C184.064 1500.47 184.468 1500.47 184.715 1500.72C184.966 1500.96 184.966 1501.37 184.715 1501.62L181.617 1504.71L184.715 1507.81C184.966 1508.06 184.966 1508.46 184.715 1508.71C184.468 1508.96 184.064 1508.96 183.813 1508.71L180.711 1505.61L177.614 1508.71C177.363 1508.96 176.959 1508.96 176.712 1508.71C176.469 1508.46 176.469 1508.06 176.716 1507.81Z" fill="black"/>
<path d="M492.155 1244.02L493.914 1245.78L495.673 1244.02C495.813 1243.88 496.042 1243.88 496.185 1244.02C496.327 1244.17 496.327 1244.39 496.185 1244.53L494.426 1246.29L496.185 1248.05C496.327 1248.19 496.327 1248.42 496.185 1248.56C496.045 1248.7 495.815 1248.7 495.673 1248.56L493.914 1246.8L492.155 1248.56C492.012 1248.7 491.783 1248.7 491.643 1248.56C491.5 1248.42 491.5 1248.19 491.643 1248.05L493.402 1246.29L491.643 1244.53C491.5 1244.39 491.5 1244.16 491.643 1244.02C491.783 1243.88 492.012 1243.88 492.155 1244.02Z" fill="black"/>
<path d="M492.155 1229.57L493.914 1231.33L495.673 1229.57C495.813 1229.43 496.043 1229.43 496.185 1229.57C496.328 1229.72 496.328 1229.94 496.185 1230.09L494.426 1231.84L496.185 1233.6C496.328 1233.74 496.328 1233.97 496.185 1234.11C496.045 1234.25 495.815 1234.25 495.673 1234.11L493.914 1232.36L492.155 1234.12C492.013 1234.26 491.783 1234.26 491.643 1234.12C491.501 1233.97 491.501 1233.75 491.643 1233.6L493.402 1231.84L491.643 1230.09C491.501 1229.94 491.501 1229.72 491.643 1229.57C491.783 1229.43 492.013 1229.43 492.155 1229.57Z" fill="black"/>
<path d="M492.155 1215.12L493.914 1216.88L495.673 1215.12C495.813 1214.98 496.043 1214.98 496.185 1215.12C496.328 1215.26 496.328 1215.49 496.185 1215.63L494.426 1217.39L496.185 1219.15C496.328 1219.29 496.328 1219.52 496.185 1219.66C496.045 1219.8 495.815 1219.8 495.673 1219.66L493.914 1217.9L492.155 1219.66C492.013 1219.8 491.783 1219.8 491.643 1219.66C491.501 1219.52 491.501 1219.29 491.643 1219.15L493.402 1217.39L491.643 1215.63C491.501 1215.49 491.501 1215.26 491.643 1215.12C491.783 1214.98 492.013 1214.98 492.155 1215.12Z" fill="black"/>
<path d="M492.155 1200.67L493.914 1202.43L495.673 1200.67C495.813 1200.53 496.043 1200.53 496.185 1200.67C496.328 1200.81 496.328 1201.04 496.185 1201.18L494.426 1202.94L496.185 1204.7C496.328 1204.84 496.328 1205.07 496.185 1205.21C496.045 1205.35 495.815 1205.35 495.673 1205.21L493.914 1203.45L492.155 1205.21C492.013 1205.35 491.783 1205.35 491.643 1205.21C491.501 1205.07 491.501 1204.84 491.643 1204.7L493.402 1202.94L491.643 1201.18C491.501 1201.04 491.501 1200.81 491.643 1200.67C491.783 1200.53 492.013 1200.53 492.155 1200.67Z" fill="black"/>
<path d="M492.155 1186.22L493.914 1187.98L495.673 1186.22C495.813 1186.08 496.043 1186.08 496.185 1186.22C496.328 1186.36 496.328 1186.59 496.185 1186.73L494.426 1188.49L496.185 1190.25C496.328 1190.39 496.328 1190.62 496.185 1190.76C496.045 1190.9 495.815 1190.9 495.673 1190.76L493.914 1189L492.155 1190.76C492.013 1190.9 491.783 1190.9 491.643 1190.76C491.501 1190.62 491.501 1190.39 491.643 1190.25L493.402 1188.49L491.643 1186.73C491.501 1186.59 491.501 1186.36 491.643 1186.22C491.783 1186.08 492.013 1186.08 492.155 1186.22Z" fill="black"/>
<path d="M492.155 1171.77L493.914 1173.53L495.673 1171.77C495.813 1171.63 496.043 1171.63 496.185 1171.77C496.328 1171.91 496.328 1172.14 496.185 1172.28L494.426 1174.04L496.185 1175.8C496.328 1175.94 496.328 1176.17 496.185 1176.31C496.045 1176.45 495.815 1176.45 495.673 1176.31L493.914 1174.55L492.155 1176.31C492.013 1176.45 491.783 1176.45 491.643 1176.31C491.501 1176.17 491.501 1175.94 491.643 1175.8L493.402 1174.04L491.643 1172.28C491.501 1172.14 491.501 1171.91 491.643 1171.77C491.783 1171.63 492.013 1171.63 492.155 1171.77Z" fill="black"/>
<path d="M423.66 1248.03L408.355 1232.74L408.753 1232.34L424.058 1247.63L423.66 1248.03Z" fill="black"/>
<path d="M433.881 1250.13L406.268 1222.54L406.666 1222.14L434.279 1249.73L433.881 1250.13Z" fill="black"/>
<path d="M417.345 1225.43L407.127 1215.22L407.526 1214.82L417.743 1225.04L417.345 1225.43Z" fill="black"/>
<path d="M441.18 1249.25L430.962 1239.04L431.36 1238.64L441.578 1248.86L441.18 1249.25Z" fill="black"/>
<path d="M417.613 1217.6L409.349 1209.34L409.748 1208.95L418.011 1217.2L417.613 1217.6Z" fill="black"/>
<path d="M447.084 1247.04L438.821 1238.78L439.219 1238.38L447.483 1246.64L447.084 1247.04Z" fill="black"/>
<path d="M420.243 1212.07L412.577 1204.41L412.976 1204.02L420.641 1211.68L420.243 1212.07Z" fill="black"/>
<path d="M451.996 1243.83L444.332 1236.17L444.73 1235.77L452.394 1243.43L451.996 1243.83Z" fill="black"/>
<path d="M424.33 1208.01L416.66 1200.34L417.058 1199.94L424.728 1207.61L424.33 1208.01Z" fill="black"/>
<path d="M456.058 1239.75L448.39 1232.09L448.788 1231.69L456.457 1239.35L456.058 1239.75Z" fill="black"/>
<path d="M429.87 1205.45L421.584 1197.17L421.982 1196.77L430.268 1205.05L429.87 1205.45Z" fill="black"/>
<path d="M459.272 1234.81L450.988 1226.53L451.386 1226.13L459.67 1234.41L459.272 1234.81Z" fill="black"/>
<path d="M427.924 1194.54L427.525 1194.94L437.894 1205.3H438.012V1205.02H438.295L438.153 1204.88L438.21 1204.82L427.924 1194.54Z" fill="black"/>
<path d="M451.405 1218.12V1218.4L451.125 1218.41V1218.52L461.491 1228.88L461.89 1228.49L451.688 1218.29V1218.12H451.405Z" fill="black"/>
<path d="M462.299 1221.58L434.837 1194.13L435.236 1193.74L462.698 1221.18L462.299 1221.58Z" fill="black"/>
<path d="M460.123 1211.23L445.173 1196.29L445.571 1195.89L460.521 1210.83L460.123 1211.23Z" fill="black"/>
<path opacity="0.5" d="M313.157 245.72C364.082 296.612 364.082 379.124 313.157 430.016C262.233 480.908 179.669 480.908 128.744 430.016C77.8201 379.124 77.8201 296.612 128.744 245.72C179.669 194.829 262.233 194.829 313.157 245.72Z" fill="#EAEAEA"/>
<path d="M357.733 589.796C367.161 599.218 367.161 614.493 357.733 623.914C348.306 633.336 333.021 633.336 323.593 623.914C314.166 614.493 314.166 599.218 323.593 589.796C333.021 580.375 348.306 580.375 357.733 589.796Z" fill="black"/>
<path d="M0.178955 649.529L35.5704 631.922L71.3739 649.735L107.177 631.922L142.972 649.735L178.775 631.922L214.579 649.735L247.035 633.585V638.56L214.579 654.709L178.775 636.896L142.972 654.709L107.177 636.896L71.3739 654.709L35.5704 636.896L0.178955 654.503V649.529Z" fill="black"/>
<path d="M0.178955 669.773L35.5704 652.165L71.3739 669.97L107.177 652.165L142.972 669.97L178.775 652.165L214.579 669.97L247.035 653.829V658.804L214.579 674.944L178.775 657.14L142.972 674.944L107.177 657.14L71.3739 674.944L35.5704 657.14L0.178955 674.747V669.773Z" fill="black"/>
<path d="M0.178955 690.004L35.5704 672.406L71.3739 690.21L107.177 672.406L142.972 690.21L178.775 672.406L214.579 690.21L247.035 674.07V679.035L214.579 695.185L178.775 677.38L142.972 695.185L107.177 677.38L71.3739 695.185L35.5704 677.38L0.178955 694.979V690.004Z" fill="black"/>
<path d="M0.178955 710.247L35.5704 692.639L71.3739 710.452L107.177 692.639L142.972 710.452L178.775 692.639L214.579 710.452L247.035 694.303V699.278L214.579 715.427L178.775 697.614L142.972 715.427L107.177 697.614L71.3739 715.427L35.5704 697.614L0.178955 715.221V710.247Z" fill="black"/>
<path d="M483.07 185.771L489.849 178.996L483.07 172.22C482.52 171.68 482.52 170.797 483.07 170.248C483.619 169.707 484.494 169.707 485.044 170.248L491.823 177.023L498.603 170.248C499.152 169.707 500.036 169.707 500.577 170.248C501.126 170.788 501.126 171.672 500.577 172.22L493.797 178.996L500.577 185.771C501.126 186.32 501.126 187.203 500.577 187.744C500.027 188.292 499.152 188.292 498.603 187.744L491.815 180.968L485.035 187.744C484.486 188.284 483.61 188.284 483.061 187.744C482.529 187.203 482.529 186.32 483.07 185.771Z" fill="black"/>
<path d="M427.34 185.771L434.119 178.996L427.34 172.22C426.799 171.68 426.799 170.797 427.34 170.248C427.88 169.707 428.764 169.707 429.314 170.248L436.093 177.023L442.873 170.248C443.414 169.707 444.298 169.707 444.847 170.248C445.387 170.788 445.387 171.672 444.847 172.22L438.067 178.996L444.855 185.771C445.405 186.32 445.405 187.203 444.855 187.744C444.306 188.292 443.431 188.292 442.881 187.744L436.093 180.968L429.314 187.744C428.764 188.284 427.889 188.284 427.34 187.744C426.791 187.203 426.791 186.32 427.34 185.771Z" fill="black"/>
<path d="M371.601 185.771L378.381 178.996L371.601 172.22C371.061 171.68 371.061 170.797 371.601 170.248C372.15 169.707 373.034 169.707 373.575 170.248L380.355 177.023L387.134 170.248C387.675 169.707 388.559 169.707 389.108 170.248C389.657 170.788 389.657 171.672 389.108 172.22L382.328 178.996L389.108 185.771C389.657 186.32 389.657 187.203 389.108 187.744C388.567 188.292 387.684 188.292 387.134 187.744L380.355 180.968L373.575 187.744C373.034 188.284 372.15 188.284 371.601 187.744C371.061 187.203 371.061 186.32 371.601 185.771Z" fill="black"/>
<path d="M315.87 185.771L322.65 178.996L315.87 172.22C315.329 171.68 315.329 170.797 315.87 170.248C316.419 169.707 317.303 169.707 317.844 170.248L324.623 177.023L331.403 170.248C331.952 169.707 332.828 169.707 333.377 170.248C333.926 170.788 333.926 171.672 333.377 172.22L326.597 178.996L333.377 185.771C333.926 186.32 333.926 187.203 333.377 187.744C332.836 188.292 331.952 188.292 331.403 187.744L324.615 180.968L317.835 187.744C317.295 188.284 316.411 188.284 315.861 187.744C315.321 187.203 315.321 186.32 315.87 185.771Z" fill="black"/>
<path d="M260.132 185.771L266.911 178.996L260.132 172.22C259.583 171.68 259.583 170.797 260.132 170.248C260.672 169.707 261.556 169.707 262.106 170.248L268.885 177.023L275.665 170.248C276.214 169.707 277.09 169.707 277.639 170.248C278.188 170.788 278.188 171.672 277.639 172.22L270.859 178.996L277.647 185.771C278.188 186.32 278.188 187.203 277.647 187.744C277.098 188.292 276.214 188.292 275.673 187.744L268.885 180.968L262.106 187.744C261.556 188.284 260.672 188.284 260.132 187.744C259.591 187.203 259.591 186.32 260.132 185.771Z" fill="black"/>
<path d="M204.401 185.771L211.18 178.996L204.401 172.22C203.851 171.68 203.851 170.797 204.401 170.248C204.941 169.707 205.825 169.707 206.374 170.248L213.154 177.023L219.934 170.248C220.474 169.707 221.367 169.707 221.908 170.248C222.457 170.788 222.457 171.672 221.908 172.22L215.128 178.996L221.908 185.771C222.457 186.32 222.457 187.203 221.908 187.744C221.367 188.292 220.483 188.292 219.934 187.744L213.154 180.968L206.374 187.744C205.834 188.284 204.941 188.284 204.401 187.744C203.851 187.203 203.851 186.32 204.401 185.771Z" fill="black"/>
<path d="M367.467 490.065C369.498 493.579 368.294 498.073 364.779 500.103C361.263 502.132 356.766 500.929 354.735 497.416C352.704 493.902 353.908 489.408 357.424 487.379C360.939 485.349 365.436 486.552 367.467 490.065Z" fill="#590209"/>
<path d="M397.107 493.398V597.125H398.23V493.398H397.107Z" fill="black"/>
<path d="M389.005 493.399V597.126H390.127V493.399H389.005Z" fill="black"/>
<path d="M506.278 715.826C502.968 715.826 500.282 713.142 500.282 709.835C500.282 706.527 502.968 703.844 506.278 703.844C509.587 703.844 512.273 706.527 512.273 709.835C512.273 713.142 509.587 715.826 506.278 715.826Z" fill="#FD4C38"/>
<path d="M533.696 715.826C530.386 715.826 527.701 713.142 527.701 709.835C527.701 706.527 530.386 703.844 533.696 703.844C537.005 703.844 539.691 706.527 539.691 709.835C539.691 713.142 537.005 715.826 533.696 715.826Z" fill="#FD4C38"/>
<path d="M561.115 715.826C557.805 715.826 555.119 713.142 555.119 709.835C555.119 706.527 557.805 703.844 561.115 703.844C564.424 703.844 567.11 706.527 567.11 709.835C567.11 713.142 564.424 715.826 561.115 715.826Z" fill="#FD4C38"/>
<path d="M588.523 715.826C585.213 715.826 582.528 713.142 582.528 709.835C582.528 706.527 585.213 703.844 588.523 703.844C591.833 703.844 594.518 706.527 594.518 709.835C594.518 713.142 591.833 715.826 588.523 715.826Z" fill="#FD4C38"/>
<path d="M615.942 715.826C612.632 715.826 609.947 713.142 609.947 709.835C609.947 706.527 612.632 703.844 615.942 703.844C619.251 703.844 621.937 706.527 621.937 709.835C621.937 713.142 619.251 715.826 615.942 715.826Z" fill="#FD4C38"/>
<path d="M643.361 715.826C640.051 715.826 637.366 713.142 637.366 709.835C637.366 706.527 640.051 703.844 643.361 703.844C646.671 703.844 649.356 706.527 649.356 709.835C649.356 713.142 646.671 715.826 643.361 715.826Z" fill="#FD4C38"/>
<path d="M670.77 715.826C667.46 715.826 664.774 713.142 664.774 709.835C664.774 706.527 667.46 703.844 670.77 703.844C674.079 703.844 676.765 706.527 676.765 709.835C676.765 713.142 674.089 715.826 670.77 715.826Z" fill="#FD4C38"/>
<path d="M698.187 715.826C694.877 715.826 692.192 713.142 692.192 709.835C692.192 706.527 694.877 703.844 698.187 703.844C701.496 703.844 704.182 706.527 704.182 709.835C704.182 713.142 701.496 715.826 698.187 715.826Z" fill="#FD4C38"/>
<path d="M478.859 746.537C475.55 746.537 472.864 743.853 472.864 740.546C472.864 737.238 475.55 734.555 478.859 734.555C482.169 734.555 484.854 737.238 484.854 740.546C484.854 743.853 482.179 746.537 478.859 746.537Z" fill="#FD4C38"/>
<path d="M506.278 746.537C502.968 746.537 500.283 743.853 500.283 740.546C500.283 737.238 502.968 734.555 506.278 734.555C509.588 734.555 512.273 737.238 512.273 740.546C512.273 743.853 509.588 746.537 506.278 746.537Z" fill="#FD4C38"/>
<path d="M533.697 746.537C530.387 746.537 527.702 743.853 527.702 740.546C527.702 737.238 530.387 734.555 533.697 734.555C537.006 734.555 539.692 737.238 539.692 740.546C539.692 743.853 537.006 746.537 533.697 746.537Z" fill="#FD4C38"/>
<path d="M561.116 746.537C557.807 746.537 555.121 743.853 555.121 740.546C555.121 737.238 557.807 734.555 561.116 734.555C564.426 734.555 567.111 737.238 567.111 740.546C567.111 743.853 564.426 746.537 561.116 746.537Z" fill="#FD4C38"/>
<path d="M588.524 746.537C585.215 746.537 582.529 743.853 582.529 740.546C582.529 737.238 585.215 734.555 588.524 734.555C591.834 734.555 594.52 737.238 594.52 740.546C594.52 743.853 591.834 746.537 588.524 746.537Z" fill="#FD4C38"/>
<path d="M615.943 746.537C612.633 746.537 609.948 743.853 609.948 740.546C609.948 737.238 612.633 734.555 615.943 734.555C619.252 734.555 621.938 737.238 621.938 740.546C621.938 743.853 619.252 746.537 615.943 746.537Z" fill="#FD4C38"/>
<path d="M643.362 746.537C640.052 746.537 637.367 743.853 637.367 740.546C637.367 737.238 640.052 734.555 643.362 734.555C646.671 734.555 649.357 737.238 649.357 740.546C649.357 743.853 646.671 746.537 643.362 746.537Z" fill="#FD4C38"/>
<path d="M670.769 746.537C667.46 746.537 664.774 743.853 664.774 740.546C664.774 737.238 667.46 734.555 670.769 734.555C674.079 734.555 676.764 737.238 676.764 740.546C676.764 743.853 674.089 746.537 670.769 746.537Z" fill="#FD4C38"/>
<path d="M698.189 746.537C694.879 746.537 692.194 743.853 692.194 740.546C692.194 737.238 694.879 734.555 698.189 734.555C701.498 734.555 704.184 737.238 704.184 740.546C704.184 743.853 701.498 746.537 698.189 746.537Z" fill="#FD4C38"/>
<path d="M652.376 344.756C692.211 344.756 724.623 312.364 724.623 272.554C724.623 232.745 692.211 200.353 652.376 200.353C612.531 200.353 580.128 232.745 580.128 272.554C580.118 312.364 612.531 344.756 652.376 344.756ZM652.376 222.555C679.963 222.555 702.407 244.985 702.407 272.554C702.407 300.124 679.963 322.554 652.376 322.554C624.789 322.554 602.345 300.124 602.345 272.554C602.345 244.975 624.779 222.555 652.376 222.555Z" fill="#590209"/>
<path d="M289.466 -0.987305L279.418 19.1946C272.938 32.1971 272.938 47.4969 279.418 60.4993L279.428 60.5092C285.909 73.5116 285.909 88.8015 279.428 101.814V101.824C272.948 114.836 272.948 130.126 279.428 143.128V143.138C285.909 156.151 285.909 171.441 279.428 184.443C272.948 197.455 272.948 212.745 279.428 225.748V225.758C285.909 238.77 285.909 254.06 279.428 267.062L271.065 283.857H276.812L285.176 267.062C291.656 254.05 291.656 238.76 285.176 225.758V225.748C278.695 212.735 278.695 197.445 285.176 184.443C291.656 171.431 291.656 156.141 285.176 143.138V143.128C278.695 130.116 278.695 114.826 285.176 101.824V101.814C291.656 88.8114 291.656 73.5215 285.176 60.5092L285.166 60.4993C278.685 47.487 278.685 32.1971 285.166 19.1946L295.214 -0.987305H289.466Z" fill="black"/>
<path d="M312.851 -0.987305L302.803 19.1946C296.323 32.1971 296.323 47.4969 302.803 60.4993L302.813 60.5092C309.294 73.5116 309.294 88.8015 302.813 101.814V101.824C296.332 114.836 296.332 130.126 302.813 143.128V143.138C309.294 156.151 309.294 171.441 302.813 184.443C296.332 197.455 296.332 212.745 302.813 225.748V225.758C309.294 238.77 309.294 254.06 302.813 267.062L294.45 283.857H300.197L308.56 267.062C315.041 254.05 315.041 238.76 308.56 225.758V225.748C302.08 212.735 302.08 197.445 308.56 184.443C315.041 171.431 315.041 156.141 308.56 143.138V143.128C302.08 130.116 302.08 114.826 308.56 101.824V101.814C315.041 88.8114 315.041 73.5215 308.56 60.5092L308.55 60.4993C302.07 47.487 302.07 32.1971 308.55 19.1946L318.598 -0.987305H312.851Z" fill="black"/>
<path d="M336.238 -0.987305L326.19 19.1946C319.709 32.1971 319.709 47.4969 326.19 60.4993L326.2 60.5092C332.68 73.5116 332.68 88.8015 326.2 101.814V101.824C319.719 114.836 319.719 130.126 326.2 143.128V143.138C332.68 156.151 332.68 171.441 326.2 184.443C319.719 197.455 319.719 212.745 326.2 225.748V225.758C332.68 238.77 332.68 254.06 326.2 267.062L317.836 283.857H323.584L331.947 267.062C338.428 254.05 338.428 238.76 331.947 225.758V225.748C325.466 212.735 325.466 197.445 331.947 184.443C338.428 171.431 338.428 156.141 331.947 143.138V143.128C325.466 130.116 325.466 114.826 331.947 101.824V101.814C338.428 88.8114 338.428 73.5215 331.947 60.5092L331.937 60.4993C325.457 47.487 325.457 32.1971 331.937 19.1946L341.985 -0.987305H336.238Z" fill="black"/>
<path d="M359.613 -0.991119L349.565 19.1908C343.084 32.2031 343.084 47.4931 349.565 60.4955L349.575 60.5054C356.055 73.5078 356.055 88.7977 349.575 101.81V101.82C343.094 114.832 343.094 130.122 349.575 143.125C356.055 156.137 356.055 171.427 349.575 184.429C343.094 197.442 343.094 212.732 349.575 225.734V225.744C356.055 238.756 356.055 254.046 349.575 267.048L341.211 283.844H346.959L355.322 267.048C361.803 254.036 361.803 238.746 355.322 225.744V225.734C348.842 212.722 348.842 197.432 355.322 184.429C361.803 171.417 361.803 156.127 355.322 143.125V143.115C348.842 130.102 348.842 114.812 355.322 101.81V101.8C361.803 88.7977 361.803 73.5078 355.322 60.4955L355.312 60.4855C348.832 47.4733 348.832 32.1833 355.312 19.1809L365.36 -1.00104H359.613V-0.991119Z" fill="black"/>
</svg>
