<svg width="675" height="1024" viewBox="0 0 675 1024" fill="none" xmlns="http://www.w3.org/2000/svg">
<path opacity="0.5" d="M79.1796 959.948C107.421 959.948 130.315 982.828 130.315 1011.05C130.315 1039.27 107.421 1062.15 79.1796 1062.15C50.9381 1062.15 28.0439 1039.27 28.0439 1011.05C28.0439 982.828 50.9381 959.948 79.1796 959.948Z" fill="#EAEAEA"/>
<path d="M94.3803 1007.18L95.3026 1006.26L94.3803 1005.34C94.3055 1005.27 94.3055 1005.15 94.3803 1005.07C94.4552 1005 94.5749 1005 94.6479 1005.07L95.5701 1006L96.4924 1005.07C96.5672 1005 96.6869 1005 96.7599 1005.07C96.8347 1005.15 96.8347 1005.27 96.7599 1005.34L95.8376 1006.26L96.7599 1007.18C96.8347 1007.26 96.8347 1007.38 96.7599 1007.45C96.6851 1007.53 96.5653 1007.53 96.4924 1007.45L95.5701 1006.53L94.6479 1007.45C94.573 1007.53 94.4533 1007.53 94.3803 1007.45C94.3055 1007.38 94.3055 1007.26 94.3803 1007.18Z" fill="black"/>
<path d="M86.8071 1007.18L87.7294 1006.26L86.8071 1005.34C86.7323 1005.27 86.7323 1005.15 86.8071 1005.07C86.8819 1005 87.0017 1005 87.0746 1005.07L87.9969 1006L88.9191 1005.07C88.994 1005 89.1137 1005 89.1866 1005.07C89.2615 1005.15 89.2615 1005.27 89.1866 1005.34L88.2644 1006.26L89.1866 1007.18C89.2615 1007.26 89.2615 1007.38 89.1866 1007.45C89.1118 1007.53 88.9921 1007.53 88.9191 1007.45L87.9969 1006.53L87.0746 1007.45C86.9998 1007.53 86.8801 1007.53 86.8071 1007.45C86.7323 1007.38 86.7323 1007.26 86.8071 1007.18Z" fill="black"/>
<path d="M79.2348 1007.18L80.1571 1006.26L79.2348 1005.34C79.16 1005.27 79.16 1005.15 79.2348 1005.07C79.3097 1005 79.4294 1005 79.5023 1005.07L80.4246 1006L81.3469 1005.07C81.4217 1005 81.5414 1005 81.6144 1005.07C81.6892 1005.15 81.6892 1005.27 81.6144 1005.34L80.6921 1006.26L81.6144 1007.18C81.6892 1007.26 81.6892 1007.38 81.6144 1007.45C81.5395 1007.53 81.4198 1007.53 81.3469 1007.45L80.4246 1006.53L79.5023 1007.45C79.4275 1007.53 79.3078 1007.53 79.2348 1007.45C79.16 1007.38 79.16 1007.26 79.2348 1007.18Z" fill="black"/>
<path d="M71.6626 1007.18L72.5848 1006.26L71.6626 1005.34C71.5877 1005.27 71.5877 1005.15 71.6626 1005.07C71.7374 1005 71.8571 1005 71.9301 1005.07L72.8523 1006L73.7746 1005.07C73.8494 1005 73.9691 1005 74.0421 1005.07C74.1169 1005.15 74.1169 1005.27 74.0421 1005.34L73.1198 1006.26L74.0421 1007.18C74.1169 1007.26 74.1169 1007.38 74.0421 1007.45C73.9673 1007.53 73.8475 1007.53 73.7746 1007.45L72.8523 1006.53L71.9301 1007.45C71.8552 1007.53 71.7355 1007.53 71.6626 1007.45C71.5877 1007.38 71.5877 1007.26 71.6626 1007.18Z" fill="black"/>
<path d="M64.0893 1007.18L65.0116 1006.26L64.0893 1005.34C64.0145 1005.27 64.0145 1005.15 64.0893 1005.07C64.1642 1005 64.2839 1005 64.3568 1005.07L65.2791 1006L66.2013 1005.07C66.2762 1005 66.3959 1005 66.4688 1005.07C66.5437 1005.15 66.5437 1005.27 66.4688 1005.34L65.5466 1006.26L66.4688 1007.18C66.5437 1007.26 66.5437 1007.38 66.4688 1007.45C66.394 1007.53 66.2743 1007.53 66.2013 1007.45L65.2791 1006.53L64.3568 1007.45C64.282 1007.53 64.1623 1007.53 64.0893 1007.45C64.0145 1007.38 64.0145 1007.26 64.0893 1007.18Z" fill="black"/>
<path d="M56.5171 1007.18L57.4393 1006.26L56.5171 1005.34C56.4422 1005.27 56.4422 1005.15 56.5171 1005.07C56.5919 1005 56.7116 1005 56.7846 1005.07L57.7068 1006L58.6291 1005.07C58.7039 1005 58.8236 1005 58.8966 1005.07C58.9714 1005.15 58.9714 1005.27 58.8966 1005.34L57.9743 1006.26L58.8966 1007.18C58.9714 1007.26 58.9714 1007.38 58.8966 1007.45C58.8218 1007.53 58.702 1007.53 58.6291 1007.45L57.7068 1006.53L56.7846 1007.45C56.7097 1007.53 56.59 1007.53 56.5171 1007.45C56.4422 1007.38 56.4422 1007.26 56.5171 1007.18Z" fill="black"/>
<path opacity="0.5" d="M172.874 526.724C181.175 535.02 181.175 548.469 172.874 556.764C164.574 565.059 151.116 565.059 142.815 556.764C134.515 548.469 134.515 535.02 142.815 526.724C151.116 518.429 164.574 518.429 172.874 526.724Z" fill="#EAEAEA"/>
<path d="M68.4521 499.257L68.4521 576.171H67.7581L67.7581 499.257H68.4521Z" fill="black"/>
<path d="M73.9473 494.264L73.9473 561.058H73.2532L73.2532 494.264H73.9473Z" fill="black"/>
<path d="M119.995 745.151C119.995 744.527 119.488 744.02 118.863 744.02C118.238 744.02 117.731 744.527 117.731 745.151C117.731 745.776 118.238 746.282 118.863 746.282C119.488 746.282 119.995 745.776 119.995 745.151Z" fill="#FD4C38"/>
<path d="M119.995 750.324C119.995 749.7 119.488 749.193 118.863 749.193C118.238 749.193 117.731 749.7 117.731 750.324C117.731 750.948 118.238 751.455 118.863 751.455C119.488 751.455 119.995 750.948 119.995 750.324Z" fill="#FD4C38"/>
<path d="M119.995 755.494C119.995 754.87 119.488 754.363 118.863 754.363C118.238 754.363 117.731 754.87 117.731 755.494C117.731 756.118 118.238 756.625 118.863 756.625C119.488 756.625 119.995 756.118 119.995 755.494Z" fill="#FD4C38"/>
<path d="M119.995 760.667C119.995 760.042 119.488 759.536 118.863 759.536C118.238 759.536 117.731 760.042 117.731 760.667C117.731 761.291 118.238 761.798 118.863 761.798C119.488 761.798 119.995 761.291 119.995 760.667Z" fill="#FD4C38"/>
<path d="M119.995 765.842C119.995 765.217 119.488 764.711 118.863 764.711C118.238 764.711 117.731 765.217 117.731 765.842C117.731 766.466 118.238 766.973 118.863 766.973C119.488 766.973 119.995 766.466 119.995 765.842Z" fill="#FD4C38"/>
<path d="M119.995 771.014C119.995 770.39 119.488 769.883 118.863 769.883C118.238 769.883 117.731 770.39 117.731 771.014C117.731 771.639 118.238 772.146 118.863 772.146C119.488 772.144 119.995 771.639 119.995 771.014Z" fill="#FD4C38"/>
<path d="M119.995 776.184C119.995 775.56 119.488 775.053 118.863 775.053C118.238 775.053 117.731 775.56 117.731 776.184C117.731 776.809 118.238 777.315 118.863 777.315C119.488 777.315 119.995 776.809 119.995 776.184Z" fill="#FD4C38"/>
<path d="M119.995 781.357C119.995 780.733 119.488 780.226 118.863 780.226C118.238 780.226 117.731 780.733 117.731 781.357C117.731 781.982 118.238 782.488 118.863 782.488C119.488 782.488 119.995 781.982 119.995 781.357Z" fill="#FD4C38"/>
<path d="M119.995 786.529C119.995 785.905 119.488 785.398 118.863 785.398C118.238 785.398 117.731 785.905 117.731 786.529C117.731 787.154 118.238 787.66 118.863 787.66C119.488 787.66 119.995 787.154 119.995 786.529Z" fill="#FD4C38"/>
<path d="M119.995 791.701C119.995 791.077 119.488 790.57 118.863 790.57C118.238 790.57 117.731 791.077 117.731 791.701C117.731 792.325 118.238 792.832 118.863 792.832C119.488 792.832 119.995 792.325 119.995 791.701Z" fill="#FD4C38"/>
<path d="M119.995 796.875C119.995 796.25 119.488 795.744 118.863 795.744C118.238 795.744 117.731 796.25 117.731 796.875C117.731 797.499 118.238 798.006 118.863 798.006C119.488 798.006 119.995 797.499 119.995 796.875Z" fill="#FD4C38"/>
<path d="M119.995 802.047C119.995 801.422 119.488 800.916 118.863 800.916C118.238 800.916 117.731 801.422 117.731 802.047C117.731 802.671 118.238 803.178 118.863 803.178C119.488 803.178 119.995 802.671 119.995 802.047Z" fill="#FD4C38"/>
<path d="M119.995 807.219C119.995 806.594 119.488 806.088 118.863 806.088C118.238 806.088 117.731 806.594 117.731 807.219C117.731 807.843 118.238 808.35 118.863 808.35C119.488 808.35 119.995 807.845 119.995 807.219Z" fill="#FD4C38"/>
<path d="M125.797 739.976C125.797 739.352 125.29 738.845 124.665 738.845C124.04 738.845 123.533 739.352 123.533 739.976C123.533 740.601 124.04 741.107 124.665 741.107C125.29 741.107 125.797 740.601 125.797 739.976Z" fill="#FD4C38"/>
<path d="M125.797 745.148C125.797 744.524 125.29 744.017 124.665 744.017C124.04 744.017 123.533 744.524 123.533 745.148C123.533 745.773 124.04 746.279 124.665 746.279C125.29 746.279 125.797 745.773 125.797 745.148Z" fill="#FD4C38"/>
<path d="M125.797 750.321C125.797 749.697 125.29 749.19 124.665 749.19C124.04 749.19 123.533 749.697 123.533 750.321C123.533 750.946 124.04 751.452 124.665 751.452C125.29 751.452 125.797 750.946 125.797 750.321Z" fill="#FD4C38"/>
<path d="M125.797 755.493C125.797 754.869 125.29 754.362 124.665 754.362C124.04 754.362 123.533 754.869 123.533 755.493C123.533 756.117 124.04 756.624 124.665 756.624C125.29 756.624 125.797 756.117 125.797 755.493Z" fill="#FD4C38"/>
<path d="M125.797 760.666C125.797 760.041 125.29 759.535 124.665 759.535C124.04 759.535 123.533 760.041 123.533 760.666C123.533 761.29 124.04 761.797 124.665 761.797C125.29 761.797 125.797 761.29 125.797 760.666Z" fill="#FD4C38"/>
<path d="M125.797 765.839C125.797 765.214 125.29 764.708 124.665 764.708C124.04 764.708 123.533 765.214 123.533 765.839C123.533 766.463 124.04 766.97 124.665 766.97C125.29 766.97 125.797 766.463 125.797 765.839Z" fill="#FD4C38"/>
<path d="M125.797 771.011C125.797 770.386 125.29 769.879 124.665 769.879C124.04 769.879 123.533 770.386 123.533 771.011C123.533 771.635 124.04 772.142 124.665 772.142C125.29 772.142 125.797 771.637 125.797 771.011Z" fill="#FD4C38"/>
<path d="M125.797 776.182C125.797 775.558 125.29 775.051 124.665 775.051C124.04 775.051 123.533 775.558 123.533 776.182C123.533 776.807 124.04 777.313 124.665 777.313C125.29 777.313 125.797 776.807 125.797 776.182Z" fill="#FD4C38"/>
<path d="M125.797 781.355C125.797 780.731 125.29 780.224 124.665 780.224C124.04 780.224 123.533 780.731 123.533 781.355C123.533 781.98 124.04 782.486 124.665 782.486C125.29 782.486 125.797 781.98 125.797 781.355Z" fill="#FD4C38"/>
<path d="M125.797 786.529C125.797 785.905 125.29 785.398 124.665 785.398C124.04 785.398 123.533 785.905 123.533 786.529C123.533 787.154 124.04 787.66 124.665 787.66C125.29 787.66 125.797 787.154 125.797 786.529Z" fill="#FD4C38"/>
<path d="M125.797 791.701C125.797 791.077 125.29 790.57 124.665 790.57C124.04 790.57 123.533 791.077 123.533 791.701C123.533 792.325 124.04 792.832 124.665 792.832C125.29 792.832 125.797 792.325 125.797 791.701Z" fill="#FD4C38"/>
<path d="M125.797 796.873C125.797 796.248 125.29 795.742 124.665 795.742C124.04 795.742 123.533 796.248 123.533 796.873C123.533 797.497 124.04 798.004 124.665 798.004C125.29 798.004 125.797 797.497 125.797 796.873Z" fill="#FD4C38"/>
<path d="M125.797 802.046C125.797 801.421 125.29 800.915 124.665 800.915C124.04 800.915 123.533 801.421 123.533 802.046C123.533 802.67 124.04 803.177 124.665 803.177C125.29 803.177 125.797 802.67 125.797 802.046Z" fill="#FD4C38"/>
<path d="M171.362 712.292L172.84 710.815L171.362 709.338C171.243 709.22 171.243 709.028 171.362 708.908C171.482 708.79 171.673 708.79 171.793 708.908L173.27 710.385L174.748 708.908C174.868 708.79 175.061 708.79 175.178 708.908C175.298 709.026 175.298 709.218 175.178 709.338L173.701 710.815L175.178 712.292C175.298 712.411 175.298 712.604 175.178 712.722C175.061 712.841 174.868 712.841 174.748 712.722L173.269 711.245L171.791 712.722C171.671 712.841 171.48 712.841 171.36 712.722C171.244 712.604 171.244 712.411 171.362 712.292Z" fill="black"/>
<path d="M159.214 712.292L160.691 710.815L159.214 709.338C159.096 709.22 159.096 709.028 159.214 708.908C159.333 708.79 159.524 708.79 159.644 708.908L161.122 710.385L162.6 708.908C162.717 708.79 162.91 708.79 163.03 708.908C163.148 709.026 163.148 709.218 163.03 709.338L161.552 710.815L163.032 712.292C163.151 712.411 163.151 712.604 163.032 712.722C162.912 712.841 162.721 712.841 162.601 712.722L161.124 711.245L159.646 712.722C159.526 712.841 159.335 712.841 159.215 712.722C159.094 712.604 159.094 712.411 159.214 712.292Z" fill="black"/>
<path d="M147.064 712.292L148.542 710.815L147.064 709.338C146.946 709.22 146.946 709.028 147.064 708.908C147.184 708.79 147.376 708.79 147.494 708.908L148.972 710.385L150.45 708.908C150.568 708.79 150.762 708.79 150.88 708.908C151 709.026 151 709.218 150.88 709.338L149.402 710.815L150.88 712.292C151 712.411 151 712.604 150.88 712.722C150.762 712.841 150.57 712.841 150.45 712.722L148.972 711.245L147.494 712.722C147.376 712.841 147.184 712.841 147.064 712.722C146.946 712.604 146.946 712.411 147.064 712.292Z" fill="black"/>
<path d="M134.915 712.292L136.393 710.815L134.915 709.338C134.797 709.22 134.797 709.028 134.915 708.908C135.035 708.79 135.228 708.79 135.345 708.908L136.823 710.385L138.301 708.908C138.421 708.79 138.612 708.79 138.731 708.908C138.851 709.026 138.851 709.218 138.731 709.338L137.254 710.815L138.731 712.292C138.851 712.411 138.851 712.604 138.731 712.722C138.614 712.841 138.421 712.841 138.301 712.722L136.821 711.245L135.344 712.722C135.226 712.841 135.033 712.841 134.913 712.722C134.795 712.604 134.796 712.411 134.915 712.292Z" fill="black"/>
<path d="M122.766 712.292L124.243 710.815L122.766 709.338C122.646 709.22 122.646 709.028 122.766 708.908C122.883 708.79 123.076 708.79 123.196 708.908L124.674 710.385L126.152 708.908C126.271 708.79 126.462 708.79 126.582 708.908C126.702 709.026 126.702 709.218 126.582 709.338L125.104 710.815L126.584 712.292C126.702 712.411 126.702 712.604 126.584 712.722C126.464 712.841 126.271 712.841 126.153 712.722L124.676 711.245L123.198 712.722C123.078 712.841 122.885 712.841 122.767 712.722C122.648 712.604 122.648 712.411 122.766 712.292Z" fill="black"/>
<path d="M110.617 712.292L112.095 710.815L110.617 709.338C110.497 709.22 110.497 709.028 110.617 708.908C110.735 708.79 110.928 708.79 111.047 708.908L112.525 710.385L114.003 708.908C114.123 708.79 114.316 708.79 114.433 708.908C114.551 709.026 114.551 709.218 114.433 709.338L112.956 710.815L114.433 712.292C114.553 712.411 114.553 712.604 114.433 712.722C114.316 712.841 114.123 712.841 114.003 712.722L112.525 711.245L111.047 712.722C110.93 712.841 110.735 712.841 110.617 712.722C110.497 712.604 110.497 712.411 110.617 712.292Z" fill="black"/>
<path opacity="0.5" d="M302.485 847.865C321.609 847.865 337.112 863.358 337.112 882.47C337.112 901.581 321.609 917.074 302.485 917.074C283.361 917.074 267.858 901.581 267.858 882.47C267.858 863.358 283.361 847.865 302.485 847.865Z" fill="#EAEAEA"/>
<path d="M612.028 1121.58C572.8 1121.58 541 1089.44 541 1049.79C541 1010.14 572.8 978 612.028 978C651.253 978 683.056 1010.14 683.056 1049.79C683.056 1089.44 651.253 1121.58 612.028 1121.58ZM612.028 1002.12C585.977 1002.12 564.86 1023.46 564.86 1049.79C564.86 1076.12 585.977 1097.46 612.028 1097.46C638.075 1097.46 659.192 1076.12 659.192 1049.79C659.192 1023.46 638.075 1002.12 612.028 1002.12Z" fill="#590209"/>
<path d="M383.352 933.053L384.83 934.53L386.308 933.053C386.426 932.934 386.618 932.934 386.738 933.053C386.858 933.173 386.858 933.364 386.738 933.483L385.26 934.96L386.738 936.437C386.858 936.557 386.858 936.75 386.738 936.867C386.62 936.987 386.427 936.987 386.308 936.867L384.83 935.39L383.352 936.867C383.232 936.987 383.04 936.987 382.922 936.867C382.802 936.748 382.802 936.557 382.922 936.437L384.4 934.959L382.922 933.482C382.802 933.362 382.802 933.171 382.922 933.052C383.04 932.936 383.232 932.936 383.352 933.053Z" fill="black"/>
<path d="M383.352 920.914L384.83 922.391L386.308 920.914C386.426 920.796 386.618 920.796 386.738 920.914C386.858 921.034 386.858 921.224 386.738 921.344L385.26 922.821L386.738 924.298C386.858 924.416 386.858 924.608 386.738 924.728C386.62 924.846 386.427 924.846 386.308 924.728L384.83 923.251L383.352 924.73C383.232 924.849 383.04 924.849 382.922 924.73C382.802 924.61 382.802 924.419 382.922 924.3L384.4 922.821L382.922 921.344C382.802 921.224 382.802 921.034 382.922 920.914C383.04 920.794 383.232 920.794 383.352 920.914Z" fill="black"/>
<path d="M383.352 908.77L384.83 910.247L386.308 908.77C386.426 908.653 386.618 908.653 386.738 908.77C386.858 908.89 386.858 909.083 386.738 909.2L385.26 910.677L386.738 912.154C386.858 912.272 386.858 912.464 386.738 912.584C386.62 912.704 386.427 912.704 386.308 912.584L384.83 911.107L383.352 912.584C383.232 912.704 383.04 912.704 382.922 912.584C382.802 912.466 382.802 912.274 382.922 912.154L384.4 910.677L382.922 909.2C382.802 909.083 382.802 908.89 382.922 908.77C383.04 908.653 383.232 908.653 383.352 908.77Z" fill="black"/>
<path d="M383.352 896.63L384.83 898.107L386.308 896.63C386.426 896.512 386.618 896.512 386.738 896.63C386.858 896.749 386.858 896.942 386.738 897.06L385.26 898.537L386.738 900.013C386.858 900.133 386.858 900.324 386.738 900.443C386.62 900.561 386.427 900.561 386.308 900.443L384.83 898.967L383.352 900.443C383.232 900.563 383.04 900.563 382.922 900.443C382.802 900.326 382.802 900.133 382.922 900.013L384.4 898.535L382.922 897.058C382.802 896.94 382.802 896.747 382.922 896.628C383.04 896.51 383.232 896.51 383.352 896.63Z" fill="black"/>
<path d="M383.352 884.489L384.83 885.965L386.308 884.489C386.426 884.369 386.618 884.369 386.738 884.489C386.858 884.606 386.858 884.799 386.738 884.919L385.26 886.395L386.738 887.872C386.858 887.992 386.858 888.183 386.738 888.302C386.62 888.422 386.427 888.422 386.308 888.302L384.83 886.825L383.352 888.304C383.232 888.422 383.04 888.422 382.922 888.304C382.802 888.185 382.802 887.992 382.922 887.874L384.4 886.397L382.922 884.92C382.802 884.801 382.802 884.608 382.922 884.49C383.04 884.371 383.232 884.371 383.352 884.489Z" fill="black"/>
<path d="M383.352 872.346L384.83 873.823L386.308 872.346C386.426 872.227 386.618 872.227 386.738 872.346C386.858 872.464 386.858 872.657 386.738 872.776L385.26 874.253L386.738 875.73C386.858 875.85 386.858 876.042 386.738 876.16C386.62 876.28 386.427 876.28 386.308 876.16L384.83 874.683L383.352 876.16C383.232 876.28 383.04 876.28 382.922 876.16C382.802 876.042 382.802 875.85 382.922 875.73L384.4 874.253L382.922 872.776C382.802 872.657 382.802 872.464 382.922 872.346C383.04 872.227 383.232 872.227 383.352 872.346Z" fill="black"/>
<path d="M325.803 936.422L312.944 923.571L313.279 923.237L326.138 936.087L325.803 936.422Z" fill="black"/>
<path d="M334.391 938.185L311.19 915L311.525 914.666L334.725 937.851L334.391 938.185Z" fill="black"/>
<path d="M320.497 917.435L311.912 908.855L312.247 908.521L320.832 917.1L320.497 917.435Z" fill="black"/>
<path d="M340.523 937.448L331.938 928.868L332.273 928.534L340.858 937.113L340.523 937.448Z" fill="black"/>
<path d="M320.723 910.855L313.779 903.916L314.114 903.582L321.057 910.52L320.723 910.855Z" fill="black"/>
<path d="M345.484 935.584L338.541 928.646L338.876 928.311L345.819 935.25L345.484 935.584Z" fill="black"/>
<path d="M322.932 906.211L316.491 899.774L316.826 899.44L323.266 905.876L322.932 906.211Z" fill="black"/>
<path d="M349.61 932.888L343.171 926.453L343.506 926.119L349.945 932.554L349.61 932.888Z" fill="black"/>
<path d="M326.366 902.791L319.922 896.351L320.257 896.016L326.701 902.457L326.366 902.791Z" fill="black"/>
<path d="M353.024 929.465L346.581 923.025L346.916 922.691L353.359 929.13L353.024 929.465Z" fill="black"/>
<path d="M331.02 900.641L324.059 893.684L324.393 893.349L331.355 900.306L331.02 900.641Z" fill="black"/>
<path d="M355.724 925.311L348.764 918.355L349.098 918.021L356.059 924.977L355.724 925.311Z" fill="black"/>
<path d="M329.386 891.48L329.051 891.815L337.763 900.52H337.862V900.286H338.099L337.98 900.166L338.028 900.116L329.386 891.48Z" fill="black"/>
<path d="M349.115 911.293V911.529L348.879 911.53V911.628L357.589 920.334L357.924 919.999L349.352 911.431V911.293H349.115Z" fill="black"/>
<path d="M358.267 914.195L335.194 891.137L335.529 890.802L358.602 913.861L358.267 914.195Z" fill="black"/>
<path d="M356.439 905.5L343.878 892.947L344.213 892.613L356.774 905.166L356.439 905.5Z" fill="black"/>
<path opacity="0.5" d="M232.96 94.2914C275.746 137.05 275.746 206.376 232.96 249.134C190.174 291.893 120.805 291.893 78.0187 249.134C35.2327 206.376 35.2327 137.05 78.0186 94.2915C120.805 51.5328 190.174 51.5328 232.96 94.2914Z" fill="#EAEAEA"/>
<path d="M270.412 383.38C278.333 391.296 278.333 404.13 270.412 412.046C262.492 419.961 249.649 419.961 241.729 412.046C233.808 404.13 233.808 391.296 241.729 383.38C249.649 375.464 262.492 375.464 270.412 383.38Z" fill="black"/>
<path d="M375.719 43.923L381.415 38.2306L375.719 32.538C375.258 32.084 375.258 31.3418 375.719 30.8806C376.181 30.4267 376.916 30.4267 377.378 30.8806L383.074 36.5732L388.77 30.8806C389.231 30.4267 389.974 30.4267 390.428 30.8806C390.89 31.3346 390.89 32.0768 390.428 32.538L384.732 38.2306L390.428 43.923C390.89 44.3842 390.89 45.1264 390.428 45.5804C389.967 46.0416 389.231 46.0416 388.77 45.5804L383.067 39.8878L377.37 45.5804C376.909 46.0344 376.173 46.0344 375.712 45.5804C375.265 45.1264 375.265 44.3842 375.719 43.923Z" fill="black"/>
<path d="M328.895 43.923L334.591 38.2306L328.895 32.538C328.441 32.084 328.441 31.3418 328.895 30.8806C329.349 30.4267 330.092 30.4267 330.553 30.8806L336.249 36.5732L341.946 30.8806C342.4 30.4267 343.143 30.4267 343.604 30.8806C344.058 31.3346 344.058 32.0768 343.604 32.538L337.908 38.2306L343.611 43.923C344.073 44.3842 344.073 45.1264 343.611 45.5804C343.15 46.0416 342.414 46.0416 341.953 45.5804L336.249 39.8878L330.553 45.5804C330.092 46.0344 329.356 46.0344 328.895 45.5804C328.433 45.1264 328.433 44.3842 328.895 43.923Z" fill="black"/>
<path d="M282.064 43.923L287.76 38.2306L282.064 32.538C281.61 32.084 281.61 31.3418 282.064 30.8806C282.526 30.4267 283.268 30.4267 283.723 30.8806L289.419 36.5732L295.115 30.8806C295.569 30.4267 296.312 30.4267 296.773 30.8806C297.235 31.3346 297.235 32.0768 296.773 32.538L291.077 38.2306L296.773 43.923C297.235 44.3842 297.235 45.1264 296.773 45.5804C296.319 46.0416 295.577 46.0416 295.115 45.5804L289.419 39.8878L283.723 45.5804C283.268 46.0344 282.526 46.0344 282.064 45.5804C281.61 45.1264 281.61 44.3842 282.064 43.923Z" fill="black"/>
<path d="M235.24 43.923L240.936 38.2306L235.24 32.538C234.785 32.084 234.785 31.3418 235.24 30.8806C235.701 30.4267 236.444 30.4267 236.898 30.8806L242.594 36.5732L248.29 30.8806C248.752 30.4267 249.487 30.4267 249.949 30.8806C250.41 31.3346 250.41 32.0768 249.949 32.538L244.253 38.2306L249.949 43.923C250.41 44.3842 250.41 45.1264 249.949 45.5804C249.494 46.0416 248.752 46.0416 248.29 45.5804L242.587 39.8878L236.891 45.5804C236.437 46.0344 235.694 46.0344 235.232 45.5804C234.778 45.1264 234.778 44.3842 235.24 43.923Z" fill="black"/>
<path d="M188.41 43.923L194.106 38.2306L188.41 32.538C187.948 32.084 187.948 31.3418 188.41 30.8806C188.864 30.4267 189.606 30.4267 190.068 30.8806L195.764 36.5732L201.46 30.8806C201.922 30.4267 202.657 30.4267 203.119 30.8806C203.58 31.3346 203.58 32.0768 203.119 32.538L197.423 38.2306L203.126 43.923C203.58 44.3842 203.58 45.1264 203.126 45.5804C202.664 46.0416 201.922 46.0416 201.468 45.5804L195.764 39.8878L190.068 45.5804C189.606 46.0344 188.864 46.0344 188.41 45.5804C187.955 45.1264 187.955 44.3842 188.41 43.923Z" fill="black"/>
<path d="M141.584 43.923L147.281 38.2306L141.584 32.538C141.123 32.084 141.123 31.3418 141.584 30.8806C142.039 30.4267 142.781 30.4267 143.243 30.8806L148.939 36.5732L154.635 30.8806C155.089 30.4267 155.839 30.4267 156.294 30.8806C156.755 31.3346 156.755 32.0768 156.294 32.538L150.597 38.2306L156.294 43.923C156.755 44.3842 156.755 45.1264 156.294 45.5804C155.839 46.0416 155.097 46.0416 154.635 45.5804L148.939 39.8878L143.243 45.5804C142.789 46.0344 142.039 46.0344 141.584 45.5804C141.123 45.1264 141.123 44.3842 141.584 43.923Z" fill="black"/>
<path d="M278.591 299.587C280.297 302.539 279.286 306.315 276.332 308.02C273.378 309.726 269.6 308.715 267.893 305.763C266.187 302.811 267.198 299.035 270.152 297.33C273.106 295.624 276.884 296.635 278.591 299.587Z" fill="#590209"/>
<path d="M303.493 302.387V389.537H304.436V302.387H303.493Z" fill="black"/>
<path d="M296.686 302.388V389.538H297.629V302.388H296.686Z" fill="black"/>
<path d="M480.562 489.269C478.624 489.269 477.052 487.014 477.052 484.235C477.052 481.456 478.624 479.201 480.562 479.201C482.499 479.201 484.071 481.456 484.071 484.235C484.071 487.014 482.499 489.269 480.562 489.269Z" fill="#FD4C38"/>
<path d="M496.613 489.269C494.675 489.269 493.103 487.014 493.103 484.235C493.103 481.456 494.675 479.201 496.613 479.201C498.55 479.201 500.122 481.456 500.122 484.235C500.122 487.014 498.55 489.269 496.613 489.269Z" fill="#FD4C38"/>
<path d="M512.664 489.269C510.727 489.269 509.154 487.014 509.154 484.235C509.154 481.456 510.727 479.201 512.664 479.201C514.602 479.201 516.174 481.456 516.174 484.235C516.174 487.014 514.602 489.269 512.664 489.269Z" fill="#FD4C38"/>
<path d="M528.71 489.269C526.772 489.269 525.2 487.014 525.2 484.235C525.2 481.456 526.772 479.201 528.71 479.201C530.648 479.201 532.22 481.456 532.22 484.235C532.22 487.014 530.648 489.269 528.71 489.269Z" fill="#FD4C38"/>
<path d="M544.761 489.269C542.823 489.269 541.251 487.014 541.251 484.235C541.251 481.456 542.823 479.201 544.761 479.201C546.699 479.201 548.271 481.456 548.271 484.235C548.271 487.014 546.699 489.269 544.761 489.269Z" fill="#FD4C38"/>
<path d="M560.814 489.269C558.876 489.269 557.304 487.014 557.304 484.235C557.304 481.456 558.876 479.201 560.814 479.201C562.751 479.201 564.323 481.456 564.323 484.235C564.323 487.014 562.751 489.269 560.814 489.269Z" fill="#FD4C38"/>
<path d="M576.858 489.269C574.921 489.269 573.349 487.014 573.349 484.235C573.349 481.456 574.921 479.201 576.858 479.201C578.796 479.201 580.368 481.456 580.368 484.235C580.368 487.014 578.802 489.269 576.858 489.269Z" fill="#FD4C38"/>
<path d="M592.909 489.269C590.972 489.269 589.4 487.014 589.4 484.235C589.4 481.456 590.972 479.201 592.909 479.201C594.847 479.201 596.419 481.456 596.419 484.235C596.419 487.014 594.847 489.269 592.909 489.269Z" fill="#FD4C38"/>
<path d="M608.961 489.269C607.024 489.269 605.451 487.014 605.451 484.235C605.451 481.456 607.024 479.201 608.961 479.201C610.899 479.201 612.471 481.456 612.471 484.235C612.471 487.014 610.899 489.269 608.961 489.269Z" fill="#FD4C38"/>
<path d="M625.012 489.269C623.074 489.269 621.502 487.014 621.502 484.235C621.502 481.456 623.074 479.201 625.012 479.201C626.949 479.201 628.521 481.456 628.521 484.235C628.521 487.014 626.949 489.269 625.012 489.269Z" fill="#FD4C38"/>
<path d="M641.059 489.269C639.121 489.269 637.549 487.014 637.549 484.235C637.549 481.456 639.121 479.201 641.059 479.201C642.996 479.201 644.568 481.456 644.568 484.235C644.568 487.014 642.996 489.269 641.059 489.269Z" fill="#FD4C38"/>
<path d="M657.11 489.269C655.172 489.269 653.6 487.014 653.6 484.235C653.6 481.456 655.172 479.201 657.11 479.201C659.047 479.201 660.619 481.456 660.619 484.235C660.619 487.014 659.047 489.269 657.11 489.269Z" fill="#FD4C38"/>
<path d="M673.162 489.269C671.225 489.269 669.653 487.014 669.653 484.235C669.653 481.456 671.225 479.201 673.162 479.201C675.1 479.201 676.672 481.456 676.672 484.235C676.672 487.014 675.1 489.269 673.162 489.269Z" fill="#FD4C38"/>
<path d="M464.509 515.071C462.571 515.071 460.999 512.816 460.999 510.038C460.999 507.259 462.571 505.004 464.509 505.004C466.446 505.004 468.019 507.259 468.019 510.038C468.019 512.816 466.452 515.071 464.509 515.071Z" fill="#FD4C38"/>
<path d="M480.561 515.071C478.623 515.071 477.051 512.816 477.051 510.038C477.051 507.259 478.623 505.004 480.561 505.004C482.498 505.004 484.07 507.259 484.07 510.038C484.07 512.816 482.498 515.071 480.561 515.071Z" fill="#FD4C38"/>
<path d="M496.613 515.071C494.675 515.071 493.103 512.816 493.103 510.038C493.103 507.259 494.675 505.004 496.613 505.004C498.55 505.004 500.122 507.259 500.122 510.038C500.122 512.816 498.55 515.071 496.613 515.071Z" fill="#FD4C38"/>
<path d="M512.664 515.071C510.727 515.071 509.154 512.816 509.154 510.038C509.154 507.259 510.727 505.004 512.664 505.004C514.602 505.004 516.174 507.259 516.174 510.038C516.174 512.816 514.602 515.071 512.664 515.071Z" fill="#FD4C38"/>
<path d="M528.71 515.071C526.772 515.071 525.2 512.816 525.2 510.038C525.2 507.259 526.772 505.004 528.71 505.004C530.648 505.004 532.22 507.259 532.22 510.038C532.22 512.816 530.648 515.071 528.71 515.071Z" fill="#FD4C38"/>
<path d="M544.761 515.071C542.823 515.071 541.251 512.816 541.251 510.038C541.251 507.259 542.823 505.004 544.761 505.004C546.699 505.004 548.271 507.259 548.271 510.038C548.271 512.816 546.699 515.071 544.761 515.071Z" fill="#FD4C38"/>
<path d="M560.813 515.071C558.875 515.071 557.303 512.816 557.303 510.038C557.303 507.259 558.875 505.004 560.813 505.004C562.75 505.004 564.322 507.259 564.322 510.038C564.322 512.816 562.75 515.071 560.813 515.071Z" fill="#FD4C38"/>
<path d="M576.858 515.071C574.921 515.071 573.349 512.816 573.349 510.038C573.349 507.259 574.921 505.004 576.858 505.004C578.796 505.004 580.368 507.259 580.368 510.038C580.368 512.816 578.802 515.071 576.858 515.071Z" fill="#FD4C38"/>
<path d="M592.91 515.071C590.973 515.071 589.401 512.816 589.401 510.038C589.401 507.259 590.973 505.004 592.91 505.004C594.848 505.004 596.42 507.259 596.42 510.038C596.42 512.816 594.848 515.071 592.91 515.071Z" fill="#FD4C38"/>
<path d="M608.961 515.071C607.024 515.071 605.451 512.816 605.451 510.038C605.451 507.259 607.024 505.004 608.961 505.004C610.899 505.004 612.471 507.259 612.471 510.038C612.471 512.816 610.899 515.071 608.961 515.071Z" fill="#FD4C38"/>
<path d="M625.014 515.071C623.076 515.071 621.504 512.816 621.504 510.038C621.504 507.259 623.076 505.004 625.014 505.004C626.951 505.004 628.523 507.259 628.523 510.038C628.523 512.816 626.951 515.071 625.014 515.071Z" fill="#FD4C38"/>
<path d="M641.06 515.071C639.122 515.071 637.55 512.816 637.55 510.038C637.55 507.259 639.122 505.004 641.06 505.004C642.997 505.004 644.569 507.259 644.569 510.038C644.569 512.816 642.997 515.071 641.06 515.071Z" fill="#FD4C38"/>
<path d="M657.111 515.071C655.173 515.071 653.601 512.816 653.601 510.038C653.601 507.259 655.173 505.004 657.111 505.004C659.048 505.004 660.62 507.259 660.62 510.038C660.62 512.816 659.048 515.071 657.111 515.071Z" fill="#FD4C38"/>
<path d="M637.701 128.326C671.17 128.326 698.402 101.11 698.402 67.6628C698.402 34.2155 671.17 7.00008 637.701 7.00008C604.224 7.00008 576.999 34.2155 576.999 67.6628C576.991 101.11 604.224 128.326 637.701 128.326ZM637.701 25.654C660.879 25.654 679.737 44.4993 679.737 67.6628C679.737 90.8264 660.879 109.672 637.701 109.672C614.523 109.672 595.665 90.8264 595.665 67.6628C595.665 44.491 614.514 25.654 637.701 25.654Z" fill="#590209"/>
<path d="M213.055 -112.987L204.613 -96.03C199.168 -85.1056 199.168 -72.2509 204.613 -61.3264L204.621 -61.3181C210.066 -50.3936 210.066 -37.5472 204.621 -26.6144V-26.6061C199.176 -15.6733 199.176 -2.82687 204.621 8.0976V8.10593C210.066 19.0387 210.066 31.8852 204.621 42.8097C199.176 53.7425 199.176 66.5889 204.621 77.5134V77.5217C210.066 88.4545 210.066 101.301 204.621 112.225L197.594 126.336H202.423L209.45 112.225C214.895 101.293 214.895 88.4461 209.45 77.5217V77.5134C204.005 66.5806 204.005 53.7342 209.45 42.8097C214.895 31.8769 214.895 19.0304 209.45 8.10593V8.0976C204.005 -2.83519 204.005 -15.6816 209.45 -26.6061V-26.6144C214.895 -37.5389 214.895 -50.3853 209.45 -61.3181L209.442 -61.3264C203.997 -72.2592 203.997 -85.1056 209.442 -96.03L217.884 -112.987H213.055Z" fill="black"/>
<path d="M232.702 -112.987L224.26 -96.03C218.815 -85.1056 218.815 -72.2509 224.26 -61.3264L224.269 -61.3181C229.714 -50.3936 229.714 -37.5472 224.269 -26.6144V-26.6061C218.824 -15.6733 218.824 -2.82687 224.269 8.0976V8.10593C229.714 19.0387 229.714 31.8852 224.269 42.8097C218.824 53.7425 218.824 66.5889 224.269 77.5134V77.5217C229.714 88.4545 229.714 101.301 224.269 112.225L217.242 126.336H222.071L229.097 112.225C234.542 101.293 234.542 88.4461 229.097 77.5217V77.5134C223.653 66.5806 223.653 53.7342 229.097 42.8097C234.542 31.8769 234.542 19.0304 229.097 8.10593V8.0976C223.653 -2.83519 223.653 -15.6816 229.097 -26.6061V-26.6144C234.542 -37.5389 234.542 -50.3853 229.097 -61.3181L229.089 -61.3264C223.644 -72.2592 223.644 -85.1056 229.089 -96.03L237.531 -112.987H232.702Z" fill="black"/>
<path d="M252.352 -112.987L243.91 -96.03C238.465 -85.1056 238.465 -72.2509 243.91 -61.3264L243.918 -61.3181C249.363 -50.3936 249.363 -37.5472 243.918 -26.6144V-26.6061C238.473 -15.6733 238.473 -2.82687 243.918 8.0976V8.10593C249.363 19.0387 249.363 31.8852 243.918 42.8097C238.473 53.7425 238.473 66.5889 243.918 77.5134V77.5217C249.363 88.4545 249.363 101.301 243.918 112.225L236.891 126.336H241.72L248.747 112.225C254.192 101.293 254.192 88.4461 248.747 77.5217V77.5134C243.302 66.5806 243.302 53.7342 248.747 42.8097C254.192 31.8769 254.192 19.0304 248.747 8.10593V8.0976C243.302 -2.83519 243.302 -15.6816 248.747 -26.6061V-26.6144C254.192 -37.5389 254.192 -50.3853 248.747 -61.3181L248.739 -61.3264C243.294 -72.2592 243.294 -85.1056 248.739 -96.03L257.181 -112.987H252.352Z" fill="black"/>
<path d="M271.991 -112.992L263.549 -96.035C258.104 -85.1022 258.104 -72.2558 263.549 -61.3313L263.558 -61.323C269.003 -50.3985 269.003 -37.5521 263.558 -26.6193V-26.611C258.113 -15.6782 258.113 -2.83182 263.558 8.09266C269.003 19.0254 269.003 31.8719 263.558 42.7964C258.113 53.7292 258.113 66.5756 263.558 77.5001V77.5084C269.003 88.4412 269.003 101.288 263.558 112.212L256.531 126.323H261.36L268.387 112.212C273.831 101.279 273.831 88.4329 268.387 77.5084V77.5001C262.942 66.5673 262.942 53.7209 268.387 42.7964C273.831 31.8636 273.831 19.0171 268.387 8.09266V8.08433C262.942 -2.84846 262.942 -15.6949 268.387 -26.6193V-26.6277C273.831 -37.5521 273.831 -50.3985 268.387 -61.3313L268.378 -61.3396C262.933 -72.2724 262.933 -85.1188 268.378 -96.0433L276.82 -113H271.991V-112.992Z" fill="black"/>
</svg>
