<svg width="20" height="21" viewBox="0 0 20 21" fill="none" xmlns="http://www.w3.org/2000/svg">
<path d="M3.75749 2.32068L3.89253 2.608H4.21H19C19.1326 2.608 19.2598 2.66068 19.3536 2.75445C19.4473 2.84822 19.5 2.97539 19.5 3.108C19.5 3.17914 19.4794 3.27132 19.4304 3.38774L15.8633 9.83457C15.8631 9.83481 15.863 9.83504 15.8629 9.83528C15.607 10.2936 15.1103 10.608 14.55 10.608H7.1H6.80492L6.66229 10.8663L5.76229 12.4963L5.73075 12.5534L5.71493 12.6167L5.68493 12.7367L5.67 12.7964V12.858C5.67 13.0569 5.74902 13.2477 5.88967 13.3883C6.03032 13.529 6.22109 13.608 6.42 13.608H17.5V14.608H6C5.60218 14.608 5.22064 14.45 4.93934 14.1687C4.65804 13.8874 4.5 13.5058 4.5 13.108C4.5 12.8448 4.56749 12.5967 4.67909 12.3872L6.03716 9.94067L6.16191 9.71595L6.05176 9.48373L2.45176 1.89373L2.31624 1.608H2H0.5V0.608002H2.95253L3.75749 2.32068ZM15 9.608H15.2941L15.437 9.35097L18.217 4.35097L18.6301 3.608H17.78H5.14H4.3511L4.68784 4.32142L7.04784 9.32142L7.1831 9.608H7.5H15ZM16 16.608C16.3978 16.608 16.7794 16.766 17.0607 17.0473C17.342 17.3286 17.5 17.7102 17.5 18.108C17.5 18.5058 17.342 18.8874 17.0607 19.1687C16.7794 19.45 16.3978 19.608 16 19.608C15.6022 19.608 15.2206 19.45 14.9393 19.1687C14.658 18.8874 14.5 18.5058 14.5 18.108C14.5 17.2741 15.1661 16.608 16 16.608ZM6 16.608C6.39782 16.608 6.77935 16.766 7.06066 17.0473C7.34196 17.3286 7.5 17.7102 7.5 18.108C7.5 18.5058 7.34196 18.8874 7.06066 19.1687C6.77935 19.45 6.39782 19.608 6 19.608C5.60218 19.608 5.22064 19.45 4.93934 19.1687C4.65803 18.8874 4.5 18.5058 4.5 18.108C4.5 17.2741 5.16614 16.608 6 16.608Z" stroke="#0D0D0D"/>
</svg>
