<svg width="30" height="23" viewBox="0 0 30 23" fill="none" xmlns="http://www.w3.org/2000/svg">
<path d="M7.30763 12.3558C7.30921 12.4876 7.28599 12.6184 7.23935 12.7405C7.19271 12.8626 7.12359 12.9735 7.03606 13.0667C6.94853 13.1599 6.84437 13.2335 6.72971 13.2831C6.61505 13.3328 6.49221 13.3575 6.36844 13.3558H1.2029C1.02842 13.3543 0.857606 13.3024 0.708722 13.2055C0.559838 13.1086 0.438481 12.9705 0.357628 12.8058C0.282443 12.6382 0.251466 12.4519 0.268009 12.267C0.284551 12.082 0.347992 11.9054 0.451547 11.7558C1.28271 10.5679 2.39181 9.63264 3.66827 9.04334C3.11978 8.50875 2.69836 7.84311 2.43869 7.10121C2.17903 6.35931 2.08855 5.56235 2.1747 4.77594C2.26085 3.98953 2.52117 3.23615 2.93423 2.57779C3.34729 1.91944 3.90128 1.37494 4.5506 0.989106C5.19993 0.603274 5.92603 0.387142 6.66914 0.358498C7.41224 0.329854 8.15112 0.489517 8.82495 0.824346C9.49878 1.15917 10.0883 1.6596 10.545 2.28443C11.0017 2.90925 11.3125 3.64062 11.4518 4.41834C11.4865 4.6209 11.4624 4.82992 11.3827 5.01752C11.303 5.20512 11.1715 5.36239 11.0057 5.46834C9.48728 6.42704 8.33246 7.92201 7.742 9.69334C7.45093 10.5466 7.30388 11.448 7.30763 12.3558ZM29.1907 11.7558C28.3596 10.5679 27.2505 9.63264 25.974 9.04334C26.5225 8.50875 26.9439 7.84311 27.2036 7.10121C27.4633 6.35931 27.5537 5.56235 27.4676 4.77594C27.3814 3.98953 27.1211 3.23615 26.7081 2.57779C26.295 1.91944 25.741 1.37494 25.0917 0.989106C24.4424 0.603274 23.7163 0.387142 22.9731 0.358498C22.23 0.329854 21.4912 0.489517 20.8173 0.824346C20.1435 1.15917 19.554 1.6596 19.0973 2.28443C18.6406 2.90925 18.3298 3.64062 18.1905 4.41834C18.1558 4.6209 18.1798 4.82992 18.2595 5.01752C18.3393 5.20512 18.4708 5.36239 18.6366 5.46834C20.157 6.42458 21.3125 7.92042 21.9003 9.69334C22.1914 10.5466 22.3384 11.448 22.3347 12.3558C22.3331 12.4876 22.3563 12.6184 22.4029 12.7405C22.4496 12.8626 22.5187 12.9735 22.6062 13.0667C22.6938 13.1599 22.7979 13.2335 22.9126 13.2831C23.0272 13.3328 23.1501 13.3575 23.2738 13.3558H28.4394C28.6138 13.3558 28.7848 13.3041 28.9331 13.2065C29.0815 13.1089 29.2014 12.9692 29.2794 12.8031C29.3574 12.637 29.3904 12.451 29.3748 12.266C29.3591 12.0811 29.2954 11.9044 29.1907 11.7558ZM18.2492 17.1183C19.1839 16.3555 19.8706 15.3001 20.213 14.1003C20.5553 12.9005 20.536 11.6166 20.1577 10.4292C19.7795 9.24165 19.0613 8.21017 18.1041 7.47965C17.1469 6.74912 15.9988 6.35625 14.8211 6.35625C13.6435 6.35625 12.4954 6.74912 11.5382 7.47965C10.581 8.21017 9.86283 9.24165 9.48457 10.4292C9.10632 11.6166 9.087 12.9005 9.42932 14.1003C9.77164 15.3001 10.4584 16.3555 11.3931 17.1183C9.567 17.9816 8.08655 19.5047 7.21371 21.4183C7.14426 21.5704 7.11316 21.7391 7.12345 21.9079C7.13374 22.0766 7.18507 22.2396 7.27241 22.3808C7.35369 22.5257 7.46891 22.6457 7.60679 22.7289C7.74466 22.8122 7.90047 22.8559 8.05898 22.8558H21.5833C21.7418 22.8559 21.8976 22.8122 22.0355 22.7289C22.1734 22.6457 22.2886 22.5257 22.3699 22.3808C22.4572 22.2396 22.5085 22.0766 22.5188 21.9079C22.5291 21.7391 22.498 21.5704 22.4286 21.4183C21.5557 19.5047 20.0753 17.9816 18.2492 17.1183Z" fill="#590209"/>
</svg>
