<svg width="56" height="57" viewBox="0 0 56 57" fill="none" xmlns="http://www.w3.org/2000/svg">
<rect x="0.875" y="1.375" width="54.25" height="54.25" rx="27.125" stroke="#8C3926" stroke-width="1.75"/>
<path d="M27.9999 16.8335C34.4434 16.8335 39.6666 22.0567 39.6666 28.5002C39.6666 34.9437 34.4434 40.1668 27.9999 40.1668C25.8745 40.1701 23.7889 39.5898 21.9706 38.4892L18.4333 39.5298C18.2302 39.5896 18.0147 39.5935 17.8096 39.5412C17.6044 39.4889 17.4172 39.3823 17.2675 39.2326C17.1178 39.0829 17.0112 38.8957 16.9589 38.6905C16.9066 38.4854 16.9105 38.2699 16.9703 38.0668L18.0109 34.5295C16.9107 32.711 16.3304 30.6256 16.3333 28.5002C16.3333 22.0567 21.5564 16.8335 27.9999 16.8335ZM27.9999 19.1668C26.3288 19.1665 24.6883 19.6149 23.2496 20.4651C21.811 21.3153 20.627 22.5362 19.8213 24.0003C19.0156 25.4643 18.6178 27.1178 18.6693 28.7881C18.7209 30.4584 19.22 32.0843 20.1144 33.4958C20.3793 33.9123 20.4703 34.4373 20.3209 34.9425L19.8064 36.6937L21.5576 36.1792C22.0628 36.0298 22.5878 36.1208 23.0043 36.3857C24.2273 37.1601 25.6137 37.6394 27.0539 37.7857C28.4941 37.932 29.9486 37.7413 31.3024 37.2287C32.6562 36.716 33.8722 35.8955 34.8543 34.832C35.8364 33.7685 36.5576 32.4911 36.961 31.1008C37.3643 29.7105 37.4388 28.2455 37.1784 26.8215C36.918 25.3975 36.33 24.0535 35.4608 22.8959C34.5915 21.7383 33.465 20.7988 32.1701 20.1516C30.8752 19.5044 29.4475 19.1672 27.9999 19.1668ZM23.9166 26.7502C24.3807 26.7502 24.8258 26.9345 25.154 27.2627C25.4822 27.5909 25.6666 28.036 25.6666 28.5002C25.6666 28.9643 25.4822 29.4094 25.154 29.7376C24.8258 30.0658 24.3807 30.2502 23.9166 30.2502C23.4525 30.2502 23.0073 30.0658 22.6792 29.7376C22.351 29.4094 22.1666 28.9643 22.1666 28.5002C22.1666 28.036 22.351 27.5909 22.6792 27.2627C23.0073 26.9345 23.4525 26.7502 23.9166 26.7502ZM32.0833 26.7502C32.5474 26.7502 32.9925 26.9345 33.3207 27.2627C33.6489 27.5909 33.8333 28.036 33.8333 28.5002C33.8333 28.9643 33.6489 29.4094 33.3207 29.7376C32.9925 30.0658 32.5474 30.2502 32.0833 30.2502C31.6191 30.2502 31.174 30.0658 30.8458 29.7376C30.5176 29.4094 30.3333 28.9643 30.3333 28.5002C30.3333 28.036 30.5176 27.5909 30.8458 27.2627C31.174 26.9345 31.6191 26.7502 32.0833 26.7502Z" fill="#8C3926"/>
</svg>
