<svg width="14" height="14" viewBox="0 0 14 14" fill="none" xmlns="http://www.w3.org/2000/svg">
<g clip-path="url(#clip0_745_1269)">
<path d="M10.465 10.4647C9.46788 11.2248 8.25369 11.6459 7.00004 11.6664C2.91671 11.6664 0.583374 6.99969 0.583374 6.99969C1.30898 5.64746 2.31537 4.46604 3.53504 3.53469M5.77504 2.47302C6.17657 2.37904 6.58766 2.33205 7.00004 2.33302C11.0834 2.33302 13.4167 6.99969 13.4167 6.99969C13.0626 7.66213 12.6403 8.28578 12.1567 8.86052M8.23671 8.23636C8.0765 8.40829 7.88329 8.5462 7.66863 8.64184C7.45396 8.73749 7.22223 8.78892 6.98726 8.79307C6.75229 8.79722 6.51889 8.75399 6.30098 8.66598C6.08307 8.57796 5.88513 8.44696 5.71895 8.28078C5.55277 8.1146 5.42177 7.91666 5.33375 7.69875C5.24574 7.48084 5.20251 7.24744 5.20666 7.01247C5.21081 6.7775 5.26224 6.54577 5.35789 6.3311C5.45353 6.11643 5.59144 5.92323 5.76337 5.76302" stroke="#590209" stroke-width="2" stroke-linecap="round" stroke-linejoin="round"/>
</g>
<defs>
<clipPath id="clip0_745_1269">
<rect width="14" height="14" fill="white"/>
</clipPath>
</defs>
</svg>
