<svg width="26" height="26" viewBox="0 0 26 26" fill="none" xmlns="http://www.w3.org/2000/svg">
<g clip-path="url(#clip0_744_8)">
<path d="M19.435 19.4352C17.5831 20.8468 15.3282 21.6288 13 21.6669C5.41667 21.6669 1.08334 13.0002 1.08334 13.0002C2.43088 10.4889 4.2999 8.29485 6.565 6.56519M10.725 4.59352C11.4707 4.41898 12.2342 4.33172 13 4.33352C20.5833 4.33352 24.9167 13.0002 24.9167 13.0002C24.2591 14.2304 23.4748 15.3887 22.5767 16.456M15.2967 15.2969C14.9991 15.6162 14.6403 15.8723 14.2417 16.0499C13.843 16.2275 13.4126 16.3231 12.9763 16.3308C12.5399 16.3385 12.1064 16.2582 11.7017 16.0947C11.2971 15.9313 10.9294 15.688 10.6208 15.3794C10.3122 15.0707 10.0689 14.7031 9.90547 14.2984C9.74201 13.8938 9.66174 13.4603 9.66944 13.0239C9.67714 12.5875 9.77265 12.1572 9.95028 11.7585C10.1279 11.3599 10.384 11.0011 10.7033 10.7035" stroke="#590209" stroke-width="2" stroke-linecap="round" stroke-linejoin="round"/>
<path d="M1.08334 1.0835L24.9167 24.9168" stroke="#590209" stroke-width="2" stroke-linecap="round" stroke-linejoin="round"/>
</g>
<defs>
<clipPath id="clip0_744_8">
<rect width="26" height="26" fill="white"/>
</clipPath>
</defs>
</svg>
