<svg width="43" height="43" viewBox="0 0 43 43" fill="none" xmlns="http://www.w3.org/2000/svg">
<circle cx="21.5" cy="21.5" r="21.5" fill="#F4F2F2"/>
<path d="M29.4173 22.5834L21.9173 30.0114L14.4173 22.5834C13.9226 22.102 13.5329 21.5234 13.2728 20.884C13.0127 20.2447 12.8879 19.5584 12.906 18.8683C12.9242 18.1783 13.0851 17.4995 13.3785 16.8747C13.6718 16.2499 14.0914 15.6927 14.6108 15.238C15.1301 14.7833 15.738 14.4411 16.3961 14.2329C17.0542 14.0247 17.7483 13.955 18.4347 14.0282C19.121 14.1014 19.7848 14.316 20.3842 14.6583C20.9835 15.0007 21.5055 15.4634 21.9173 16.0174C22.3308 15.4674 22.8534 15.0087 23.4524 14.67C24.0514 14.3313 24.7138 14.1199 25.3982 14.0489C26.0827 13.978 26.7744 14.0491 27.4301 14.2578C28.0858 14.4665 28.6913 14.8083 29.2088 15.2618C29.7264 15.7153 30.1447 16.2707 30.4377 16.8933C30.7307 17.5159 30.892 18.1923 30.9116 18.8801C30.9312 19.5679 30.8086 20.2524 30.5514 20.8907C30.2943 21.5289 29.9082 22.1072 29.4173 22.5894" fill="#F4F2F2"/>
<path d="M29.4173 22.5834L21.9173 30.0114L14.4173 22.5834C13.9226 22.102 13.5329 21.5234 13.2728 20.884C13.0127 20.2447 12.8879 19.5584 12.906 18.8683C12.9242 18.1783 13.0851 17.4995 13.3785 16.8747C13.6718 16.2499 14.0914 15.6927 14.6108 15.238C15.1301 14.7833 15.738 14.4411 16.3961 14.2329C17.0542 14.0247 17.7483 13.955 18.4347 14.0282C19.121 14.1014 19.7848 14.316 20.3842 14.6583C20.9835 15.0007 21.5055 15.4634 21.9173 16.0174C22.3308 15.4674 22.8534 15.0087 23.4524 14.67C24.0514 14.3313 24.7138 14.1199 25.3982 14.0489C26.0827 13.978 26.7744 14.0491 27.4301 14.2578C28.0858 14.4665 28.6913 14.8083 29.2088 15.2618C29.7264 15.7153 30.1447 16.2707 30.4377 16.8933C30.7307 17.5159 30.892 18.1923 30.9116 18.8801C30.9312 19.5679 30.8086 20.2524 30.5514 20.8907C30.2943 21.5289 29.9082 22.1072 29.4173 22.5894" stroke="#8B8A8A" stroke-width="2" stroke-linecap="round" stroke-linejoin="round"/>
</svg>
