<svg width="62" height="62" viewBox="0 0 62 62" fill="none" xmlns="http://www.w3.org/2000/svg">
<circle cx="31" cy="31" r="31" fill="white"/>
<path fill-rule="evenodd" clip-rule="evenodd" d="M21.375 20.9375H29.6875C29.9291 20.9375 30.125 21.1334 30.125 21.375V29.6875C30.125 29.9291 29.9291 30.125 29.6875 30.125H21.375C21.1334 30.125 20.9375 29.9291 20.9375 29.6875V21.375C20.9375 21.1334 21.1334 20.9375 21.375 20.9375ZM36.8055 20.2448L41.7552 25.1946C41.926 25.3654 41.926 25.6424 41.7552 25.8133L36.8054 30.763C36.6346 30.9339 36.3576 30.9339 36.1867 30.763L31.237 25.8132C31.0661 25.6424 31.0661 25.3654 31.237 25.1945L36.1868 20.2448C36.3576 20.074 36.6346 20.074 36.8055 20.2448ZM21.375 31.875H29.6875C29.9291 31.875 30.125 32.0709 30.125 32.3125V40.625C30.125 40.8666 29.9291 41.0625 29.6875 41.0625H21.375C21.1334 41.0625 20.9375 40.8666 20.9375 40.625V32.3125C20.9375 32.0709 21.1334 31.875 21.375 31.875ZM32.3125 31.875H40.625C40.8666 31.875 41.0625 32.0709 41.0625 32.3125V40.625C41.0625 40.8666 40.8666 41.0625 40.625 41.0625H32.3125C32.0709 41.0625 31.875 40.8666 31.875 40.625V32.3125C31.875 32.0709 32.0709 31.875 32.3125 31.875Z" fill="#590209"/>
</svg>
