<svg width="569" height="1024" viewBox="0 0 569 1024" fill="none" xmlns="http://www.w3.org/2000/svg">
<path opacity="0.5" d="M87.9098 240.492C110.649 240.492 129.083 222.07 129.083 199.345C129.083 176.62 110.649 158.197 87.9098 158.197C65.1703 158.197 46.7363 176.62 46.7363 199.345C46.7363 222.07 65.1703 240.492 87.9098 240.492Z" fill="#EAEAEA"/>
<path d="M79.4023 189.575L79.4023 127.646H78.8435L78.8435 189.575H79.4023Z" fill="black"/>
<path d="M84.0983 192.902L84.0983 130.972H83.5394L83.5394 192.902H84.0983Z" fill="black"/>
<path d="M100.15 202.458L100.892 203.2L100.15 203.942C100.089 204.003 100.089 204.099 100.15 204.158C100.21 204.218 100.306 204.218 100.365 204.158L101.108 203.416L101.85 204.158C101.911 204.218 102.007 204.218 102.066 204.158C102.126 204.097 102.126 204.001 102.066 203.942L101.323 203.2L102.066 202.458C102.126 202.398 102.126 202.302 102.066 202.243C102.005 202.183 101.909 202.183 101.85 202.243L101.108 202.985L100.365 202.243C100.305 202.183 100.208 202.183 100.15 202.243C100.089 202.302 100.089 202.399 100.15 202.458Z" fill="black"/>
<path d="M94.0523 202.458L94.7949 203.2L94.0523 203.942C93.9921 204.003 93.9921 204.099 94.0523 204.158C94.1126 204.218 94.209 204.218 94.2677 204.158L95.0103 203.416L95.7529 204.158C95.8131 204.218 95.9096 204.218 95.9683 204.158C96.0286 204.097 96.0286 204.001 95.9683 203.942L95.2257 203.2L95.9683 202.458C96.0286 202.398 96.0286 202.302 95.9683 202.243C95.9081 202.183 95.8116 202.183 95.7529 202.243L95.0103 202.985L94.2677 202.243C94.2075 202.183 94.1111 202.183 94.0523 202.243C93.9921 202.302 93.9921 202.399 94.0523 202.458Z" fill="black"/>
<path d="M87.955 202.458L88.6976 203.2L87.955 203.942C87.8948 204.003 87.8948 204.099 87.955 204.158C88.0153 204.218 88.1117 204.218 88.1704 204.158L88.913 203.416L89.6556 204.158C89.7159 204.218 89.8123 204.218 89.871 204.158C89.9313 204.097 89.9313 204.001 89.871 203.942L89.1284 203.2L89.871 202.458C89.9313 202.398 89.9313 202.302 89.871 202.243C89.8108 202.183 89.7144 202.183 89.6556 202.243L88.913 202.985L88.1704 202.243C88.1102 202.183 88.0138 202.183 87.955 202.243C87.8948 202.302 87.8948 202.399 87.955 202.458Z" fill="black"/>
<path d="M81.8577 202.458L82.6003 203.2L81.8577 203.942C81.7975 204.003 81.7975 204.099 81.8577 204.158C81.918 204.218 82.0144 204.218 82.0731 204.158L82.8157 203.416L83.5583 204.158C83.6186 204.218 83.715 204.218 83.7737 204.158C83.834 204.097 83.834 204.001 83.7737 203.942L83.0311 203.2L83.7737 202.458C83.834 202.398 83.834 202.302 83.7737 202.243C83.7135 202.183 83.6171 202.183 83.5583 202.243L82.8157 202.985L82.0731 202.243C82.0129 202.183 81.9165 202.183 81.8577 202.243C81.7975 202.302 81.7975 202.399 81.8577 202.458Z" fill="black"/>
<path d="M75.7604 202.458L76.503 203.2L75.7604 203.942C75.7001 204.003 75.7001 204.099 75.7604 204.158C75.8206 204.218 75.917 204.218 75.9758 204.158L76.7184 203.416L77.461 204.158C77.5212 204.218 77.6176 204.218 77.6764 204.158C77.7366 204.097 77.7366 204.001 77.6764 203.942L76.9338 203.2L77.6764 202.458C77.7366 202.398 77.7366 202.302 77.6764 202.243C77.6161 202.183 77.5197 202.183 77.461 202.243L76.7184 202.985L75.9758 202.243C75.9155 202.183 75.8191 202.183 75.7604 202.243C75.7001 202.302 75.7001 202.399 75.7604 202.458Z" fill="black"/>
<path d="M69.663 202.458L70.4056 203.2L69.663 203.942C69.6028 204.003 69.6028 204.099 69.663 204.158C69.7233 204.218 69.8197 204.218 69.8784 204.158L70.621 203.416L71.3636 204.158C71.4239 204.218 71.5203 204.218 71.579 204.158C71.6393 204.097 71.6393 204.001 71.579 203.942L70.8364 203.2L71.579 202.458C71.6393 202.398 71.6393 202.302 71.579 202.243C71.5188 202.183 71.4224 202.183 71.3636 202.243L70.621 202.985L69.8784 202.243C69.8182 202.183 69.7218 202.183 69.663 202.243C69.6028 202.302 69.6028 202.399 69.663 202.458Z" fill="black"/>
<path opacity="0.5" d="M163.352 589.317C170.035 582.638 170.035 571.809 163.352 565.13C156.668 558.451 145.832 558.451 139.149 565.13C132.465 571.809 132.465 582.638 139.149 589.317C145.832 595.996 156.668 595.996 163.352 589.317Z" fill="#EAEAEA"/>
<path d="M79.2726 611.432L79.2726 549.503H78.7137L78.7137 611.432H79.2726Z" fill="black"/>
<path d="M83.6971 615.453L83.6971 561.672H83.1383L83.1383 615.453H83.6971Z" fill="black"/>
<path d="M120.774 413.444C120.774 413.947 120.366 414.355 119.863 414.355C119.36 414.355 118.952 413.947 118.952 413.444C118.952 412.941 119.36 412.533 119.863 412.533C120.366 412.533 120.774 412.941 120.774 413.444Z" fill="#FD4C38"/>
<path d="M120.774 409.279C120.774 409.782 120.366 410.19 119.863 410.19C119.36 410.19 118.952 409.782 118.952 409.279C118.952 408.777 119.36 408.369 119.863 408.369C120.366 408.369 120.774 408.777 120.774 409.279Z" fill="#FD4C38"/>
<path d="M120.774 405.116C120.774 405.619 120.366 406.026 119.863 406.026C119.36 406.026 118.952 405.619 118.952 405.116C118.952 404.613 119.36 404.205 119.863 404.205C120.366 404.205 120.774 404.613 120.774 405.116Z" fill="#FD4C38"/>
<path d="M120.774 400.95C120.774 401.453 120.366 401.861 119.863 401.861C119.36 401.861 118.952 401.453 118.952 400.95C118.952 400.447 119.36 400.04 119.863 400.04C120.366 400.04 120.774 400.447 120.774 400.95Z" fill="#FD4C38"/>
<path d="M120.774 396.785C120.774 397.288 120.366 397.696 119.863 397.696C119.36 397.696 118.952 397.288 118.952 396.785C118.952 396.282 119.36 395.875 119.863 395.875C120.366 395.875 120.774 396.282 120.774 396.785Z" fill="#FD4C38"/>
<path d="M120.774 392.62C120.774 393.122 120.366 393.53 119.863 393.53C119.36 393.53 118.952 393.122 118.952 392.62C118.952 392.117 119.36 391.709 119.863 391.709C120.366 391.71 120.774 392.117 120.774 392.62Z" fill="#FD4C38"/>
<path d="M120.774 388.456C120.774 388.959 120.366 389.367 119.863 389.367C119.36 389.367 118.952 388.959 118.952 388.456C118.952 387.953 119.36 387.545 119.863 387.545C120.366 387.545 120.774 387.953 120.774 388.456Z" fill="#FD4C38"/>
<path d="M120.774 384.292C120.774 384.794 120.366 385.202 119.863 385.202C119.36 385.202 118.952 384.794 118.952 384.292C118.952 383.789 119.36 383.381 119.863 383.381C120.366 383.381 120.774 383.789 120.774 384.292Z" fill="#FD4C38"/>
<path d="M120.774 380.126C120.774 380.629 120.366 381.037 119.863 381.037C119.36 381.037 118.952 380.629 118.952 380.126C118.952 379.623 119.36 379.215 119.863 379.215C120.366 379.215 120.774 379.623 120.774 380.126Z" fill="#FD4C38"/>
<path d="M120.774 375.962C120.774 376.465 120.366 376.873 119.863 376.873C119.36 376.873 118.952 376.465 118.952 375.962C118.952 375.46 119.36 375.052 119.863 375.052C120.366 375.052 120.774 375.46 120.774 375.962Z" fill="#FD4C38"/>
<path d="M120.774 371.797C120.774 372.3 120.366 372.708 119.863 372.708C119.36 372.708 118.952 372.3 118.952 371.797C118.952 371.295 119.36 370.887 119.863 370.887C120.366 370.887 120.774 371.295 120.774 371.797Z" fill="#FD4C38"/>
<path d="M120.774 367.632C120.774 368.135 120.366 368.543 119.863 368.543C119.36 368.543 118.952 368.135 118.952 367.632C118.952 367.129 119.36 366.721 119.863 366.721C120.366 366.721 120.774 367.129 120.774 367.632Z" fill="#FD4C38"/>
<path d="M120.774 363.468C120.774 363.971 120.366 364.379 119.863 364.379C119.36 364.379 118.952 363.971 118.952 363.468C118.952 362.966 119.36 362.558 119.863 362.558C120.366 362.558 120.774 362.964 120.774 363.468Z" fill="#FD4C38"/>
<path d="M125.445 417.609C125.445 418.112 125.037 418.52 124.534 418.52C124.031 418.52 123.623 418.112 123.623 417.609C123.623 417.107 124.031 416.699 124.534 416.699C125.037 416.699 125.445 417.107 125.445 417.609Z" fill="#FD4C38"/>
<path d="M125.445 413.444C125.445 413.947 125.037 414.355 124.534 414.355C124.031 414.355 123.623 413.947 123.623 413.444C123.623 412.941 124.031 412.533 124.534 412.533C125.037 412.533 125.445 412.941 125.445 413.444Z" fill="#FD4C38"/>
<path d="M125.445 409.279C125.445 409.782 125.037 410.19 124.534 410.19C124.031 410.19 123.623 409.782 123.623 409.279C123.623 408.777 124.031 408.369 124.534 408.369C125.037 408.369 125.445 408.777 125.445 409.279Z" fill="#FD4C38"/>
<path d="M125.445 405.115C125.445 405.618 125.037 406.026 124.534 406.026C124.031 406.026 123.623 405.618 123.623 405.115C123.623 404.613 124.031 404.205 124.534 404.205C125.037 404.205 125.445 404.613 125.445 405.115Z" fill="#FD4C38"/>
<path d="M125.445 400.95C125.445 401.453 125.037 401.861 124.534 401.861C124.031 401.861 123.623 401.453 123.623 400.95C123.623 400.447 124.031 400.04 124.534 400.04C125.037 400.04 125.445 400.447 125.445 400.95Z" fill="#FD4C38"/>
<path d="M125.445 396.785C125.445 397.288 125.037 397.696 124.534 397.696C124.031 397.696 123.623 397.288 123.623 396.785C123.623 396.282 124.031 395.875 124.534 395.875C125.037 395.875 125.445 396.282 125.445 396.785Z" fill="#FD4C38"/>
<path d="M125.445 392.622C125.445 393.124 125.037 393.532 124.534 393.532C124.031 393.532 123.623 393.124 123.623 392.622C123.623 392.119 124.031 391.711 124.534 391.711C125.037 391.711 125.445 392.117 125.445 392.622Z" fill="#FD4C38"/>
<path d="M125.445 388.456C125.445 388.959 125.037 389.367 124.534 389.367C124.031 389.367 123.623 388.959 123.623 388.456C123.623 387.953 124.031 387.545 124.534 387.545C125.037 387.545 125.445 387.953 125.445 388.456Z" fill="#FD4C38"/>
<path d="M125.445 384.291C125.445 384.794 125.037 385.202 124.534 385.202C124.031 385.202 123.623 384.794 123.623 384.291C123.623 383.788 124.031 383.38 124.534 383.38C125.037 383.38 125.445 383.788 125.445 384.291Z" fill="#FD4C38"/>
<path d="M125.445 380.126C125.445 380.629 125.037 381.037 124.534 381.037C124.031 381.037 123.623 380.629 123.623 380.126C123.623 379.623 124.031 379.215 124.534 379.215C125.037 379.215 125.445 379.623 125.445 380.126Z" fill="#FD4C38"/>
<path d="M125.445 375.962C125.445 376.465 125.037 376.873 124.534 376.873C124.031 376.873 123.623 376.465 123.623 375.962C123.623 375.459 124.031 375.051 124.534 375.051C125.037 375.051 125.445 375.459 125.445 375.962Z" fill="#FD4C38"/>
<path d="M125.445 371.797C125.445 372.3 125.037 372.708 124.534 372.708C124.031 372.708 123.623 372.3 123.623 371.797C123.623 371.295 124.031 370.887 124.534 370.887C125.037 370.887 125.445 371.295 125.445 371.797Z" fill="#FD4C38"/>
<path d="M125.445 367.632C125.445 368.135 125.037 368.543 124.534 368.543C124.031 368.543 123.623 368.135 123.623 367.632C123.623 367.129 124.031 366.721 124.534 366.721C125.037 366.721 125.445 367.129 125.445 367.632Z" fill="#FD4C38"/>
<path d="M162.135 439.901L163.325 441.09L162.135 442.279C162.038 442.374 162.038 442.529 162.135 442.625C162.231 442.72 162.385 442.72 162.481 442.625L163.671 441.436L164.861 442.625C164.957 442.72 165.112 442.72 165.207 442.625C165.304 442.531 165.304 442.376 165.207 442.279L164.017 441.09L165.207 439.901C165.304 439.805 165.304 439.65 165.207 439.555C165.112 439.458 164.957 439.458 164.861 439.555L163.669 440.744L162.479 439.555C162.383 439.458 162.229 439.458 162.133 439.555C162.04 439.65 162.04 439.805 162.135 439.901Z" fill="black"/>
<path d="M152.353 439.901L153.543 441.09L152.353 442.279C152.258 442.374 152.258 442.529 152.353 442.625C152.449 442.72 152.603 442.72 152.699 442.625L153.889 441.436L155.079 442.625C155.174 442.72 155.329 442.72 155.426 442.625C155.521 442.531 155.521 442.376 155.426 442.279L154.236 441.09L155.427 439.901C155.524 439.805 155.524 439.65 155.427 439.555C155.331 439.458 155.177 439.458 155.081 439.555L153.891 440.744L152.701 439.555C152.604 439.458 152.451 439.458 152.354 439.555C152.256 439.65 152.256 439.805 152.353 439.901Z" fill="black"/>
<path d="M142.57 439.901L143.76 441.09L142.57 442.279C142.475 442.374 142.475 442.529 142.57 442.625C142.666 442.72 142.821 442.72 142.916 442.625L144.106 441.436L145.296 442.625C145.391 442.72 145.548 442.72 145.643 442.625C145.739 442.531 145.739 442.376 145.643 442.279L144.453 441.09L145.643 439.901C145.739 439.805 145.739 439.65 145.643 439.555C145.548 439.458 145.392 439.458 145.296 439.555L144.106 440.744L142.916 439.555C142.821 439.458 142.666 439.458 142.57 439.555C142.475 439.65 142.475 439.805 142.57 439.901Z" fill="black"/>
<path d="M132.788 439.901L133.978 441.09L132.788 442.279C132.693 442.374 132.693 442.529 132.788 442.625C132.884 442.72 133.04 442.72 133.134 442.625L134.324 441.436L135.514 442.625C135.611 442.72 135.764 442.72 135.861 442.625C135.957 442.531 135.957 442.376 135.861 442.279L134.671 441.09L135.861 439.901C135.957 439.805 135.957 439.65 135.861 439.555C135.766 439.458 135.611 439.458 135.514 439.555L134.323 440.744L133.133 439.555C133.038 439.458 132.883 439.458 132.787 439.555C132.692 439.65 132.692 439.805 132.788 439.901Z" fill="black"/>
<path d="M123.005 439.901L124.195 441.09L123.005 442.279C122.909 442.374 122.909 442.529 123.005 442.625C123.1 442.72 123.255 442.72 123.351 442.625L124.541 441.436L125.731 442.625C125.828 442.72 125.981 442.72 126.078 442.625C126.174 442.531 126.174 442.376 126.078 442.279L124.888 441.09L126.079 439.901C126.174 439.805 126.174 439.65 126.079 439.555C125.983 439.458 125.828 439.458 125.733 439.555L124.543 440.744L123.353 439.555C123.257 439.458 123.101 439.458 123.006 439.555C122.91 439.65 122.91 439.805 123.005 439.901Z" fill="black"/>
<path d="M113.223 439.901L114.413 441.09L113.223 442.279C113.127 442.374 113.127 442.529 113.223 442.625C113.318 442.72 113.473 442.72 113.57 442.625L114.76 441.436L115.95 442.625C116.046 442.72 116.201 442.72 116.296 442.625C116.391 442.531 116.391 442.376 116.296 442.279L115.106 441.09L116.296 439.901C116.392 439.805 116.392 439.65 116.296 439.555C116.201 439.458 116.046 439.458 115.95 439.555L114.76 440.744L113.57 439.555C113.475 439.458 113.318 439.458 113.223 439.555C113.127 439.65 113.127 439.805 113.223 439.901Z" fill="black"/>
<path opacity="0.5" d="M267.712 330.74C283.11 330.74 295.593 318.266 295.593 302.877C295.593 287.489 283.11 275.014 267.712 275.014C252.314 275.014 239.831 287.489 239.831 302.877C239.831 318.266 252.314 330.74 267.712 330.74Z" fill="#EAEAEA"/>
<path opacity="0.5" d="M427.391 115.347C462.373 115.347 490.731 86.9887 490.731 52.007C490.731 17.0253 462.373 -11.333 427.391 -11.333C392.409 -11.333 364.051 17.0253 364.051 52.007C364.051 86.9887 392.409 115.347 427.391 115.347Z" fill="#EAEAEA"/>
<path d="M322.234 109.814C322.234 116.265 317.278 121.497 311.164 121.497C305.05 121.497 300.096 116.265 300.096 109.814C300.096 103.36 305.05 98.1284 311.164 98.1284C317.278 98.1284 322.234 103.36 322.234 109.814Z" fill="black"/>
<path d="M284.396 -38.1353C314.95 -38.1353 339.807 -13.2931 339.807 17.2407C339.807 47.7744 314.95 72.6165 284.396 72.6165C253.843 72.6165 228.985 47.7744 228.985 17.2407C228.985 -13.2931 253.843 -38.1353 284.396 -38.1353ZM284.396 71.9008C314.557 71.9008 339.094 47.3794 339.094 17.238C339.094 -12.9034 314.557 -37.4248 284.396 -37.4248C254.236 -37.4248 229.699 -12.9034 229.699 17.238C229.699 47.3794 254.238 71.9008 284.396 71.9008Z" fill="#FD4C38"/>
<path d="M284.396 -31.4629C311.267 -31.4629 333.128 -9.61633 333.128 17.2379C333.128 44.0921 311.267 65.9387 284.396 65.9387C257.525 65.9387 235.664 44.0921 235.664 17.2379C235.667 -9.61367 257.527 -31.4629 284.396 -31.4629ZM284.396 65.2282C310.875 65.2282 332.414 43.6998 332.414 17.2406C332.414 -9.22133 310.872 -30.7471 284.396 -30.7471C257.92 -30.7471 236.378 -9.21868 236.378 17.2406C236.378 43.6998 257.92 65.2282 284.396 65.2282Z" fill="#FD4C38"/>
<path d="M284.396 -24.7871C307.583 -24.7871 326.449 -5.93348 326.449 17.2386C326.449 40.4106 307.583 59.2642 284.396 59.2642C261.21 59.2642 242.344 40.4106 242.344 17.2386C242.344 -5.93348 261.21 -24.7871 284.396 -24.7871ZM284.396 58.5538C307.191 58.5538 325.735 40.0209 325.735 17.2412C325.735 -5.53848 307.191 -24.0713 284.396 -24.0713C261.602 -24.0713 243.057 -5.53848 243.057 17.2412C243.057 40.0209 261.602 58.5538 284.396 58.5538Z" fill="#FD4C38"/>
<path d="M284.396 -18.1128C303.901 -18.1128 319.769 -2.25476 319.769 17.2377C319.769 36.7303 303.901 52.5883 284.396 52.5883C264.891 52.5883 249.023 36.7303 249.023 17.2377C249.023 -2.25476 264.891 -18.1128 284.396 -18.1128ZM284.396 51.8778C303.509 51.8778 319.058 36.3379 319.058 17.2377C319.058 -1.86242 303.509 -17.4023 284.396 -17.4023C265.284 -17.4023 249.734 -1.86242 249.734 17.2377C249.737 36.3379 265.284 51.8778 284.396 51.8778Z" fill="#FD4C38"/>
<path d="M284.396 -11.437C300.219 -11.437 313.09 1.42809 313.09 17.2384C313.09 33.0514 300.217 45.9138 284.396 45.9138C268.576 45.9138 255.702 33.0487 255.702 17.2384C255.702 1.42809 268.576 -11.437 284.396 -11.437ZM284.396 45.2034C299.827 45.2034 312.379 32.659 312.379 17.2384C312.379 1.81778 299.827 -10.7266 284.396 -10.7266C268.966 -10.7266 256.413 1.81778 256.413 17.2384C256.416 32.659 268.968 45.2034 284.396 45.2034Z" fill="#FD4C38"/>
<path d="M284.396 -4.7627C296.535 -4.7627 306.413 5.10683 306.413 17.2403C306.413 29.3711 296.538 39.2432 284.396 39.2432C272.258 39.2432 262.379 29.3737 262.379 17.2403C262.382 5.10683 272.258 -4.7627 284.396 -4.7627ZM284.396 38.5275C296.142 38.5275 305.7 28.9761 305.7 17.2376C305.7 5.49917 296.142 -4.05224 284.396 -4.05224C272.65 -4.05224 263.093 5.49917 263.093 17.2376C263.093 28.9787 272.65 38.5275 284.396 38.5275Z" fill="#FD4C38"/>
<path d="M284.396 1.9126C292.853 1.9126 299.734 8.78919 299.734 17.2404C299.734 25.6917 292.853 32.5683 284.396 32.5683C275.94 32.5683 269.059 25.6917 269.059 17.2404C269.061 8.78654 275.94 1.9126 284.396 1.9126ZM284.396 31.8525C292.46 31.8525 299.02 25.2967 299.02 17.2378C299.02 9.17888 292.46 2.62305 284.396 2.62305C276.332 2.62305 269.772 9.17888 269.772 17.2378C269.772 25.2967 276.332 31.8525 284.396 31.8525Z" fill="#FD4C38"/>
<path d="M284.396 8.58545C289.171 8.58545 293.054 12.4665 293.054 17.2382C293.054 22.0099 289.171 25.8909 284.396 25.8909C279.621 25.8909 275.738 22.0099 275.738 17.2382C275.738 12.4691 279.624 8.58545 284.396 8.58545ZM284.396 25.1805C288.778 25.1805 292.341 21.6176 292.341 17.2408C292.341 12.8615 288.776 9.30121 284.396 9.30121C280.017 9.30121 276.451 12.8641 276.451 17.2408C276.451 21.6176 280.017 25.1805 284.396 25.1805Z" fill="#FD4C38"/>
<path d="M205.567 83.6945L207.663 85.7887L205.567 87.883C205.398 88.05 205.398 88.3231 205.567 88.4927C205.737 88.6624 206.008 88.6624 206.177 88.4927L208.273 86.3985L210.369 88.4927C210.538 88.6624 210.812 88.6624 210.979 88.4927C211.149 88.3257 211.149 88.0527 210.979 87.883L208.883 85.7887L210.979 83.6945C211.149 83.5248 211.149 83.2518 210.979 83.0848C210.809 82.9151 210.538 82.9151 210.369 83.0848L208.27 85.179L206.175 83.0848C206.005 82.9178 205.735 82.9178 205.565 83.0848C205.398 83.2518 205.398 83.5248 205.567 83.6945Z" fill="black"/>
<path d="M188.338 83.6945L190.434 85.7887L188.338 87.883C188.171 88.05 188.171 88.3231 188.338 88.4927C188.508 88.6624 188.779 88.6624 188.948 88.4927L191.044 86.3985L193.14 88.4927C193.307 88.6624 193.58 88.6624 193.75 88.4927C193.917 88.3257 193.917 88.0527 193.75 87.883L191.652 85.7887L193.75 83.6945C193.92 83.5248 193.92 83.2518 193.75 83.0848C193.58 82.9151 193.309 82.9151 193.14 83.0848L191.044 85.179L188.948 83.0848C188.779 82.9178 188.508 82.9178 188.338 83.0848C188.171 83.2518 188.171 83.5248 188.338 83.6945Z" fill="black"/>
<path d="M171.112 83.6945L173.21 85.7887L171.112 87.883C170.945 88.05 170.945 88.3231 171.112 88.4927C171.282 88.6624 171.555 88.6624 171.722 88.4927L173.818 86.3985L175.913 88.4927C176.08 88.6624 176.354 88.6624 176.523 88.4927C176.693 88.3257 176.693 88.0527 176.523 87.883L174.428 85.7887L176.523 83.6945C176.693 83.5248 176.693 83.2518 176.523 83.0848C176.356 82.9151 176.083 82.9151 175.913 83.0848L173.818 85.179L171.722 83.0848C171.555 82.9178 171.279 82.9178 171.112 83.0848C170.942 83.2518 170.942 83.5248 171.112 83.6945Z" fill="black"/>
<path d="M153.883 83.6945L155.979 85.7887L153.883 87.883C153.716 88.05 153.716 88.3231 153.883 88.4927C154.053 88.6624 154.326 88.6624 154.493 88.4927L156.589 86.3985L158.684 88.4927C158.854 88.6624 159.127 88.6624 159.294 88.4927C159.464 88.3257 159.464 88.0527 159.294 87.883L157.199 85.7887L159.294 83.6945C159.464 83.5248 159.464 83.2518 159.294 83.0848C159.127 82.9151 158.854 82.9151 158.684 83.0848L156.586 85.179L154.491 83.0848C154.323 82.9178 154.05 82.9178 153.88 83.0848C153.716 83.2518 153.716 83.5248 153.883 83.6945Z" fill="black"/>
<path d="M136.657 83.6945L138.752 85.7887L136.657 87.883C136.487 88.05 136.487 88.3231 136.657 88.4927C136.824 88.6624 137.097 88.6624 137.267 88.4927L139.363 86.3985L141.458 88.4927C141.625 88.6624 141.899 88.6624 142.068 88.4927C142.238 88.3257 142.238 88.0527 142.068 87.883L139.973 85.7887L142.071 83.6945C142.238 83.5248 142.238 83.2518 142.071 83.0848C141.901 82.9151 141.628 82.9151 141.461 83.0848L139.363 85.179L137.267 83.0848C137.097 82.9178 136.824 82.9178 136.657 83.0848C136.487 83.2518 136.487 83.5248 136.657 83.6945Z" fill="black"/>
<path d="M119.428 83.6945L121.523 85.7887L119.428 87.883C119.258 88.05 119.258 88.3231 119.428 88.4927C119.595 88.6624 119.868 88.6624 120.038 88.4927L122.134 86.3985L124.229 88.4927C124.399 88.6624 124.672 88.6624 124.839 88.4927C125.009 88.3257 125.009 88.0527 124.839 87.883L122.744 85.7887L124.839 83.6945C125.009 83.5248 125.009 83.2518 124.839 83.0848C124.672 82.9151 124.399 82.9151 124.229 83.0848L122.131 85.179L120.035 83.0848C119.866 82.9178 119.592 82.9178 119.425 83.0848C119.261 83.2518 119.261 83.5248 119.428 83.6945Z" fill="black"/>
<path d="M332.824 262.147L334.014 260.958L335.204 262.147C335.299 262.243 335.454 262.243 335.551 262.147C335.647 262.051 335.647 261.897 335.551 261.801L334.361 260.612L335.551 259.422C335.647 259.326 335.647 259.171 335.551 259.076C335.456 258.98 335.301 258.98 335.204 259.076L334.014 260.265L332.824 259.076C332.728 258.98 332.573 258.98 332.478 259.076C332.382 259.172 332.382 259.326 332.478 259.422L333.668 260.613L332.478 261.802C332.382 261.899 332.382 262.052 332.478 262.148C332.573 262.242 332.728 262.242 332.824 262.147Z" fill="black"/>
<path d="M332.824 271.922L334.014 270.733L335.204 271.922C335.299 272.017 335.454 272.017 335.551 271.922C335.647 271.826 335.647 271.673 335.551 271.576L334.361 270.387L335.551 269.198C335.647 269.103 335.647 268.948 335.551 268.852C335.456 268.757 335.301 268.757 335.204 268.852L334.014 270.041L332.824 268.85C332.728 268.754 332.573 268.754 332.478 268.85C332.382 268.946 332.382 269.1 332.478 269.196L333.668 270.387L332.478 271.576C332.382 271.673 332.382 271.826 332.478 271.922C332.573 272.019 332.728 272.019 332.824 271.922Z" fill="black"/>
<path d="M332.824 281.699L334.014 280.51L335.204 281.699C335.299 281.794 335.454 281.794 335.551 281.699C335.647 281.603 335.647 281.448 335.551 281.353L334.361 280.164L335.551 278.975C335.647 278.88 335.647 278.725 335.551 278.628C335.456 278.532 335.301 278.532 335.204 278.628L334.014 279.818L332.824 278.628C332.728 278.532 332.573 278.532 332.478 278.628C332.382 278.723 332.382 278.878 332.478 278.975L333.668 280.164L332.478 281.353C332.382 281.448 332.382 281.603 332.478 281.699C332.573 281.794 332.728 281.794 332.824 281.699Z" fill="black"/>
<path d="M332.824 291.475L334.014 290.285L335.204 291.475C335.299 291.569 335.454 291.569 335.551 291.475C335.647 291.378 335.647 291.223 335.551 291.128L334.361 289.939L335.551 288.75C335.647 288.654 335.647 288.5 335.551 288.404C335.456 288.309 335.301 288.309 335.204 288.404L334.014 289.593L332.824 288.404C332.728 288.307 332.573 288.307 332.478 288.404C332.382 288.499 332.382 288.654 332.478 288.75L333.668 289.941L332.478 291.13C332.382 291.225 332.382 291.38 332.478 291.476C332.573 291.571 332.728 291.571 332.824 291.475Z" fill="black"/>
<path d="M332.824 301.251L334.014 300.062L335.204 301.251C335.299 301.348 335.454 301.348 335.551 301.251C335.647 301.157 335.647 301.001 335.551 300.905L334.361 299.716L335.551 298.527C335.647 298.43 335.647 298.277 335.551 298.181C335.456 298.084 335.301 298.084 335.204 298.181L334.014 299.37L332.824 298.179C332.728 298.084 332.573 298.084 332.478 298.179C332.382 298.275 332.382 298.43 332.478 298.525L333.668 299.714L332.478 300.904C332.382 301 332.382 301.155 332.478 301.25C332.573 301.346 332.728 301.346 332.824 301.251Z" fill="black"/>
<path d="M332.824 311.027L334.014 309.838L335.204 311.027C335.299 311.124 335.454 311.124 335.551 311.027C335.647 310.933 335.647 310.777 335.551 310.681L334.361 309.492L335.551 308.303C335.647 308.206 335.647 308.051 335.551 307.957C335.456 307.86 335.301 307.86 335.204 307.957L334.014 309.146L332.824 307.957C332.728 307.86 332.573 307.86 332.478 307.957C332.382 308.051 332.382 308.206 332.478 308.303L333.668 309.492L332.478 310.681C332.382 310.777 332.382 310.933 332.478 311.027C332.573 311.124 332.728 311.124 332.824 311.027Z" fill="black"/>
<path d="M286.487 259.435L276.134 269.782L276.403 270.052L286.757 259.705L286.487 259.435Z" fill="black"/>
<path d="M293.402 258.016L274.721 276.684L274.991 276.953L293.671 258.285L293.402 258.016Z" fill="black"/>
<path d="M282.215 274.723L275.302 281.631L275.572 281.9L282.484 274.992L282.215 274.723Z" fill="black"/>
<path d="M298.34 258.609L291.427 265.517L291.697 265.786L298.609 258.878L298.34 258.609Z" fill="black"/>
<path d="M282.397 280.021L276.806 285.608L277.076 285.878L282.666 280.291L282.397 280.021Z" fill="black"/>
<path d="M302.334 260.11L296.744 265.697L297.013 265.967L302.604 260.38L302.334 260.11Z" fill="black"/>
<path d="M284.175 283.761L278.989 288.943L279.259 289.213L284.445 284.03L284.175 283.761Z" fill="black"/>
<path d="M305.657 262.28L300.472 267.461L300.741 267.731L305.926 262.549L305.657 262.28Z" fill="black"/>
<path d="M286.94 286.513L281.751 291.699L282.021 291.968L287.21 286.782L286.94 286.513Z" fill="black"/>
<path d="M308.405 265.036L303.217 270.221L303.487 270.49L308.675 265.306L308.405 265.036Z" fill="black"/>
<path d="M290.689 288.247L285.083 293.849L285.352 294.118L290.958 288.516L290.689 288.247Z" fill="black"/>
<path d="M310.579 268.382L304.974 273.982L305.244 274.252L310.848 268.651L310.579 268.382Z" fill="black"/>
<path d="M289.372 295.621L289.102 295.351L296.117 288.343H296.197V288.531H296.388L296.291 288.627L296.331 288.668L289.372 295.621Z" fill="black"/>
<path d="M305.257 279.668V279.478L305.067 279.477V279.398L312.08 272.388L312.35 272.658L305.448 279.556V279.668H305.257Z" fill="black"/>
<path d="M312.627 277.332L294.048 295.898L294.318 296.167L312.896 277.601L312.627 277.332Z" fill="black"/>
<path d="M311.155 284.332L301.041 294.439L301.31 294.709L311.424 284.601L311.155 284.332Z" fill="black"/>
<path opacity="0.5" d="M211.732 937.504C246.182 903.076 246.182 847.256 211.732 812.828C177.281 778.399 121.426 778.399 86.9753 812.828C52.5247 847.256 52.5247 903.076 86.9752 937.504C121.426 971.933 177.281 971.933 211.732 937.504Z" fill="#EAEAEA"/>
<path d="M82.4035 781.954C62.0288 781.954 45.5064 798.476 45.5064 818.851C45.5064 839.226 62.0288 855.748 82.4035 855.748C102.784 855.748 119.301 839.226 119.301 818.851C119.301 798.476 102.784 781.954 82.4035 781.954ZM82.4035 841.469C69.918 841.469 59.7912 831.342 59.7912 818.851C59.7912 806.36 69.918 796.239 82.4035 796.239C94.8947 796.239 105.022 806.36 105.022 818.851C105.022 831.342 94.8947 841.469 82.4035 841.469Z" fill="#590209"/>
<path d="M241.887 704.735C248.265 698.361 248.265 688.027 241.887 681.654C235.509 675.28 225.169 675.28 218.791 681.654C212.414 688.027 212.414 698.361 218.791 704.735C225.169 711.108 235.509 711.108 241.887 704.735Z" fill="black"/>
<path d="M0 664.326L23.9425 676.237L48.1637 664.186L72.3849 676.237L96.6003 664.186L120.822 676.237L145.043 664.186L167 675.112V671.746L145.043 660.821L120.822 672.872L96.6003 660.821L72.3849 672.872L48.1637 660.821L23.9425 672.872L0 660.961V664.326Z" fill="black"/>
<path d="M0 650.633L23.9425 662.545L48.1637 650.5L72.3849 662.545L96.6003 650.5L120.822 662.545L145.043 650.5L167 661.419V658.054L145.043 647.135L120.822 659.18L96.6003 647.135L72.3849 659.18L48.1637 647.135L23.9425 659.18L0 647.268V650.633Z" fill="black"/>
<path d="M0 636.945L23.9425 648.85L48.1637 636.806L72.3849 648.85L96.6003 636.806L120.822 648.85L145.043 636.806L167 647.725V644.366L145.043 633.44L120.822 645.485L96.6003 633.44L72.3849 645.485L48.1637 633.44L23.9425 645.485L0 633.58V636.945Z" fill="black"/>
<path d="M0 623.25L23.9425 635.162L48.1637 623.111L72.3849 635.162L96.6003 623.111L120.822 635.162L145.043 623.111L167 634.036V630.671L145.043 619.746L120.822 631.797L96.6003 619.746L72.3849 631.797L48.1637 619.746L23.9425 631.797L0 619.885V623.25Z" fill="black"/>
<path d="M326.678 978.06L331.265 982.644L326.678 987.227C326.307 987.593 326.307 988.19 326.678 988.562C327.05 988.927 327.642 988.927 328.014 988.562L332.6 983.978L337.187 988.562C337.558 988.927 338.156 988.927 338.522 988.562C338.894 988.196 338.894 987.599 338.522 987.227L333.936 982.644L338.522 978.06C338.894 977.689 338.894 977.091 338.522 976.726C338.15 976.354 337.558 976.354 337.187 976.726L332.594 981.309L328.008 976.726C327.636 976.36 327.044 976.36 326.673 976.726C326.313 977.091 326.313 977.689 326.678 978.06Z" fill="black"/>
<path d="M288.977 978.06L293.563 982.644L288.977 987.227C288.611 987.593 288.611 988.19 288.977 988.562C289.343 988.927 289.941 988.927 290.312 988.562L294.899 983.978L299.485 988.562C299.851 988.927 300.449 988.927 300.82 988.562C301.186 988.196 301.186 987.599 300.82 987.227L296.234 982.644L300.826 978.06C301.198 977.689 301.198 977.091 300.826 976.726C300.455 976.354 299.862 976.354 299.491 976.726L294.899 981.309L290.312 976.726C289.941 976.36 289.348 976.36 288.977 976.726C288.605 977.091 288.605 977.689 288.977 978.06Z" fill="black"/>
<path d="M251.269 978.06L255.855 982.644L251.269 987.227C250.903 987.593 250.903 988.19 251.269 988.562C251.641 988.927 252.239 988.927 252.604 988.562L257.191 983.978L261.777 988.562C262.143 988.927 262.741 988.927 263.112 988.562C263.484 988.196 263.484 987.599 263.112 987.227L258.526 982.644L263.112 978.06C263.484 977.689 263.484 977.091 263.112 976.726C262.747 976.354 262.149 976.354 261.777 976.726L257.191 981.309L252.604 976.726C252.239 976.36 251.641 976.36 251.269 976.726C250.903 977.091 250.903 977.689 251.269 978.06Z" fill="black"/>
<path d="M213.567 978.06L218.153 982.644L213.567 987.227C213.201 987.593 213.201 988.19 213.567 988.562C213.938 988.927 214.536 988.927 214.902 988.562L219.489 983.978L224.075 988.562C224.447 988.927 225.039 988.927 225.41 988.562C225.782 988.196 225.782 987.599 225.41 987.227L220.824 982.644L225.41 978.06C225.782 977.689 225.782 977.091 225.41 976.726C225.045 976.354 224.447 976.354 224.075 976.726L219.483 981.309L214.896 976.726C214.531 976.36 213.933 976.36 213.561 976.726C213.195 977.091 213.195 977.689 213.567 978.06Z" fill="black"/>
<path d="M175.859 978.06L180.446 982.644L175.859 987.227C175.488 987.593 175.488 988.19 175.859 988.562C176.225 988.927 176.823 988.927 177.195 988.562L181.781 983.978L186.368 988.562C186.739 988.927 187.331 988.927 187.703 988.562C188.074 988.196 188.074 987.599 187.703 987.227L183.116 982.644L187.709 978.06C188.074 977.689 188.074 977.091 187.709 976.726C187.337 976.354 186.739 976.354 186.373 976.726L181.781 981.309L177.195 976.726C176.823 976.36 176.225 976.36 175.859 976.726C175.494 977.091 175.494 977.689 175.859 978.06Z" fill="black"/>
<path d="M138.157 978.06L142.744 982.644L138.157 987.227C137.786 987.593 137.786 988.19 138.157 988.562C138.523 988.927 139.121 988.927 139.493 988.562L144.079 983.978L148.666 988.562C149.031 988.927 149.635 988.927 150.001 988.562C150.372 988.196 150.372 987.599 150.001 987.227L145.414 982.644L150.001 978.06C150.372 977.689 150.372 977.091 150.001 976.726C149.635 976.354 149.037 976.354 148.666 976.726L144.079 981.309L139.493 976.726C139.127 976.36 138.523 976.36 138.157 976.726C137.786 977.091 137.786 977.689 138.157 978.06Z" fill="black"/>
<path d="M248.472 772.204C249.846 769.827 249.032 766.787 246.654 765.413C244.275 764.04 241.233 764.854 239.859 767.231C238.485 769.608 239.299 772.648 241.678 774.021C244.056 775.395 247.098 774.581 248.472 772.204Z" fill="#590209"/>
<path d="M268.524 769.949V699.777H269.283V769.949H268.524Z" fill="black"/>
<path d="M263.043 769.948V699.776H263.802V769.948H263.043Z" fill="black"/>
<path d="M342.379 619.475C340.14 619.475 338.323 621.29 338.323 623.528C338.323 625.765 340.14 627.581 342.379 627.581C344.617 627.581 346.434 625.765 346.434 623.528C346.434 621.29 344.617 619.475 342.379 619.475Z" fill="#FD4C38"/>
<path d="M360.927 619.475C358.688 619.475 356.871 621.29 356.871 623.528C356.871 625.765 358.688 627.581 360.927 627.581C363.166 627.581 364.982 625.765 364.982 623.528C364.982 621.29 363.166 619.475 360.927 619.475Z" fill="#FD4C38"/>
<path d="M379.476 619.475C377.237 619.475 375.42 621.29 375.42 623.528C375.42 625.765 377.237 627.581 379.476 627.581C381.715 627.581 383.532 625.765 383.532 623.528C383.532 621.29 381.715 619.475 379.476 619.475Z" fill="#FD4C38"/>
<path d="M398.018 619.475C395.779 619.475 393.962 621.29 393.962 623.528C393.962 625.765 395.779 627.581 398.018 627.581C400.257 627.581 402.074 625.765 402.074 623.528C402.074 621.29 400.257 619.475 398.018 619.475Z" fill="#FD4C38"/>
<path d="M416.567 619.475C414.328 619.475 412.511 621.29 412.511 623.528C412.511 625.765 414.328 627.581 416.567 627.581C418.806 627.581 420.622 625.765 420.622 623.528C420.622 621.29 418.806 619.475 416.567 619.475Z" fill="#FD4C38"/>
<path d="M435.116 619.475C432.877 619.475 431.06 621.29 431.06 623.528C431.06 625.765 432.877 627.581 435.116 627.581C437.355 627.581 439.172 625.765 439.172 623.528C439.172 621.29 437.355 619.475 435.116 619.475Z" fill="#FD4C38"/>
<path d="M453.658 619.475C451.419 619.475 449.602 621.29 449.602 623.528C449.602 625.765 451.419 627.581 453.658 627.581C455.897 627.581 457.714 625.765 457.714 623.528C457.714 621.29 455.904 619.475 453.658 619.475Z" fill="#FD4C38"/>
<path d="M472.206 619.475C469.967 619.475 468.151 621.29 468.151 623.528C468.151 625.765 469.967 627.581 472.206 627.581C474.445 627.581 476.262 625.765 476.262 623.528C476.262 621.29 474.445 619.475 472.206 619.475Z" fill="#FD4C38"/>
<path d="M490.756 619.475C488.517 619.475 486.7 621.29 486.7 623.528C486.7 625.765 488.517 627.581 490.756 627.581C492.995 627.581 494.811 625.765 494.811 623.528C494.811 621.29 492.995 619.475 490.756 619.475Z" fill="#FD4C38"/>
<path d="M509.304 619.475C507.065 619.475 505.248 621.29 505.248 623.528C505.248 625.765 507.065 627.581 509.304 627.581C511.543 627.581 513.36 625.765 513.36 623.528C513.36 621.29 511.543 619.475 509.304 619.475Z" fill="#FD4C38"/>
<path d="M527.846 619.475C525.607 619.475 523.791 621.29 523.791 623.528C523.791 625.765 525.607 627.581 527.846 627.581C530.085 627.581 531.902 625.765 531.902 623.528C531.902 621.29 530.085 619.475 527.846 619.475Z" fill="#FD4C38"/>
<path d="M546.395 619.475C544.156 619.475 542.339 621.29 542.339 623.528C542.339 625.765 544.156 627.581 546.395 627.581C548.634 627.581 550.451 625.765 550.451 623.528C550.451 621.29 548.634 619.475 546.395 619.475Z" fill="#FD4C38"/>
<path d="M564.944 619.475C562.705 619.475 560.889 621.29 560.889 623.528C560.889 625.765 562.705 627.581 564.944 627.581C567.183 627.581 569 625.765 569 623.528C569 621.29 567.183 619.475 564.944 619.475Z" fill="#FD4C38"/>
<path d="M323.83 598.699C321.591 598.699 319.774 600.515 319.774 602.752C319.774 604.99 321.591 606.805 323.83 606.805C326.069 606.805 327.886 604.99 327.886 602.752C327.886 600.515 326.076 598.699 323.83 598.699Z" fill="#FD4C38"/>
<path d="M342.379 598.699C340.14 598.699 338.323 600.515 338.323 602.752C338.323 604.99 340.14 606.805 342.379 606.805C344.618 606.805 346.435 604.99 346.435 602.752C346.435 600.515 344.618 598.699 342.379 598.699Z" fill="#FD4C38"/>
<path d="M360.928 598.699C358.689 598.699 356.872 600.515 356.872 602.752C356.872 604.99 358.689 606.805 360.928 606.805C363.167 606.805 364.983 604.99 364.983 602.752C364.983 600.515 363.167 598.699 360.928 598.699Z" fill="#FD4C38"/>
<path d="M379.477 598.699C377.238 598.699 375.421 600.515 375.421 602.752C375.421 604.99 377.238 606.805 379.477 606.805C381.716 606.805 383.533 604.99 383.533 602.752C383.533 600.515 381.716 598.699 379.477 598.699Z" fill="#FD4C38"/>
<path d="M398.019 598.699C395.78 598.699 393.963 600.515 393.963 602.752C393.963 604.99 395.78 606.805 398.019 606.805C400.258 606.805 402.075 604.99 402.075 602.752C402.075 600.515 400.258 598.699 398.019 598.699Z" fill="#FD4C38"/>
<path d="M416.567 598.699C414.328 598.699 412.512 600.515 412.512 602.752C412.512 604.99 414.328 606.805 416.567 606.805C418.806 606.805 420.623 604.99 420.623 602.752C420.623 600.515 418.806 598.699 416.567 598.699Z" fill="#FD4C38"/>
<path d="M435.116 598.699C432.877 598.699 431.061 600.515 431.061 602.752C431.061 604.99 432.877 606.805 435.116 606.805C437.355 606.805 439.172 604.99 439.172 602.752C439.172 600.515 437.355 598.699 435.116 598.699Z" fill="#FD4C38"/>
<path d="M453.658 598.699C451.419 598.699 449.603 600.515 449.603 602.752C449.603 604.99 451.419 606.805 453.658 606.805C455.897 606.805 457.714 604.99 457.714 602.752C457.714 600.515 455.904 598.699 453.658 598.699Z" fill="#FD4C38"/>
<path d="M472.208 598.699C469.969 598.699 468.152 600.515 468.152 602.752C468.152 604.99 469.969 606.805 472.208 606.805C474.447 606.805 476.263 604.99 476.263 602.752C476.263 600.515 474.447 598.699 472.208 598.699Z" fill="#FD4C38"/>
<path d="M490.756 598.699C488.517 598.699 486.7 600.515 486.7 602.752C486.7 604.99 488.517 606.805 490.756 606.805C492.995 606.805 494.812 604.99 494.812 602.752C494.812 600.515 492.995 598.699 490.756 598.699Z" fill="#FD4C38"/>
<path d="M509.305 598.699C507.066 598.699 505.25 600.515 505.25 602.752C505.25 604.99 507.066 606.805 509.305 606.805C511.544 606.805 513.361 604.99 513.361 602.752C513.361 600.515 511.544 598.699 509.305 598.699Z" fill="#FD4C38"/>
<path d="M527.848 598.699C525.609 598.699 523.792 600.515 523.792 602.752C523.792 604.99 525.609 606.805 527.848 606.805C530.087 606.805 531.903 604.99 531.903 602.752C531.903 600.515 530.087 598.699 527.848 598.699Z" fill="#FD4C38"/>
<path d="M546.396 598.699C544.157 598.699 542.34 600.515 542.34 602.752C542.34 604.99 544.157 606.805 546.396 606.805C548.635 606.805 550.452 604.99 550.452 602.752C550.452 600.515 548.635 598.699 546.396 598.699Z" fill="#FD4C38"/>
<path d="M389.876 386C416.824 386 438.752 407.913 438.752 434.845C438.752 461.776 416.824 483.689 389.876 483.689C362.921 483.689 341 461.776 341 434.845C340.993 407.913 362.921 386 389.876 386ZM389.876 468.67C408.539 468.67 423.722 453.496 423.722 434.845C423.722 416.194 408.539 401.02 389.876 401.02C371.213 401.02 356.03 416.194 356.03 434.845C356.03 453.502 371.206 468.67 389.876 468.67Z" fill="#590209"/>
<path d="M195.704 1070.58L188.907 1056.93C184.523 1048.13 184.523 1037.78 188.907 1028.99L188.913 1028.98C193.298 1020.18 193.298 1009.84 188.913 1001.04V1001.03C184.529 992.229 184.529 981.885 188.913 973.089V973.082C193.298 964.279 193.298 953.935 188.913 945.139C184.529 936.336 184.529 925.992 188.913 917.196V917.19C193.298 908.387 193.298 898.043 188.913 889.247L183.256 877.885H187.144L192.801 889.247C197.186 898.05 197.186 908.393 192.801 917.19V917.196C188.417 925.999 188.417 936.343 192.801 945.139C197.186 953.942 197.186 964.286 192.801 973.082V973.089C188.417 981.892 188.417 992.235 192.801 1001.03V1001.04C197.186 1009.83 197.186 1020.18 192.801 1028.98L192.795 1028.99C188.411 1037.79 188.411 1048.13 192.795 1056.93L199.592 1070.58H195.704Z" fill="black"/>
<path d="M211.524 1070.58L204.727 1056.93C200.343 1048.13 200.343 1037.78 204.727 1028.99L204.734 1028.98C209.118 1020.18 209.118 1009.84 204.734 1001.04V1001.03C200.35 992.229 200.35 981.885 204.734 973.089V973.082C209.118 964.279 209.118 953.935 204.734 945.139C200.35 936.336 200.35 925.992 204.734 917.196V917.19C209.118 908.387 209.118 898.043 204.734 889.247L199.076 877.885H202.964L208.622 889.247C213.006 898.05 213.006 908.393 208.622 917.19V917.196C204.238 925.999 204.238 936.343 208.622 945.139C213.006 953.942 213.006 964.286 208.622 973.082V973.089C204.238 981.892 204.238 992.235 208.622 1001.03V1001.04C213.006 1009.83 213.006 1020.18 208.622 1028.98L208.615 1028.99C204.231 1037.79 204.231 1048.13 208.615 1056.93L215.413 1070.58H211.524Z" fill="black"/>
<path d="M227.345 1070.58L220.548 1056.93C216.164 1048.13 216.164 1037.78 220.548 1028.99L220.555 1028.98C224.939 1020.18 224.939 1009.84 220.555 1001.04V1001.03C216.17 992.229 216.17 981.885 220.555 973.089V973.082C224.939 964.279 224.939 953.935 220.555 945.139C216.17 936.336 216.17 925.992 220.555 917.196V917.19C224.939 908.387 224.939 898.043 220.555 889.247L214.897 877.885H218.785L224.443 889.247C228.827 898.05 228.827 908.393 224.443 917.19V917.196C220.058 925.999 220.058 936.343 224.443 945.139C228.827 953.942 228.827 964.286 224.443 973.082V973.089C220.058 981.892 220.058 992.235 224.443 1001.03V1001.04C228.827 1009.83 228.827 1020.18 224.443 1028.98L224.436 1028.99C220.052 1037.79 220.052 1048.13 224.436 1056.93L231.233 1070.58H227.345Z" fill="black"/>
<path d="M243.159 1070.59L236.361 1056.93C231.977 1048.13 231.977 1037.79 236.361 1028.99L236.368 1028.99C240.752 1020.19 240.752 1009.85 236.368 1001.04V1001.04C231.984 992.233 231.984 981.889 236.368 973.093C240.752 964.29 240.752 953.946 236.368 945.15C231.984 936.347 231.984 926.003 236.368 917.207V917.2C240.752 908.398 240.752 898.054 236.368 889.258L230.71 877.896H234.598L240.256 889.258C244.64 898.06 244.64 908.404 240.256 917.2V917.207C235.872 926.01 235.872 936.354 240.256 945.15C244.64 953.953 244.64 964.297 240.256 973.093V973.1C235.872 981.902 235.872 992.246 240.256 1001.04V1001.05C244.64 1009.85 244.64 1020.19 240.256 1028.99L240.249 1029C235.865 1037.8 235.865 1048.15 240.249 1056.94L247.047 1070.59H243.159V1070.59Z" fill="black"/>
</svg>
