<svg width="21" height="19" viewBox="0 0 21 19" fill="none" xmlns="http://www.w3.org/2000/svg">
<path d="M18.4173 9.58341L10.9173 17.0114L3.41729 9.58341C2.9226 9.10202 2.53294 8.52342 2.27284 7.88404C2.01275 7.24466 1.88785 6.55836 1.90603 5.86834C1.92421 5.17832 2.08506 4.49954 2.37845 3.87474C2.67185 3.24994 3.09143 2.69266 3.61078 2.23799C4.13013 1.78331 4.738 1.4411 5.3961 1.23289C6.05421 1.02468 6.7483 0.954991 7.43466 1.02821C8.12102 1.10143 8.78479 1.31596 9.38417 1.65831C9.98354 2.00066 10.5055 2.46341 10.9173 3.01741C11.3308 2.46743 11.8534 2.00873 12.4524 1.67001C13.0514 1.3313 13.7138 1.11986 14.3982 1.04893C15.0827 0.977998 15.7744 1.04911 16.4301 1.2578C17.0858 1.46649 17.6913 1.80828 18.2088 2.26177C18.7264 2.71526 19.1447 3.27069 19.4377 3.8933C19.7307 4.51591 19.892 5.19229 19.9116 5.88012C19.9312 6.56794 19.8086 7.2524 19.5514 7.89066C19.2943 8.52891 18.9082 9.10723 18.4173 9.58941" fill="#F4F2F2"/>
<path d="M18.4173 9.58341L10.9173 17.0114L3.41729 9.58341C2.9226 9.10202 2.53294 8.52342 2.27284 7.88404C2.01275 7.24466 1.88785 6.55836 1.90603 5.86834C1.92421 5.17832 2.08506 4.49954 2.37845 3.87474C2.67185 3.24994 3.09143 2.69266 3.61078 2.23799C4.13013 1.78331 4.738 1.4411 5.3961 1.23289C6.05421 1.02468 6.7483 0.954991 7.43466 1.02821C8.12102 1.10143 8.78479 1.31596 9.38417 1.65831C9.98354 2.00066 10.5055 2.46341 10.9173 3.01741C11.3308 2.46743 11.8534 2.00873 12.4524 1.67001C13.0514 1.3313 13.7138 1.11986 14.3982 1.04893C15.0827 0.977998 15.7744 1.04911 16.4301 1.2578C17.0858 1.46649 17.6913 1.80828 18.2088 2.26177C18.7264 2.71526 19.1447 3.27069 19.4377 3.8933C19.7307 4.51591 19.892 5.19229 19.9116 5.88012C19.9312 6.56794 19.8086 7.2524 19.5514 7.89066C19.2943 8.52891 18.9082 9.10723 18.4173 9.58941" stroke="#8B8A8A" stroke-width="2" stroke-linecap="round" stroke-linejoin="round"/>
</svg>
