<svg width="21" height="22" viewBox="0 0 21 22" fill="none" xmlns="http://www.w3.org/2000/svg">
<path d="M7.4375 6.875C7.4375 7.8415 6.654 8.625 5.6875 8.625C4.721 8.625 3.9375 7.8415 3.9375 6.875C3.9375 5.9085 4.721 5.125 5.6875 5.125C6.654 5.125 7.4375 5.9085 7.4375 6.875ZM2.1875 6.875C2.1875 8.808 3.7545 10.375 5.6875 10.375C7.6205 10.375 9.1875 8.808 9.1875 6.875C9.1875 4.942 7.6205 3.375 5.6875 3.375C3.7545 3.375 2.1875 4.942 2.1875 6.875ZM7.875 15.1875C7.875 13.9794 6.89562 13 5.6875 13C4.47938 13 3.5 13.9794 3.5 15.1875V17.375H7.875V15.1875ZM9.625 19.125H1.75V15.1875C1.75 13.0129 3.51288 11.25 5.6875 11.25C7.86212 11.25 9.625 13.0129 9.625 15.1875V19.125ZM17.0625 6.875C17.0625 7.8415 16.279 8.625 15.3125 8.625C14.346 8.625 13.5625 7.8415 13.5625 6.875C13.5625 5.9085 14.346 5.125 15.3125 5.125C16.279 5.125 17.0625 5.9085 17.0625 6.875ZM11.8125 6.875C11.8125 8.808 13.3795 10.375 15.3125 10.375C17.2455 10.375 18.8125 8.808 18.8125 6.875C18.8125 4.942 17.2455 3.375 15.3125 3.375C13.3795 3.375 11.8125 4.942 11.8125 6.875ZM17.5 15.1875C17.5 13.9794 16.5206 13 15.3125 13C14.1044 13 13.125 13.9794 13.125 15.1875V17.375H17.5V15.1875ZM11.375 17.375V15.1875C11.375 13.0129 13.1379 11.25 15.3125 11.25C17.4871 11.25 19.25 13.0129 19.25 15.1875V19.125H11.375V17.375Z" fill="white"/>
</svg>
