<svg width="62" height="62" viewBox="0 0 62 62" fill="none" xmlns="http://www.w3.org/2000/svg">
<circle cx="31" cy="31" r="31" fill="white"/>
<path d="M23.3076 31.3558C23.3092 31.4876 23.286 31.6184 23.2393 31.7405C23.1927 31.8626 23.1236 31.9735 23.0361 32.0667C22.9485 32.1599 22.8444 32.2335 22.7297 32.2831C22.615 32.3328 22.4922 32.3575 22.3684 32.3558H17.2029C17.0284 32.3543 16.8576 32.3024 16.7087 32.2055C16.5598 32.1086 16.4385 31.9705 16.3576 31.8058C16.2824 31.6382 16.2515 31.4519 16.268 31.267C16.2846 31.082 16.348 30.9054 16.4515 30.7558C17.2827 29.5679 18.3918 28.6326 19.6683 28.0433C19.1198 27.5088 18.6984 26.8431 18.4387 26.1012C18.179 25.3593 18.0886 24.5624 18.1747 23.7759C18.2609 22.9895 18.5212 22.2361 18.9342 21.5778C19.3473 20.9194 19.9013 20.3749 20.5506 19.9891C21.1999 19.6033 21.926 19.3871 22.6691 19.3585C23.4122 19.3299 24.1511 19.4895 24.8249 19.8243C25.4988 20.1592 26.0883 20.6596 26.545 21.2844C27.0017 21.9093 27.3125 22.6406 27.4518 23.4183C27.4865 23.6209 27.4624 23.8299 27.3827 24.0175C27.303 24.2051 27.1715 24.3624 27.0057 24.4683C25.4873 25.427 24.3325 26.922 23.742 28.6933C23.4509 29.5466 23.3039 30.448 23.3076 31.3558ZM45.1907 30.7558C44.3596 29.5679 43.2505 28.6326 41.974 28.0433C42.5225 27.5088 42.9439 26.8431 43.2036 26.1012C43.4633 25.3593 43.5537 24.5624 43.4676 23.7759C43.3814 22.9895 43.1211 22.2361 42.7081 21.5778C42.295 20.9194 41.741 20.3749 41.0917 19.9891C40.4424 19.6033 39.7163 19.3871 38.9731 19.3585C38.23 19.3299 37.4912 19.4895 36.8173 19.8243C36.1435 20.1592 35.554 20.6596 35.0973 21.2844C34.6406 21.9093 34.3298 22.6406 34.1905 23.4183C34.1558 23.6209 34.1798 23.8299 34.2595 24.0175C34.3393 24.2051 34.4708 24.3624 34.6366 24.4683C36.157 25.4246 37.3125 26.9204 37.9003 28.6933C38.1914 29.5466 38.3384 30.448 38.3347 31.3558C38.3331 31.4876 38.3563 31.6184 38.4029 31.7405C38.4496 31.8626 38.5187 31.9735 38.6062 32.0667C38.6938 32.1599 38.7979 32.2335 38.9126 32.2831C39.0272 32.3328 39.1501 32.3575 39.2738 32.3558H44.4394C44.6138 32.3558 44.7848 32.3041 44.9331 32.2065C45.0815 32.1089 45.2014 31.9692 45.2794 31.8031C45.3574 31.637 45.3904 31.451 45.3748 31.266C45.3591 31.0811 45.2954 30.9044 45.1907 30.7558ZM34.2492 36.1183C35.1839 35.3555 35.8706 34.3001 36.213 33.1003C36.5553 31.9005 36.536 30.6166 36.1577 29.4292C35.7795 28.2417 35.0613 27.2102 34.1041 26.4796C33.1469 25.7491 31.9988 25.3563 30.8211 25.3563C29.6435 25.3563 28.4954 25.7491 27.5382 26.4796C26.581 27.2102 25.8628 28.2417 25.4846 29.4292C25.1063 30.6166 25.087 31.9005 25.4293 33.1003C25.7716 34.3001 26.4584 35.3555 27.3931 36.1183C25.567 36.9816 24.0865 38.5047 23.2137 40.4183C23.1443 40.5704 23.1132 40.7391 23.1234 40.9079C23.1337 41.0766 23.1851 41.2396 23.2724 41.3808C23.3537 41.5257 23.4689 41.6457 23.6068 41.7289C23.7447 41.8122 23.9005 41.8559 24.059 41.8558H37.5833C37.7418 41.8559 37.8976 41.8122 38.0355 41.7289C38.1734 41.6457 38.2886 41.5257 38.3699 41.3808C38.4572 41.2396 38.5085 41.0766 38.5188 40.9079C38.5291 40.7391 38.498 40.5704 38.4286 40.4183C37.5557 38.5047 36.0753 36.9816 34.2492 36.1183Z" fill="#590209"/>
</svg>
