<svg width="145" height="141" viewBox="0 0 145 141" fill="none" xmlns="http://www.w3.org/2000/svg">
<path d="M129.016 92.677C131.75 85.9417 130.095 77.1628 123.809 73.3035C121.169 71.6855 117.818 70.9034 116.031 68.4143C112.065 62.2694 119.713 51.1616 118.749 43.1614C119.169 29.5809 114.25 23.5377 97.2252 22.3476C80.1998 21.1574 69.2091 31.1089 65.3436 33.308C56.8723 38.1271 45.8504 32.9947 36.3882 35.5013C27.9697 37.7296 22.0526 46.6722 23.4431 55.0677C24.5769 61.9058 29.8617 68.2167 28.464 75.0081C24.7568 87.4008 4.50664 93.7584 21.2656 108.412C30.0236 114.445 41.421 112.363 51.5072 112.926C58.7499 113.355 65.8139 115.18 72.9043 116.681C87.3118 120.423 103.295 119.913 113.627 108.298C119.357 103.124 125.933 100.269 129.016 92.677Z" fill="#FFDBBC"/>
<path d="M30.9451 105.814C25.3063 109.71 60.925 74.2178 60.925 74.2178C60.925 74.2178 78.807 80.9133 73.3014 86.2831C73.3014 86.2831 52.4142 106.91 47.2182 109.806C42.0221 112.702 56.9923 99.1901 52.7273 101.94C48.4623 104.69 58.486 93.1341 55.7782 94.8597C53.0704 96.5853 54.0182 93.3001 55.8982 91.1595C59.7373 87.4183 62.1284 84.6744 64.475 82.584L64.3923 82.5045C62.2723 84.7258 58.678 88.2729 55.8382 91.2284C43.5218 104.047 50.509 92.6068 48.4239 93.7187C46.3388 94.8305 48.7466 90.8017 47.7328 91.7592C46.7191 92.7167 36.585 101.92 30.9451 105.814Z" fill="#FDD24C" stroke="#C69A1E" stroke-width="3" stroke-miterlimit="10"/>
<path d="M71.6254 104.324L69.8258 102.576C74.7219 98.3355 81.6287 90.3504 81.8807 84.4242L94.9877 71.6551C95.5812 72.2332 96.386 72.558 97.2252 72.558C98.0644 72.558 98.8692 72.2332 99.4627 71.6551L100.015 72.1929C100.381 72.5497 100.671 72.9734 100.87 73.4397C101.068 73.906 101.17 74.4058 101.17 74.9105C101.17 75.4152 101.068 75.915 100.87 76.3813C100.671 76.8476 100.381 77.2713 100.015 77.6281L87.463 89.8594L71.6254 104.324Z" fill="#99D9F6" stroke="#3D9FC1" stroke-width="4" stroke-miterlimit="10"/>
<path d="M97.6355 71.3839C99.5083 73.2088 100.86 74.807 98.3901 77.752L72.1317 103.005L71.4119 102.304C78.879 94.9638 84.2777 87.8778 82.4626 81.9761L97.6355 71.3839Z" stroke="#3D9FC1" stroke-width="2.22" stroke-miterlimit="10" stroke-linecap="round" stroke-dasharray="2.22 24.42"/>
<path d="M42.4756 75.9177L44.2692 77.6655C48.6254 72.8955 56.8147 66.1649 62.9021 65.9194L76.0991 53.0497C75.819 52.7768 75.5967 52.4527 75.445 52.0961C75.2934 51.7394 75.2153 51.3571 75.2153 50.971C75.2153 50.585 75.2934 50.2027 75.445 49.846C75.5967 49.4894 75.819 49.1653 76.0991 48.8924L75.4429 48.2528C75.0767 47.8959 74.6419 47.6128 74.1634 47.4196C73.6849 47.2264 73.1721 47.127 72.6541 47.127C72.1362 47.127 71.6233 47.2264 71.1448 47.4196C70.6663 47.6128 70.2316 47.8959 69.8654 48.2528L57.3186 60.4842L42.4756 75.9177Z" fill="#99D9F6" stroke="#3D9FC1" stroke-width="4" stroke-miterlimit="10"/>
<path d="M76.1604 50.4567C74.0009 48.9894 72.4268 47.134 69.6254 49.7213L43.7065 75.3098L44.4264 76.0112C51.9571 68.7335 59.2286 63.4724 65.2848 65.239L76.1604 50.4567Z" stroke="#3D9FC1" stroke-width="2.22" stroke-miterlimit="10" stroke-linecap="round" stroke-dasharray="2.22 24.42"/>
<path d="M59.3116 73.6312L73.8699 87.818C73.6024 88.0787 73.2396 88.2252 72.8613 88.2252C72.4829 88.2252 72.1201 88.0787 71.8526 87.818L59.3117 75.5971C59.0441 75.3364 58.8938 74.9828 58.8938 74.6141C58.8938 74.2455 59.0441 73.8919 59.3116 73.6312Z" fill="#99D9F6" stroke="#3D9FC1" stroke-width="4" stroke-miterlimit="10"/>
<path d="M97.5827 73.1703L85.0539 82.2415L75.3541 89.2632L57.9689 72.3227L62.9465 65.7943L65.1756 62.8715L74.4843 50.6624C75.648 49.1344 77.3301 47.3608 79.42 45.5709L79.558 45.454C84.4625 41.2849 91.5552 37.0364 99.4734 35.5235C100.265 35.3715 101.068 35.2324 101.873 35.1038C108 34.1241 114.05 33.8178 114.47 34.2199C114.89 34.6221 114.417 39.9287 113.27 46.1976C113.142 46.899 113.004 47.6215 112.858 48.3464C111.279 56.1701 106.915 63.4198 102.685 68.3278C100.877 70.4053 99.1063 72.0666 97.5827 73.1703Z" fill="#E4F7FF" stroke="#81C4DB" stroke-width="4" stroke-miterlimit="10"/>
<path d="M78.0871 54.4083L67.2896 64.9303L65.1816 62.8703L74.4891 50.6612C75.6541 49.1332 77.3361 47.3608 79.426 45.5697C80.2074 46.9871 80.4997 48.612 80.2596 50.2038C80.0196 51.7957 79.2599 53.2699 78.0931 54.4083H78.0871Z" fill="#99D9F6" stroke="#3D9FC1" stroke-width="4" stroke-miterlimit="10"/>
<path d="M97.5815 73.1702L85.0527 82.2414L83.0132 80.2469L93.8107 69.7249C94.9512 68.6146 96.4209 67.8817 98.0122 67.63C99.6034 67.3782 101.236 67.6203 102.678 68.3219C100.877 70.4053 99.1063 72.0666 97.5815 73.1702Z" fill="#99D9F6" stroke="#3D9FC1" stroke-width="4" stroke-miterlimit="10"/>
<path d="M98.0973 57.5029C96.3466 57.5018 94.6505 56.9092 93.2978 55.8262C91.9452 54.7431 91.0197 53.2365 90.6791 51.5631C90.3384 49.8897 90.6037 48.1529 91.4297 46.6487C92.2557 45.1445 93.5913 43.9658 95.2089 43.3136C96.8266 42.6613 98.6264 42.5758 100.302 43.0716C101.977 43.5673 103.424 44.6137 104.396 46.0325C105.368 47.4513 105.806 49.1546 105.634 50.8524C105.462 52.5502 104.691 54.1374 103.453 55.3436C102.751 56.0304 101.916 56.5748 100.997 56.9454C100.078 57.3161 99.0921 57.5055 98.0973 57.5029Z" fill="#99D9F6"/>
<path d="M98.0974 42.972C99.7946 42.9731 101.439 43.5476 102.75 44.5977C104.062 45.6477 104.959 47.1084 105.289 48.7307C105.619 50.3531 105.361 52.0368 104.561 53.4949C103.76 54.9531 102.465 56.0956 100.896 56.7276C99.3277 57.3597 97.5829 57.4423 95.959 56.9613C94.3352 56.4803 92.9326 55.4655 91.9904 54.0899C91.0482 52.7142 90.6247 51.0627 90.7919 49.4168C90.9591 47.7709 91.7067 46.2325 92.9074 45.0635C93.5885 44.399 94.3977 43.8722 95.2883 43.5133C96.179 43.1543 97.1336 42.9704 98.0974 42.972ZM98.0974 42.5043C96.2913 42.506 94.5417 43.1178 93.1466 44.2355C91.7515 45.3532 90.7971 46.9076 90.446 48.634C90.095 50.3605 90.369 52.1521 91.2213 53.7037C92.0737 55.2554 93.4517 56.4711 95.1206 57.1438C96.7896 57.8165 98.6462 57.9046 100.374 57.3931C102.102 56.8815 103.595 55.802 104.598 54.3384C105.601 52.8747 106.052 51.1175 105.875 49.366C105.698 47.6145 104.903 45.9771 103.626 44.7326C102.901 44.0235 102.04 43.4615 101.091 43.079C100.142 42.6965 99.1243 42.5012 98.0974 42.5043Z" fill="#3D9FC1"/>
<path d="M98.0974 56.5735C97.0623 56.5739 96.0415 56.3378 95.1169 55.8843C94.1924 55.4307 93.3898 54.7723 92.7736 53.9618C92.1574 53.1513 91.7447 52.2113 91.5687 51.2173C91.3927 50.2233 91.4582 49.2029 91.76 48.2381C92.0619 47.2732 92.5916 46.3907 93.3067 45.6615C94.0219 44.9322 94.9024 44.3764 95.8778 44.0387C96.8532 43.7011 97.8962 43.5909 98.9232 43.7171C99.9502 43.8433 100.933 44.2023 101.791 44.7654C102.034 44.925 102.266 45.1 102.485 45.2891C102.584 45.3745 102.684 45.4657 102.781 45.5604C103.999 46.7398 104.697 48.3354 104.728 50.0084C104.758 51.6814 104.118 53.3 102.943 54.5205C102.892 54.5755 102.836 54.6316 102.78 54.6865C102.632 54.8303 102.478 54.9671 102.322 55.0934C101.133 56.0508 99.6393 56.5742 98.0974 56.5735Z" fill="#BAECFA"/>
<path d="M98.0974 43.9002C99.6559 43.8967 101.161 44.4523 102.326 45.461C102.424 45.544 102.518 45.6317 102.612 45.7229C103.781 46.8623 104.451 48.3993 104.48 50.0103C104.509 51.6213 103.895 53.1804 102.768 54.3591C102.718 54.4141 102.665 54.4667 102.611 54.5193C102.468 54.6573 102.32 54.7894 102.169 54.911C101.38 55.5481 100.446 55.9908 99.444 56.2017C98.4424 56.4125 97.4035 56.3854 96.415 56.1224C95.4265 55.8595 94.5174 55.3686 93.7647 54.6911C93.0119 54.0136 92.4376 53.1695 92.0902 52.2302C91.7428 51.2908 91.6326 50.2837 91.7688 49.294C91.905 48.3044 92.2837 47.3612 92.8729 46.5442C93.462 45.7273 94.2443 45.0605 95.1537 44.6003C96.063 44.1401 97.0727 43.9 98.0974 43.9002ZM98.0974 43.4326C96.9958 43.4322 95.9104 43.6902 94.9327 44.1848C93.9551 44.6795 93.114 45.3962 92.4805 46.2744C91.8471 47.1526 91.4399 48.1665 91.2934 49.2304C91.1469 50.2944 91.2653 51.377 91.6388 52.3869C92.0122 53.3968 92.6296 54.3042 93.4388 55.0326C94.248 55.7609 95.2253 56.2887 96.288 56.5713C97.3507 56.8539 98.4676 56.8831 99.5443 56.6564C100.621 56.4297 101.626 55.9537 102.474 55.2687C102.636 55.1389 102.796 54.9963 102.954 54.8478C103.019 54.7847 103.074 54.7309 103.125 54.6725C104.336 53.4054 104.995 51.7298 104.963 49.9987C104.932 48.2676 104.212 46.6161 102.955 45.392C102.854 45.295 102.751 45.2003 102.648 45.1102C102.42 44.9151 102.18 44.7343 101.928 44.5689C100.797 43.8262 99.4637 43.4304 98.0998 43.4326H98.0974Z" fill="#3D9FC1"/>
<g style="mix-blend-mode:soft-light">
<path d="M102.613 54.5193C102.47 54.6573 102.323 54.7894 102.172 54.911C101.08 54.6179 100.11 53.9969 99.4008 53.136C98.6917 52.2752 98.2791 51.2184 98.2217 50.1159C98.1643 49.0135 98.465 47.9214 99.0811 46.995C99.6972 46.0687 100.597 45.3552 101.653 44.9559C101.887 45.1096 102.111 45.2784 102.322 45.461C102.419 45.544 102.514 45.6317 102.607 45.7229C103.776 46.8623 104.446 48.3993 104.475 50.0103C104.504 51.6213 103.89 53.1804 102.763 54.3591C102.718 54.4141 102.665 54.4667 102.613 54.5193Z" fill="#D3EDF2"/>
</g>
<path d="M113.256 46.1929C110.314 41.7498 106.434 37.969 101.874 35.1026C108.001 34.1229 114.051 33.8166 114.471 34.2188C114.891 34.6209 114.406 39.924 113.256 46.1929Z" fill="#99D9F6" stroke="#3D9FC1" stroke-width="4" stroke-miterlimit="10"/>
<path d="M102.441 66.6992L102.348 66.7917L102.217 66.7659" stroke="#3D9FC1" stroke-width="2.22" stroke-miterlimit="10" stroke-linecap="round"/>
<path d="M99.2635 66.4595C97.5179 66.4712 95.9967 66.8909 94.4178 67.7935L83.012 78.9083" stroke="#3D9FC1" stroke-width="2.22" stroke-miterlimit="10" stroke-linecap="round" stroke-dasharray="2.25 24.79"/>
<path d="M81.9603 79.9336L81.8663 80.0249L81.9603 80.1174" stroke="#3D9FC1" stroke-width="2.22" stroke-miterlimit="10" stroke-linecap="round"/>
<path d="M83.8313 81.9398L83.9241 82.0311L83.8158 82.1049" stroke="#3D9FC1" stroke-width="2.22" stroke-miterlimit="10" stroke-linecap="round"/>
<path d="M81.15 83.8817L76.6666 86.87" stroke="#3D9FC1" stroke-width="2.22" stroke-miterlimit="10" stroke-linecap="round" stroke-dasharray="2.45 26.92"/>
<path d="M75.3348 87.7574L75.2245 87.8311L75.1298 87.7398" stroke="#3D9FC1" stroke-width="2.22" stroke-miterlimit="10" stroke-linecap="round"/>
<path d="M73.0171 85.6798L60.2436 73.2322" stroke="#3D9FC1" stroke-width="2.22" stroke-miterlimit="10" stroke-linecap="round" stroke-dasharray="2.26 24.91"/>
<path d="M59.1858 72.2024L59.093 72.1111L59.1728 72.0081" stroke="#3D9FC1" stroke-width="2.22" stroke-miterlimit="10" stroke-linecap="round"/>
<path d="M61.0174 69.6722L64.1175 65.7452" stroke="#3D9FC1" stroke-width="2.22" stroke-miterlimit="10" stroke-linecap="round" stroke-dasharray="2.29 25.2"/>
<path d="M65.0401 64.5774L65.1204 64.4744L65.2151 64.5668" stroke="#3D9FC1" stroke-width="2.22" stroke-miterlimit="10" stroke-linecap="round"/>
<path d="M67.1192 66.4221L67.2139 66.5146L67.3074 66.4221" stroke="#3D9FC1" stroke-width="2.22" stroke-miterlimit="10" stroke-linecap="round"/>
<path d="M69.5007 64.2838L80.7001 53.3713C81.6599 51.3323 81.7619 49.3963 81.4524 47.362" stroke="#3D9FC1" stroke-width="2.22" stroke-miterlimit="10" stroke-linecap="round" stroke-dasharray="2.35 25.86"/>
<path d="M81.1654 45.8774L81.138 45.7499L81.232 45.6586" stroke="#3D9FC1" stroke-width="2.22" stroke-miterlimit="10" stroke-linecap="round"/>
<path d="M83.5147 43.8441C88.8175 40.1766 97.8706 36.6798 101.878 36.3279C105.769 39.2177 109.244 42.6033 112.211 46.394C111.821 50.6028 107.514 60.7028 103.418 65.6224" stroke="#3D9FC1" stroke-width="2.22" stroke-miterlimit="10" stroke-linecap="round" stroke-dasharray="2.24 24.62"/>
<path d="M78.5835 48.9329C78.7894 48.9329 78.9563 48.77 78.9563 48.5689C78.9563 48.3679 78.7894 48.2049 78.5835 48.2049C78.3776 48.2049 78.2107 48.3679 78.2107 48.5689C78.2107 48.77 78.3776 48.9329 78.5835 48.9329Z" fill="#3D9FC1"/>
<path d="M67.0325 63.3879C67.2384 63.3879 67.4054 63.2249 67.4054 63.0239C67.4054 62.8229 67.2384 62.6599 67.0325 62.6599C66.8266 62.6599 66.6597 62.8229 66.6597 63.0239C66.6597 63.2249 66.8266 63.3879 67.0325 63.3879Z" fill="#3D9FC1"/>
<path d="M99.7455 69.5562C99.9514 69.5562 100.118 69.3932 100.118 69.1922C100.118 68.9911 99.9514 68.8282 99.7455 68.8282C99.5396 68.8282 99.3727 68.9911 99.3727 69.1922C99.3727 69.3932 99.5396 69.5562 99.7455 69.5562Z" fill="#3D9FC1"/>
<path d="M84.9121 80.8113C85.118 80.8113 85.2849 80.6483 85.2849 80.4473C85.2849 80.2462 85.118 80.0833 84.9121 80.0833C84.7062 80.0833 84.5392 80.2462 84.5392 80.4473C84.5392 80.6483 84.7062 80.8113 84.9121 80.8113Z" fill="#3D9FC1"/>
<path d="M87.7366 60.2223C87.4952 59.9872 87.1678 59.8551 86.8266 59.8551C86.4853 59.8551 86.158 59.9872 85.9166 60.2223L71.4815 74.2856L56.6384 89.718L57.4626 90.5211L73.299 76.0568L87.7366 61.9958C87.9775 61.7605 88.1128 61.4415 88.1128 61.1091C88.1128 60.7766 87.9775 60.4577 87.7366 60.2223Z" fill="#99D9F6" stroke="#3D9FC1" stroke-width="4" stroke-miterlimit="10"/>
<path d="M86.6568 61.2698L57.6522 89.5344" stroke="#3D9FC1" stroke-width="2.22" stroke-miterlimit="10" stroke-linecap="round" stroke-dasharray="2.22 24.42"/>
<path d="M104.462 35.7036L104.352 35.6322L104.484 35.6217" stroke="#3D9FC1" stroke-width="2.22" stroke-miterlimit="10" stroke-linecap="round"/>
<path d="M107.348 35.3953L112.165 35.0114" stroke="#3D9FC1" stroke-width="2.22" stroke-miterlimit="10" stroke-linecap="round" stroke-dasharray="2.18 23.95"/>
<path d="M113.597 34.898L113.729 34.8875L113.714 35.0163" stroke="#3D9FC1" stroke-width="2.22" stroke-miterlimit="10" stroke-linecap="round"/>
<path d="M113.409 37.7355L112.896 42.3067" stroke="#3D9FC1" stroke-width="2.22" stroke-miterlimit="10" stroke-linecap="round" stroke-dasharray="2.13 23.39"/>
<path d="M112.742 43.6664L112.727 43.7952L112.656 43.6875" stroke="#3D9FC1" stroke-width="2.22" stroke-miterlimit="10" stroke-linecap="round"/>
<path d="M111.042 41.5433C109.444 39.6379 107.61 37.9329 105.581 36.467" stroke="#3D9FC1" stroke-width="2.22" stroke-miterlimit="10" stroke-linecap="round" stroke-dasharray="2.07 22.74"/>
<path d="M100.833 48.0202H95.368" stroke="white" stroke-width="1.11" stroke-miterlimit="10" stroke-linecap="round"/>
<path d="M101.908 50.2871H94.6302" stroke="white" stroke-width="1.11" stroke-miterlimit="10" stroke-linecap="round"/>
<path d="M101.239 52.5552H95.6356" stroke="white" stroke-width="1.11" stroke-miterlimit="10" stroke-linecap="round"/>
<path d="M93.8479 62.6272C93.8216 62.6272 93.7956 62.6222 93.7713 62.6123C93.747 62.6025 93.7249 62.5881 93.7064 62.5699L85.3586 54.4352C85.3401 54.4171 85.3254 54.3957 85.3154 54.3721C85.3053 54.3486 85.3002 54.3233 85.3002 54.2978C85.3002 54.2723 85.3053 54.247 85.3154 54.2234C85.3254 54.1998 85.3401 54.1784 85.3586 54.1604L86.5752 52.9749C86.5936 52.9567 86.6155 52.9423 86.6397 52.9324C86.6639 52.9225 86.6899 52.9174 86.7161 52.9174C86.7424 52.9174 86.7683 52.9225 86.7925 52.9324C86.8167 52.9423 86.8387 52.9567 86.8571 52.9749L95.206 61.1096C95.2245 61.1277 95.2393 61.1491 95.2493 61.1727C95.2593 61.1962 95.2645 61.2215 95.2645 61.247C95.2645 61.2725 95.2593 61.2978 95.2493 61.3214C95.2393 61.3449 95.2245 61.3664 95.206 61.3844L93.9895 62.5699C93.971 62.5882 93.949 62.6027 93.9247 62.6125C93.9003 62.6223 93.8743 62.6273 93.8479 62.6272Z" fill="#80BFA3"/>
<path d="M86.7167 53.1117L95.0645 61.2476L93.8479 62.4331L85.5002 54.2972L86.7167 53.1117ZM86.7167 52.7224C86.664 52.7226 86.6117 52.7331 86.5631 52.7532C86.5145 52.7732 86.4705 52.8025 86.4336 52.8393L85.2171 54.0225C85.18 54.0586 85.1505 54.1015 85.1305 54.1488C85.1104 54.196 85.1 54.2467 85.1 54.2978C85.1 54.3489 85.1104 54.3996 85.1305 54.4468C85.1505 54.494 85.18 54.537 85.2171 54.5731L93.566 62.7078C93.6029 62.7441 93.6468 62.7729 93.6952 62.7925C93.7436 62.8122 93.7955 62.8223 93.8479 62.8223C93.9003 62.8223 93.9522 62.8122 94.0006 62.7925C94.049 62.7729 94.0929 62.7441 94.1299 62.7078L95.3464 61.5223C95.3838 61.4864 95.4135 61.4435 95.4337 61.3962C95.454 61.349 95.4644 61.2982 95.4644 61.247C95.4644 61.1958 95.454 61.1451 95.4337 61.0978C95.4135 61.0506 95.3838 61.0077 95.3464 60.9717L86.9987 52.837C86.9619 52.8003 86.9181 52.7711 86.8697 52.751C86.8213 52.731 86.7693 52.7204 86.7167 52.7201V52.7224Z" fill="#590209"/>
<path d="M41.6178 101.741C42.2177 101.54 42.3952 102.32 40.1301 103.71C37.8651 105.1 40.7912 102.018 41.6178 101.741Z" fill="#FDD24C" stroke="#C69A1E" stroke-width="3" stroke-miterlimit="10"/>
<path d="M50.1179 99.1083C50.8989 98.747 50.9757 99.6928 47.8924 101.848C44.8091 104.002 49.0358 99.611 50.1179 99.1083Z" fill="#FDD24C" stroke="#C69A1E" stroke-width="2.78" stroke-miterlimit="10"/>
<path d="M70.6668 91.4482C70.776 90.9362 70.1869 90.9186 69.3087 92.9681C68.4305 95.0176 70.5156 92.1591 70.6668 91.4482Z" fill="#FDD24C" stroke="#C69A1E" stroke-width="2.78" stroke-miterlimit="10"/>
<path d="M55.6258 76.9091C55.9726 76.5093 55.4639 76.2205 53.6895 77.6106C51.9151 79.0007 55.1459 77.4633 55.6258 76.9091Z" fill="#FDD24C" stroke="#C69A1E" stroke-width="2.78" stroke-miterlimit="10"/>
<path d="M82.5033 34.1825L80.9641 35.5855C80.9299 35.6162 80.9053 35.6556 80.8931 35.6994C80.8809 35.7431 80.8816 35.7893 80.8952 35.8326C80.9087 35.876 80.9345 35.9147 80.9696 35.9444C81.0047 35.9741 81.0477 35.9935 81.0936 36.0005H81.102C81.1445 36.0089 81.1884 36.0073 81.2301 35.9959C81.2718 35.9845 81.3102 35.9637 81.342 35.935L86.6292 31.1007C86.6573 31.0769 86.6793 31.0471 86.6935 31.0135C86.7077 30.98 86.7137 30.9437 86.711 30.9075C86.7083 30.8714 86.697 30.8363 86.678 30.8051C86.6591 30.7739 86.6329 30.7474 86.6016 30.7278C86.5508 30.6933 86.4894 30.6768 86.4276 30.6811C86.3658 30.6853 86.3074 30.7101 86.2621 30.7512L84.069 32.7527" fill="#80BFA3"/>
<path d="M82.5033 34.1825L80.9641 35.5855C80.9299 35.6162 80.9053 35.6556 80.8931 35.6994C80.8809 35.7431 80.8816 35.7893 80.8952 35.8326C80.9087 35.876 80.9345 35.9147 80.9696 35.9444C81.0047 35.9741 81.0477 35.9935 81.0936 36.0005H81.102C81.1445 36.0089 81.1884 36.0073 81.2301 35.9959C81.2718 35.9845 81.3102 35.9637 81.342 35.935L86.6292 31.1007C86.6573 31.0769 86.6793 31.0471 86.6935 31.0135C86.7077 30.98 86.7137 30.9437 86.711 30.9075C86.7083 30.8714 86.697 30.8363 86.678 30.8051C86.6591 30.7739 86.6329 30.7474 86.6016 30.7278C86.5508 30.6933 86.4894 30.6768 86.4276 30.6811C86.3658 30.6853 86.3074 30.7101 86.2621 30.7512L84.069 32.7527" stroke="#590209" stroke-width="1.11" stroke-linecap="round" stroke-linejoin="round"/>
<path d="M32.8574 87.5843L35.0349 85.5442C35.0625 85.52 35.084 85.49 35.0976 85.4564C35.1113 85.4227 35.1168 85.3865 35.1136 85.3505C35.1105 85.3144 35.0988 85.2796 35.0795 85.2487C35.0603 85.2178 35.0339 85.1917 35.0025 85.1724C34.951 85.1383 34.8891 85.1224 34.827 85.1275C34.765 85.1326 34.7066 85.1584 34.6618 85.2005L32.5023 87.2359" fill="#80BFA3"/>
<path d="M32.8574 87.5843L35.0349 85.5442C35.0625 85.52 35.084 85.49 35.0976 85.4564C35.1113 85.4227 35.1168 85.3865 35.1136 85.3505C35.1105 85.3144 35.0988 85.2796 35.0795 85.2487C35.0603 85.2178 35.0339 85.1917 35.0025 85.1724C34.951 85.1383 34.8891 85.1224 34.827 85.1275C34.765 85.1326 34.7066 85.1584 34.6618 85.2005L32.5023 87.2359" stroke="#590209" stroke-width="1.11" stroke-linecap="round" stroke-linejoin="round"/>
<path d="M97.8719 91.5195L99.7914 89.566C99.821 89.5442 99.845 89.516 99.8615 89.4836C99.878 89.4513 99.8866 89.4156 99.8866 89.3795C99.8866 89.3433 99.878 89.3077 99.8615 89.2753C99.845 89.243 99.821 89.2148 99.7914 89.193C99.7432 89.155 99.6831 89.1343 99.6211 89.1343C99.5591 89.1343 99.4989 89.155 99.4507 89.193L90.9326 97.8234C90.8962 97.8515 90.8687 97.889 90.8531 97.9316C90.8375 97.9742 90.8346 98.0202 90.8446 98.0643C90.8546 98.1085 90.8772 98.149 90.9097 98.1813C90.9423 98.2135 90.9835 98.2362 91.0286 98.2467H91.037C91.0781 98.2574 91.1211 98.2586 91.1628 98.2503C91.2044 98.242 91.2435 98.2243 91.277 98.1987L95.4664 93.9501" fill="#80BFA3"/>
<path d="M97.8719 91.5195L99.7914 89.566C99.821 89.5442 99.845 89.516 99.8615 89.4836C99.878 89.4513 99.8866 89.4156 99.8866 89.3795C99.8866 89.3433 99.878 89.3077 99.8615 89.2753C99.845 89.243 99.821 89.2148 99.7914 89.193C99.7432 89.155 99.6831 89.1343 99.6211 89.1343C99.5591 89.1343 99.4989 89.155 99.4507 89.193L90.9326 97.8234C90.8962 97.8515 90.8687 97.889 90.8531 97.9316C90.8375 97.9742 90.8346 98.0202 90.8446 98.0643C90.8546 98.1085 90.8772 98.149 90.9097 98.1813C90.9423 98.2135 90.9835 98.2362 91.0286 98.2467H91.037C91.0781 98.2574 91.1211 98.2586 91.1628 98.2503C91.2044 98.242 91.2435 98.2243 91.277 98.1987L95.4664 93.9501" stroke="#590209" stroke-width="1.11" stroke-linecap="round" stroke-linejoin="round"/>
<path d="M82.5033 34.1825L80.9641 35.5855C80.9299 35.6162 80.9053 35.6556 80.8931 35.6994C80.8809 35.7431 80.8816 35.7893 80.8952 35.8326C80.9087 35.876 80.9345 35.9147 80.9696 35.9444C81.0047 35.9741 81.0477 35.9935 81.0936 36.0005H81.102C81.1445 36.0089 81.1884 36.0073 81.2301 35.9959C81.2718 35.9845 81.3102 35.9637 81.342 35.935L86.6292 31.1007C86.6573 31.0769 86.6793 31.0471 86.6935 31.0135C86.7077 30.98 86.7137 30.9437 86.711 30.9075C86.7083 30.8714 86.697 30.8363 86.678 30.8051C86.6591 30.7739 86.6329 30.7474 86.6016 30.7278C86.5508 30.6933 86.4894 30.6768 86.4276 30.6811C86.3658 30.6853 86.3074 30.7101 86.2621 30.7512L84.069 32.7527" fill="#80BFA3"/>
<path d="M82.5033 34.1825L80.9641 35.5855C80.9299 35.6162 80.9053 35.6556 80.8931 35.6994C80.8809 35.7431 80.8816 35.7893 80.8952 35.8326C80.9087 35.876 80.9345 35.9147 80.9696 35.9444C81.0047 35.9741 81.0477 35.9935 81.0936 36.0005H81.102C81.1445 36.0089 81.1884 36.0073 81.2301 35.9959C81.2718 35.9845 81.3102 35.9637 81.342 35.935L86.6292 31.1007C86.6573 31.0769 86.6793 31.0471 86.6935 31.0135C86.7077 30.98 86.7137 30.9437 86.711 30.9075C86.7083 30.8714 86.697 30.8363 86.678 30.8051C86.6591 30.7739 86.6329 30.7474 86.6016 30.7278C86.5508 30.6933 86.4894 30.6768 86.4276 30.6811C86.3658 30.6853 86.3074 30.7101 86.2621 30.7512L84.069 32.7527" stroke="#590209" stroke-width="1.11" stroke-linecap="round" stroke-linejoin="round"/>
<path d="M32.8574 87.5843L35.0349 85.5442C35.0625 85.52 35.084 85.49 35.0976 85.4564C35.1113 85.4227 35.1168 85.3865 35.1136 85.3505C35.1105 85.3144 35.0988 85.2796 35.0795 85.2487C35.0603 85.2178 35.0339 85.1917 35.0025 85.1724C34.951 85.1383 34.8891 85.1224 34.827 85.1275C34.765 85.1326 34.7066 85.1584 34.6618 85.2005L32.5023 87.2359" fill="#80BFA3"/>
<path d="M32.8574 87.5843L35.0349 85.5442C35.0625 85.52 35.084 85.49 35.0976 85.4564C35.1113 85.4227 35.1168 85.3865 35.1136 85.3505C35.1105 85.3144 35.0988 85.2796 35.0795 85.2487C35.0603 85.2178 35.0339 85.1917 35.0025 85.1724C34.951 85.1383 34.8891 85.1224 34.827 85.1275C34.765 85.1326 34.7066 85.1584 34.6618 85.2005L32.5023 87.2359" stroke="#590209" stroke-width="1.11" stroke-linecap="round" stroke-linejoin="round"/>
<path d="M97.8719 91.5195L99.7914 89.566C99.821 89.5442 99.845 89.516 99.8615 89.4836C99.878 89.4513 99.8866 89.4156 99.8866 89.3795C99.8866 89.3433 99.878 89.3077 99.8615 89.2753C99.845 89.243 99.821 89.2148 99.7914 89.193C99.7432 89.155 99.6831 89.1343 99.6211 89.1343C99.5591 89.1343 99.4989 89.155 99.4507 89.193L90.9326 97.8234C90.8962 97.8515 90.8687 97.889 90.8531 97.9316C90.8375 97.9742 90.8346 98.0202 90.8446 98.0643C90.8546 98.1085 90.8772 98.149 90.9097 98.1813C90.9423 98.2135 90.9835 98.2362 91.0286 98.2467H91.037C91.0781 98.2574 91.1211 98.2586 91.1628 98.2503C91.2044 98.242 91.2435 98.2243 91.277 98.1987L95.4664 93.9501" fill="#80BFA3"/>
<path d="M97.8719 91.5195L99.7914 89.566C99.821 89.5442 99.845 89.516 99.8615 89.4836C99.878 89.4513 99.8866 89.4156 99.8866 89.3795C99.8866 89.3433 99.878 89.3077 99.8615 89.2753C99.845 89.243 99.821 89.2148 99.7914 89.193C99.7432 89.155 99.6831 89.1343 99.6211 89.1343C99.5591 89.1343 99.4989 89.155 99.4507 89.193L90.9326 97.8234C90.8962 97.8515 90.8687 97.889 90.8531 97.9316C90.8375 97.9742 90.8346 98.0202 90.8446 98.0643C90.8546 98.1085 90.8772 98.149 90.9097 98.1813C90.9423 98.2135 90.9835 98.2362 91.0286 98.2467H91.037C91.0781 98.2574 91.1211 98.2586 91.1628 98.2503C91.2044 98.242 91.2435 98.2243 91.277 98.1987L95.4664 93.9501" stroke="#590209" stroke-width="1.11" stroke-linecap="round" stroke-linejoin="round"/>
<g style="mix-blend-mode:soft-light" opacity="0.7">
<path d="M114.628 34.0516C114.553 33.9779 114.36 33.7909 112.589 33.8096C111.33 33.8178 109.611 33.9265 107.748 34.1124H107.726L107.442 34.1405C105.882 34.2959 104.266 34.4982 102.706 34.732L102.455 34.7694L102.312 34.7917L101.832 34.8676C101.002 34.9998 100.193 35.1412 99.4326 35.2874C90.2163 37.0469 83.0204 42.2155 79.4932 45.1991L79.4848 45.2073C79.4572 45.2295 79.4284 45.2529 79.402 45.2763L79.3372 45.3324L79.3 45.3652L79.2676 45.392C78.667 45.908 78.0939 46.4263 77.5484 46.947L77.4788 47.0124C77.4464 47.0428 77.4164 47.0732 77.3841 47.1048C77.0793 47.3982 76.7842 47.6894 76.4999 47.9851C76.3391 48.1512 76.1831 48.3172 76.0296 48.482L75.6193 48.088C74.8347 47.3236 73.7707 46.8942 72.6613 46.8942C71.5519 46.8942 70.4879 47.3236 69.7034 48.088L57.1435 60.3287L42.1469 75.9235L44.2836 78.0057L44.4515 77.821C49.2684 72.5401 56.8087 66.774 62.3467 66.1941L57.6569 72.3449L58.991 73.6438C58.7508 73.9551 58.6334 74.3402 58.6602 74.7289C58.6871 75.1176 58.8565 75.4839 59.1374 75.761C56.4236 78.4664 50.7969 84.1132 45.2662 89.7554C40.7792 94.329 37.228 98.0058 34.723 100.682C29.8916 105.835 30.0596 106.027 30.2216 106.212C30.3835 106.397 30.6163 106.257 31.053 105.956C36.4518 102.225 46.1695 93.4521 47.7472 91.9814C47.7196 92.0714 47.6884 92.1684 47.6596 92.2561C47.4401 92.9342 47.1917 93.7023 47.5468 93.9876C47.8108 94.198 48.2235 94.0192 48.5066 93.8707C48.5513 93.8438 48.6004 93.8248 48.6518 93.8146C48.7286 93.9712 48.5438 94.6809 48.4214 95.1544C48.1491 96.2066 47.8924 97.1921 48.413 97.4692C48.9109 97.7346 50.0531 97.343 54.546 92.8044C53.975 93.8695 53.7158 94.8925 54.1009 95.3204C54.4117 95.6641 55.0091 95.5542 55.8777 95.0047C55.9461 94.9615 55.9977 94.9299 56.0421 94.9089C55.8502 95.3975 54.8724 96.7794 54.0686 97.917C51.8862 101.006 51.2192 102.094 51.5743 102.446C51.7675 102.638 52.131 102.533 52.828 102.084C52.9624 101.997 53.068 101.933 53.1532 101.885C52.6913 102.487 51.41 103.819 50.2558 105.019C46.7262 108.69 45.6777 109.896 45.9932 110.28C46.0218 110.315 46.0585 110.342 46.1003 110.36C46.142 110.378 46.1876 110.386 46.2331 110.383C46.4467 110.383 46.7814 110.245 47.3129 109.952C49.4796 108.743 54.5352 104.413 62.3371 97.0787C66.1666 93.479 69.749 90.0056 71.7585 88.0426C72.0443 88.2926 72.4103 88.4384 72.794 88.455C73.1777 88.4716 73.5554 88.3581 73.8629 88.1338L75.191 89.428L75.3361 89.5707L81.6011 85.0357C80.9604 90.4206 75.0734 97.7288 69.6782 102.402L69.4887 102.565L71.6254 104.648L87.6321 90.0243L100.184 77.793C100.968 77.0285 101.409 75.9916 101.409 74.9105C101.409 73.8294 100.968 72.7926 100.184 72.028L99.7962 71.6504C99.9233 71.5335 100.05 71.4166 100.178 71.2997L100.233 71.2482C101.094 70.4299 101.975 69.4946 102.849 68.4833L103.045 68.2565C105.572 65.2822 111.168 57.842 113.075 48.3955C113.209 47.7338 113.335 47.0756 113.454 46.4361L113.49 46.2432C114.351 41.5527 115.271 34.6782 114.628 34.0516Z" fill="url(#paint0_linear_953_592)"/>
<path d="M41.5602 101.578C40.9063 101.797 39.1679 103.495 39.1115 103.968C39.1041 104.013 39.1102 104.059 39.1292 104.101C39.1481 104.142 39.1791 104.178 39.2183 104.202C39.2612 104.229 39.3113 104.243 39.3623 104.242C39.5122 104.242 39.7534 104.145 40.2249 103.855C42.3364 102.558 42.2284 101.905 42.1445 101.735C42.0605 101.566 41.8241 101.489 41.5602 101.578Z" fill="url(#paint1_linear_953_592)"/>
<path d="M46.8426 102.604C46.9902 102.604 47.2685 102.487 47.9895 101.98C49.9367 100.615 50.9733 99.4813 50.6937 99.0206C50.6541 98.9552 50.4898 98.7564 50.0471 98.961C49.284 99.3117 46.6303 101.866 46.6195 102.382C46.617 102.422 46.6264 102.461 46.6464 102.496C46.6664 102.53 46.6962 102.559 46.7322 102.577C46.7661 102.595 46.8041 102.604 46.8426 102.604Z" fill="url(#paint2_linear_953_592)"/>
<path d="M70.6404 91.0099C70.2624 90.8929 69.7214 91.5862 69.1551 92.9038C68.8912 93.52 68.8888 93.686 68.9823 93.79C69.001 93.8112 69.0243 93.8281 69.0504 93.8396C69.0765 93.8511 69.1048 93.857 69.1335 93.8567C69.1533 93.8566 69.173 93.8542 69.1923 93.8496C69.5834 93.7491 70.7291 91.9557 70.8299 91.4822C70.8911 91.1934 70.7723 91.0496 70.6404 91.0099Z" fill="url(#paint3_linear_953_592)"/>
<path d="M53.1555 78.3331C53.1749 78.337 53.1946 78.339 53.2143 78.3389C53.7074 78.3389 55.447 77.3651 55.7529 77.0108C55.9473 76.7875 55.9137 76.604 55.8165 76.5081C55.5406 76.2322 54.7272 76.5888 53.585 77.4843C53.0512 77.9029 52.9696 78.0478 53.0008 78.1858C53.0098 78.222 53.0291 78.255 53.0565 78.2811C53.0838 78.3071 53.1182 78.3252 53.1555 78.3331Z" fill="url(#paint4_linear_953_592)"/>
<path d="M81.0888 36.0683C81.1102 36.072 81.1318 36.074 81.1536 36.0742C81.2392 36.0742 81.3215 36.0425 81.3839 35.9853L86.6747 31.1487C86.7087 31.1176 86.7353 31.0796 86.7525 31.0374C86.7697 30.9951 86.7772 30.9497 86.7743 30.9043C86.7707 30.859 86.7568 30.815 86.7336 30.7755C86.7103 30.7361 86.6783 30.7022 86.6399 30.6764C86.5767 30.633 86.5002 30.6122 86.4231 30.6173C86.346 30.6224 86.273 30.6531 86.2164 30.7044L84.0233 32.7071C84.017 32.713 84.012 32.7201 84.0085 32.7279C84.0051 32.7358 84.0033 32.7442 84.0033 32.7527C84.0033 32.7612 84.0051 32.7697 84.0085 32.7775C84.012 32.7853 84.017 32.7924 84.0233 32.7983L82.5512 34.1404C82.5451 34.1344 82.5378 34.1297 82.5298 34.1264C82.5218 34.1232 82.5132 34.1215 82.5045 34.1215C82.4958 34.1215 82.4872 34.1232 82.4791 34.1264C82.4711 34.1297 82.4638 34.1344 82.4577 34.1404L80.9184 35.5434C80.8756 35.5814 80.8445 35.6304 80.8288 35.6847C80.8131 35.7391 80.8134 35.7967 80.8296 35.8509C80.848 35.9069 80.8819 35.9569 80.9276 35.9953C80.9734 36.0337 81.0292 36.059 81.0888 36.0683Z" fill="url(#paint5_linear_953_592)"/>
<path d="M32.5491 87.2827L32.8118 87.5399C32.7997 87.5519 32.7929 87.5681 32.7929 87.5849C32.7929 87.6018 32.7997 87.6179 32.8118 87.6299C32.8179 87.6364 32.8253 87.6416 32.8336 87.645C32.8419 87.6484 32.8508 87.6501 32.8598 87.6498C32.8771 87.6498 32.8938 87.6436 32.9066 87.6323L35.0829 85.591C35.1169 85.5598 35.1433 85.5215 35.1599 85.479C35.1765 85.4365 35.183 85.3908 35.1789 85.3455C35.1748 85.3003 35.1604 85.2566 35.1367 85.2176C35.1131 85.1785 35.0807 85.1451 35.0421 85.1198C34.9781 85.0774 34.9011 85.0578 34.824 85.0641C34.7468 85.0705 34.6743 85.1026 34.6186 85.1549L32.4591 87.1903C32.4529 87.1963 32.448 87.2034 32.4447 87.2112C32.4414 87.2191 32.4396 87.2275 32.4396 87.2359C32.4396 87.2444 32.4414 87.2528 32.4447 87.2606C32.448 87.2685 32.4529 87.2756 32.4591 87.2815C32.4713 87.2925 32.4872 87.2987 32.5039 87.299C32.5205 87.2992 32.5366 87.2934 32.5491 87.2827Z" fill="url(#paint6_linear_953_592)"/>
<path d="M99.4122 89.1451L90.8942 97.7697C90.8484 97.8042 90.8136 97.8506 90.7937 97.9035C90.7737 97.9565 90.7695 98.0138 90.7814 98.069C90.7946 98.1267 90.824 98.1797 90.8664 98.2221C90.9088 98.2644 90.9624 98.2944 91.0213 98.3086C91.0503 98.316 91.0801 98.32 91.1101 98.3203C91.1899 98.32 91.267 98.2928 91.3285 98.2432L95.5227 93.9993C95.5352 93.987 95.5423 93.9704 95.5423 93.9531C95.5423 93.9358 95.5352 93.9192 95.5227 93.9069L97.8262 91.5687C97.8388 91.5809 97.8558 91.5877 97.8736 91.5877C97.8913 91.5877 97.9084 91.5809 97.921 91.5687L99.8405 89.6209C99.876 89.5925 99.9045 89.5568 99.9241 89.5164C99.9437 89.476 99.9538 89.4318 99.9538 89.3871C99.9538 89.3424 99.9437 89.2982 99.9241 89.2578C99.9045 89.2174 99.876 89.1817 99.8405 89.1533C99.7811 89.104 99.7059 89.0762 99.6279 89.0747C99.5498 89.0732 99.4736 89.0981 99.4122 89.1451Z" fill="url(#paint7_linear_953_592)"/>
</g>
<defs>
<linearGradient id="paint0_linear_953_592" x1="47.2721" y1="98.4723" x2="115.732" y2="30.9226" gradientUnits="userSpaceOnUse">
<stop stop-color="#C57DB2"/>
<stop offset="1" stop-color="#56BC80"/>
</linearGradient>
<linearGradient id="paint1_linear_953_592" x1="46.3879" y1="97.5768" x2="114.848" y2="30.027" gradientUnits="userSpaceOnUse">
<stop stop-color="#C57DB2"/>
<stop offset="1" stop-color="#56BC80"/>
</linearGradient>
<linearGradient id="paint2_linear_953_592" x1="49.1425" y1="100.369" x2="117.602" y2="32.8189" gradientUnits="userSpaceOnUse">
<stop stop-color="#C57DB2"/>
<stop offset="1" stop-color="#56BC80"/>
</linearGradient>
<linearGradient id="paint3_linear_953_592" x1="55.0019" y1="106.307" x2="123.462" y2="38.7556" gradientUnits="userSpaceOnUse">
<stop stop-color="#C57DB2"/>
<stop offset="1" stop-color="#56BC80"/>
</linearGradient>
<linearGradient id="paint4_linear_953_592" x1="39.9381" y1="91.039" x2="108.397" y2="23.4893" gradientUnits="userSpaceOnUse">
<stop stop-color="#C57DB2"/>
<stop offset="1" stop-color="#56BC80"/>
</linearGradient>
<linearGradient id="paint5_linear_953_592" x1="31.4273" y1="82.4145" x2="99.8871" y2="14.8648" gradientUnits="userSpaceOnUse">
<stop stop-color="#C57DB2"/>
<stop offset="1" stop-color="#56BC80"/>
</linearGradient>
<linearGradient id="paint6_linear_953_592" x1="34.5874" y1="85.6167" x2="103.047" y2="18.067" gradientUnits="userSpaceOnUse">
<stop stop-color="#C57DB2"/>
<stop offset="1" stop-color="#56BC80"/>
</linearGradient>
<linearGradient id="paint7_linear_953_592" x1="67.9302" y1="119.408" x2="136.389" y2="51.858" gradientUnits="userSpaceOnUse">
<stop stop-color="#C57DB2"/>
<stop offset="1" stop-color="#56BC80"/>
</linearGradient>
</defs>
</svg>
