<svg width="48" height="55" viewBox="0 0 48 55" fill="none" xmlns="http://www.w3.org/2000/svg">
<path d="M3.75 19.0778C3.75 24.1448 7.35094 28.3646 12.1155 29.2818C13.0628 31.0334 14.2269 32.5982 15.5617 33.9204C15.0691 33.973 14.5689 34 14.0625 34C6.296 34 0 27.6574 0 19.8333V0H3.75V19.0778Z" fill="#590209"/>
<path fill-rule="evenodd" clip-rule="evenodd" d="M45 17C45 26.3888 37.4448 34 28.125 34C18.8052 34 11.25 26.3888 11.25 17C11.25 7.61116 18.8052 0 28.125 0C37.4448 0 45 7.61116 45 17ZM20.625 13.2222H33.75V17C33.75 18.0432 32.9105 18.8889 31.875 18.8889H22.5C21.4645 18.8889 20.625 18.0432 20.625 17V13.2222ZM25.3125 22.6667C25.8303 22.6667 26.25 22.2438 26.25 21.7222C26.25 21.2006 25.8303 20.7778 25.3125 20.7778C24.7947 20.7778 24.375 21.2006 24.375 21.7222C24.375 22.2438 24.7947 22.6667 25.3125 22.6667ZM30 21.7222C30 22.2438 29.5803 22.6667 29.0625 22.6667C28.5447 22.6667 28.125 22.2438 28.125 21.7222C28.125 21.2006 28.5447 20.7778 29.0625 20.7778C29.5803 20.7778 30 21.2006 30 21.7222Z" fill="#590209"/>
<path d="M2.20231 43.2782V47.2998C2.20231 47.7019 2.30125 48.0115 2.49914 48.2286C2.69703 48.4456 2.98748 48.5541 3.37049 48.5541C3.7535 48.5541 4.04714 48.4456 4.25141 48.2286C4.45568 48.0115 4.55782 47.7019 4.55782 47.2998V43.2782H6.19518V47.2902C6.19518 47.8903 6.06751 48.3977 5.81217 48.8127C5.55683 49.2276 5.21212 49.5404 4.77805 49.751C4.35035 49.9617 3.87159 50.067 3.34176 50.067C2.81193 50.067 2.33636 49.9649 1.91505 49.7606C1.50012 49.55 1.17137 49.2372 0.928799 48.8222C0.686226 48.4009 0.564939 47.8903 0.564939 47.2902V43.2782H2.20231ZM10.6005 44.5996C11.2261 44.5996 11.724 44.8038 12.0943 45.2124C12.4709 45.6145 12.6592 46.1699 12.6592 46.8785V50H11.0314V47.0987C11.0314 46.7412 10.9389 46.4635 10.7537 46.2657C10.5686 46.0678 10.3197 45.9688 10.0069 45.9688C9.69408 45.9688 9.44513 46.0678 9.26001 46.2657C9.07489 46.4635 8.98233 46.7412 8.98233 47.0987V50H7.34496V44.657H8.98233V45.3656C9.1483 45.1294 9.37172 44.9443 9.65259 44.8102C9.93347 44.6698 10.2494 44.5996 10.6005 44.5996ZM14.6205 44.1017C14.3332 44.1017 14.0971 44.0187 13.9119 43.8527C13.7332 43.6803 13.6438 43.4697 13.6438 43.2207C13.6438 42.9654 13.7332 42.7547 13.9119 42.5888C14.0971 42.4164 14.3332 42.3302 14.6205 42.3302C14.9014 42.3302 15.1312 42.4164 15.3099 42.5888C15.495 42.7547 15.5876 42.9654 15.5876 43.2207C15.5876 43.4697 15.495 43.6803 15.3099 43.8527C15.1312 44.0187 14.9014 44.1017 14.6205 44.1017ZM15.4344 44.657V50H13.797V44.657H15.4344ZM16.2954 47.3285C16.2954 46.7731 16.4071 46.288 16.6305 45.8731C16.8604 45.4581 17.1763 45.139 17.5785 44.9155C17.987 44.6921 18.453 44.5804 18.9765 44.5804C19.6468 44.5804 20.2053 44.756 20.6522 45.1071C21.1054 45.4581 21.4022 45.9529 21.5426 46.5912H19.8C19.6531 46.1827 19.3691 45.9784 18.9478 45.9784C18.6477 45.9784 18.4084 46.0965 18.2296 46.3327C18.0509 46.5625 17.9615 46.8944 17.9615 47.3285C17.9615 47.7626 18.0509 48.0977 18.2296 48.3339C18.4084 48.5637 18.6477 48.6786 18.9478 48.6786C19.3691 48.6786 19.6531 48.4743 19.8 48.0658H21.5426C21.4022 48.6914 21.1054 49.1829 20.6522 49.5404C20.1989 49.8979 19.6404 50.0766 18.9765 50.0766C18.453 50.0766 17.987 49.9649 17.5785 49.7415C17.1763 49.518 16.8604 49.1989 16.6305 48.7839C16.4071 48.369 16.2954 47.8839 16.2954 47.3285ZM24.0559 42.9143V50H22.4185V42.9143H24.0559ZM26.0659 44.1017C25.7786 44.1017 25.5425 44.0187 25.3573 43.8527C25.1786 43.6803 25.0892 43.4697 25.0892 43.2207C25.0892 42.9654 25.1786 42.7547 25.3573 42.5888C25.5425 42.4164 25.7786 42.3302 26.0659 42.3302C26.3468 42.3302 26.5766 42.4164 26.7553 42.5888C26.9404 42.7547 27.033 42.9654 27.033 43.2207C27.033 43.4697 26.9404 43.6803 26.7553 43.8527C26.5766 44.0187 26.3468 44.1017 26.0659 44.1017ZM26.8798 44.657V50H25.2424V44.657H26.8798ZM27.7408 47.3381C27.7408 46.8083 27.8493 46.3359 28.0664 45.9209C28.2898 45.506 28.5866 45.1837 28.9569 44.9538C29.3335 44.7177 29.742 44.5996 30.1825 44.5996C30.5208 44.5996 30.8241 44.6602 31.0922 44.7815C31.3603 44.8964 31.5773 45.0592 31.7433 45.2698V44.657H33.3806V52.547H31.7433V49.3297C31.5582 49.5532 31.3315 49.7319 31.0634 49.8659C30.8017 50 30.5017 50.067 30.1634 50.067C29.7293 50.067 29.3271 49.9521 28.9569 49.7223C28.5866 49.4925 28.2898 49.1701 28.0664 48.7552C27.8493 48.3403 27.7408 47.8679 27.7408 47.3381ZM31.7433 47.3285C31.7433 47.0413 31.6858 46.8019 31.5709 46.6104C31.4624 46.4125 31.3188 46.2657 31.14 46.1699C30.9613 46.0678 30.773 46.0167 30.5751 46.0167C30.3836 46.0167 30.1985 46.0678 30.0197 46.1699C29.841 46.2657 29.6942 46.4125 29.5793 46.6104C29.4644 46.8083 29.4069 47.0508 29.4069 47.3381C29.4069 47.6253 29.4644 47.8679 29.5793 48.0658C29.6942 48.2573 29.841 48.4041 30.0197 48.5063C30.1985 48.602 30.3836 48.6499 30.5751 48.6499C30.7666 48.6499 30.9517 48.602 31.1305 48.5063C31.3156 48.4041 31.4624 48.2541 31.5709 48.0562C31.6858 47.8583 31.7433 47.6158 31.7433 47.3285ZM39.8412 44.657V50H38.2038V49.2723C38.0378 49.5085 37.8112 49.7 37.524 49.8468C37.2431 49.9872 36.9303 50.0575 36.5856 50.0575C36.177 50.0575 35.8164 49.9681 35.5036 49.7893C35.1908 49.6042 34.9482 49.3393 34.7759 48.9946C34.6035 48.6499 34.5173 48.2445 34.5173 47.7785V44.657H36.1451V47.5583C36.1451 47.9158 36.2377 48.1935 36.4228 48.3914C36.6079 48.5892 36.8569 48.6882 37.1697 48.6882C37.4888 48.6882 37.741 48.5892 37.9261 48.3914C38.1112 48.1935 38.2038 47.9158 38.2038 47.5583V44.657H39.8412ZM46.0538 47.2423C46.0538 47.3955 46.0443 47.5551 46.0251 47.7211H42.3195C42.345 48.053 42.4504 48.3084 42.6355 48.4871C42.827 48.6595 43.06 48.7456 43.3345 48.7456C43.743 48.7456 44.0271 48.5733 44.1867 48.2286H45.9294C45.84 48.5797 45.6772 48.8957 45.441 49.1765C45.2112 49.4574 44.9208 49.6776 44.5697 49.8372C44.2186 49.9968 43.826 50.0766 43.3919 50.0766C42.8685 50.0766 42.4025 49.9649 41.9939 49.7415C41.5854 49.518 41.2662 49.1989 41.0364 48.7839C40.8066 48.369 40.6917 47.8839 40.6917 47.3285C40.6917 46.7731 40.8034 46.288 41.0268 45.8731C41.2567 45.4581 41.5758 45.139 41.9844 44.9155C42.3929 44.6921 42.8621 44.5804 43.3919 44.5804C43.909 44.5804 44.3686 44.6889 44.7708 44.906C45.1729 45.123 45.4857 45.4326 45.7091 45.8348C45.9389 46.2369 46.0538 46.7061 46.0538 47.2423ZM44.3782 46.8114C44.3782 46.5306 44.2824 46.3071 44.0909 46.1412C43.8994 45.9752 43.66 45.8922 43.3728 45.8922C43.0983 45.8922 42.8653 45.972 42.6738 46.1316C42.4887 46.2912 42.3738 46.5178 42.3291 46.8114H44.3782Z" fill="#590209"/>
</svg>
