<svg width="21" height="21" viewBox="0 0 21 21" fill="none" xmlns="http://www.w3.org/2000/svg">
<path d="M14.875 15.75C15.3391 15.75 15.7842 15.9344 16.1124 16.2626C16.4406 16.5908 16.625 17.0359 16.625 17.5C16.625 17.9641 16.4406 18.4092 16.1124 18.7374C15.7842 19.0656 15.3391 19.25 14.875 19.25C14.4109 19.25 13.9658 19.0656 13.6376 18.7374C13.3094 18.4092 13.125 17.9641 13.125 17.5C13.125 16.5288 13.9038 15.75 14.875 15.75ZM0.875 1.75H3.73625L4.55875 3.5H17.5C17.7321 3.5 17.9546 3.59219 18.1187 3.75628C18.2828 3.92038 18.375 4.14294 18.375 4.375C18.375 4.52375 18.3312 4.6725 18.27 4.8125L15.1375 10.4738C14.84 11.0075 14.2625 11.375 13.6062 11.375H7.0875L6.3 12.8013L6.27375 12.9062C6.27375 12.9643 6.2968 13.0199 6.33782 13.0609C6.37884 13.102 6.43448 13.125 6.4925 13.125H16.625V14.875H6.125C5.66087 14.875 5.21575 14.6906 4.88756 14.3624C4.55937 14.0342 4.375 13.5891 4.375 13.125C4.375 12.8188 4.45375 12.53 4.585 12.285L5.775 10.1413L2.625 3.5H0.875V1.75ZM6.125 15.75C6.58913 15.75 7.03425 15.9344 7.36244 16.2626C7.69063 16.5908 7.875 17.0359 7.875 17.5C7.875 17.9641 7.69063 18.4092 7.36244 18.7374C7.03425 19.0656 6.58913 19.25 6.125 19.25C5.66087 19.25 5.21575 19.0656 4.88756 18.7374C4.55937 18.4092 4.375 17.9641 4.375 17.5C4.375 16.5288 5.15375 15.75 6.125 15.75ZM14 9.625L16.4325 5.25H5.3725L7.4375 9.625H14Z" fill="white"/>
</svg>
