<svg width="21" height="22" viewBox="0 0 21 22" fill="none" xmlns="http://www.w3.org/2000/svg">
<path d="M1.75 5.5C1.75 5.03587 1.93437 4.59075 2.26256 4.26256C2.59075 3.93437 3.03587 3.75 3.5 3.75H17.5C17.9641 3.75 18.4092 3.93437 18.7374 4.26256C19.0656 4.59075 19.25 5.03587 19.25 5.5V15.125C19.25 15.5891 19.0656 16.0342 18.7374 16.3624C18.4092 16.6906 17.9641 16.875 17.5 16.875H13.4872L11.1186 19.2436C10.9545 19.4077 10.732 19.4998 10.5 19.4998C10.268 19.4998 10.0455 19.4077 9.88138 19.2436L7.51275 16.875H3.5C3.03587 16.875 2.59075 16.6906 2.26256 16.3624C1.93437 16.0342 1.75 15.5891 1.75 15.125V5.5ZM17.5 5.5H3.5V15.125H7.875C8.10705 15.125 8.32957 15.2173 8.49362 15.3814L10.5 17.3878L12.5064 15.3814C12.6704 15.2173 12.893 15.125 13.125 15.125H17.5V5.5ZM5.25 8.5625C5.25 8.33044 5.34219 8.10788 5.50628 7.94378C5.67038 7.77969 5.89294 7.6875 6.125 7.6875H14.875C15.1071 7.6875 15.3296 7.77969 15.4937 7.94378C15.6578 8.10788 15.75 8.33044 15.75 8.5625C15.75 8.79456 15.6578 9.01712 15.4937 9.18122C15.3296 9.34531 15.1071 9.4375 14.875 9.4375H6.125C5.89294 9.4375 5.67038 9.34531 5.50628 9.18122C5.34219 9.01712 5.25 8.79456 5.25 8.5625ZM5.25 12.0625C5.25 11.8304 5.34219 11.6079 5.50628 11.4438C5.67038 11.2797 5.89294 11.1875 6.125 11.1875H11.375C11.6071 11.1875 11.8296 11.2797 11.9937 11.4438C12.1578 11.6079 12.25 11.8304 12.25 12.0625C12.25 12.2946 12.1578 12.5171 11.9937 12.6812C11.8296 12.8453 11.6071 12.9375 11.375 12.9375H6.125C5.89294 12.9375 5.67038 12.8453 5.50628 12.6812C5.34219 12.5171 5.25 12.2946 5.25 12.0625Z" fill="white"/>
</svg>
