<svg width="20" height="19" viewBox="0 0 20 19" fill="none" xmlns="http://www.w3.org/2000/svg">
<path fill-rule="evenodd" clip-rule="evenodd" d="M15.5983 0.492C15.4447 0.229 15.1455 0 14.8747 0C14.3896 0 13.766 0.48 13.3891 0.771C12.8241 1.206 12.1652 1.619 11.4578 1.763C10.9343 1.868 10.3097 1.789 9.75789 1.646C9.66694 1.623 8.88471 1.352 8.88471 1.352C7.80132 0.857 7.32026 2.264 6.89277 2.957C6.59968 3.43 6.23081 3.994 5.8114 4.563C5.64392 4.54769 5.47523 4.57398 5.32061 4.63949C5.166 4.705 5.03036 4.80765 4.92598 4.93815C4.8216 5.06864 4.75178 5.22285 4.72286 5.38679C4.69393 5.55074 4.70682 5.71923 4.76034 5.877C4.44907 6.254 4.15397 6.615 3.87402 6.963C3.68011 6.90884 3.47427 6.91327 3.28292 6.97572C3.09157 7.03817 2.92346 7.15579 2.80017 7.31347C2.67687 7.47116 2.60402 7.66171 2.59098 7.86066C2.57794 8.05961 2.62529 8.25788 2.72696 8.43C1.64357 9.863 0.897726 11.028 0.467199 12.065C0.103374 12.945 -0.0522627 13.768 0.0154493 14.607C0.0831613 15.434 0.361084 16.205 0.750175 16.983C1.27772 18.038 2.57133 18.327 3.51828 17.786L18.3967 9.286C18.861 9.02078 19.1997 8.58394 19.3384 8.0716C19.4772 7.55925 19.4045 7.01336 19.1365 6.554L15.5993 0.492H15.5983ZM15.8692 4.956L14.4351 2.499C13.663 3.045 12.8009 3.532 11.863 3.722C10.8989 3.917 9.92364 3.756 9.24854 3.582C8.83317 3.475 8.84025 3.639 8.6169 4C8.36222 4.413 8.0469 4.899 7.68712 5.406L7.7993 5.461C7.91912 5.51867 8.02624 5.59922 8.11448 5.69801C8.20272 5.7968 8.27035 5.91188 8.31347 6.03663C8.35659 6.16138 8.37436 6.29334 8.36574 6.42491C8.35713 6.55648 8.3223 6.68506 8.26328 6.80327C8.20425 6.92147 8.12218 7.02695 8.02179 7.11365C7.9214 7.20035 7.80468 7.26655 7.67834 7.30844C7.55199 7.35033 7.41853 7.36709 7.28562 7.35774C7.1527 7.3484 7.02297 7.31314 6.90388 7.254L6.42586 7.02C6.18533 7.312 5.95693 7.59 5.73863 7.86C5.9611 7.99231 6.1236 8.20424 6.19244 8.45188C6.26128 8.69952 6.23119 8.96387 6.1084 9.19015C5.98561 9.41643 5.77954 9.58729 5.5329 9.66732C5.28625 9.74734 5.01795 9.7304 4.78359 9.62L4.46827 9.466C3.37073 10.903 2.69765 11.953 2.33585 12.824C2.06803 13.471 1.99224 13.978 2.02963 14.447C2.06702 14.913 2.22367 15.411 2.53292 16.039L17.3851 7.554L16.8798 6.688L12.5038 9.188C12.2718 9.31852 11.997 9.35294 11.7395 9.28375C11.4819 9.21456 11.2625 9.04738 11.129 8.81869C10.9956 8.59001 10.959 8.31838 11.0272 8.06308C11.0954 7.80779 11.2629 7.58955 11.4931 7.456L15.8692 4.956Z" fill="#0D0D0D"/>
</svg>
