<svg width="22" height="22" viewBox="0 0 22 22" fill="none" xmlns="http://www.w3.org/2000/svg">
<path fill-rule="evenodd" clip-rule="evenodd" d="M1.375 0.937501H9.6875C9.92914 0.937501 10.125 1.13336 10.125 1.375V9.6875C10.125 9.92914 9.92914 10.125 9.6875 10.125H1.375C1.13336 10.125 0.9375 9.92914 0.9375 9.6875V1.375C0.9375 1.13336 1.13336 0.937501 1.375 0.937501ZM16.8055 0.244802L21.7552 5.19457C21.926 5.36541 21.926 5.6424 21.7552 5.81327L16.8054 10.763C16.6346 10.9339 16.3576 10.9339 16.1867 10.763L11.237 5.81325C11.0661 5.6424 11.0661 5.36541 11.237 5.19454L16.1868 0.244802C16.3576 0.0739578 16.6346 0.0739578 16.8055 0.244802ZM1.375 11.875H9.6875C9.92914 11.875 10.125 12.0709 10.125 12.3125V20.625C10.125 20.8666 9.92914 21.0625 9.6875 21.0625H1.375C1.13336 21.0625 0.9375 20.8666 0.9375 20.625V12.3125C0.9375 12.0709 1.13336 11.875 1.375 11.875ZM12.3125 11.875H20.625C20.8666 11.875 21.0625 12.0709 21.0625 12.3125V20.625C21.0625 20.8666 20.8666 21.0625 20.625 21.0625H12.3125C12.0709 21.0625 11.875 20.8666 11.875 20.625V12.3125C11.875 12.0709 12.0709 11.875 12.3125 11.875Z" fill="#590209"/>
</svg>
