<svg width="35" height="35" viewBox="0 0 35 35" fill="none" xmlns="http://www.w3.org/2000/svg">
<rect x="0.522339" y="0.253174" width="34" height="34" rx="6" fill="#FEF0F1"/>
<path d="M17.8809 7C23.4037 7 27.8809 11.4771 27.8809 17C27.8809 22.5228 23.4037 27 17.8809 27C15.4544 27 13.2299 26.1358 11.4981 24.6985L11.2541 24.4892L12.1555 22.5875C13.6083 24.0759 15.6366 25 17.8809 25C22.2992 25 25.8809 21.4183 25.8809 17C25.8809 12.5817 22.2992 9 17.8809 9C13.5459 9 10.0163 12.4478 9.88467 16.7508L9.88086 17H12.3809L9.67452 22.7161C8.54394 21.096 7.88086 19.1254 7.88086 17C7.88086 11.4771 12.358 7 17.8809 7ZM18.8809 11V13H21.3809V15H15.8809C15.6047 15 15.3809 15.2239 15.3809 15.5C15.3809 15.7455 15.5577 15.9496 15.791 15.9919L15.8809 16H19.8809C21.2616 16 22.3809 17.1193 22.3809 18.5C22.3809 19.8807 21.2616 21 19.8809 21H18.8809V23H16.8809V21H14.3809V19H19.8809C20.157 19 20.3809 18.7761 20.3809 18.5C20.3809 18.2545 20.204 18.0504 19.9708 18.0081L19.8809 18H15.8809C14.5001 18 13.3809 16.8807 13.3809 15.5C13.3809 14.1193 14.5001 13 15.8809 13H16.8809V11H18.8809Z" fill="#8C3926"/>
</svg>
