<svg width="21" height="20" viewBox="0 0 21 20" fill="none" xmlns="http://www.w3.org/2000/svg">
<path d="M18.4174 10.1914L10.9174 17.6194L3.41742 10.1914C2.92272 9.71002 2.53306 9.13142 2.27296 8.49204C2.01287 7.85267 1.88798 7.16636 1.90615 6.47634C1.92433 5.78632 2.08518 5.10754 2.37857 4.48275C2.67197 3.85795 3.09155 3.30066 3.6109 2.84599C4.13025 2.39131 4.73812 2.0491 5.39623 1.84089C6.05433 1.63268 6.74842 1.56299 7.43478 1.63621C8.12115 1.70943 8.78491 1.92397 9.38429 2.26632C9.98367 2.60866 10.5057 3.07141 10.9174 3.62541C11.3309 3.07543 11.8536 2.61673 12.4525 2.27801C13.0515 1.9393 13.7139 1.72786 14.3983 1.65693C15.0828 1.586 15.7745 1.65711 16.4302 1.8658C17.0859 2.07449 17.6914 2.41628 18.209 2.86977C18.7265 3.32326 19.1448 3.87869 19.4378 4.5013C19.7308 5.12391 19.8922 5.80029 19.9117 6.48812C19.9313 7.17594 19.8087 7.8604 19.5515 8.49866C19.2944 9.13692 18.9083 9.71523 18.4174 10.1974" stroke="#0D0D0D" stroke-width="2" stroke-linecap="round" stroke-linejoin="round"/>
</svg>
