<svg width="21" height="21" viewBox="0 0 21 21" fill="none" xmlns="http://www.w3.org/2000/svg">
<g clip-path="url(#clip0_1168_112)">
<path d="M10.25 13.3125C11.6652 13.3125 12.8125 12.1652 12.8125 10.75C12.8125 9.33477 11.6652 8.1875 10.25 8.1875C8.83477 8.1875 7.6875 9.33477 7.6875 10.75C7.6875 12.1652 8.83477 13.3125 10.25 13.3125Z" stroke="white" stroke-width="2" stroke-linecap="round" stroke-linejoin="round"/>
<path d="M16.5708 13.3125C16.4571 13.5701 16.4232 13.8559 16.4734 14.133C16.5237 14.41 16.6558 14.6657 16.8527 14.867L16.9039 14.9183C17.0628 15.0769 17.1888 15.2654 17.2748 15.4727C17.3607 15.6801 17.405 15.9024 17.405 16.1269C17.405 16.3514 17.3607 16.5737 17.2748 16.7811C17.1888 16.9885 17.0628 17.1769 16.9039 17.3356C16.7453 17.4944 16.5569 17.6204 16.3495 17.7064C16.1421 17.7924 15.9198 17.8366 15.6953 17.8366C15.4708 17.8366 15.2485 17.7924 15.0411 17.7064C14.8337 17.6204 14.6453 17.4944 14.4867 17.3356L14.4354 17.2843C14.2341 17.0874 13.9784 16.9553 13.7013 16.9051C13.4242 16.8548 13.1385 16.8888 12.8808 17.0025C12.6282 17.1107 12.4127 17.2905 12.261 17.5197C12.1092 17.7489 12.0278 18.0174 12.0267 18.2923V18.4375C12.0267 18.8905 11.8467 19.3251 11.5263 19.6454C11.2059 19.9658 10.7714 20.1458 10.3183 20.1458C9.86524 20.1458 9.43072 19.9658 9.11035 19.6454C8.78997 19.3251 8.60999 18.8905 8.60999 18.4375V18.3606C8.60338 18.0779 8.51186 17.8037 8.34734 17.5736C8.18282 17.3436 7.95291 17.1684 7.68749 17.0708C7.42986 16.9571 7.14407 16.9232 6.86699 16.9734C6.5899 17.0237 6.33422 17.1557 6.13291 17.3527L6.08166 17.4039C5.923 17.5628 5.73459 17.6888 5.5272 17.7747C5.31981 17.8607 5.09751 17.9049 4.87301 17.9049C4.64851 17.9049 4.42621 17.8607 4.21882 17.7747C4.01143 17.6888 3.82302 17.5628 3.66436 17.4039C3.50553 17.2453 3.37952 17.0568 3.29355 16.8495C3.20758 16.6421 3.16333 16.4198 3.16333 16.1953C3.16333 15.9708 3.20758 15.7485 3.29355 15.5411C3.37952 15.3337 3.50553 15.1453 3.66436 14.9866L3.71561 14.9354C3.91253 14.7341 4.04463 14.4784 4.09487 14.2013C4.14511 13.9242 4.11119 13.6384 3.99749 13.3808C3.88921 13.1282 3.70943 12.9127 3.48026 12.7609C3.2511 12.6092 2.98256 12.5277 2.7077 12.5266H2.56249C2.10941 12.5266 1.67489 12.3466 1.35452 12.0263C1.03414 11.7059 0.854156 11.2714 0.854156 10.8183C0.854156 10.3652 1.03414 9.93069 1.35452 9.61032C1.67489 9.28994 2.10941 9.10996 2.56249 9.10996H2.63936C2.92209 9.10335 3.19629 9.01183 3.42631 8.84731C3.65633 8.68279 3.83154 8.45288 3.92916 8.18746C4.04286 7.92983 4.07678 7.64404 4.02654 7.36696C3.97629 7.08987 3.8442 6.83418 3.64728 6.63288L3.59603 6.58163C3.4372 6.42297 3.31119 6.23456 3.22522 6.02717C3.13925 5.81978 3.095 5.59748 3.095 5.37298C3.095 5.14848 3.13925 4.92618 3.22522 4.71879C3.31119 4.5114 3.4372 4.32299 3.59603 4.16433C3.75469 4.0055 3.9431 3.87949 4.15049 3.79352C4.35788 3.70755 4.58018 3.6633 4.80468 3.6633C5.02918 3.6633 5.25148 3.70755 5.45887 3.79352C5.66626 3.87949 5.85466 4.0055 6.01332 4.16433L6.06457 4.21558C6.26588 4.4125 6.52157 4.5446 6.79865 4.59484C7.07574 4.64508 7.36153 4.61116 7.61916 4.49746H7.68749C7.94013 4.38918 8.15559 4.2094 8.30735 3.98023C8.45912 3.75107 8.54056 3.48253 8.54166 3.20767V3.06246C8.54166 2.60938 8.72164 2.17486 9.04202 1.85449C9.36239 1.53411 9.79691 1.35413 10.25 1.35413C10.7031 1.35413 11.1376 1.53411 11.458 1.85449C11.7783 2.17486 11.9583 2.60938 11.9583 3.06246V3.13933C11.9594 3.41419 12.0409 3.68273 12.1926 3.9119C12.3444 4.14106 12.5599 4.32085 12.8125 4.42913C13.0701 4.54283 13.3559 4.57675 13.633 4.5265C13.9101 4.47626 14.1658 4.34417 14.3671 4.14725L14.4183 4.096C14.577 3.93717 14.7654 3.81116 14.9728 3.72519C15.1802 3.63922 15.4025 3.59497 15.627 3.59497C15.8515 3.59497 16.0738 3.63922 16.2812 3.72519C16.4885 3.81116 16.677 3.93717 16.8356 4.096C16.9944 4.25466 17.1205 4.44307 17.2064 4.65046C17.2924 4.85785 17.3366 5.08015 17.3366 5.30465C17.3366 5.52915 17.2924 5.75145 17.2064 5.95884C17.1205 6.16622 16.9944 6.35463 16.8356 6.51329L16.7844 6.56454C16.5874 6.76585 16.4554 7.02154 16.4051 7.29862C16.3549 7.57571 16.3888 7.8615 16.5025 8.11913V8.18746C16.6108 8.4401 16.7906 8.65556 17.0197 8.80732C17.2489 8.95909 17.5174 9.04053 17.7923 9.04163H17.9375C18.3906 9.04163 18.8251 9.22161 19.1455 9.54199C19.4658 9.86236 19.6458 10.2969 19.6458 10.75C19.6458 11.203 19.4658 11.6376 19.1455 11.9579C18.8251 12.2783 18.3906 12.4583 17.9375 12.4583H17.8606C17.5858 12.4594 17.3172 12.5408 17.0881 12.6926C16.8589 12.8444 16.6791 13.0598 16.5708 13.3125V13.3125Z" stroke="white" stroke-width="2" stroke-linecap="round" stroke-linejoin="round"/>
</g>
<defs>
<clipPath id="clip0_1168_112">
<rect width="20.5" height="20.5" fill="white" transform="translate(0 0.5)"/>
</clipPath>
</defs>
</svg>
