<svg width="24" height="27" viewBox="0 0 24 27" fill="none" xmlns="http://www.w3.org/2000/svg">
<path d="M20 26.8332C18.8889 26.8332 17.9444 26.4443 17.1667 25.6665C16.3889 24.8887 16 23.9443 16 22.8332C16 22.6776 16.0111 22.5163 16.0333 22.3492C16.0556 22.1821 16.0889 22.0323 16.1333 21.8998L6.73333 16.4332C6.35556 16.7665 5.93333 17.0278 5.46667 17.2172C5 17.4065 4.51111 17.5007 4 17.4998C2.88889 17.4998 1.94444 17.1109 1.16667 16.3332C0.388889 15.5554 0 14.6109 0 13.4998C0 12.3887 0.388889 11.4443 1.16667 10.6665C1.94444 9.88873 2.88889 9.49984 4 9.49984C4.51111 9.49984 5 9.5945 5.46667 9.78384C5.93333 9.97317 6.35556 10.2341 6.73333 10.5665L16.1333 5.09984C16.0889 4.9665 16.0556 4.81673 16.0333 4.6505C16.0111 4.48428 16 4.32295 16 4.1665C16 3.05539 16.3889 2.11095 17.1667 1.33317C17.9444 0.555393 18.8889 0.166504 20 0.166504C21.1111 0.166504 22.0556 0.555393 22.8333 1.33317C23.6111 2.11095 24 3.05539 24 4.1665C24 5.27761 23.6111 6.22206 22.8333 6.99984C22.0556 7.77761 21.1111 8.1665 20 8.1665C19.4889 8.1665 19 8.07228 18.5333 7.88384C18.0667 7.69539 17.6444 7.43406 17.2667 7.09984L7.86667 12.5665C7.91111 12.6998 7.94445 12.8501 7.96667 13.0172C7.98889 13.1843 8 13.3452 8 13.4998C8 13.6554 7.98889 13.8167 7.96667 13.9838C7.94445 14.1509 7.91111 14.3007 7.86667 14.4332L17.2667 19.8998C17.6444 19.5665 18.0667 19.3056 18.5333 19.1172C19 18.9287 19.4889 18.8341 20 18.8332C21.1111 18.8332 22.0556 19.2221 22.8333 19.9998C23.6111 20.7776 24 21.7221 24 22.8332C24 23.9443 23.6111 24.8887 22.8333 25.6665C22.0556 26.4443 21.1111 26.8332 20 26.8332ZM20 5.49984C20.3778 5.49984 20.6947 5.37228 20.9507 5.11717C21.2067 4.86206 21.3342 4.54517 21.3333 4.1665C21.3333 3.78873 21.2053 3.47228 20.9493 3.21717C20.6933 2.96206 20.3769 2.83406 20 2.83317C19.6222 2.83317 19.3058 2.96117 19.0507 3.21717C18.7956 3.47317 18.6676 3.78961 18.6667 4.1665C18.6667 4.54428 18.7947 4.86117 19.0507 5.11717C19.3067 5.37317 19.6231 5.50073 20 5.49984ZM4 14.8332C4.37778 14.8332 4.69467 14.7052 4.95067 14.4492C5.20667 14.1932 5.33422 13.8767 5.33333 13.4998C5.33333 13.1221 5.20533 12.8056 4.94933 12.5505C4.69333 12.2954 4.37689 12.1674 4 12.1665C3.62222 12.1665 3.30578 12.2945 3.05067 12.5505C2.79556 12.8065 2.66756 13.1229 2.66667 13.4998C2.66667 13.8776 2.79467 14.1945 3.05067 14.4505C3.30667 14.7065 3.62311 14.8341 4 14.8332ZM20 24.1665C20.3778 24.1665 20.6947 24.0385 20.9507 23.7825C21.2067 23.5265 21.3342 23.2101 21.3333 22.8332C21.3333 22.4554 21.2053 22.1389 20.9493 21.8838C20.6933 21.6287 20.3769 21.5007 20 21.4998C19.6222 21.4998 19.3058 21.6278 19.0507 21.8838C18.7956 22.1398 18.6676 22.4563 18.6667 22.8332C18.6667 23.2109 18.7947 23.5278 19.0507 23.7838C19.3067 24.0398 19.6231 24.1674 20 24.1665Z" fill="#3E3E3E"/>
</svg>
