<svg width="19" height="20" viewBox="0 0 19 20" fill="none" xmlns="http://www.w3.org/2000/svg">
<path d="M15.6215 20C14.7881 20 14.0798 19.7083 13.4965 19.125C12.9131 18.5417 12.6215 17.8333 12.6215 17C12.6215 16.8833 12.6298 16.7623 12.6465 16.637C12.6631 16.5117 12.6881 16.3993 12.7215 16.3L5.67146 12.2C5.38813 12.45 5.07146 12.646 4.72146 12.788C4.37146 12.93 4.00479 13.0007 3.62146 13C2.78813 13 2.07979 12.7083 1.49646 12.125C0.913127 11.5417 0.62146 10.8333 0.62146 10C0.62146 9.16667 0.913127 8.45833 1.49646 7.875C2.07979 7.29167 2.78813 7 3.62146 7C4.00479 7 4.37146 7.071 4.72146 7.213C5.07146 7.355 5.38813 7.55067 5.67146 7.8L12.7215 3.7C12.6881 3.6 12.6631 3.48767 12.6465 3.363C12.6298 3.23833 12.6215 3.11733 12.6215 3C12.6215 2.16667 12.9131 1.45833 13.4965 0.875C14.0798 0.291667 14.7881 0 15.6215 0C16.4548 0 17.1631 0.291667 17.7465 0.875C18.3298 1.45833 18.6215 2.16667 18.6215 3C18.6215 3.83333 18.3298 4.54167 17.7465 5.125C17.1631 5.70833 16.4548 6 15.6215 6C15.2381 6 14.8715 5.92933 14.5215 5.788C14.1715 5.64667 13.8548 5.45067 13.5715 5.2L6.52146 9.3C6.55479 9.4 6.57979 9.51267 6.59646 9.638C6.61313 9.76333 6.62146 9.884 6.62146 10C6.62146 10.1167 6.61313 10.2377 6.59646 10.363C6.57979 10.4883 6.55479 10.6007 6.52146 10.7L13.5715 14.8C13.8548 14.55 14.1715 14.3543 14.5215 14.213C14.8715 14.0717 15.2381 14.0007 15.6215 14C16.4548 14 17.1631 14.2917 17.7465 14.875C18.3298 15.4583 18.6215 16.1667 18.6215 17C18.6215 17.8333 18.3298 18.5417 17.7465 19.125C17.1631 19.7083 16.4548 20 15.6215 20ZM15.6215 4C15.9048 4 16.1425 3.90433 16.3345 3.713C16.5265 3.52167 16.6221 3.284 16.6215 3C16.6215 2.71667 16.5255 2.47933 16.3335 2.288C16.1415 2.09667 15.9041 2.00067 15.6215 2C15.3381 2 15.1008 2.096 14.9095 2.288C14.7181 2.48 14.6221 2.71733 14.6215 3C14.6215 3.28333 14.7175 3.521 14.9095 3.713C15.1015 3.905 15.3388 4.00067 15.6215 4ZM3.62146 11C3.90479 11 4.14246 10.904 4.33446 10.712C4.52646 10.52 4.62213 10.2827 4.62146 10C4.62146 9.71667 4.52546 9.47933 4.33346 9.288C4.14146 9.09667 3.90413 9.00067 3.62146 9C3.33813 9 3.10079 9.096 2.90946 9.288C2.71813 9.48 2.62213 9.71733 2.62146 10C2.62146 10.2833 2.71746 10.521 2.90946 10.713C3.10146 10.905 3.33879 11.0007 3.62146 11ZM15.6215 18C15.9048 18 16.1425 17.904 16.3345 17.712C16.5265 17.52 16.6221 17.2827 16.6215 17C16.6215 16.7167 16.5255 16.4793 16.3335 16.288C16.1415 16.0967 15.9041 16.0007 15.6215 16C15.3381 16 15.1008 16.096 14.9095 16.288C14.7181 16.48 14.6221 16.7173 14.6215 17C14.6215 17.2833 14.7175 17.521 14.9095 17.713C15.1015 17.905 15.3388 18.0007 15.6215 18Z" fill="#590209"/>
</svg>
