<svg width="21" height="22" viewBox="0 0 21 22" fill="none" xmlns="http://www.w3.org/2000/svg">
<path d="M10.5 9.875C12.9162 9.875 14.875 11.8338 14.875 14.25V19.5H13.125V14.25C13.125 12.852 12.0322 11.7093 10.6543 11.6295L10.5 11.625C9.10201 11.625 7.9593 12.7178 7.87945 14.0957L7.875 14.25V19.5H6.125V14.25C6.125 11.8338 8.08376 9.875 10.5 9.875ZM4.8125 12.5C5.05649 12.5 5.29383 12.5285 5.52134 12.5824C5.37427 13.0197 5.28389 13.4818 5.25784 13.9606L5.25 14.25L5.25061 14.3249C5.15162 14.2899 5.04718 14.2664 4.9389 14.256L4.8125 14.25C4.13026 14.25 3.56961 14.7705 3.50601 15.4361L3.5 15.5625V19.5H1.75V15.5625C1.75 13.8711 3.12112 12.5 4.8125 12.5ZM16.1875 12.5C17.8789 12.5 19.25 13.8711 19.25 15.5625V19.5H17.5V15.5625C17.5 14.8803 16.9795 14.3197 16.3139 14.256L16.1875 14.25C16.0342 14.25 15.887 14.2762 15.7503 14.3245L15.75 14.25C15.75 13.6675 15.6551 13.1073 15.4801 12.5837C15.7062 12.5285 15.9435 12.5 16.1875 12.5ZM4.8125 7.25C6.02062 7.25 7 8.22938 7 9.4375C7 10.6456 6.02062 11.625 4.8125 11.625C3.60438 11.625 2.625 10.6456 2.625 9.4375C2.625 8.22938 3.60438 7.25 4.8125 7.25ZM16.1875 7.25C17.3956 7.25 18.375 8.22938 18.375 9.4375C18.375 10.6456 17.3956 11.625 16.1875 11.625C14.9794 11.625 14 10.6456 14 9.4375C14 8.22938 14.9794 7.25 16.1875 7.25ZM4.8125 9C4.57088 9 4.375 9.19591 4.375 9.4375C4.375 9.67909 4.57088 9.875 4.8125 9.875C5.05412 9.875 5.25 9.67909 5.25 9.4375C5.25 9.19591 5.05412 9 4.8125 9ZM16.1875 9C15.9459 9 15.75 9.19591 15.75 9.4375C15.75 9.67909 15.9459 9.875 16.1875 9.875C16.4291 9.875 16.625 9.67909 16.625 9.4375C16.625 9.19591 16.4291 9 16.1875 9ZM10.5 2C12.433 2 14 3.567 14 5.5C14 7.433 12.433 9 10.5 9C8.567 9 7 7.433 7 5.5C7 3.567 8.567 2 10.5 2ZM10.5 3.75C9.53347 3.75 8.75 4.5335 8.75 5.5C8.75 6.4665 9.53347 7.25 10.5 7.25C11.4665 7.25 12.25 6.4665 12.25 5.5C12.25 4.5335 11.4665 3.75 10.5 3.75Z" fill="white"/>
</svg>
