<svg width="36" height="36" viewBox="0 0 36 36" fill="none" xmlns="http://www.w3.org/2000/svg">
<circle cx="18" cy="18" r="18" fill="#590209"/>
<path d="M23.2966 9.83539C23.2966 9.71078 23.2471 9.59127 23.159 9.50316C23.0709 9.41504 22.9514 9.36554 22.8268 9.36554H20.4776C19.2946 9.30661 18.1364 9.71829 17.256 10.5106C16.3757 11.303 15.8447 12.4115 15.7791 13.5942V16.1313H13.4299C13.3053 16.1313 13.1857 16.1808 13.0976 16.2689C13.0095 16.357 12.96 16.4766 12.96 16.6012V19.0444C12.96 19.169 13.0095 19.2885 13.0976 19.3766C13.1857 19.4647 13.3053 19.5142 13.4299 19.5142H15.7791V25.8101C15.7791 25.9347 15.8286 26.0543 15.9167 26.1424C16.0048 26.2305 16.1243 26.28 16.2489 26.28H19.068C19.1926 26.28 19.3121 26.2305 19.4002 26.1424C19.4884 26.0543 19.5379 25.9347 19.5379 25.8101V19.5142H21.9999C22.1043 19.5157 22.2063 19.4823 22.2897 19.4194C22.3731 19.3564 22.4331 19.2674 22.4603 19.1665L23.1369 16.7233C23.1556 16.6539 23.1581 16.5811 23.1442 16.5106C23.1304 16.44 23.1005 16.3736 23.0569 16.3164C23.0134 16.2592 22.9572 16.2128 22.8929 16.1807C22.8286 16.1486 22.7577 16.1317 22.6858 16.1313H19.5379V13.5942C19.5612 13.3616 19.6705 13.146 19.8442 12.9896C20.018 12.8333 20.2438 12.7473 20.4776 12.7484H22.8268C22.9514 12.7484 23.0709 12.6989 23.159 12.6108C23.2471 12.5227 23.2966 12.4032 23.2966 12.2786V9.83539Z" fill="white"/>
</svg>
