<svg width="36" height="36" viewBox="0 0 36 36" fill="none" xmlns="http://www.w3.org/2000/svg">
<circle cx="18" cy="18" r="18" fill="#590209"/>
<path d="M28.3702 11.3686C27.5911 11.7132 26.765 11.9396 25.919 12.0403C26.8103 11.5065 27.4772 10.6669 27.7954 9.67795C26.9583 10.1762 26.0405 10.5253 25.0849 10.7142C24.4424 10.0267 23.5907 9.57071 22.6623 9.41719C21.7338 9.26367 20.7807 9.42118 19.951 9.86524C19.1214 10.3093 18.4617 11.015 18.0745 11.8727C17.6873 12.7304 17.5943 13.6919 17.8099 14.6079C16.1121 14.523 14.4511 14.0819 12.9348 13.3133C11.4185 12.5447 10.0809 11.4657 9.00866 10.1465C8.62918 10.7983 8.42976 11.5393 8.43083 12.2935C8.43083 13.7738 9.18528 15.0816 10.3297 15.8473C9.65185 15.8259 8.9889 15.6429 8.39612 15.3134V15.3654C8.39608 16.3515 8.73713 17.3072 9.36142 18.0705C9.9857 18.8338 10.8548 19.3576 11.8213 19.5532C11.192 19.7239 10.5322 19.7491 9.89175 19.6267C10.1643 20.4755 10.6954 21.2178 11.4109 21.7496C12.1263 22.2814 12.9902 22.5761 13.8815 22.5925C12.9957 23.2882 11.9814 23.8024 10.8967 24.1058C9.81205 24.4092 8.67818 24.4958 7.55999 24.3607C9.51168 25.6158 11.7836 26.2821 14.104 26.28C21.9589 26.28 26.2528 19.7737 26.2528 14.1312C26.2528 13.9474 26.2488 13.7616 26.2406 13.5788C27.0761 12.9748 27.7973 12.2257 28.3702 11.3686Z" fill="white"/>
</svg>
