<svg width="162" height="38" viewBox="0 0 162 38" fill="none" xmlns="http://www.w3.org/2000/svg">
<path d="M3.8301 20.092C3.8301 25.2292 7.50795 29.5075 12.3742 30.4373C13.3418 32.2132 14.5307 33.7996 15.8941 35.1402C15.391 35.1935 14.8801 35.2209 14.3629 35.2209C6.43047 35.2209 0 28.7904 0 20.858V0.75H3.8301V20.092Z" fill="white"/>
<path fill-rule="evenodd" clip-rule="evenodd" d="M45.9612 17.9854C45.9612 27.5043 38.2446 35.2209 28.7257 35.2209C19.2069 35.2209 11.4903 27.5043 11.4903 17.9854C11.4903 8.46657 19.2069 0.75 28.7257 0.75C38.2446 0.75 45.9612 8.46657 45.9612 17.9854ZM21.0655 14.1553H34.4709V17.9854C34.4709 19.0431 33.6135 19.9005 32.5558 19.9005H22.9806C21.9229 19.9005 21.0655 19.0431 21.0655 17.9854V14.1553ZM25.8531 23.7306C26.382 23.7306 26.8107 23.3019 26.8107 22.7731C26.8107 22.2442 26.382 21.8155 25.8531 21.8155C25.3243 21.8155 24.8956 22.2442 24.8956 22.7731C24.8956 23.3019 25.3243 23.7306 25.8531 23.7306ZM30.6408 22.7731C30.6408 23.3019 30.2121 23.7306 29.6832 23.7306C29.1544 23.7306 28.7257 23.3019 28.7257 22.7731C28.7257 22.2442 29.1544 21.8155 29.6832 21.8155C30.2121 21.8155 30.6408 22.2442 30.6408 22.7731Z" fill="white"/>
<path d="M64.692 15.4292V23.9972C64.692 24.854 64.9028 25.5136 65.3244 25.976C65.746 26.4384 66.3648 26.6696 67.1808 26.6696C67.9968 26.6696 68.6224 26.4384 69.0576 25.976C69.4928 25.5136 69.7104 24.854 69.7104 23.9972V15.4292H73.1988V23.9768C73.1988 25.2552 72.9268 26.3364 72.3828 27.2204C71.8388 28.1044 71.1044 28.7708 70.1796 29.2196C69.2684 29.6684 68.2484 29.8928 67.1196 29.8928C65.9908 29.8928 64.9776 29.6752 64.08 29.24C63.196 28.7912 62.4956 28.1248 61.9788 27.2408C61.462 26.3432 61.2036 25.2552 61.2036 23.9768V15.4292H64.692ZM82.5844 18.2444C83.9172 18.2444 84.978 18.6796 85.7668 19.55C86.5692 20.4068 86.9704 21.59 86.9704 23.0996V29.75H83.5024V23.5688C83.5024 22.8072 83.3052 22.2156 82.9108 21.794C82.5164 21.3724 81.986 21.1616 81.3196 21.1616C80.6532 21.1616 80.1228 21.3724 79.7284 21.794C79.334 22.2156 79.1368 22.8072 79.1368 23.5688V29.75H75.6484V18.3668H79.1368V19.8764C79.4904 19.3732 79.9664 18.9788 80.5648 18.6932C81.1632 18.394 81.8364 18.2444 82.5844 18.2444ZM91.1489 17.1836C90.5369 17.1836 90.0337 17.0068 89.6393 16.6532C89.2585 16.286 89.0681 15.8372 89.0681 15.3068C89.0681 14.7628 89.2585 14.314 89.6393 13.9604C90.0337 13.5932 90.5369 13.4096 91.1489 13.4096C91.7473 13.4096 92.2369 13.5932 92.6177 13.9604C93.0121 14.314 93.2093 14.7628 93.2093 15.3068C93.2093 15.8372 93.0121 16.286 92.6177 16.6532C92.2369 17.0068 91.7473 17.1836 91.1489 17.1836ZM92.8829 18.3668V29.75H89.3945V18.3668H92.8829ZM94.7173 24.0584C94.7173 22.8752 94.9553 21.8416 95.4313 20.9576C95.9209 20.0736 96.5941 19.3936 97.4509 18.9176C98.3213 18.4416 99.3141 18.2036 100.429 18.2036C101.857 18.2036 103.047 18.5776 103.999 19.3256C104.965 20.0736 105.597 21.1276 105.896 22.4876H102.184C101.871 21.6172 101.266 21.182 100.368 21.182C99.7289 21.182 99.2189 21.4336 98.8381 21.9368C98.4573 22.4264 98.2669 23.1336 98.2669 24.0584C98.2669 24.9832 98.4573 25.6972 98.8381 26.2004C99.2189 26.69 99.7289 26.9348 100.368 26.9348C101.266 26.9348 101.871 26.4996 102.184 25.6292H105.896C105.597 26.962 104.965 28.0092 103.999 28.7708C103.034 29.5324 101.844 29.9132 100.429 29.9132C99.3141 29.9132 98.3213 29.6752 97.4509 29.1992C96.5941 28.7232 95.9209 28.0432 95.4313 27.1592C94.9553 26.2752 94.7173 25.2416 94.7173 24.0584ZM111.251 14.654V29.75H107.762V14.654H111.251ZM115.533 17.1836C114.921 17.1836 114.418 17.0068 114.024 16.6532C113.643 16.286 113.452 15.8372 113.452 15.3068C113.452 14.7628 113.643 14.314 114.024 13.9604C114.418 13.5932 114.921 13.4096 115.533 13.4096C116.132 13.4096 116.621 13.5932 117.002 13.9604C117.396 14.314 117.594 14.7628 117.594 15.3068C117.594 15.8372 117.396 16.286 117.002 16.6532C116.621 17.0068 116.132 17.1836 115.533 17.1836ZM117.267 18.3668V29.75H113.779V18.3668H117.267ZM119.102 24.0788C119.102 22.95 119.333 21.9436 119.795 21.0596C120.271 20.1756 120.904 19.4888 121.692 18.9992C122.495 18.496 123.365 18.2444 124.304 18.2444C125.024 18.2444 125.67 18.3736 126.242 18.632C126.813 18.8768 127.275 19.2236 127.629 19.6724V18.3668H131.117V35.1764H127.629V28.322C127.234 28.798 126.752 29.1788 126.18 29.4644C125.623 29.75 124.984 29.8928 124.263 29.8928C123.338 29.8928 122.481 29.648 121.692 29.1584C120.904 28.6688 120.271 27.982 119.795 27.098C119.333 26.214 119.102 25.2076 119.102 24.0788ZM127.629 24.0584C127.629 23.4464 127.506 22.9364 127.262 22.5284C127.03 22.1068 126.724 21.794 126.344 21.59C125.963 21.3724 125.562 21.2636 125.14 21.2636C124.732 21.2636 124.338 21.3724 123.957 21.59C123.576 21.794 123.263 22.1068 123.018 22.5284C122.774 22.95 122.651 23.4668 122.651 24.0788C122.651 24.6908 122.774 25.2076 123.018 25.6292C123.263 26.0372 123.576 26.35 123.957 26.5676C124.338 26.7716 124.732 26.8736 125.14 26.8736C125.548 26.8736 125.942 26.7716 126.323 26.5676C126.718 26.35 127.03 26.0304 127.262 25.6088C127.506 25.1872 127.629 24.6704 127.629 24.0584ZM144.881 18.3668V29.75H141.393V28.1996C141.039 28.7028 140.557 29.1108 139.945 29.4236C139.346 29.7228 138.68 29.8724 137.945 29.8724C137.075 29.8724 136.307 29.682 135.64 29.3012C134.974 28.9068 134.457 28.3424 134.09 27.608C133.723 26.8736 133.539 26.01 133.539 25.0172V18.3668H137.007V24.548C137.007 25.3096 137.204 25.9012 137.599 26.3228C137.993 26.7444 138.523 26.9552 139.19 26.9552C139.87 26.9552 140.407 26.7444 140.801 26.3228C141.196 25.9012 141.393 25.3096 141.393 24.548V18.3668H144.881ZM158.117 23.8748C158.117 24.2012 158.097 24.5412 158.056 24.8948H150.161C150.216 25.602 150.44 26.146 150.835 26.5268C151.243 26.894 151.739 27.0776 152.324 27.0776C153.194 27.0776 153.799 26.7104 154.139 25.976H157.852C157.662 26.724 157.315 27.3972 156.812 27.9956C156.322 28.594 155.703 29.0632 154.955 29.4032C154.207 29.7432 153.371 29.9132 152.446 29.9132C151.331 29.9132 150.338 29.6752 149.468 29.1992C148.597 28.7232 147.917 28.0432 147.428 27.1592C146.938 26.2752 146.693 25.2416 146.693 24.0584C146.693 22.8752 146.931 21.8416 147.407 20.9576C147.897 20.0736 148.577 19.3936 149.447 18.9176C150.318 18.4416 151.317 18.2036 152.446 18.2036C153.548 18.2036 154.527 18.4348 155.384 18.8972C156.241 19.3596 156.907 20.0192 157.383 20.876C157.873 21.7328 158.117 22.7324 158.117 23.8748ZM154.547 22.9568C154.547 22.3584 154.343 21.8824 153.935 21.5288C153.527 21.1752 153.017 20.9984 152.405 20.9984C151.821 20.9984 151.324 21.1684 150.916 21.5084C150.522 21.8484 150.277 22.3312 150.182 22.9568H154.547Z" fill="white"/>
</svg>
