<svg width="180" height="135" viewBox="0 0 180 135" fill="none" xmlns="http://www.w3.org/2000/svg">
<path d="M15 75.75C15 95.8693 29.4037 112.624 48.4619 116.266C52.2511 123.221 56.9074 129.434 62.2467 134.684C60.2764 134.893 58.2757 135 56.25 135C25.184 135 0 109.816 0 78.75V0H15V75.75Z" fill="#590209"/>
<path fill-rule="evenodd" clip-rule="evenodd" d="M180 67.5C180 104.779 149.779 135 112.5 135C75.2208 135 45 104.779 45 67.5C45 30.2208 75.2208 0 112.5 0C149.779 0 180 30.2208 180 67.5ZM82.5 52.5H135V67.5C135 71.6421 131.642 75 127.5 75H90C85.8579 75 82.5 71.6421 82.5 67.5V52.5ZM101.25 90C103.321 90 105 88.3211 105 86.25C105 84.1789 103.321 82.5 101.25 82.5C99.1789 82.5 97.5 84.1789 97.5 86.25C97.5 88.3211 99.1789 90 101.25 90ZM120 86.25C120 88.3211 118.321 90 116.25 90C114.179 90 112.5 88.3211 112.5 86.25C112.5 84.1789 114.179 82.5 116.25 82.5C118.321 82.5 120 84.1789 120 86.25Z" fill="#590209"/>
</svg>
