<svg width="26" height="26" viewBox="0 0 26 26" fill="none" xmlns="http://www.w3.org/2000/svg">
<path d="M13 20.28C17.0206 20.28 20.28 17.0206 20.28 13C20.28 8.97937 17.0206 5.72 13 5.72C8.97937 5.72 5.72 8.97937 5.72 13C5.72 17.0206 8.97937 20.28 13 20.28Z" fill="#590209"/>
<path fill-rule="evenodd" clip-rule="evenodd" d="M26 13C26 20.1797 20.1797 26 13 26C5.8203 26 0 20.1797 0 13C0 5.8203 5.8203 0 13 0C20.1797 0 26 5.8203 26 13ZM23.92 13C23.92 19.0309 19.0309 23.92 13 23.92C6.96905 23.92 2.08 19.0309 2.08 13C2.08 6.96905 6.96905 2.08 13 2.08C19.0309 2.08 23.92 6.96905 23.92 13Z" fill="#590209"/>
</svg>
