<svg width="36" height="36" viewBox="0 0 36 36" fill="none" xmlns="http://www.w3.org/2000/svg">
<circle cx="18" cy="18" r="18" fill="#590209"/>
<path d="M17.8177 13.8391C15.4156 13.8391 13.477 15.7777 13.477 18.1798C13.477 20.5819 15.4156 22.5205 17.8177 22.5205C20.2198 22.5205 22.1584 20.5819 22.1584 18.1798C22.1584 15.7777 20.2198 13.8391 17.8177 13.8391ZM17.8177 21.001C16.2643 21.001 14.9966 19.7332 14.9966 18.1798C14.9966 16.6264 16.2643 15.3587 17.8177 15.3587C19.3712 15.3587 20.6389 16.6264 20.6389 18.1798C20.6389 19.7332 19.3712 21.001 17.8177 21.001ZM22.3362 12.6497C21.7754 12.6497 21.3225 13.1026 21.3225 13.6634C21.3225 14.2243 21.7754 14.6772 22.3362 14.6772C22.8971 14.6772 23.35 14.2264 23.35 13.6634C23.3501 13.5303 23.324 13.3984 23.2731 13.2753C23.2223 13.1522 23.1476 13.0404 23.0534 12.9462C22.9593 12.8521 22.8474 12.7774 22.7244 12.7265C22.6013 12.6756 22.4694 12.6495 22.3362 12.6497ZM26.2791 18.1798C26.2791 17.0116 26.2896 15.8539 26.224 14.6878C26.1584 13.3333 25.8494 12.1312 24.859 11.1407C23.8664 10.1481 22.6664 9.84123 21.3119 9.77563C20.1436 9.71002 18.986 9.7206 17.8198 9.7206C16.6516 9.7206 15.4939 9.71002 14.3278 9.77563C12.9733 9.84123 11.7712 10.1502 10.7807 11.1407C9.78814 12.1333 9.48126 13.3333 9.41565 14.6878C9.35004 15.856 9.36063 17.0137 9.36063 18.1798C9.36063 19.3459 9.35004 20.5057 9.41565 21.6719C9.48126 23.0263 9.79025 24.2285 10.7807 25.2189C11.7733 26.2115 12.9733 26.5184 14.3278 26.584C15.496 26.6496 16.6537 26.639 17.8198 26.639C18.9881 26.639 20.1458 26.6496 21.3119 26.584C22.6664 26.5184 23.8685 26.2094 24.859 25.2189C25.8515 24.2263 26.1584 23.0263 26.224 21.6719C26.2918 20.5057 26.2791 19.3481 26.2791 18.1798ZM24.4166 23.1703C24.2621 23.5554 24.0759 23.8433 23.7775 24.1396C23.4791 24.438 23.1934 24.6242 22.8082 24.7787C21.695 25.221 19.0516 25.1216 17.8177 25.1216C16.5839 25.1216 13.9384 25.221 12.8252 24.7808C12.44 24.6263 12.1521 24.4401 11.8559 24.1417C11.5574 23.8433 11.3712 23.5576 11.2167 23.1724C10.7765 22.057 10.876 19.4137 10.876 18.1798C10.876 16.946 10.7765 14.3005 11.2167 13.1872C11.3712 12.8021 11.5574 12.5142 11.8559 12.2179C12.1543 11.9216 12.44 11.7333 12.8252 11.5788C13.9384 11.1386 16.5839 11.2381 17.8177 11.2381C19.0516 11.2381 21.6971 11.1386 22.8103 11.5788C23.1955 11.7333 23.4833 11.9195 23.7796 12.2179C24.078 12.5164 24.2642 12.8021 24.4187 13.1872C24.859 14.3005 24.7595 16.946 24.7595 18.1798C24.7595 19.4137 24.859 22.057 24.4166 23.1703Z" fill="white"/>
</svg>
