<svg width="12" height="11" viewBox="0 0 12 11" fill="none" xmlns="http://www.w3.org/2000/svg">
<path d="M10.8744 5.00869L8.76036 6.85369L9.39364 9.60056C9.42716 9.74416 9.41759 9.89445 9.36615 10.0326C9.31471 10.1708 9.22368 10.2908 9.10443 10.3775C8.98518 10.4643 8.84301 10.5139 8.69569 10.5203C8.54837 10.5267 8.40244 10.4895 8.27614 10.4134L5.88036 8.96025L3.48974 10.4134C3.36344 10.4895 3.21751 10.5267 3.07019 10.5203C2.92287 10.5139 2.7807 10.4643 2.66145 10.3775C2.5422 10.2908 2.45117 10.1708 2.39973 10.0326C2.34829 9.89445 2.33873 9.74416 2.37224 9.60056L3.00458 6.8565L0.890049 5.00869C0.77821 4.91223 0.697338 4.7849 0.657576 4.64266C0.617813 4.50042 0.620931 4.34961 0.666536 4.20914C0.712142 4.06867 0.798206 3.94479 0.913936 3.85304C1.02967 3.76128 1.16991 3.70574 1.31708 3.69337L4.10427 3.45197L5.19224 0.856967C5.24905 0.720803 5.34489 0.604492 5.46767 0.522682C5.59045 0.440871 5.7347 0.397217 5.88224 0.397217C6.02978 0.397217 6.17402 0.440871 6.29681 0.522682C6.41959 0.604492 6.51542 0.720803 6.57224 0.856967L7.66349 3.45197L10.4497 3.69337C10.5969 3.70574 10.7372 3.76128 10.8529 3.85304C10.9686 3.94479 11.0547 4.06867 11.1003 4.20914C11.1459 4.34961 11.149 4.50042 11.1092 4.64266C11.0695 4.7849 10.9886 4.91223 10.8768 5.00869H10.8744Z" fill="#FFB800"/>
</svg>
